<?xml version="1.0" encoding="UTF-8" standalone="no"?>
<!-- Generator: Adobe Illustrator 22.1.0, SVG Export Plug-In . SVG Version: 6.00 Build 0)  -->

<svg
   xmlns:dc="http://purl.org/dc/elements/1.1/"
   xmlns:cc="http://creativecommons.org/ns#"
   xmlns:rdf="http://www.w3.org/1999/02/22-rdf-syntax-ns#"
   xmlns:svg="http://www.w3.org/2000/svg"
   xmlns="http://www.w3.org/2000/svg"
   xmlns:sodipodi="http://sodipodi.sourceforge.net/DTD/sodipodi-0.dtd"
   xmlns:inkscape="http://www.inkscape.org/namespaces/inkscape"
   version="1.1"
   id="Layer_1"
   x="0px"
   y="0px"
   viewBox="0 0 400.00001 224.99999"
   xml:space="preserve"
   sodipodi:docname="LNLS-Assinatura_EN.svg"
   width="400"
   height="225"
   inkscape:version="0.92.1 r15371"><metadata
     id="metadata265"><rdf:RDF><cc:Work
         rdf:about=""><dc:format>image/svg+xml</dc:format><dc:type
           rdf:resource="http://purl.org/dc/dcmitype/StillImage" /><dc:title></dc:title></cc:Work></rdf:RDF></metadata><defs
     id="defs263" /><sodipodi:namedview
     pagecolor="#ffffff"
     bordercolor="#666666"
     borderopacity="1"
     objecttolerance="10"
     gridtolerance="10"
     guidetolerance="10"
     inkscape:pageopacity="0"
     inkscape:pageshadow="2"
     inkscape:window-width="1366"
     inkscape:window-height="715"
     id="namedview261"
     showgrid="false"
     inkscape:zoom="0.55503291"
     inkscape:cx="103.33897"
     inkscape:cy="140.53221"
     inkscape:window-x="-8"
     inkscape:window-y="-8"
     inkscape:window-maximized="1"
     inkscape:current-layer="Layer_1" /><style
     type="text/css"
     id="style2">
	.st0{fill:#FFFFFF;}
	.st1{fill:#0077B8;}
	.st2{fill-rule:evenodd;clip-rule:evenodd;}
	.st3{fill:none;stroke:#000000;stroke-width:0.25;stroke-miterlimit:10;}
</style><rect
     x="8.1864309"
     y="2.0915165"
     class="st0"
     width="184.2"
     height="223.3"
     id="rect4"
     style="fill:#ffffff" /><g
     id="g132"
     transform="translate(-124.71356,-98.90848)"><g
       id="g58"><g
         id="g26"><g
           id="g15"><g
             id="XMLID_4_"><g
               id="g10"><path
                 class="st1"
                 d="m 266.3,304.6 c -0.1,0.2 -2.3,0 -2.6,0.1 -1.5,0 -7.6,0 -8.9,0.2 -0.2,0.4 -0.8,1.8 -1.3,1.6 -0.2,0 0,0.4 -0.1,0.5 -0.2,0 -0.2,-0.3 -0.4,-0.3 -0.4,1.6 -0.3,6.6 -0.3,8.6 -0.6,-1.4 0.5,-9.2 -1.3,-8.7 -0.4,-0.5 -0.7,-1.1 -0.9,-1.5 -0.9,-0.6 -8.3,-0.2 -9.6,-0.4 0.9,-0.4 8.3,-0.1 9.5,-0.4 0.4,-0.8 0.8,-1.8 1.9,-1.9 0.2,-1.5 0.1,-8.1 0.2,-9.8 0.6,1.4 -0.2,9.2 0.6,10.2 0.3,-0.4 0.3,0.1 0.9,0 0.1,0.7 0.8,0.8 0.8,1.6 1.8,0 9.7,0.1 11.5,0.2 z"
                 id="path8"
                 inkscape:connector-curvature="0"
                 style="fill:#0077b8" /></g><g
               id="g12" /></g></g><g
           id="g24"><g
             id="XMLID_3_"><g
               id="g19"><path
                 class="st1"
                 d="m 256.7,300.5 c 0,0.1 -0.2,0.3 -0.3,0.4 -0.5,0.5 -2.6,2.6 -3,3.1 0.1,0.2 0.3,0.9 0.1,1 -0.1,0.1 0.1,0.1 0.2,0.2 -0.1,0.1 -0.2,0 -0.3,0 0.4,0.7 2.8,3 3.5,3.7 -0.7,-0.3 -3.6,-4 -4.1,-3.2 -0.3,0 -0.6,-0.1 -0.8,-0.2 -0.5,0.1 -2.9,2.8 -3.4,3.1 0.2,-0.4 2.8,-2.9 3.1,-3.4 -0.1,-0.4 -0.4,-0.9 0,-1.3 -0.5,-0.6 -3.4,-3.5 -3.9,-4.1 0.7,0.3 3.7,3.9 4.4,3.9 0,-0.2 0.1,0 0.3,-0.3 0.3,0.2 0.5,0 0.8,0.3 0.6,-0.4 2.8,-2.6 3.4,-3.2 z"
                 id="path17"
                 inkscape:connector-curvature="0"
                 style="fill:#0077b8" /></g><g
               id="g21" /></g></g></g><g
         id="g40"><path
           class="st1"
           d="m 139.2,109.9 v 141.2 h 24.9 c -2.2,-3.9 -3.5,-8.4 -3.5,-13.2 0,-14.7 11.9,-26.6 26.6,-26.6 14.7,0 26.6,11.9 26.6,26.6 0,4.8 -1.3,9.3 -3.5,13.2 h 63.2 c -0.6,-0.7 -1.1,-1.3 -1.6,-1.9 -13.8,-15.5 -31.4,-29.4 -54.1,-37.1 -7.2,-2.4 -15.2,-3.7 -22.4,-5 7.2,-1.3 14.7,-2 22.3,-2 22.2,0 42.9,5.9 61.2,15.7 5.3,2.8 18.7,10.7 31,17.9 V 109.9 Z m 17.3,119.7 c -1.3,-7.2 -2,-14.7 -2,-22.3 0,-22.2 6,-42.9 15.7,-61.2 4.4,-8.2 10.2,-17.9 17.8,-30.6 l 34.7,20 c 0,0 -15.8,10.2 -24.1,17.7 -15.5,13.8 -29.4,31.4 -37.1,54 -2.4,7.2 -3.7,15.2 -5,22.4 z m 8.1,-14.3 c 2.5,-6.9 5.6,-13.7 9.4,-20.3 11.1,-19.2 26.6,-34.2 44.2,-45.2 7.8,-4.9 17.8,-10.4 30.7,-17.7 l 20.1,34.6 c 0,0 -18.8,1 -29.7,3.3 -20.3,4.2 -41.2,12.5 -59.1,28.3 -5.7,5.1 -10.8,11.4 -15.6,17 z m 129,2.2 c 0,0 -16.7,-8.6 -27.3,-12.1 -19.7,-6.5 -41.9,-9.9 -65.3,-5.3 -7.5,1.5 -15,4.3 -22,6.8 5.6,-4.7 11.8,-9 18.3,-12.8 19.2,-11.1 40.2,-16.2 60.9,-16.9 9.2,-0.3 20.7,-0.1 35.4,0.1 z"
           id="path28"
           inkscape:connector-curvature="0"
           style="fill:#0077b8" /><g
           id="g38"><polyline
             class="st2"
             points="185.5,259.1 185.5,280.4 192.6,280.4 192.6,265.3 207.7,280.4 214,280.4 214,259.1 206.8,259.1       206.9,274.3 191.6,259.1 185.5,259.1     "
             id="polyline30"
             style="clip-rule:evenodd;fill-rule:evenodd" /><path
             d="m 146.4,273.3 c 0,2 1.6,3.5 3.5,3.5 h 14.2 v 3.6 h -17.9 c -3.9,0 -7.1,-3.1 -7.1,-7.1 V 259 h 7.2 l 0.1,14.3"
             id="path32"
             inkscape:connector-curvature="0" /><path
             d="m 244.2,273.3 c 0,2 1.6,3.5 3.5,3.5 H 262 v 3.6 h -17.9 c -3.9,0 -7.1,-3.1 -7.1,-7.1 V 259 h 7.2 v 14.3"
             id="path34"
             inkscape:connector-curvature="0" /><path
             d="m 291.4,268 c -1.5,0 -2.7,-1.2 -2.7,-2.7 0,-1.5 1.2,-2.7 2.7,-2.7 h 16.9 V 259 h -20.5 c -3.4,0 -6.2,2.8 -6.2,6.2 0,3.4 2.8,6.2 6.2,6.2 h 12.5 c 1.5,0 2.7,1.2 2.7,2.7 0,1.5 -1.2,2.7 -2.7,2.7 h -16.9 v 3.6 h 20.5 c 3.4,0 6.2,-2.8 6.2,-6.2 0,-3.4 -2.8,-6.2 -6.2,-6.2 h -12.5"
             id="path36"
             inkscape:connector-curvature="0" /></g></g><g
         id="g54"><path
           d="m 277.6,307 c 0,0.3 -0.1,0.5 -0.2,0.7 -0.1,0.2 -0.2,0.4 -0.4,0.6 -0.2,0.2 -0.4,0.3 -0.6,0.4 -0.2,0.1 -0.5,0.1 -0.7,0.1 h -5.8 v -1.7 h 5.8 c 0.1,0 0.1,0 0.1,-0.1 0,0 0.1,-0.1 0.1,-0.1 0,-0.1 0,-0.2 -0.1,-0.2 l -4.9,-2.9 c -0.3,-0.2 -0.5,-0.4 -0.7,-0.7 -0.2,-0.3 -0.3,-0.6 -0.3,-1 0,-0.3 0.1,-0.5 0.2,-0.7 0.1,-0.2 0.2,-0.4 0.4,-0.6 0.2,-0.2 0.4,-0.3 0.6,-0.4 0.2,-0.1 0.5,-0.2 0.7,-0.2 h 4.9 v 1.7 h -4.9 c -0.1,0 -0.1,0 -0.2,0.1 0,0 -0.1,0.1 -0.1,0.2 0,0 0,0.1 0.1,0.2 l 4.9,2.9 c 0.3,0.2 0.5,0.4 0.7,0.7 0.3,0.3 0.4,0.6 0.4,1 z"
           id="path42"
           inkscape:connector-curvature="0" /><path
           d="M 278.7,298.7 V 297 h 1.7 v 1.7 z m 0,10.2 v -8.5 h 1.7 v 8.5 z"
           id="path44"
           inkscape:connector-curvature="0" /><path
           d="m 283.6,302.1 c -0.1,0 -0.2,0.1 -0.2,0.2 v 6.6 h -1.7 v -6.6 c 0,-0.3 0.1,-0.5 0.2,-0.7 0.1,-0.2 0.2,-0.4 0.4,-0.6 0.2,-0.2 0.4,-0.3 0.6,-0.4 0.2,-0.1 0.5,-0.2 0.7,-0.2 h 4.9 v 1.7 z"
           id="path46"
           inkscape:connector-curvature="0" /><path
           d="M 289.5,298.7 V 297 h 1.7 v 1.7 z m 0,10.2 v -8.5 h 1.7 v 8.5 z"
           id="path48"
           inkscape:connector-curvature="0" /><path
           d="m 300.1,307.7 c -0.1,0.2 -0.2,0.4 -0.4,0.6 -0.2,0.2 -0.4,0.3 -0.6,0.4 -0.2,0.1 -0.5,0.2 -0.8,0.2 h -3.8 c -0.5,0 -1,-0.2 -1.4,-0.6 -0.4,-0.4 -0.6,-0.8 -0.6,-1.4 v -6.6 h 1.7 v 6.6 c 0,0.1 0,0.1 0.1,0.2 0,0 0.1,0.1 0.2,0.1 h 3.8 c 0.1,0 0.1,0 0.2,-0.1 0,0 0.1,-0.1 0.1,-0.2 v -6.6 h 1.7 v 6.6 c -0.1,0.3 -0.1,0.6 -0.2,0.8 z"
           id="path50"
           inkscape:connector-curvature="0" /><path
           d="m 308.8,307 c 0,0.3 -0.1,0.5 -0.2,0.7 -0.1,0.2 -0.2,0.4 -0.4,0.6 -0.2,0.2 -0.4,0.3 -0.6,0.4 -0.2,0.1 -0.5,0.1 -0.7,0.1 h -5.8 v -1.7 h 5.8 c 0.1,0 0.1,0 0.1,-0.1 0,0 0.1,-0.1 0.1,-0.1 0,-0.1 0,-0.2 -0.1,-0.2 l -4.9,-2.9 c -0.3,-0.2 -0.5,-0.4 -0.7,-0.7 -0.2,-0.3 -0.3,-0.6 -0.3,-1 0,-0.3 0.1,-0.5 0.2,-0.7 0.1,-0.2 0.2,-0.4 0.4,-0.6 0.2,-0.2 0.4,-0.3 0.6,-0.4 0.2,-0.1 0.5,-0.2 0.7,-0.2 h 4.9 v 1.7 H 303 c -0.1,0 -0.1,0 -0.2,0.1 0,0 -0.1,0.1 -0.1,0.2 0,0 0,0.1 0.1,0.2 l 4.9,2.9 c 0.3,0.2 0.5,0.4 0.7,0.7 0.3,0.3 0.4,0.6 0.4,1 z"
           id="path52"
           inkscape:connector-curvature="0" /></g><line
         class="st3"
         x1="139.2"
         y1="290.20001"
         x2="310"
         y2="290.20001"
         id="line56"
         style="fill:none;stroke:#000000;stroke-width:0.25;stroke-miterlimit:10" /></g><g
       id="g130"><path
         d="m 338.2,239.5 h 4.1 c 3.1,0 4.5,1.7 4.5,4.1 0,1.8 -1,3.1 -2.7,3.6 v 0 c 1.8,0.3 3,1.7 3,4 0,2.2 -1.5,4.4 -5,4.4 h -3.9 z m 2,7 h 1.2 c 2.3,0 3.3,-1 3.3,-2.8 0,-1.4 -0.8,-2.5 -3,-2.5 h -1.5 z m 0,7.5 h 1.7 c 2.2,0 3.1,-1.4 3.1,-2.9 0,-1.7 -0.9,-2.9 -2.9,-2.9 h -2 v 5.8 z"
         id="path60"
         inkscape:connector-curvature="0" /><path
         d="m 349.6,246.4 c 0,-0.9 -0.1,-1.7 -0.1,-2.5 h 1.9 l 0.1,1.8 v 0 c 0.6,-1.4 1.6,-2 3.3,-2 v 1.9 c -0.2,0 -0.5,-0.1 -0.7,-0.1 -1.5,0 -2.6,1.3 -2.6,3.9 v 6.2 h -1.9 z"
         id="path62"
         inkscape:connector-curvature="0" /><path
         d="m 356.6,244.7 c 1,-0.6 2.2,-1 3.3,-1 1.7,0 2.8,0.7 3.1,1.1 0.5,0.5 1,1.2 1,2.9 v 6.1 c 0,0.7 0,1.4 0.1,1.8 h -1.8 l -0.1,-1.6 v 0 c -0.5,0.9 -1.5,1.8 -3.3,1.8 -1.9,0 -3.4,-1.1 -3.4,-3.4 0,-2.3 1.5,-4 5.5,-4 h 1.1 v -0.5 c 0,-0.9 -0.1,-1.4 -0.4,-1.9 -0.4,-0.5 -1.2,-0.7 -2,-0.7 -1.2,0 -2.4,0.5 -3,1.2 z m 5.6,5.1 c -0.3,0 -0.8,0 -1.4,0 -2.3,0 -3.4,1.1 -3.4,2.4 0,1.2 0.6,2.1 2,2.1 1.7,0 2.7,-1.4 2.7,-3 v -1.5 z"
         id="path64"
         inkscape:connector-curvature="0" /><path
         d="m 373.3,243.9 v 1.8 l -5.4,8.3 h 5.6 v 1.7 H 366 v -1.8 l 5.4,-8.3 h -5.3 v -1.7 z"
         id="path66"
         inkscape:connector-curvature="0" /><path
         d="m 377.5,239 v 2.3 h -2.1 V 239 Z m -2,4.9 h 1.9 v 11.8 h -1.9 z"
         id="path68"
         inkscape:connector-curvature="0" /><path
         d="m 380.4,238.3 h 1.9 v 17.3 h -1.9 z"
         id="path70"
         inkscape:connector-curvature="0" /><path
         d="m 387.3,239 v 2.3 h -2.1 V 239 Z m -2,4.9 h 1.9 v 11.8 h -1.9 z"
         id="path72"
         inkscape:connector-curvature="0" /><path
         d="m 390.5,244.7 c 1,-0.6 2.2,-1 3.3,-1 1.7,0 2.8,0.7 3.1,1.1 0.5,0.5 1,1.2 1,2.9 v 6.1 c 0,0.7 0,1.4 0.1,1.8 h -1.8 l -0.1,-1.6 v 0 c -0.5,0.9 -1.5,1.8 -3.3,1.8 -1.9,0 -3.4,-1.1 -3.4,-3.4 0,-2.3 1.5,-4 5.5,-4 h 1.1 v -0.5 c 0,-0.9 -0.1,-1.4 -0.4,-1.9 -0.4,-0.5 -1.2,-0.7 -2,-0.7 -1.2,0 -2.4,0.5 -3,1.2 z m 5.6,5.1 c -0.3,0 -0.8,0 -1.4,0 -2.3,0 -3.4,1.1 -3.4,2.4 0,1.2 0.6,2.1 2,2.1 1.7,0 2.7,-1.4 2.7,-3 v -1.5 z"
         id="path74"
         inkscape:connector-curvature="0" /><path
         d="m 400.4,246.4 c 0,-0.9 -0.1,-1.7 -0.1,-2.5 h 1.9 l 0.1,1.8 v 0 c 0.6,-1.3 1.6,-1.9 3,-1.9 2.1,0 3.4,1.2 3.4,3.8 v 8.2 h -1.9 V 248 c 0,-1.9 -0.7,-2.7 -1.9,-2.7 -1.5,0 -2.5,1.1 -2.5,3.2 v 7.1 h -1.9 v -9.2 z"
         id="path76"
         inkscape:connector-curvature="0" /><path
         d="m 423.6,241.8 c -0.8,-0.5 -1.8,-0.7 -2.7,-0.7 -1.5,0 -2.5,1 -2.5,2.4 0,1 0.4,1.7 2.7,3 2.5,1.4 3.3,2.8 3.3,4.7 0,2.6 -1.6,4.6 -4.7,4.6 -1.3,0 -2.5,-0.3 -3.4,-0.7 V 253 c 0.9,0.6 2.1,1 3.1,1 1.8,0 2.9,-1.2 2.9,-2.5 0,-1.2 -0.3,-2 -2.5,-3.3 -2.9,-1.8 -3.6,-2.7 -3.6,-4.8 0,-2.6 2,-4 4.5,-4 1.1,0 2.2,0.2 2.9,0.5 z"
         id="path78"
         inkscape:connector-curvature="0" /><path
         d="m 430.3,258 c -0.6,2 -1.4,2.7 -2.9,2.7 -0.5,0 -1,0 -1.3,-0.1 l 0.1,-1.8 c 0.3,0.1 0.6,0.2 1.1,0.2 0.6,0 1,-0.3 1.3,-1.5 l 0.5,-1.8 -3.7,-11.9 h 2 l 2.6,9.6 v 0 l 2.4,-9.6 h 1.9 z"
         id="path80"
         inkscape:connector-curvature="0" /><path
         d="m 435.8,246.4 c 0,-0.9 -0.1,-1.7 -0.1,-2.5 h 1.9 l 0.1,1.8 v 0 c 0.6,-1.3 1.6,-1.9 3,-1.9 2.1,0 3.4,1.2 3.4,3.8 v 8.2 h -1.9 V 248 c 0,-1.9 -0.7,-2.7 -1.9,-2.7 -1.5,0 -2.5,1.1 -2.5,3.2 v 7.1 h -1.9 v -9.2 z"
         id="path82"
         inkscape:connector-curvature="0" /><path
         d="m 453.6,245.9 c -0.7,-0.4 -1.3,-0.6 -2.2,-0.6 -1.9,0 -3.2,1.3 -3.2,4.5 0,2.7 1.3,4.3 3.2,4.3 0.9,0 1.7,-0.3 2.4,-0.6 l 0.1,1.8 c -0.6,0.3 -1.6,0.5 -2.5,0.5 -3.5,0 -5.2,-2.6 -5.2,-5.9 0,-3.8 2,-6.2 5.3,-6.2 0.8,0 1.7,0.2 2.3,0.5 z"
         id="path84"
         inkscape:connector-curvature="0" /><path
         d="m 455.4,238.3 h 1.9 v 7.1 0 c 0.5,-1 1.5,-1.8 2.9,-1.8 2.1,0 3.4,1.2 3.4,3.8 v 8.2 h -1.9 V 248 c 0,-1.9 -0.7,-2.7 -1.9,-2.7 -1.5,0 -2.5,1.1 -2.5,3.2 v 7.1 h -1.9 z"
         id="path86"
         inkscape:connector-curvature="0" /><path
         d="m 466.2,246.4 c 0,-0.9 -0.1,-1.7 -0.1,-2.5 h 1.9 l 0.1,1.8 v 0 c 0.6,-1.4 1.6,-2 3.3,-2 v 1.9 c -0.2,0 -0.5,-0.1 -0.7,-0.1 -1.5,0 -2.6,1.3 -2.6,3.9 v 6.2 h -1.9 z"
         id="path88"
         inkscape:connector-curvature="0" /><path
         d="m 477,243.7 c 3.1,0 4.7,2.4 4.7,6 0,3.7 -1.6,6 -4.7,6 -3.1,0 -4.7,-2.4 -4.7,-6 0,-3.7 1.6,-6 4.7,-6 z m 0,10.5 c 1.8,0 2.7,-1.5 2.7,-4.5 0,-3 -0.9,-4.5 -2.7,-4.5 -1.8,0 -2.7,1.5 -2.7,4.5 0,3 0.8,4.5 2.7,4.5 z"
         id="path90"
         inkscape:connector-curvature="0" /><path
         d="m 488.9,255.5 c -0.5,0.2 -1.1,0.3 -1.6,0.3 -1.8,0 -2.7,-0.7 -2.7,-2.8 v -7.6 h -1.9 v -1.6 h 1.9 v -2.4 l 1.9,-0.6 v 3 h 2.4 v 1.6 h -2.4 v 6.9 c 0,1.3 0.3,1.8 1.2,1.8 0.5,0 0.8,-0.1 1.2,-0.3 z"
         id="path92"
         inkscape:connector-curvature="0" /><path
         d="m 490.3,246.4 c 0,-0.9 -0.1,-1.7 -0.1,-2.5 h 1.9 l 0.1,1.8 v 0 c 0.6,-1.4 1.6,-2 3.3,-2 v 1.9 c -0.2,0 -0.5,-0.1 -0.7,-0.1 -1.5,0 -2.6,1.3 -2.6,3.9 v 6.2 h -1.9 z"
         id="path94"
         inkscape:connector-curvature="0" /><path
         d="m 501,243.7 c 3.1,0 4.7,2.4 4.7,6 0,3.7 -1.6,6 -4.7,6 -3.1,0 -4.7,-2.4 -4.7,-6 0,-3.7 1.6,-6 4.7,-6 z m 0,10.5 c 1.8,0 2.7,-1.5 2.7,-4.5 0,-3 -0.9,-4.5 -2.7,-4.5 -1.8,0 -2.7,1.5 -2.7,4.5 0,3 0.9,4.5 2.7,4.5 z"
         id="path96"
         inkscape:connector-curvature="0" /><path
         d="m 507.8,246.4 c 0,-0.9 -0.1,-1.7 -0.1,-2.5 h 1.9 l 0.1,1.8 v 0 c 0.6,-1.3 1.6,-1.9 3,-1.9 2.1,0 3.4,1.2 3.4,3.8 v 8.2 h -1.9 V 248 c 0,-1.9 -0.7,-2.7 -1.9,-2.7 -1.5,0 -2.5,1.1 -2.5,3.2 v 7.1 h -1.9 v -9.2 z"
         id="path98"
         inkscape:connector-curvature="0" /><path
         d="m 338.2,263.7 h 2 V 278 h 5.3 v 1.8 h -7.3 z"
         id="path100"
         inkscape:connector-curvature="0" /><path
         d="m 349.2,263.2 v 2.3 h -2.1 v -2.3 z m -2,4.8 h 1.9 v 11.8 h -1.9 z"
         id="path102"
         inkscape:connector-curvature="0" /><path
         d="m 360.3,280.3 c 0,3.2 -2.4,4.6 -5,4.6 -1,0 -2.6,-0.4 -3.4,-0.7 l 0.1,-2 c 0.8,0.6 2.2,1 3.2,1 2.4,0 3.3,-1.4 3.3,-3.4 v -1.8 0 c -0.8,1.3 -1.8,2 -3.1,2 -2.4,0 -4.1,-2 -4.1,-6 0,-4.1 1.6,-6 4.3,-6 1.2,0 2.2,0.7 2.9,1.9 v 0 l 0.1,-1.7 h 1.9 c 0,0.7 -0.1,1.4 -0.1,2.1 v 10 z m -4.5,-2 c 1.8,0 2.6,-1.5 2.6,-4.5 0,-3 -0.8,-4.5 -2.6,-4.5 -1.8,0 -2.6,1.5 -2.6,4.5 0,3 0.8,4.5 2.6,4.5 z"
         id="path104"
         inkscape:connector-curvature="0" /><path
         d="m 362.7,262.5 h 1.9 v 7.1 0 c 0.5,-1 1.5,-1.8 2.9,-1.8 2.1,0 3.4,1.2 3.4,3.8 v 8.2 H 369 v -7.6 c 0,-1.9 -0.7,-2.7 -1.9,-2.7 -1.5,0 -2.5,1.1 -2.5,3.2 v 7.1 h -1.9 z"
         id="path106"
         inkscape:connector-curvature="0" /><path
         d="m 378.8,279.6 c -0.5,0.2 -1.1,0.3 -1.6,0.3 -1.8,0 -2.7,-0.7 -2.7,-2.8 v -7.6 h -1.9 V 268 h 1.9 v -2.4 l 1.9,-0.6 v 3 h 2.4 v 1.6 h -2.4 v 6.9 c 0,1.3 0.3,1.8 1.2,1.8 0.5,0 0.8,-0.1 1.2,-0.3 z"
         id="path108"
         inkscape:connector-curvature="0" /><path
         d="m 385.9,263.7 h 2 V 278 h 5.3 v 1.8 h -7.3 z"
         id="path110"
         inkscape:connector-curvature="0" /><path
         d="m 395.1,268.8 c 1,-0.6 2.2,-1 3.3,-1 1.7,0 2.8,0.7 3.1,1.1 0.5,0.5 1,1.2 1,2.9 v 6.1 c 0,0.7 0,1.4 0.1,1.8 h -1.8 l -0.1,-1.6 v 0 c -0.5,0.9 -1.5,1.8 -3.3,1.8 -1.9,0 -3.4,-1.1 -3.4,-3.4 0,-2.3 1.5,-4 5.5,-4 h 1.1 V 272 c 0,-0.9 -0.1,-1.4 -0.4,-1.9 -0.4,-0.5 -1.2,-0.7 -2,-0.7 -1.2,0 -2.4,0.5 -3,1.2 z m 5.6,5.2 c -0.3,0 -0.8,0 -1.4,0 -2.3,0 -3.4,1.1 -3.4,2.4 0,1.2 0.6,2.1 2,2.1 1.7,0 2.7,-1.4 2.7,-3 V 274 Z"
         id="path112"
         inkscape:connector-curvature="0" /><path
         d="m 404.9,262.5 h 1.9 v 7.1 0 c 0.8,-1.2 1.7,-1.8 3,-1.8 2.4,0 4.1,2 4.1,6 0,4.1 -1.6,6 -4.1,6 -1.7,0 -2.6,-1 -3.1,-1.9 v 0 l -0.1,1.7 h -1.9 c 0,-0.7 0.1,-1.5 0.1,-2.2 v -14.9 z m 4.5,15.8 c 1.8,0 2.6,-1.5 2.6,-4.5 0,-3 -0.8,-4.5 -2.6,-4.5 -1.8,0 -2.6,1.5 -2.6,4.5 0,3 0.8,4.5 2.6,4.5 z"
         id="path114"
         inkscape:connector-curvature="0" /><path
         d="m 420.1,267.8 c 3.1,0 4.7,2.4 4.7,6 0,3.7 -1.6,6 -4.7,6 -3.1,0 -4.7,-2.4 -4.7,-6 0,-3.6 1.6,-6 4.7,-6 z m 0,10.5 c 1.8,0 2.7,-1.5 2.7,-4.5 0,-3 -0.9,-4.5 -2.7,-4.5 -1.8,0 -2.7,1.5 -2.7,4.5 0,3 0.8,4.5 2.7,4.5 z"
         id="path116"
         inkscape:connector-curvature="0" /><path
         d="m 426.8,270.5 c 0,-0.9 -0.1,-1.7 -0.1,-2.5 h 1.9 l 0.1,1.8 v 0 c 0.6,-1.4 1.6,-2 3.3,-2 v 1.9 c -0.2,0 -0.5,-0.1 -0.7,-0.1 -1.5,0 -2.6,1.3 -2.6,3.9 v 6.2 h -1.9 z"
         id="path118"
         inkscape:connector-curvature="0" /><path
         d="m 433.9,268.8 c 1,-0.6 2.2,-1 3.3,-1 1.7,0 2.8,0.7 3.1,1.1 0.5,0.5 1,1.2 1,2.9 v 6.1 c 0,0.7 0,1.4 0.1,1.8 h -1.8 l -0.1,-1.6 v 0 c -0.5,0.9 -1.5,1.8 -3.3,1.8 -1.9,0 -3.4,-1.1 -3.4,-3.4 0,-2.3 1.5,-4 5.5,-4 h 1.1 V 272 c 0,-0.9 -0.1,-1.4 -0.4,-1.9 -0.4,-0.5 -1.2,-0.7 -2,-0.7 -1.2,0 -2.4,0.5 -3,1.2 z m 5.6,5.2 c -0.3,0 -0.8,0 -1.4,0 -2.3,0 -3.4,1.1 -3.4,2.4 0,1.2 0.6,2.1 2,2.1 1.7,0 2.7,-1.4 2.7,-3 V 274 Z"
         id="path120"
         inkscape:connector-curvature="0" /><path
         d="m 449,279.6 c -0.5,0.2 -1.1,0.3 -1.6,0.3 -1.8,0 -2.7,-0.7 -2.7,-2.8 v -7.6 h -1.9 V 268 h 1.9 v -2.4 l 1.9,-0.6 v 3 h 2.4 v 1.6 h -2.4 v 6.9 c 0,1.3 0.3,1.8 1.2,1.8 0.5,0 0.8,-0.1 1.2,-0.3 z"
         id="path122"
         inkscape:connector-curvature="0" /><path
         d="m 454.6,267.8 c 3.1,0 4.7,2.4 4.7,6 0,3.7 -1.6,6 -4.7,6 -3.1,0 -4.7,-2.4 -4.7,-6 0,-3.6 1.6,-6 4.7,-6 z m 0,10.5 c 1.8,0 2.7,-1.5 2.7,-4.5 0,-3 -0.9,-4.5 -2.7,-4.5 -1.8,0 -2.7,1.5 -2.7,4.5 0,3 0.8,4.5 2.7,4.5 z"
         id="path124"
         inkscape:connector-curvature="0" /><path
         d="m 461.3,270.5 c 0,-0.9 -0.1,-1.7 -0.1,-2.5 h 1.9 l 0.1,1.8 v 0 c 0.6,-1.4 1.6,-2 3.3,-2 v 1.9 c -0.2,0 -0.5,-0.1 -0.7,-0.1 -1.5,0 -2.6,1.3 -2.6,3.9 v 6.2 h -1.9 z"
         id="path126"
         inkscape:connector-curvature="0" /><path
         d="m 471.6,282.2 c -0.6,2 -1.4,2.7 -2.9,2.7 -0.5,0 -1,0 -1.3,-0.1 l 0.1,-1.7 c 0.3,0.1 0.6,0.2 1.1,0.2 0.6,0 1,-0.3 1.3,-1.5 l 0.5,-1.8 -3.7,-11.9 h 2 l 2.6,9.6 v 0 l 2.4,-9.6 h 1.9 z"
         id="path128"
         inkscape:connector-curvature="0" /></g></g></svg>