<?xml version="1.0" encoding="UTF-8" standalone="no"?>
<!-- Created with Inkscape (http://www.inkscape.org/) -->

<svg
   version="1.1"
   id="svg1"
   width="257.52933"
   height="169.13467"
   viewBox="0 0 257.52933 169.13467"
   sodipodi:docname="bpm2quad-offset-far.pdf"
   xmlns:inkscape="http://www.inkscape.org/namespaces/inkscape"
   xmlns:sodipodi="http://sodipodi.sourceforge.net/DTD/sodipodi-0.dtd"
   xmlns="http://www.w3.org/2000/svg"
   xmlns:svg="http://www.w3.org/2000/svg">
  <defs
     id="defs1" />
  <sodipodi:namedview
     id="namedview1"
     pagecolor="#ffffff"
     bordercolor="#000000"
     borderopacity="0.25"
     inkscape:showpageshadow="2"
     inkscape:pageopacity="0.0"
     inkscape:pagecheckerboard="0"
     inkscape:deskcolor="#d1d1d1">
    <inkscape:page
       x="0"
       y="0"
       inkscape:label="1"
       id="page1"
       width="257.52933"
       height="169.13467"
       margin="0"
       bleed="0" />
  </sodipodi:namedview>
  <g
     id="g1"
     inkscape:groupmode="layer"
     inkscape:label="1">
    <path
       id="path1"
       d="M -14.17339,35.43349 0,0 14.17339,35.43349 Z"
       style="fill:#ff8000;fill-opacity:1;fill-rule:nonzero;stroke:none"
       transform="matrix(1.3333333,0,0,-1.3333333,181.408,93.013333)" />
    <path
       id="path2"
       d="M -14.17339,-35.43349 0,0 14.17339,-35.43349 Z"
       style="fill:#ff8000;fill-opacity:1;fill-rule:nonzero;stroke:none"
       transform="matrix(1.3333333,0,0,-1.3333333,181.408,93.013333)" />
    <path
       id="path3"
       d="m 5.3092266,-0.32857812 c 1.0898437,-0.84374998 1.453125,-2.06249998 1.453125,-3.10546878 0,-2.0976562 -1.4414063,-3.703125 -3.09375,-3.703125 -1.6992188,0 -3.10546879,1.6289063 -3.10546879,3.703125 0,2.109375 1.46484379,3.65625003 3.09374999,3.65625003 0.1640625,0 0.5273438,-0.0117188 0.9609375,-0.1875 L 5.4732891,1.2417344 H 6.4928203 Z M 4.2193828,-0.50435937 c 0,0 -0.2695312,0.0820313 -0.5507812,0.0820313 -1.171875,0 -2.25,-1.16015633 -2.25,-3.01171873 0,-1.8632812 1.078125,-3.0585937 2.2382812,-3.0585937 1.1953125,0 2.25,1.2070312 2.25,3.0585937 0,0.6445313 -0.1171875,1.734375 -1.0195312,2.54296873 L 4.1021953,-1.9340469 H 3.2232891 Z M 11.669578,-4.4184219 h -0.785156 v 2.8828125 c 0,0.75000003 -0.550781,1.10156253 -1.1953126,1.10156253 -0.703125,0 -0.7734375,-0.26953125 -0.7734375,-0.69140623 V -4.4184219 H 8.1422344 v 3.328125 c 0,0.72656253 0.2226562,1.19531253 1.0546875,1.19531253 0.5273437,0 1.2304691,-0.15234375 1.7226561,-0.5859375 v 0.480468745 h 0.75 z m 4.78418,1.5351563 c 0,-1.0078125 -0.726563,-1.7109375 -1.640625,-1.7109375 -0.644531,0 -1.101563,0.1640625 -1.570313,0.4335937 l 0.07031,0.65625 c 0.515625,-0.375 1.007812,-0.5039062 1.5,-0.5039062 0.46875,0 0.867187,0.3984375 0.867187,1.1367187 v 0.4335938 c -1.5,0.011719 -2.765625,0.4335937 -2.765625,1.3125 0,0.42187498 0.269532,1.23046873 1.136719,1.23046873 0.140625,0 1.078125,-0.01171875 1.652344,-0.46875 v 0.363281245 h 0.75 z m -0.773438,1.5703125 c 0,0.1875 0,0.43359373 -0.339843,0.62109373 -0.292969,0.1875 -0.667969,0.1875 -0.773438,0.1875 -0.480469,0 -0.925781,-0.22265625 -0.925781,-0.64453123 0,-0.6914063 1.605469,-0.7617188 2.039062,-0.7851563 z m 5.91211,-5.6015625 h -0.75 v 2.9296875 c -0.527344,-0.4335938 -1.078125,-0.5507813 -1.453125,-0.5507813 -0.984375,0 -1.757813,1.0429688 -1.757813,2.3203125 0,1.31250003 0.761719,2.32031253 1.710938,2.32031253 0.328125,0 0.914062,-0.08203125 1.476562,-0.62109375 v 0.515624995 h 0.773438 z m -0.773438,5.53125 c 0,0.140625 -0.01172,0.3164062 -0.328125,0.60937498 -0.234375,0.19921875 -0.480469,0.26953125 -0.738281,0.26953125 -0.621094,0 -1.347656,-0.45703125 -1.347656,-1.69921873 0,-1.3125 0.855468,-1.7226563 1.441406,-1.7226563 0.445312,0 0.75,0.234375 0.972656,0.5507813 z m 0,0"
       style="fill:#000000;fill-opacity:1;fill-rule:nonzero;stroke:none"
       aria-label="Quad"
       transform="matrix(1.3333333,0,0,1.3333333,166.464,39.414667)" />
    <path
       id="path4"
       d="M -113.38724,0 H 56.69362"
       style="fill:none;stroke:#000000;stroke-width:0.79701;stroke-linecap:butt;stroke-linejoin:miter;stroke-miterlimit:10;stroke-dasharray:2.98883, 1.99255;stroke-dashoffset:0;stroke-opacity:1"
       transform="matrix(1.3333333,0,0,-1.3333333,181.408,93.013333)" />
    <path
       id="path5"
       d="M -96.37897,33.73247 56.69362,-19.84267"
       style="fill:none;stroke:#ff0000;stroke-width:0.69739;stroke-linecap:butt;stroke-linejoin:miter;stroke-miterlimit:10;stroke-dasharray:none;stroke-opacity:1"
       transform="matrix(1.3333333,0,0,-1.3333333,181.408,93.013333)" />
    <path
       id="path6"
       d="M -96.37897,28.3468 0,8.50412 56.69362,-17.00824"
       style="fill:none;stroke:#ff0000;stroke-width:0.69739;stroke-linecap:butt;stroke-linejoin:miter;stroke-miterlimit:10;stroke-dasharray:none;stroke-opacity:1"
       transform="matrix(1.3333333,0,0,-1.3333333,181.408,93.013333)" />
    <path
       id="path7"
       d="M -96.37897,39.68535 0,-8.50412 56.69362,-22.67752"
       style="fill:none;stroke:#ff0000;stroke-width:0.69739;stroke-linecap:butt;stroke-linejoin:miter;stroke-miterlimit:10;stroke-dasharray:none;stroke-opacity:1"
       transform="matrix(1.3333333,0,0,-1.3333333,181.408,93.013333)" />
    <path
       id="path8"
       d="M -56.69362,-56.69362 V 56.69362"
       style="fill:none;stroke:#000000;stroke-width:0.79701;stroke-linecap:butt;stroke-linejoin:miter;stroke-miterlimit:10;stroke-dasharray:none;stroke-opacity:1"
       transform="matrix(1.3333333,0,0,-1.3333333,181.408,93.013333)" />
    <path
       id="path9"
       d="m -56.69362,55.31078 h 2.83486"
       style="fill:none;stroke:#000000;stroke-width:0.64757;stroke-linecap:butt;stroke-linejoin:miter;stroke-miterlimit:10;stroke-dasharray:none;stroke-opacity:1"
       transform="matrix(1.3333333,0,0,-1.3333333,181.408,93.013333)" />
    <path
       id="path10"
       d="m -56.69362,52.54514 h 2.83486"
       style="fill:none;stroke:#000000;stroke-width:0.64757;stroke-linecap:butt;stroke-linejoin:miter;stroke-miterlimit:10;stroke-dasharray:none;stroke-opacity:1"
       transform="matrix(1.3333333,0,0,-1.3333333,181.408,93.013333)" />
    <path
       id="path11"
       d="m -56.69362,49.77948 h 5.66928"
       style="fill:none;stroke:#000000;stroke-width:0.79701;stroke-linecap:butt;stroke-linejoin:miter;stroke-miterlimit:10;stroke-dasharray:none;stroke-opacity:1"
       transform="matrix(1.3333333,0,0,-1.3333333,181.408,93.013333)" />
    <path
       id="path12"
       d="m -56.69362,47.01384 h 2.83486"
       style="fill:none;stroke:#000000;stroke-width:0.64757;stroke-linecap:butt;stroke-linejoin:miter;stroke-miterlimit:10;stroke-dasharray:none;stroke-opacity:1"
       transform="matrix(1.3333333,0,0,-1.3333333,181.408,93.013333)" />
    <path
       id="path13"
       d="m -56.69362,44.24861 h 2.83486"
       style="fill:none;stroke:#000000;stroke-width:0.64757;stroke-linecap:butt;stroke-linejoin:miter;stroke-miterlimit:10;stroke-dasharray:none;stroke-opacity:1"
       transform="matrix(1.3333333,0,0,-1.3333333,181.408,93.013333)" />
    <path
       id="path14"
       d="m -56.69362,41.48297 h 2.83486"
       style="fill:none;stroke:#000000;stroke-width:0.64757;stroke-linecap:butt;stroke-linejoin:miter;stroke-miterlimit:10;stroke-dasharray:none;stroke-opacity:1"
       transform="matrix(1.3333333,0,0,-1.3333333,181.408,93.013333)" />
    <path
       id="path15"
       d="m -56.69362,38.71732 h 2.83486"
       style="fill:none;stroke:#000000;stroke-width:0.64757;stroke-linecap:butt;stroke-linejoin:miter;stroke-miterlimit:10;stroke-dasharray:none;stroke-opacity:1"
       transform="matrix(1.3333333,0,0,-1.3333333,181.408,93.013333)" />
    <path
       id="path16"
       d="m -56.69362,35.95169 h 5.66928"
       style="fill:none;stroke:#000000;stroke-width:0.79701;stroke-linecap:butt;stroke-linejoin:miter;stroke-miterlimit:10;stroke-dasharray:none;stroke-opacity:1"
       transform="matrix(1.3333333,0,0,-1.3333333,181.408,93.013333)" />
    <path
       id="path17"
       d="m -56.69362,33.18646 h 2.83486"
       style="fill:none;stroke:#000000;stroke-width:0.64757;stroke-linecap:butt;stroke-linejoin:miter;stroke-miterlimit:10;stroke-dasharray:none;stroke-opacity:1"
       transform="matrix(1.3333333,0,0,-1.3333333,181.408,93.013333)" />
    <path
       id="path18"
       d="m -56.69362,30.4208 h 2.83486"
       style="fill:none;stroke:#000000;stroke-width:0.64757;stroke-linecap:butt;stroke-linejoin:miter;stroke-miterlimit:10;stroke-dasharray:none;stroke-opacity:1"
       transform="matrix(1.3333333,0,0,-1.3333333,181.408,93.013333)" />
    <path
       id="path19"
       d="m -56.69362,27.65517 h 2.83486"
       style="fill:none;stroke:#000000;stroke-width:0.64757;stroke-linecap:butt;stroke-linejoin:miter;stroke-miterlimit:10;stroke-dasharray:none;stroke-opacity:1"
       transform="matrix(1.3333333,0,0,-1.3333333,181.408,93.013333)" />
    <path
       id="path20"
       d="m -56.69362,24.88953 h 2.83486"
       style="fill:none;stroke:#000000;stroke-width:0.64757;stroke-linecap:butt;stroke-linejoin:miter;stroke-miterlimit:10;stroke-dasharray:none;stroke-opacity:1"
       transform="matrix(1.3333333,0,0,-1.3333333,181.408,93.013333)" />
    <path
       id="path21"
       d="m -56.69362,22.1243 h 5.66928"
       style="fill:none;stroke:#000000;stroke-width:0.79701;stroke-linecap:butt;stroke-linejoin:miter;stroke-miterlimit:10;stroke-dasharray:none;stroke-opacity:1"
       transform="matrix(1.3333333,0,0,-1.3333333,181.408,93.013333)" />
    <path
       id="path22"
       d="m -56.69362,19.35864 h 2.83486"
       style="fill:none;stroke:#000000;stroke-width:0.64757;stroke-linecap:butt;stroke-linejoin:miter;stroke-miterlimit:10;stroke-dasharray:none;stroke-opacity:1"
       transform="matrix(1.3333333,0,0,-1.3333333,181.408,93.013333)" />
    <path
       id="path23"
       d="m -56.69362,16.59302 h 2.83486"
       style="fill:none;stroke:#000000;stroke-width:0.64757;stroke-linecap:butt;stroke-linejoin:miter;stroke-miterlimit:10;stroke-dasharray:none;stroke-opacity:1"
       transform="matrix(1.3333333,0,0,-1.3333333,181.408,93.013333)" />
    <path
       id="path24"
       d="m -56.69362,13.82736 h 2.83486"
       style="fill:none;stroke:#000000;stroke-width:0.64757;stroke-linecap:butt;stroke-linejoin:miter;stroke-miterlimit:10;stroke-dasharray:none;stroke-opacity:1"
       transform="matrix(1.3333333,0,0,-1.3333333,181.408,93.013333)" />
    <path
       id="path25"
       d="m -56.69362,11.06213 h 2.83486"
       style="fill:none;stroke:#000000;stroke-width:0.64757;stroke-linecap:butt;stroke-linejoin:miter;stroke-miterlimit:10;stroke-dasharray:none;stroke-opacity:1"
       transform="matrix(1.3333333,0,0,-1.3333333,181.408,93.013333)" />
    <path
       id="path26"
       d="m -56.69362,8.29651 h 5.66928"
       style="fill:none;stroke:#000000;stroke-width:0.79701;stroke-linecap:butt;stroke-linejoin:miter;stroke-miterlimit:10;stroke-dasharray:none;stroke-opacity:1"
       transform="matrix(1.3333333,0,0,-1.3333333,181.408,93.013333)" />
    <path
       id="path27"
       d="m -56.69362,5.53085 h 2.83486"
       style="fill:none;stroke:#000000;stroke-width:0.64757;stroke-linecap:butt;stroke-linejoin:miter;stroke-miterlimit:10;stroke-dasharray:none;stroke-opacity:1"
       transform="matrix(1.3333333,0,0,-1.3333333,181.408,93.013333)" />
    <path
       id="path28"
       d="m -56.69362,2.7652 h 2.83486"
       style="fill:none;stroke:#000000;stroke-width:0.64757;stroke-linecap:butt;stroke-linejoin:miter;stroke-miterlimit:10;stroke-dasharray:none;stroke-opacity:1"
       transform="matrix(1.3333333,0,0,-1.3333333,181.408,93.013333)" />
    <path
       id="path29"
       d="m -56.69362,0 h 2.83486"
       style="fill:none;stroke:#000000;stroke-width:0.64757;stroke-linecap:butt;stroke-linejoin:miter;stroke-miterlimit:10;stroke-dasharray:none;stroke-opacity:1"
       transform="matrix(1.3333333,0,0,-1.3333333,181.408,93.013333)" />
    <path
       id="path30"
       d="m -56.69362,-2.76563 h 2.83486"
       style="fill:none;stroke:#000000;stroke-width:0.64757;stroke-linecap:butt;stroke-linejoin:miter;stroke-miterlimit:10;stroke-dasharray:none;stroke-opacity:1"
       transform="matrix(1.3333333,0,0,-1.3333333,181.408,93.013333)" />
    <path
       id="path31"
       d="m -56.69362,-5.53128 h 5.66928"
       style="fill:none;stroke:#000000;stroke-width:0.79701;stroke-linecap:butt;stroke-linejoin:miter;stroke-miterlimit:10;stroke-dasharray:none;stroke-opacity:1"
       transform="matrix(1.3333333,0,0,-1.3333333,181.408,93.013333)" />
    <path
       id="path32"
       d="m -56.69362,-8.29692 h 2.83486"
       style="fill:none;stroke:#000000;stroke-width:0.64757;stroke-linecap:butt;stroke-linejoin:miter;stroke-miterlimit:10;stroke-dasharray:none;stroke-opacity:1"
       transform="matrix(1.3333333,0,0,-1.3333333,181.408,93.013333)" />
    <path
       id="path33"
       d="m -56.69362,-11.06213 h 2.83486"
       style="fill:none;stroke:#000000;stroke-width:0.64757;stroke-linecap:butt;stroke-linejoin:miter;stroke-miterlimit:10;stroke-dasharray:none;stroke-opacity:1"
       transform="matrix(1.3333333,0,0,-1.3333333,181.408,93.013333)" />
    <path
       id="path34"
       d="m -56.69362,-13.82779 h 2.83486"
       style="fill:none;stroke:#000000;stroke-width:0.64757;stroke-linecap:butt;stroke-linejoin:miter;stroke-miterlimit:10;stroke-dasharray:none;stroke-opacity:1"
       transform="matrix(1.3333333,0,0,-1.3333333,181.408,93.013333)" />
    <path
       id="path35"
       d="m -56.69362,-16.59344 h 2.83486"
       style="fill:none;stroke:#000000;stroke-width:0.64757;stroke-linecap:butt;stroke-linejoin:miter;stroke-miterlimit:10;stroke-dasharray:none;stroke-opacity:1"
       transform="matrix(1.3333333,0,0,-1.3333333,181.408,93.013333)" />
    <path
       id="path36"
       d="m -56.69362,-19.35909 h 5.66928"
       style="fill:none;stroke:#000000;stroke-width:0.79701;stroke-linecap:butt;stroke-linejoin:miter;stroke-miterlimit:10;stroke-dasharray:none;stroke-opacity:1"
       transform="matrix(1.3333333,0,0,-1.3333333,181.408,93.013333)" />
    <path
       id="path37"
       d="m -56.69362,-22.1243 h 2.83486"
       style="fill:none;stroke:#000000;stroke-width:0.64757;stroke-linecap:butt;stroke-linejoin:miter;stroke-miterlimit:10;stroke-dasharray:none;stroke-opacity:1"
       transform="matrix(1.3333333,0,0,-1.3333333,181.408,93.013333)" />
    <path
       id="path38"
       d="m -56.69362,-24.88995 h 2.83486"
       style="fill:none;stroke:#000000;stroke-width:0.64757;stroke-linecap:butt;stroke-linejoin:miter;stroke-miterlimit:10;stroke-dasharray:none;stroke-opacity:1"
       transform="matrix(1.3333333,0,0,-1.3333333,181.408,93.013333)" />
    <path
       id="path39"
       d="m -56.69362,-27.6556 h 2.83486"
       style="fill:none;stroke:#000000;stroke-width:0.64757;stroke-linecap:butt;stroke-linejoin:miter;stroke-miterlimit:10;stroke-dasharray:none;stroke-opacity:1"
       transform="matrix(1.3333333,0,0,-1.3333333,181.408,93.013333)" />
    <path
       id="path40"
       d="m -56.69362,-30.42125 h 2.83486"
       style="fill:none;stroke:#000000;stroke-width:0.64757;stroke-linecap:butt;stroke-linejoin:miter;stroke-miterlimit:10;stroke-dasharray:none;stroke-opacity:1"
       transform="matrix(1.3333333,0,0,-1.3333333,181.408,93.013333)" />
    <path
       id="path41"
       d="m -56.69362,-33.18646 h 5.66928"
       style="fill:none;stroke:#000000;stroke-width:0.79701;stroke-linecap:butt;stroke-linejoin:miter;stroke-miterlimit:10;stroke-dasharray:none;stroke-opacity:1"
       transform="matrix(1.3333333,0,0,-1.3333333,181.408,93.013333)" />
    <path
       id="path42"
       d="m 3.8894141,-2.5912734 c 0,-0.3867188 0,-1.3125 -0.375,-1.96875 -0.4101563,-0.7148438 -1.0195313,-0.8320313 -1.40625,-0.8320313 -0.3515625,0 -0.9726563,0.1054688 -1.37109379,0.796875 -0.38671875,0.6328125 -0.3984375,1.5 -0.3984375,2.0039063 0,0.5859375 0.0234375,1.3125 0.36328125,1.92187496 0.35156254,0.64453125 0.93750004,0.83203125 1.40625004,0.83203125 0.796875,0 1.2421875,-0.45703125 1.4765625,-0.9609375 0.28125,-0.56250001 0.3046875,-1.30078121 0.3046875,-1.79296871 z m -1.78125,2.22656246 c -0.328125,0 -0.7148438,-0.1875 -0.9140625,-0.76171876 -0.1640625,-0.4804687 -0.1640625,-0.984375 -0.1640625,-1.5703125 0,-0.7265625 0,-2.1679687 1.078125,-2.1679687 1.0898437,0 1.0898437,1.4414062 1.0898437,2.1679687 0,0.5273438 0,1.125 -0.1992187,1.640625 -0.2226563,0.57421876 -0.6210938,0.69140626 -0.890625,0.69140626 z m 0,0"
       style="fill:#000000;fill-opacity:1;fill-rule:nonzero;stroke:none"
       aria-label="0"
       transform="matrix(1.3333333,0,0,1.3333333,115.01333,140.748)" />
    <path
       id="path43"
       d="m -56.69362,-35.9521 h 2.83486"
       style="fill:none;stroke:#000000;stroke-width:0.64757;stroke-linecap:butt;stroke-linejoin:miter;stroke-miterlimit:10;stroke-dasharray:none;stroke-opacity:1"
       transform="matrix(1.3333333,0,0,-1.3333333,181.408,93.013333)" />
    <path
       id="path44"
       d="m -56.69362,-38.71776 h 2.83486"
       style="fill:none;stroke:#000000;stroke-width:0.64757;stroke-linecap:butt;stroke-linejoin:miter;stroke-miterlimit:10;stroke-dasharray:none;stroke-opacity:1"
       transform="matrix(1.3333333,0,0,-1.3333333,181.408,93.013333)" />
    <path
       id="path45"
       d="m -56.69362,-41.48341 h 2.83486"
       style="fill:none;stroke:#000000;stroke-width:0.64757;stroke-linecap:butt;stroke-linejoin:miter;stroke-miterlimit:10;stroke-dasharray:none;stroke-opacity:1"
       transform="matrix(1.3333333,0,0,-1.3333333,181.408,93.013333)" />
    <path
       id="path46"
       d="m -56.69362,-44.24861 h 2.83486"
       style="fill:none;stroke:#000000;stroke-width:0.64757;stroke-linecap:butt;stroke-linejoin:miter;stroke-miterlimit:10;stroke-dasharray:none;stroke-opacity:1"
       transform="matrix(1.3333333,0,0,-1.3333333,181.408,93.013333)" />
    <path
       id="path47"
       d="m -56.69362,-47.01427 h 5.66928"
       style="fill:none;stroke:#000000;stroke-width:0.79701;stroke-linecap:butt;stroke-linejoin:miter;stroke-miterlimit:10;stroke-dasharray:none;stroke-opacity:1"
       transform="matrix(1.3333333,0,0,-1.3333333,181.408,93.013333)" />
    <path
       id="path48"
       d="m -56.69362,-49.77992 h 2.83486"
       style="fill:none;stroke:#000000;stroke-width:0.64757;stroke-linecap:butt;stroke-linejoin:miter;stroke-miterlimit:10;stroke-dasharray:none;stroke-opacity:1"
       transform="matrix(1.3333333,0,0,-1.3333333,181.408,93.013333)" />
    <path
       id="path49"
       d="m -56.69362,-52.54556 h 2.83486"
       style="fill:none;stroke:#000000;stroke-width:0.64757;stroke-linecap:butt;stroke-linejoin:miter;stroke-miterlimit:10;stroke-dasharray:none;stroke-opacity:1"
       transform="matrix(1.3333333,0,0,-1.3333333,181.408,93.013333)" />
    <path
       id="path50"
       d="m -56.69362,-55.31122 h 2.83486"
       style="fill:none;stroke:#000000;stroke-width:0.64757;stroke-linecap:butt;stroke-linejoin:miter;stroke-miterlimit:10;stroke-dasharray:none;stroke-opacity:1"
       transform="matrix(1.3333333,0,0,-1.3333333,181.408,93.013333)" />
    <path
       id="path51"
       d="M 0.87838281,-6.2218047 V 8.515625e-4 H 3.3393203 c 1.3359375,0 2.2851563,-0.8203125025 2.2851563,-1.6874999625 0,-0.796875 -0.8085938,-1.4179688 -1.7695313,-1.5703125 0.890625,-0.2226563 1.5117188,-0.75 1.5117188,-1.40625 0,-0.8203125 -0.9960938,-1.5585938 -2.2734375,-1.5585938 z m 0.80859379,2.6953125 v -2.1679687 h 1.1484375 c 0.9140625,0 1.78125,0.421875 1.78125,1.0546875 0,0.515625 -0.6328125,1.1132812 -1.8867188,1.1132812 z m 0,3.00000001 V -2.9405547 h 1.3125 c 0.9492187,0 1.8515625,0.5390625 1.8515625,1.2421875 0,0.6445313 -0.7851563,1.17187501 -1.78125,1.17187501 z M 9.3393203,-2.5538359 c 1.2656247,0 2.1796877,-0.8671875 2.1796877,-1.8515625 0,-0.9492188 -0.902344,-1.8164063 -2.1796877,-1.8164063 H 7.0190078 V 8.515625e-4 H 7.8861953 V -2.5538359 Z m -0.2109375,-3.140625 c 1.0312502,0 1.6171872,0.5742187 1.6171872,1.2890625 0,0.7265625 -0.574218,1.3007812 -1.6171872,1.3007812 H 7.8510391 v -2.5898437 z m 7.7695312,2.5429687 c -0.234375,0.5976563 -0.714844,1.8398438 -0.832031,2.27343751 -0.09375,-0.36328121 -0.503906,-1.45312501 -0.679688,-1.88671871 l -1.183593,-3.046875 -0.164063,-0.4101563 H 12.960414 V 8.515625e-4 h 0.738281 V -5.5186797 h 0.01172 c 0.105469,0.4570313 0.621094,1.7929688 0.714844,2.0390625 l 0.996094,2.53125001 c 0.07031,0.17578125 0.234375,0.62109375 0.292968,0.75 h 0.679688 l 1.242187,-3.15234371 c 0.128907,-0.328125 0.679688,-1.7460938 0.796875,-2.1679688 V 8.515625e-4 h 0.738282 V -6.2218047 h -1.078125 z m 0,0"
       style="fill:#000000;fill-opacity:1;fill-rule:nonzero;stroke:none"
       aria-label="BPM"
       transform="matrix(1.3333333,0,0,1.3333333,92.418667,12.729333)" />
    <path
       id="path52"
       d="M -62.36288,-28.50323 V -4.66248"
       style="fill:none;stroke:#808080;stroke-width:0.79701;stroke-linecap:butt;stroke-linejoin:miter;stroke-miterlimit:10;stroke-dasharray:none;stroke-opacity:1"
       transform="matrix(1.3333333,0,0,-1.3333333,181.408,93.013333)" />
    <path
       id="path53"
       d="M 4.66248,0 C 3.28098,0.25902 1.0361,1.0361 -0.51805,1.94269 V -1.94269 C 1.0361,-1.0361 3.28098,-0.25902 4.66248,0"
       style="fill:#808080;fill-opacity:1;fill-rule:nonzero;stroke:none"
       transform="matrix(0,1.3333333,1.3333333,0,98.257493,131.01764)" />
    <path
       id="path54"
       d="M 4.66248,0 C 3.28098,0.25902 1.0361,1.0361 -0.51805,1.94269 V -1.94269 C 1.0361,-1.0361 3.28098,-0.25902 4.66248,0"
       style="fill:#808080;fill-opacity:1;fill-rule:nonzero;stroke:none"
       transform="matrix(0,-1.3333333,-1.3333333,0,98.257493,99.229973)" />
    <g
       id="g54"
       aria-label="x&#10;ofset,real"
       transform="matrix(1.3333333,0,0,1.3333333,57.054667,116.60533)">
      <path
         id="path55"
         d="m 4.4062656,-3.6209922 c -0.328125,0.058594 -0.421875,0.3515625 -0.421875,0.4804688 0,0.1757812 0.1171875,0.328125 0.3398438,0.328125 0.2578125,0 0.5039062,-0.2226563 0.5039062,-0.5273438 0,-0.421875 -0.4570312,-0.6210937 -0.8789062,-0.6210937 -0.5390625,0 -0.84375,0.46875 -0.9492188,0.65625 -0.1757812,-0.4335938 -0.5742187,-0.65625 -0.9960937,-0.65625 -0.9609375,0 -1.48828128,1.1484375 -1.48828128,1.3828125 0,0.082031 0.0703125,0.1054687 0.12890625,0.1054687 0.0820313,0 0.10546875,-0.046875 0.12890625,-0.1054687 0.28124998,-0.8789063 0.86718748,-1.1601563 1.20703128,-1.1601563 0.2578125,0 0.4921875,0.1757813 0.4921875,0.5859375 0,0.328125 -0.3867188,1.7578125 -0.5039063,2.19140626 -0.070312,0.28125 -0.3398437,0.83203125 -0.8320312,0.83203125 -0.17578128,0 -0.36328128,-0.0585938 -0.45703128,-0.1171875 0.24609375,-0.0351563 0.42187498,-0.24609375 0.42187498,-0.48046875 0,-0.22265625 -0.16406248,-0.32812496 -0.33984373,-0.32812496 -0.2578125,0 -0.4921875,0.23437496 -0.4921875,0.53906246 0,0.43359375 0.48046875,0.609375 0.85546873,0.609375 0.5273438,0 0.8320313,-0.421875 0.9609375,-0.66796875 0.2226563,0.59765625 0.7617188,0.66796875 0.9960938,0.66796875 0.9726562,0 1.4765625,-1.16015626 1.4765625,-1.37109376 0,-0.046875 -0.023437,-0.1171875 -0.1171875,-0.1171875 -0.09375,0 -0.1054688,0.035156 -0.1523438,0.1757813 -0.1875,0.64453121 -0.7148437,1.08984371 -1.1835937,1.08984371 -0.2578125,0 -0.4921875,-0.15234375 -0.4921875,-0.5859375 0,-0.19921875 0.1171875,-0.69140621 0.1992187,-1.03125001 0.035156,-0.1640625 0.28125,-1.1367187 0.2929688,-1.1953125 0.1171875,-0.3164062 0.3867187,-0.796875 0.84375,-0.796875 0.1523437,0 0.328125,0.023437 0.4570312,0.1171875 z m 0,0"
         style="fill:#808080;fill-opacity:1;fill-rule:nonzero;stroke:none" />
      <path
         id="path56"
         d="m 7.7197422,-0.09364844 c 0,-0.65625 -0.5273438,-1.19531246 -1.171875,-1.19531246 -0.65625,0 -1.171875,0.53906246 -1.171875,1.19531246 0,0.6328125 0.5273437,1.13671874 1.171875,1.13671874 0.6445312,0 1.171875,-0.50390624 1.171875,-1.13671874 z m -1.171875,0.796875 c -0.3984375,0 -0.7382813,-0.29296875 -0.7382813,-0.85546875 0,-0.5625 0.3632813,-0.80859375 0.7382813,-0.80859375 0.375,0 0.7382812,0.2578125 0.7382812,0.80859375 0,0.57421875 -0.3632812,0.85546875 -0.7382812,0.85546875 z M 8.818375,-0.90224219 H 9.3925937 V -1.2186484 H 8.7949375 v -0.5742188 c 0,-0.3515625 0.3398437,-0.3867187 0.4804687,-0.3867187 0.1171875,0 0.2578125,0.011719 0.4335938,0.082031 v -0.3632812 c -0.1289063,-0.035156 -0.28125,-0.046875 -0.421875,-0.046875 -0.515625,0 -0.890625,0.3632812 -0.890625,0.8554687 v 0.4335938 H 8.0097812 v 0.31640621 H 8.3965 v 1.8984375 h 0.421875 z m 1.464844,0 h 0.574218 V -1.2186484 h -0.597656 v -0.5742188 c 0,-0.3515625 0.339844,-0.3867187 0.480469,-0.3867187 0.117187,0 0.257812,0.011719 0.433594,0.082031 v -0.3632812 c -0.128907,-0.035156 -0.28125,-0.046875 -0.421875,-0.046875 -0.515625,0 -0.8906253,0.3632812 -0.8906253,0.8554687 v 2.64843751 h 0.4218753 z m 2.490234,-0.23437501 c -0.339844,-0.140625 -0.585937,-0.1523437 -0.761719,-0.1523437 -0.128906,0 -0.878906,0 -0.878906,0.65624996 0,0.234375 0.128906,0.36328125 0.1875,0.43359375 0.175781,0.1640625 0.386719,0.2109375 0.65625,0.2578125 0.234375,0.046875 0.503906,0.09375 0.503906,0.33984375 0,0.3046875 -0.421875,0.3046875 -0.492187,0.3046875 -0.316406,0 -0.609375,-0.10546875 -0.808594,-0.24609375 l -0.07031,0.375 c 0.164062,0.0820313 0.46875,0.21093749 0.878906,0.21093749 0.234375,0 0.445312,-0.035156 0.632812,-0.16406249 0.1875,-0.140625 0.246094,-0.36328125 0.246094,-0.52734375 0,-0.09375 -0.01172,-0.28125 -0.222656,-0.48046875 -0.1875,-0.1640625 -0.363281,-0.19921875 -0.597656,-0.234375 -0.292969,-0.0585938 -0.527344,-0.10546875 -0.527344,-0.328125 0,-0.28125 0.363281,-0.28125 0.433594,-0.28125 0.292968,0 0.503906,0.0585938 0.761718,0.1875 z m 2.358399,1.59375001 c -0.28125,0.19921875 -0.597657,0.2578125 -0.808594,0.2578125 -0.433594,0 -0.761719,-0.3515625 -0.773438,-0.80859375 h 1.628907 c 0,-0.234375 -0.02344,-0.5625 -0.222657,-0.84375 -0.175781,-0.25781246 -0.46875,-0.35156246 -0.714843,-0.35156246 -0.609375,0 -1.078125,0.52734371 -1.078125,1.16015621 0,0.64453125 0.492187,1.17187499 1.148437,1.17187499 0.292969,0 0.597656,-0.0820312 0.84375,-0.23437499 z m -1.546875,-0.85546875 c 0.105468,-0.3984375 0.398437,-0.5625 0.65625,-0.5625 0.210937,0 0.539062,0.10546875 0.632812,0.5625 z m 2.692382,-0.50390625 h 0.738282 V -1.2186484 h -0.738282 v -0.6328125 h -0.386718 v 0.6328125 h -0.445313 v 0.31640621 h 0.433594 v 1.265625 c 0,0.328125 0.08203,0.67968749 0.445312,0.67968749 0.351563,0 0.632813,-0.11718749 0.773438,-0.17578124 l -0.08203,-0.328125 c -0.164063,0.12890625 -0.339844,0.1640625 -0.480469,0.1640625 -0.199219,0 -0.257813,-0.2109375 -0.257813,-0.43359375 z m 1.933594,1.8984375 v -0.4453125 h -0.457031 v 0.4453125 h 0.140625 L 17.753922,1.6290078 h 0.222656 z m 1.353516,-1.06640625 c 0,-0.52734375 0.445312,-0.8203125 0.878906,-0.83203125 V -1.2655234 c -0.410156,0 -0.714844,0.2109375 -0.914063,0.46874996 V -1.2538047 h -0.386718 v 2.25000001 h 0.421875 z m 3.108398,0.52734375 c -0.28125,0.19921875 -0.597656,0.2578125 -0.808594,0.2578125 -0.433593,0 -0.761718,-0.3515625 -0.773437,-0.80859375 h 1.628906 c 0,-0.234375 -0.02344,-0.5625 -0.222656,-0.84375 -0.175781,-0.25781246 -0.46875,-0.35156246 -0.714844,-0.35156246 -0.609375,0 -1.078125,0.52734371 -1.078125,1.16015621 0,0.64453125 0.492188,1.17187499 1.148438,1.17187499 0.292968,0 0.597656,-0.0820312 0.84375,-0.23437499 z m -1.546875,-0.85546875 c 0.105469,-0.3984375 0.398438,-0.5625 0.65625,-0.5625 0.210938,0 0.539063,0.10546875 0.632813,0.5625 z m 3.875977,-0.0351563 c 0,-0.515625 -0.386719,-0.85546876 -0.878907,-0.85546876 -0.316406,0 -0.550781,0.058594 -0.832031,0.2109375 l 0.02344,0.36328126 c 0.164062,-0.10546875 0.410156,-0.2578125 0.808593,-0.2578125 0.222657,0 0.445313,0.1640625 0.445313,0.5390625 v 0.19921875 c -0.738281,0.0234375 -1.464844,0.17578125 -1.464844,0.64453125 0,0.24609375 0.175781,0.63281244 0.609375,0.63281244 0.210938,0 0.609375,-0.046875 0.867188,-0.23437494 v 0.1875 h 0.421875 z m -0.433594,0.7265625 c 0,0.09375 0,0.22265625 -0.175781,0.328125 -0.152344,0.09375 -0.351563,0.09375 -0.410157,0.09375 -0.269531,0 -0.480468,-0.1171875 -0.480468,-0.31640625 0,-0.31640625 0.84375,-0.33984375 1.066406,-0.3515625 z m 1.6875,-2.75390626 h -0.410156 v 3.45703126 h 0.410156 z m 0,0"
         style="fill:#808080;fill-opacity:1;fill-rule:nonzero;stroke:none" />
    </g>
    <path
       id="path57"
       d="M -99.21382,-28.50323 V 15.18019"
       style="fill:none;stroke:#808080;stroke-width:0.79701;stroke-linecap:butt;stroke-linejoin:miter;stroke-miterlimit:10;stroke-dasharray:none;stroke-opacity:1"
       transform="matrix(1.3333333,0,0,-1.3333333,181.408,93.013333)" />
    <path
       id="path58"
       d="M 4.66248,0 C 3.28098,0.25902 1.0361,1.0361 -0.51805,1.94269 V -1.94269 C 1.0361,-1.0361 3.28098,-0.25902 4.66248,0"
       style="fill:#808080;fill-opacity:1;fill-rule:nonzero;stroke:none"
       transform="matrix(0,1.3333333,1.3333333,0,49.122907,131.01764)" />
    <path
       id="path59"
       d="M 4.66248,0 C 3.28098,0.25902 1.0361,1.0361 -0.51805,1.94269 V -1.94269 C 1.0361,-1.0361 3.28098,-0.25902 4.66248,0"
       style="fill:#808080;fill-opacity:1;fill-rule:nonzero;stroke:none"
       transform="matrix(0,-1.3333333,-1.3333333,0,49.122907,72.77308)" />
    <g
       id="g59"
       aria-label="x&#10;ofset,BBA"
       transform="matrix(1.3333333,0,0,1.3333333,4.428,110.02)">
      <path
         id="path60"
         d="m 4.4075156,-3.6214453 c -0.328125,0.058594 -0.421875,0.3515625 -0.421875,0.4804687 0,0.1757813 0.1171875,0.328125 0.3398438,0.328125 0.2578125,0 0.5039062,-0.2226562 0.5039062,-0.5273437 0,-0.421875 -0.4570312,-0.6210938 -0.8789062,-0.6210938 -0.5390625,0 -0.84375,0.46875 -0.9492188,0.65625 -0.1757812,-0.4335937 -0.5742187,-0.65625 -0.9960937,-0.65625 -0.9609375,0 -1.48828128,1.1484375 -1.48828128,1.3828125 0,0.082031 0.0703125,0.1054688 0.12890625,0.1054688 0.0820313,0 0.10546875,-0.046875 0.12890625,-0.1054688 0.28124998,-0.8789062 0.86718748,-1.1601562 1.20703128,-1.1601562 0.2578125,0 0.4921875,0.1757812 0.4921875,0.5859375 0,0.328125 -0.3867188,1.7578125 -0.5039063,2.19140624 -0.070312,0.28125 -0.3398437,0.83203125 -0.8320312,0.83203125 -0.17578128,0 -0.36328128,-0.0585938 -0.45703128,-0.1171875 0.24609375,-0.0351562 0.42187498,-0.24609375 0.42187498,-0.48046875 0,-0.22265625 -0.16406248,-0.32812504 -0.33984373,-0.32812504 -0.2578125,0 -0.4921875,0.23437504 -0.4921875,0.53906254 0,0.43359375 0.48046875,0.609375 0.85546873,0.609375 0.5273438,0 0.8320313,-0.421875 0.9609375,-0.66796875 0.2226563,0.59765625 0.7617188,0.66796875 0.9960938,0.66796875 0.9726562,0 1.4765625,-1.16015624 1.4765625,-1.37109374 0,-0.046875 -0.023437,-0.1171875 -0.1171875,-0.1171875 -0.09375,0 -0.1054688,0.035156 -0.1523438,0.1757812 -0.1875,0.64453129 -0.7148437,1.08984379 -1.1835937,1.08984379 -0.2578125,0 -0.4921875,-0.15234375 -0.4921875,-0.5859375 0,-0.19921875 0.1171875,-0.69140629 0.1992187,-1.03124999 0.035156,-0.1640625 0.28125,-1.1367188 0.2929688,-1.1953125 0.1171875,-0.3164063 0.3867187,-0.796875 0.84375,-0.796875 0.1523437,0 0.328125,0.023437 0.4570312,0.1171875 z m 0,0"
         style="fill:#808080;fill-opacity:1;fill-rule:nonzero;stroke:none" />
      <path
         id="path61"
         d="m 7.7180625,-0.09410156 c 0,-0.65625 -0.5273438,-1.19531254 -1.171875,-1.19531254 -0.65625,0 -1.171875,0.53906254 -1.171875,1.19531254 0,0.6328125 0.5273437,1.13671876 1.171875,1.13671876 0.6445312,0 1.171875,-0.50390626 1.171875,-1.13671876 z m -1.171875,0.796875 c -0.3984375,0 -0.7382813,-0.29296875 -0.7382813,-0.85546875 0,-0.5625 0.3632813,-0.80859375 0.7382813,-0.80859375 0.375,0 0.7382812,0.2578125 0.7382812,0.80859375 0,0.57421875 -0.3632812,0.85546875 -0.7382812,0.85546875 z M 8.819625,-0.90269531 H 9.3938437 V -1.2191016 H 8.7961875 v -0.5742187 c 0,-0.3515625 0.3398437,-0.3867188 0.4804687,-0.3867188 0.1171875,0 0.2578125,0.011719 0.4335938,0.082031 v -0.3632813 c -0.1289063,-0.035156 -0.28125,-0.046875 -0.421875,-0.046875 -0.515625,0 -0.890625,0.3632813 -0.890625,0.8554688 v 0.4335937 H 8.0110312 v 0.31640629 H 8.39775 v 1.8984375 h 0.421875 z m 1.464844,0 h 0.574218 V -1.2191016 h -0.597656 v -0.5742187 c 0,-0.3515625 0.339844,-0.3867188 0.480469,-0.3867188 0.117187,0 0.257812,0.011719 0.433594,0.082031 v -0.3632813 c -0.128907,-0.035156 -0.28125,-0.046875 -0.421875,-0.046875 -0.515625,0 -0.8906253,0.3632813 -0.8906253,0.8554688 v 2.64843749 h 0.4218753 z m 2.490234,-0.23437499 c -0.339844,-0.140625 -0.585937,-0.1523438 -0.761719,-0.1523438 -0.128906,0 -0.878906,0 -0.878906,0.65625004 0,0.234375 0.128906,0.36328125 0.1875,0.43359375 0.175781,0.1640625 0.386719,0.2109375 0.65625,0.2578125 0.234375,0.046875 0.503906,0.09375 0.503906,0.33984375 0,0.3046875 -0.421875,0.3046875 -0.492187,0.3046875 -0.316406,0 -0.609375,-0.10546875 -0.808594,-0.24609375 l -0.07031,0.375 c 0.164062,0.0820313 0.46875,0.21093751 0.878906,0.21093751 0.234375,0 0.445312,-0.035156 0.632812,-0.16406251 0.1875,-0.140625 0.246094,-0.36328125 0.246094,-0.52734375 0,-0.09375 -0.01172,-0.28125 -0.222656,-0.48046875 -0.1875,-0.1640625 -0.363281,-0.19921875 -0.597656,-0.234375 -0.292969,-0.0585938 -0.527344,-0.10546875 -0.527344,-0.328125 0,-0.28125 0.363281,-0.28125 0.433594,-0.28125 0.292968,0 0.503906,0.0585938 0.761718,0.1875 z m 2.355469,1.59374999 c -0.28125,0.19921875 -0.597656,0.2578125 -0.808594,0.2578125 -0.433594,0 -0.761719,-0.3515625 -0.773437,-0.80859375 h 1.628906 c 0,-0.234375 -0.02344,-0.5625 -0.222656,-0.84375 -0.175782,-0.25781254 -0.46875,-0.35156254 -0.714844,-0.35156254 -0.609375,0 -1.078125,0.52734379 -1.078125,1.16015629 0,0.64453125 0.492187,1.17187501 1.148437,1.17187501 0.292969,0 0.597657,-0.0820313 0.84375,-0.23437501 z m -1.546875,-0.85546875 c 0.105469,-0.3984375 0.398437,-0.5625 0.65625,-0.5625 0.210937,0 0.539062,0.10546875 0.632812,0.5625 z m 2.692383,-0.50390625 h 0.738281 V -1.2191016 H 16.27568 v -0.6328125 h -0.386719 v 0.6328125 h -0.445313 v 0.31640629 h 0.433594 v 1.265625 c 0,0.328125 0.08203,0.67968751 0.445313,0.67968751 0.351562,0 0.632812,-0.11718751 0.773437,-0.17578126 l -0.08203,-0.328125 c -0.164063,0.12890625 -0.339844,0.1640625 -0.480469,0.1640625 -0.199219,0 -0.257812,-0.2109375 -0.257812,-0.43359375 z m 1.933593,1.8984375 v -0.4453125 h -0.457031 v 0.4453125 h 0.140625 L 17.752242,1.6285547 h 0.222656 z m 1.013672,-3.45703129 v 3.45703129 h 1.417969 c 0.738281,0 1.300781,-0.43359375 1.300781,-0.9375 0,-0.43359375 -0.457031,-0.78515625 -1.007812,-0.8671875 0.515625,-0.12890625 0.867187,-0.42187499 0.867187,-0.78515629 0,-0.4570312 -0.574218,-0.8671875 -1.3125,-0.8671875 z m 0.457032,1.50000004 V -2.1683203 h 0.667968 c 0.550782,0 1.019532,0.2578125 1.019532,0.5742187 0,0.3398438 -0.457032,0.63281254 -1.019532,0.63281254 z m 0,1.6640625 v -1.3359375 h 0.714843 c 0.632813,0 1.101563,0.31640625 1.101563,0.69140625 0,0.36328125 -0.46875,0.64453125 -1.019531,0.64453125 z m 3.070312,-3.16406254 v 3.45703129 h 1.417969 c 0.738281,0 1.300781,-0.43359375 1.300781,-0.9375 0,-0.43359375 -0.457031,-0.78515625 -1.007812,-0.8671875 0.515625,-0.12890625 0.867187,-0.42187499 0.867187,-0.78515629 0,-0.4570312 -0.574219,-0.8671875 -1.3125,-0.8671875 z m 0.457031,1.50000004 V -2.1683203 h 0.667969 c 0.550781,0 1.019531,0.2578125 1.019531,0.5742187 0,0.3398438 -0.457031,0.63281254 -1.019531,0.63281254 z m 0,1.6640625 v -1.3359375 h 0.714844 c 0.632813,0 1.101563,0.31640625 1.101563,0.69140625 0,0.36328125 -0.46875,0.64453125 -1.019532,0.64453125 z M 27.780562,-2.4612891 H 27.300094 L 25.929,0.99574219 h 0.410156 l 0.386719,-0.984375 h 1.511719 l 0.386718,0.984375 h 0.527344 z m -0.292968,0.375 0.621093,1.80468754 h -1.265625 z m 0,0"
         style="fill:#808080;fill-opacity:1;fill-rule:nonzero;stroke:none" />
    </g>
    <path
       id="path62"
       d="m -56.69362,19.84267 h -45.35506"
       style="fill:none;stroke:#000000;stroke-width:0.79701;stroke-linecap:butt;stroke-linejoin:miter;stroke-miterlimit:10;stroke-dasharray:0.79701, 0.99628;stroke-dashoffset:0;stroke-opacity:1"
       transform="matrix(1.3333333,0,0,-1.3333333,181.408,93.013333)" />
    <path
       id="path63"
       d="m -56.69362,-33.16571 h -45.35506"
       style="fill:none;stroke:#000000;stroke-width:0.79701;stroke-linecap:butt;stroke-linejoin:miter;stroke-miterlimit:10;stroke-dasharray:0.79701, 0.99628;stroke-dashoffset:0;stroke-opacity:1"
       transform="matrix(1.3333333,0,0,-1.3333333,181.408,93.013333)" />
  </g>
</svg>
