<?xml version="1.0" encoding="UTF-8" standalone="no"?>
<!-- Created with Inkscape (http://www.inkscape.org/) -->

<svg
   version="1.1"
   id="svg1"
   width="227.83467"
   height="169.13467"
   viewBox="0 0 227.83467 169.13467"
   sodipodi:docname="bpm2quad-offset-closer.pdf"
   xmlns:inkscape="http://www.inkscape.org/namespaces/inkscape"
   xmlns:sodipodi="http://sodipodi.sourceforge.net/DTD/sodipodi-0.dtd"
   xmlns="http://www.w3.org/2000/svg"
   xmlns:svg="http://www.w3.org/2000/svg">
  <defs
     id="defs1" />
  <sodipodi:namedview
     id="namedview1"
     pagecolor="#ffffff"
     bordercolor="#000000"
     borderopacity="0.25"
     inkscape:showpageshadow="2"
     inkscape:pageopacity="0.0"
     inkscape:pagecheckerboard="0"
     inkscape:deskcolor="#d1d1d1">
    <inkscape:page
       x="0"
       y="0"
       inkscape:label="1"
       id="page1"
       width="227.83467"
       height="169.13467"
       margin="0"
       bleed="0" />
  </sodipodi:namedview>
  <g
     id="g1"
     inkscape:groupmode="layer"
     inkscape:label="1">
    <path
       id="path1"
       d="M -14.17339,35.43349 0,0 14.17339,35.43349 Z"
       style="fill:#ff8000;fill-opacity:1;fill-rule:nonzero;stroke:none"
       transform="matrix(1.3333333,0,0,-1.3333333,151.712,93.013333)" />
    <path
       id="path2"
       d="M -14.17339,-35.43349 0,0 14.17339,-35.43349 Z"
       style="fill:#ff8000;fill-opacity:1;fill-rule:nonzero;stroke:none"
       transform="matrix(1.3333333,0,0,-1.3333333,151.712,93.013333)" />
    <path
       id="path3"
       d="m 5.3076406,-0.32857812 c 1.0898438,-0.84374998 1.453125,-2.06249998 1.453125,-3.10546878 0,-2.0976562 -1.4414062,-3.703125 -3.09375,-3.703125 -1.6992187,0 -3.10546872,1.6289063 -3.10546872,3.703125 0,2.109375 1.46484372,3.65625003 3.09375002,3.65625003 0.1640625,0 0.5273437,-0.0117188 0.9609375,-0.1875 L 5.4717031,1.2417344 H 6.4912344 Z M 4.2177969,-0.50435937 c 0,0 -0.2695313,0.0820313 -0.5507813,0.0820313 -1.171875,0 -2.25,-1.16015633 -2.25,-3.01171873 0,-1.8632812 1.078125,-3.0585937 2.2382813,-3.0585937 1.1953125,0 2.25,1.2070312 2.25,3.0585937 0,0.6445313 -0.1171875,1.734375 -1.0195313,2.54296873 L 4.1006094,-1.9340469 H 3.2217031 Z M 11.667992,-4.4184219 h -0.785156 v 2.8828125 c 0,0.75000003 -0.550781,1.10156253 -1.1953126,1.10156253 -0.703125,0 -0.7734375,-0.26953125 -0.7734375,-0.69140623 V -4.4184219 H 8.1406484 v 3.328125 c 0,0.72656253 0.2226563,1.19531253 1.0546875,1.19531253 0.5273438,0 1.2304691,-0.15234375 1.7226561,-0.5859375 v 0.480468745 h 0.75 z m 4.78711,1.5351563 c 0,-1.0078125 -0.726563,-1.7109375 -1.640625,-1.7109375 -0.644532,0 -1.101563,0.1640625 -1.570313,0.4335937 l 0.07031,0.65625 c 0.515625,-0.375 1.007812,-0.5039062 1.5,-0.5039062 0.46875,0 0.867187,0.3984375 0.867187,1.1367187 v 0.4335938 c -1.5,0.011719 -2.765625,0.4335937 -2.765625,1.3125 0,0.42187498 0.269531,1.23046873 1.136719,1.23046873 0.140625,0 1.078125,-0.01171875 1.652344,-0.46875 v 0.363281245 h 0.75 z m -0.773438,1.5703125 c 0,0.1875 0,0.43359373 -0.339844,0.62109373 -0.292968,0.1875 -0.667968,0.1875 -0.773437,0.1875 -0.480469,0 -0.925781,-0.22265625 -0.925781,-0.64453123 0,-0.6914063 1.605468,-0.7617188 2.039062,-0.7851563 z m 5.912109,-5.6015625 h -0.75 v 2.9296875 c -0.527343,-0.4335938 -1.078125,-0.5507813 -1.453125,-0.5507813 -0.984375,0 -1.757812,1.0429688 -1.757812,2.3203125 0,1.31250003 0.761719,2.32031253 1.710937,2.32031253 0.328125,0 0.914063,-0.08203125 1.476563,-0.62109375 v 0.515624995 h 0.773437 z m -0.773437,5.53125 c 0,0.140625 -0.01172,0.3164062 -0.328125,0.60937498 -0.234375,0.19921875 -0.480469,0.26953125 -0.738281,0.26953125 -0.621094,0 -1.347657,-0.45703125 -1.347657,-1.69921873 0,-1.3125 0.855469,-1.7226563 1.441407,-1.7226563 0.445312,0 0.75,0.234375 0.972656,0.5507813 z m 0,0"
       style="fill:#000000;fill-opacity:1;fill-rule:nonzero;stroke:none"
       aria-label="Quad"
       transform="matrix(1.3333333,0,0,1.3333333,155.66533,39.414667)" />
    <path
       id="path4"
       d="M -113.38724,0 H 56.69362"
       style="fill:none;stroke:#000000;stroke-width:0.79701;stroke-linecap:butt;stroke-linejoin:miter;stroke-miterlimit:10;stroke-dasharray:2.98883, 1.99255;stroke-dashoffset:0;stroke-opacity:1"
       transform="matrix(1.3333333,0,0,-1.3333333,151.712,93.013333)" />
    <path
       id="path5"
       d="M -96.37897,33.73247 56.69362,-19.84267"
       style="fill:none;stroke:#ff0000;stroke-width:0.69739;stroke-linecap:butt;stroke-linejoin:miter;stroke-miterlimit:10;stroke-dasharray:none;stroke-opacity:1"
       transform="matrix(1.3333333,0,0,-1.3333333,151.712,93.013333)" />
    <path
       id="path6"
       d="M -96.37897,28.3468 0,0.2833 56.69362,-17.00824"
       style="fill:none;stroke:#ff0000;stroke-width:0.69739;stroke-linecap:butt;stroke-linejoin:miter;stroke-miterlimit:10;stroke-dasharray:none;stroke-opacity:1"
       transform="matrix(1.3333333,0,0,-1.3333333,151.712,93.013333)" />
    <path
       id="path7"
       d="M -96.37897,39.68535 0,-0.2833 56.69362,-22.67752"
       style="fill:none;stroke:#ff0000;stroke-width:0.69739;stroke-linecap:butt;stroke-linejoin:miter;stroke-miterlimit:10;stroke-dasharray:none;stroke-opacity:1"
       transform="matrix(1.3333333,0,0,-1.3333333,151.712,93.013333)" />
    <path
       id="path8"
       d="M -5.66927,-56.69362 V 56.69362"
       style="fill:none;stroke:#000000;stroke-width:0.79701;stroke-linecap:butt;stroke-linejoin:miter;stroke-miterlimit:10;stroke-dasharray:none;stroke-opacity:1"
       transform="matrix(1.3333333,0,0,-1.3333333,151.712,93.013333)" />
    <path
       id="path9"
       d="m -5.66927,55.31078 h 2.83486"
       style="fill:none;stroke:#000000;stroke-width:0.64757;stroke-linecap:butt;stroke-linejoin:miter;stroke-miterlimit:10;stroke-dasharray:none;stroke-opacity:1"
       transform="matrix(1.3333333,0,0,-1.3333333,151.712,93.013333)" />
    <path
       id="path10"
       d="m -5.66927,52.54514 h 2.83486"
       style="fill:none;stroke:#000000;stroke-width:0.64757;stroke-linecap:butt;stroke-linejoin:miter;stroke-miterlimit:10;stroke-dasharray:none;stroke-opacity:1"
       transform="matrix(1.3333333,0,0,-1.3333333,151.712,93.013333)" />
    <path
       id="path11"
       d="M -5.66927,49.77948 H 0"
       style="fill:none;stroke:#000000;stroke-width:0.79701;stroke-linecap:butt;stroke-linejoin:miter;stroke-miterlimit:10;stroke-dasharray:none;stroke-opacity:1"
       transform="matrix(1.3333333,0,0,-1.3333333,151.712,93.013333)" />
    <path
       id="path12"
       d="m -5.66927,47.01384 h 2.83486"
       style="fill:none;stroke:#000000;stroke-width:0.64757;stroke-linecap:butt;stroke-linejoin:miter;stroke-miterlimit:10;stroke-dasharray:none;stroke-opacity:1"
       transform="matrix(1.3333333,0,0,-1.3333333,151.712,93.013333)" />
    <path
       id="path13"
       d="m -5.66927,44.24861 h 2.83486"
       style="fill:none;stroke:#000000;stroke-width:0.64757;stroke-linecap:butt;stroke-linejoin:miter;stroke-miterlimit:10;stroke-dasharray:none;stroke-opacity:1"
       transform="matrix(1.3333333,0,0,-1.3333333,151.712,93.013333)" />
    <path
       id="path14"
       d="m -5.66927,41.48297 h 2.83486"
       style="fill:none;stroke:#000000;stroke-width:0.64757;stroke-linecap:butt;stroke-linejoin:miter;stroke-miterlimit:10;stroke-dasharray:none;stroke-opacity:1"
       transform="matrix(1.3333333,0,0,-1.3333333,151.712,93.013333)" />
    <path
       id="path15"
       d="m -5.66927,38.71732 h 2.83486"
       style="fill:none;stroke:#000000;stroke-width:0.64757;stroke-linecap:butt;stroke-linejoin:miter;stroke-miterlimit:10;stroke-dasharray:none;stroke-opacity:1"
       transform="matrix(1.3333333,0,0,-1.3333333,151.712,93.013333)" />
    <path
       id="path16"
       d="M -5.66927,35.95169 H 0"
       style="fill:none;stroke:#000000;stroke-width:0.79701;stroke-linecap:butt;stroke-linejoin:miter;stroke-miterlimit:10;stroke-dasharray:none;stroke-opacity:1"
       transform="matrix(1.3333333,0,0,-1.3333333,151.712,93.013333)" />
    <path
       id="path17"
       d="m -5.66927,33.18646 h 2.83486"
       style="fill:none;stroke:#000000;stroke-width:0.64757;stroke-linecap:butt;stroke-linejoin:miter;stroke-miterlimit:10;stroke-dasharray:none;stroke-opacity:1"
       transform="matrix(1.3333333,0,0,-1.3333333,151.712,93.013333)" />
    <path
       id="path18"
       d="m -5.66927,30.4208 h 2.83486"
       style="fill:none;stroke:#000000;stroke-width:0.64757;stroke-linecap:butt;stroke-linejoin:miter;stroke-miterlimit:10;stroke-dasharray:none;stroke-opacity:1"
       transform="matrix(1.3333333,0,0,-1.3333333,151.712,93.013333)" />
    <path
       id="path19"
       d="m -5.66927,27.65517 h 2.83486"
       style="fill:none;stroke:#000000;stroke-width:0.64757;stroke-linecap:butt;stroke-linejoin:miter;stroke-miterlimit:10;stroke-dasharray:none;stroke-opacity:1"
       transform="matrix(1.3333333,0,0,-1.3333333,151.712,93.013333)" />
    <path
       id="path20"
       d="m -5.66927,24.88953 h 2.83486"
       style="fill:none;stroke:#000000;stroke-width:0.64757;stroke-linecap:butt;stroke-linejoin:miter;stroke-miterlimit:10;stroke-dasharray:none;stroke-opacity:1"
       transform="matrix(1.3333333,0,0,-1.3333333,151.712,93.013333)" />
    <path
       id="path21"
       d="M -5.66927,22.1243 H 0"
       style="fill:none;stroke:#000000;stroke-width:0.79701;stroke-linecap:butt;stroke-linejoin:miter;stroke-miterlimit:10;stroke-dasharray:none;stroke-opacity:1"
       transform="matrix(1.3333333,0,0,-1.3333333,151.712,93.013333)" />
    <path
       id="path22"
       d="m -5.66927,19.35864 h 2.83486"
       style="fill:none;stroke:#000000;stroke-width:0.64757;stroke-linecap:butt;stroke-linejoin:miter;stroke-miterlimit:10;stroke-dasharray:none;stroke-opacity:1"
       transform="matrix(1.3333333,0,0,-1.3333333,151.712,93.013333)" />
    <path
       id="path23"
       d="m -5.66927,16.59302 h 2.83486"
       style="fill:none;stroke:#000000;stroke-width:0.64757;stroke-linecap:butt;stroke-linejoin:miter;stroke-miterlimit:10;stroke-dasharray:none;stroke-opacity:1"
       transform="matrix(1.3333333,0,0,-1.3333333,151.712,93.013333)" />
    <path
       id="path24"
       d="m -5.66927,13.82736 h 2.83486"
       style="fill:none;stroke:#000000;stroke-width:0.64757;stroke-linecap:butt;stroke-linejoin:miter;stroke-miterlimit:10;stroke-dasharray:none;stroke-opacity:1"
       transform="matrix(1.3333333,0,0,-1.3333333,151.712,93.013333)" />
    <path
       id="path25"
       d="m -5.66927,11.06213 h 2.83486"
       style="fill:none;stroke:#000000;stroke-width:0.64757;stroke-linecap:butt;stroke-linejoin:miter;stroke-miterlimit:10;stroke-dasharray:none;stroke-opacity:1"
       transform="matrix(1.3333333,0,0,-1.3333333,151.712,93.013333)" />
    <path
       id="path26"
       d="M -5.66927,8.29651 H 0"
       style="fill:none;stroke:#000000;stroke-width:0.79701;stroke-linecap:butt;stroke-linejoin:miter;stroke-miterlimit:10;stroke-dasharray:none;stroke-opacity:1"
       transform="matrix(1.3333333,0,0,-1.3333333,151.712,93.013333)" />
    <path
       id="path27"
       d="m -5.66927,5.53085 h 2.83486"
       style="fill:none;stroke:#000000;stroke-width:0.64757;stroke-linecap:butt;stroke-linejoin:miter;stroke-miterlimit:10;stroke-dasharray:none;stroke-opacity:1"
       transform="matrix(1.3333333,0,0,-1.3333333,151.712,93.013333)" />
    <path
       id="path28"
       d="m -5.66927,2.7652 h 2.83486"
       style="fill:none;stroke:#000000;stroke-width:0.64757;stroke-linecap:butt;stroke-linejoin:miter;stroke-miterlimit:10;stroke-dasharray:none;stroke-opacity:1"
       transform="matrix(1.3333333,0,0,-1.3333333,151.712,93.013333)" />
    <path
       id="path29"
       d="m -5.66927,0 h 2.83486"
       style="fill:none;stroke:#000000;stroke-width:0.64757;stroke-linecap:butt;stroke-linejoin:miter;stroke-miterlimit:10;stroke-dasharray:none;stroke-opacity:1"
       transform="matrix(1.3333333,0,0,-1.3333333,151.712,93.013333)" />
    <path
       id="path30"
       d="m -5.66927,-2.76563 h 2.83486"
       style="fill:none;stroke:#000000;stroke-width:0.64757;stroke-linecap:butt;stroke-linejoin:miter;stroke-miterlimit:10;stroke-dasharray:none;stroke-opacity:1"
       transform="matrix(1.3333333,0,0,-1.3333333,151.712,93.013333)" />
    <path
       id="path31"
       d="M -5.66927,-5.53128 H 0"
       style="fill:none;stroke:#000000;stroke-width:0.79701;stroke-linecap:butt;stroke-linejoin:miter;stroke-miterlimit:10;stroke-dasharray:none;stroke-opacity:1"
       transform="matrix(1.3333333,0,0,-1.3333333,151.712,93.013333)" />
    <path
       id="path32"
       d="m -5.66927,-8.29692 h 2.83486"
       style="fill:none;stroke:#000000;stroke-width:0.64757;stroke-linecap:butt;stroke-linejoin:miter;stroke-miterlimit:10;stroke-dasharray:none;stroke-opacity:1"
       transform="matrix(1.3333333,0,0,-1.3333333,151.712,93.013333)" />
    <path
       id="path33"
       d="m -5.66927,-11.06213 h 2.83486"
       style="fill:none;stroke:#000000;stroke-width:0.64757;stroke-linecap:butt;stroke-linejoin:miter;stroke-miterlimit:10;stroke-dasharray:none;stroke-opacity:1"
       transform="matrix(1.3333333,0,0,-1.3333333,151.712,93.013333)" />
    <path
       id="path34"
       d="m -5.66927,-13.82779 h 2.83486"
       style="fill:none;stroke:#000000;stroke-width:0.64757;stroke-linecap:butt;stroke-linejoin:miter;stroke-miterlimit:10;stroke-dasharray:none;stroke-opacity:1"
       transform="matrix(1.3333333,0,0,-1.3333333,151.712,93.013333)" />
    <path
       id="path35"
       d="m -5.66927,-16.59344 h 2.83486"
       style="fill:none;stroke:#000000;stroke-width:0.64757;stroke-linecap:butt;stroke-linejoin:miter;stroke-miterlimit:10;stroke-dasharray:none;stroke-opacity:1"
       transform="matrix(1.3333333,0,0,-1.3333333,151.712,93.013333)" />
    <path
       id="path36"
       d="M -5.66927,-19.35909 H 0"
       style="fill:none;stroke:#000000;stroke-width:0.79701;stroke-linecap:butt;stroke-linejoin:miter;stroke-miterlimit:10;stroke-dasharray:none;stroke-opacity:1"
       transform="matrix(1.3333333,0,0,-1.3333333,151.712,93.013333)" />
    <path
       id="path37"
       d="m -5.66927,-22.1243 h 2.83486"
       style="fill:none;stroke:#000000;stroke-width:0.64757;stroke-linecap:butt;stroke-linejoin:miter;stroke-miterlimit:10;stroke-dasharray:none;stroke-opacity:1"
       transform="matrix(1.3333333,0,0,-1.3333333,151.712,93.013333)" />
    <path
       id="path38"
       d="m -5.66927,-24.88995 h 2.83486"
       style="fill:none;stroke:#000000;stroke-width:0.64757;stroke-linecap:butt;stroke-linejoin:miter;stroke-miterlimit:10;stroke-dasharray:none;stroke-opacity:1"
       transform="matrix(1.3333333,0,0,-1.3333333,151.712,93.013333)" />
    <path
       id="path39"
       d="m -5.66927,-27.6556 h 2.83486"
       style="fill:none;stroke:#000000;stroke-width:0.64757;stroke-linecap:butt;stroke-linejoin:miter;stroke-miterlimit:10;stroke-dasharray:none;stroke-opacity:1"
       transform="matrix(1.3333333,0,0,-1.3333333,151.712,93.013333)" />
    <path
       id="path40"
       d="m -5.66927,-30.42125 h 2.83486"
       style="fill:none;stroke:#000000;stroke-width:0.64757;stroke-linecap:butt;stroke-linejoin:miter;stroke-miterlimit:10;stroke-dasharray:none;stroke-opacity:1"
       transform="matrix(1.3333333,0,0,-1.3333333,151.712,93.013333)" />
    <path
       id="path41"
       d="M -5.66927,-33.18646 H 0"
       style="fill:none;stroke:#000000;stroke-width:0.79701;stroke-linecap:butt;stroke-linejoin:miter;stroke-miterlimit:10;stroke-dasharray:none;stroke-opacity:1"
       transform="matrix(1.3333333,0,0,-1.3333333,151.712,93.013333)" />
    <path
       id="path42"
       d="m 3.8912969,-2.5912734 c 0,-0.3867188 0,-1.3125 -0.375,-1.96875 -0.4101563,-0.7148438 -1.0195313,-0.8320313 -1.40625,-0.8320313 -0.3515625,0 -0.9726563,0.1054688 -1.37109377,0.796875 -0.38671875,0.6328125 -0.3984375,1.5 -0.3984375,2.0039063 0,0.5859375 0.0234375,1.3125 0.36328125,1.92187496 0.35156252,0.64453125 0.93750002,0.83203125 1.40625002,0.83203125 0.796875,0 1.2421875,-0.45703125 1.4765625,-0.9609375 0.28125,-0.56250001 0.3046875,-1.30078121 0.3046875,-1.79296871 z m -1.78125,2.22656246 c -0.328125,0 -0.7148438,-0.1875 -0.9140625,-0.76171876 -0.1640625,-0.4804687 -0.1640625,-0.984375 -0.1640625,-1.5703125 0,-0.7265625 0,-2.1679687 1.078125,-2.1679687 1.0898437,0 1.0898437,1.4414062 1.0898437,2.1679687 0,0.5273438 0,1.125 -0.1992187,1.640625 -0.2226563,0.57421876 -0.6210938,0.69140626 -0.890625,0.69140626 z m 0,0"
       style="fill:#000000;fill-opacity:1;fill-rule:nonzero;stroke:none"
       aria-label="0"
       transform="matrix(1.3333333,0,0,1.3333333,153.35067,140.748)" />
    <path
       id="path43"
       d="m -5.66927,-35.9521 h 2.83486"
       style="fill:none;stroke:#000000;stroke-width:0.64757;stroke-linecap:butt;stroke-linejoin:miter;stroke-miterlimit:10;stroke-dasharray:none;stroke-opacity:1"
       transform="matrix(1.3333333,0,0,-1.3333333,151.712,93.013333)" />
    <path
       id="path44"
       d="m -5.66927,-38.71776 h 2.83486"
       style="fill:none;stroke:#000000;stroke-width:0.64757;stroke-linecap:butt;stroke-linejoin:miter;stroke-miterlimit:10;stroke-dasharray:none;stroke-opacity:1"
       transform="matrix(1.3333333,0,0,-1.3333333,151.712,93.013333)" />
    <path
       id="path45"
       d="m -5.66927,-41.48341 h 2.83486"
       style="fill:none;stroke:#000000;stroke-width:0.64757;stroke-linecap:butt;stroke-linejoin:miter;stroke-miterlimit:10;stroke-dasharray:none;stroke-opacity:1"
       transform="matrix(1.3333333,0,0,-1.3333333,151.712,93.013333)" />
    <path
       id="path46"
       d="m -5.66927,-44.24861 h 2.83486"
       style="fill:none;stroke:#000000;stroke-width:0.64757;stroke-linecap:butt;stroke-linejoin:miter;stroke-miterlimit:10;stroke-dasharray:none;stroke-opacity:1"
       transform="matrix(1.3333333,0,0,-1.3333333,151.712,93.013333)" />
    <path
       id="path47"
       d="M -5.66927,-47.01427 H 0"
       style="fill:none;stroke:#000000;stroke-width:0.79701;stroke-linecap:butt;stroke-linejoin:miter;stroke-miterlimit:10;stroke-dasharray:none;stroke-opacity:1"
       transform="matrix(1.3333333,0,0,-1.3333333,151.712,93.013333)" />
    <path
       id="path48"
       d="m -5.66927,-49.77992 h 2.83486"
       style="fill:none;stroke:#000000;stroke-width:0.64757;stroke-linecap:butt;stroke-linejoin:miter;stroke-miterlimit:10;stroke-dasharray:none;stroke-opacity:1"
       transform="matrix(1.3333333,0,0,-1.3333333,151.712,93.013333)" />
    <path
       id="path49"
       d="m -5.66927,-52.54556 h 2.83486"
       style="fill:none;stroke:#000000;stroke-width:0.64757;stroke-linecap:butt;stroke-linejoin:miter;stroke-miterlimit:10;stroke-dasharray:none;stroke-opacity:1"
       transform="matrix(1.3333333,0,0,-1.3333333,151.712,93.013333)" />
    <path
       id="path50"
       d="m -5.66927,-55.31122 h 2.83486"
       style="fill:none;stroke:#000000;stroke-width:0.64757;stroke-linecap:butt;stroke-linejoin:miter;stroke-miterlimit:10;stroke-dasharray:none;stroke-opacity:1"
       transform="matrix(1.3333333,0,0,-1.3333333,151.712,93.013333)" />
    <path
       id="path51"
       d="M 0.87833594,-6.2218047 V 8.515625e-4 H 3.3392734 c 1.3359375,0 2.2851563,-0.8203125025 2.2851563,-1.6874999625 0,-0.796875 -0.8085938,-1.4179688 -1.7695313,-1.5703125 0.890625,-0.2226563 1.5117188,-0.75 1.5117188,-1.40625 0,-0.8203125 -0.9960938,-1.5585938 -2.2734375,-1.5585938 z m 0.80859376,2.6953125 v -2.1679687 h 1.1484375 c 0.9140625,0 1.78125,0.421875 1.78125,1.0546875 0,0.515625 -0.6328125,1.1132812 -1.8867188,1.1132812 z m 0,3.00000001 V -2.9405547 h 1.3125 c 0.9492187,0 1.8515625,0.5390625 1.8515625,1.2421875 0,0.6445313 -0.7851563,1.17187501 -1.78125,1.17187501 z M 9.3392734,-2.5538359 c 1.2656246,0 2.1796876,-0.8671875 2.1796876,-1.8515625 0,-0.9492188 -0.902344,-1.8164063 -2.1796876,-1.8164063 H 7.0189609 V 8.515625e-4 H 7.8861484 V -2.5538359 Z m -0.2109375,-3.140625 c 1.0312501,0 1.6171871,0.5742187 1.6171871,1.2890625 0,0.7265625 -0.574218,1.3007812 -1.6171871,1.3007812 H 7.8509922 v -2.5898437 z m 7.7695311,2.5429687 c -0.234375,0.5976563 -0.714844,1.8398438 -0.832031,2.27343751 C 15.972086,-1.2413359 15.56193,-2.3311797 15.386148,-2.7647734 l -1.183593,-3.046875 -0.164063,-0.4101563 H 12.960367 V 8.515625e-4 h 0.738281 V -5.5186797 h 0.01172 c 0.105469,0.4570313 0.621094,1.7929688 0.714844,2.0390625 l 0.996094,2.53125001 c 0.07031,0.17578125 0.234375,0.62109375 0.292968,0.75 h 0.679688 l 1.242187,-3.15234371 c 0.128907,-0.328125 0.679688,-1.7460938 0.796875,-2.1679688 V 8.515625e-4 h 0.738282 V -6.2218047 H 18.09318 Z m 0,0"
       style="fill:#000000;fill-opacity:1;fill-rule:nonzero;stroke:none"
       aria-label="BPM"
       transform="matrix(1.3333333,0,0,1.3333333,130.75467,12.729333)" />
    <path
       id="path52"
       d="M -14.17339,-28.50323 V -4.66248"
       style="fill:none;stroke:#808080;stroke-width:0.79701;stroke-linecap:butt;stroke-linejoin:miter;stroke-miterlimit:10;stroke-dasharray:none;stroke-opacity:1"
       transform="matrix(1.3333333,0,0,-1.3333333,151.712,93.013333)" />
    <path
       id="path53"
       d="M 4.66248,0 C 3.28098,0.25902 1.0361,1.0361 -0.51805,1.94269 V -1.94269 C 1.0361,-1.0361 3.28098,-0.25902 4.66248,0"
       style="fill:#808080;fill-opacity:1;fill-rule:nonzero;stroke:none"
       transform="matrix(0,1.3333333,1.3333333,0,132.81415,131.01764)" />
    <path
       id="path54"
       d="M 4.66248,0 C 3.28098,0.25902 1.0361,1.0361 -0.51805,1.94269 V -1.94269 C 1.0361,-1.0361 3.28098,-0.25902 4.66248,0"
       style="fill:#808080;fill-opacity:1;fill-rule:nonzero;stroke:none"
       transform="matrix(0,-1.3333333,-1.3333333,0,132.81415,99.229973)" />
    <g
       id="g54"
       aria-label="x&#10;ofset,real"
       transform="matrix(1.3333333,0,0,1.3333333,91.612,116.60533)">
      <path
         id="path55"
         d="m 4.4072109,-3.6209922 c -0.328125,0.058594 -0.421875,0.3515625 -0.421875,0.4804688 0,0.1757812 0.1171875,0.328125 0.3398438,0.328125 0.2578125,0 0.5039062,-0.2226563 0.5039062,-0.5273438 0,-0.421875 -0.4570312,-0.6210937 -0.8789062,-0.6210937 -0.5390625,0 -0.84375,0.46875 -0.9492188,0.65625 -0.1757812,-0.4335938 -0.5742187,-0.65625 -0.9960937,-0.65625 -0.9609375,0 -1.48828126,1.1484375 -1.48828126,1.3828125 0,0.082031 0.0703125,0.1054687 0.12890625,0.1054687 0.0820313,0 0.10546875,-0.046875 0.12890625,-0.1054687 0.28124996,-0.8789063 0.86718746,-1.1601563 1.20703126,-1.1601563 0.2578125,0 0.4921875,0.1757813 0.4921875,0.5859375 0,0.328125 -0.3867188,1.7578125 -0.5039063,2.19140626 -0.070312,0.28125 -0.3398437,0.83203125 -0.8320312,0.83203125 -0.17578126,0 -0.36328126,-0.0585938 -0.45703126,-0.1171875 0.24609375,-0.0351563 0.42187496,-0.24609375 0.42187496,-0.48046875 0,-0.22265625 -0.16406246,-0.32812496 -0.33984371,-0.32812496 -0.2578125,0 -0.4921875,0.23437496 -0.4921875,0.53906246 0,0.43359375 0.48046875,0.609375 0.85546871,0.609375 0.5273438,0 0.8320313,-0.421875 0.9609375,-0.66796875 0.2226563,0.59765625 0.7617188,0.66796875 0.9960938,0.66796875 0.9726562,0 1.4765625,-1.16015626 1.4765625,-1.37109376 0,-0.046875 -0.023437,-0.1171875 -0.1171875,-0.1171875 -0.09375,0 -0.1054688,0.035156 -0.1523438,0.1757813 -0.1875,0.64453121 -0.7148437,1.08984371 -1.1835937,1.08984371 -0.2578125,0 -0.4921875,-0.15234375 -0.4921875,-0.5859375 0,-0.19921875 0.1171875,-0.69140621 0.1992187,-1.03125001 0.035156,-0.1640625 0.28125,-1.1367187 0.2929688,-1.1953125 0.1171875,-0.3164062 0.3867187,-0.796875 0.84375,-0.796875 0.1523437,0 0.328125,0.023437 0.4570312,0.1171875 z m 0,0"
         style="fill:#808080;fill-opacity:1;fill-rule:nonzero;stroke:none" />
      <path
         id="path56"
         d="m 7.7177578,-0.09364844 c 0,-0.65625 -0.5273437,-1.19531246 -1.171875,-1.19531246 -0.65625,0 -1.171875,0.53906246 -1.171875,1.19531246 0,0.6328125 0.5273438,1.13671874 1.171875,1.13671874 0.6445313,0 1.171875,-0.50390624 1.171875,-1.13671874 z m -1.171875,0.796875 c -0.3984375,0 -0.7382812,-0.29296875 -0.7382812,-0.85546875 0,-0.5625 0.3632812,-0.80859375 0.7382812,-0.80859375 0.375,0 0.7382813,0.2578125 0.7382813,0.80859375 0,0.57421875 -0.3632813,0.85546875 -0.7382813,0.85546875 z M 8.8193203,-0.90224219 H 9.3935391 V -1.2186484 H 8.7958828 v -0.5742188 c 0,-0.3515625 0.3398438,-0.3867187 0.4804688,-0.3867187 0.1171875,0 0.2578125,0.011719 0.4335937,0.082031 v -0.3632812 c -0.1289062,-0.035156 -0.28125,-0.046875 -0.421875,-0.046875 -0.515625,0 -0.890625,0.3632812 -0.890625,0.8554687 v 0.4335938 H 8.0107266 v 0.31640621 h 0.3867187 v 1.8984375 h 0.421875 z m 1.4648437,0 h 0.574219 V -1.2186484 h -0.597656 v -0.5742188 c 0,-0.3515625 0.339843,-0.3867187 0.480468,-0.3867187 0.117188,0 0.257813,0.011719 0.433594,0.082031 v -0.3632812 c -0.128906,-0.035156 -0.28125,-0.046875 -0.421875,-0.046875 -0.515625,0 -0.8906249,0.3632812 -0.8906249,0.8554687 v 2.64843751 h 0.4218749 z m 2.490234,-0.23437501 c -0.339843,-0.140625 -0.585937,-0.1523437 -0.761718,-0.1523437 -0.128907,0 -0.878907,0 -0.878907,0.65624996 0,0.234375 0.128907,0.36328125 0.1875,0.43359375 0.175782,0.1640625 0.386719,0.2109375 0.65625,0.2578125 0.234375,0.046875 0.503907,0.09375 0.503907,0.33984375 0,0.3046875 -0.421875,0.3046875 -0.492188,0.3046875 -0.316406,0 -0.609375,-0.10546875 -0.808594,-0.24609375 l -0.07031,0.375 c 0.164062,0.0820313 0.46875,0.21093749 0.878906,0.21093749 0.234375,0 0.445313,-0.035156 0.632813,-0.16406249 0.1875,-0.140625 0.246093,-0.36328125 0.246093,-0.52734375 0,-0.09375 -0.01172,-0.28125 -0.222656,-0.48046875 -0.1875,-0.1640625 -0.363281,-0.19921875 -0.597656,-0.234375 -0.292969,-0.0585938 -0.527344,-0.10546875 -0.527344,-0.328125 0,-0.28125 0.363281,-0.28125 0.433594,-0.28125 0.292969,0 0.503906,0.0585938 0.761719,0.1875 z m 2.355469,1.59375001 c -0.28125,0.19921875 -0.597656,0.2578125 -0.808594,0.2578125 -0.433593,0 -0.761718,-0.3515625 -0.773437,-0.80859375 h 1.628906 c 0,-0.234375 -0.02344,-0.5625 -0.222656,-0.84375 -0.175781,-0.25781246 -0.46875,-0.35156246 -0.714844,-0.35156246 -0.609375,0 -1.078125,0.52734371 -1.078125,1.16015621 0,0.64453125 0.492188,1.17187499 1.148438,1.17187499 0.292968,0 0.597656,-0.0820312 0.84375,-0.23437499 z m -1.546875,-0.85546875 c 0.105469,-0.3984375 0.398438,-0.5625 0.65625,-0.5625 0.210938,0 0.539063,0.10546875 0.632813,0.5625 z m 2.692383,-0.50390625 h 0.738281 V -1.2186484 h -0.738281 v -0.6328125 h -0.386719 v 0.6328125 h -0.445312 v 0.31640621 h 0.433593 v 1.265625 c 0,0.328125 0.08203,0.67968749 0.445313,0.67968749 0.351562,0 0.632812,-0.11718749 0.773437,-0.17578124 l -0.08203,-0.328125 c -0.164062,0.12890625 -0.339844,0.1640625 -0.480469,0.1640625 -0.199218,0 -0.257812,-0.2109375 -0.257812,-0.43359375 z m 1.933594,1.8984375 v -0.4453125 h -0.457032 v 0.4453125 h 0.140625 L 17.751937,1.6290078 h 0.222657 z m 1.353515,-1.06640625 c 0,-0.52734375 0.445313,-0.8203125 0.878907,-0.83203125 V -1.2655234 c -0.410157,0 -0.714844,0.2109375 -0.914063,0.46874996 V -1.2538047 h -0.386719 v 2.25000001 h 0.421875 z m 3.108399,0.52734375 c -0.28125,0.19921875 -0.597656,0.2578125 -0.808594,0.2578125 -0.433594,0 -0.761719,-0.3515625 -0.773437,-0.80859375 h 1.628906 c 0,-0.234375 -0.02344,-0.5625 -0.222656,-0.84375 -0.175782,-0.25781246 -0.46875,-0.35156246 -0.714844,-0.35156246 -0.609375,0 -1.078125,0.52734371 -1.078125,1.16015621 0,0.64453125 0.492187,1.17187499 1.148437,1.17187499 0.292969,0 0.597657,-0.0820312 0.84375,-0.23437499 z m -1.546875,-0.85546875 c 0.105469,-0.3984375 0.398437,-0.5625 0.65625,-0.5625 0.210937,0 0.539062,0.10546875 0.632812,0.5625 z m 3.875976,-0.0351563 c 0,-0.515625 -0.386718,-0.85546876 -0.878906,-0.85546876 -0.316406,0 -0.550781,0.058594 -0.832031,0.2109375 l 0.02344,0.36328126 c 0.164063,-0.10546875 0.410157,-0.2578125 0.808594,-0.2578125 0.222656,0 0.445313,0.1640625 0.445313,0.5390625 v 0.19921875 c -0.738282,0.0234375 -1.464844,0.17578125 -1.464844,0.64453125 0,0.24609375 0.175781,0.63281244 0.609375,0.63281244 0.210937,0 0.609375,-0.046875 0.867187,-0.23437494 v 0.1875 h 0.421875 z m -0.433593,0.7265625 c 0,0.09375 0,0.22265625 -0.175782,0.328125 -0.152343,0.09375 -0.351562,0.09375 -0.410156,0.09375 -0.269531,0 -0.480469,-0.1171875 -0.480469,-0.31640625 0,-0.31640625 0.84375,-0.33984375 1.066407,-0.3515625 z m 1.6875,-2.75390626 h -0.410157 v 3.45703126 h 0.410157 z m 0,0"
         style="fill:#808080;fill-opacity:1;fill-rule:nonzero;stroke:none" />
    </g>
    <path
       id="path57"
       d="M -48.18947,-28.50323 V -1.82762"
       style="fill:none;stroke:#808080;stroke-width:0.79701;stroke-linecap:butt;stroke-linejoin:miter;stroke-miterlimit:10;stroke-dasharray:none;stroke-opacity:1"
       transform="matrix(1.3333333,0,0,-1.3333333,151.712,93.013333)" />
    <path
       id="path58"
       d="M 4.66248,0 C 3.28098,0.25902 1.0361,1.0361 -0.51805,1.94269 V -1.94269 C 1.0361,-1.0361 3.28098,-0.25902 4.66248,0"
       style="fill:#808080;fill-opacity:1;fill-rule:nonzero;stroke:none"
       transform="matrix(0,1.3333333,1.3333333,0,87.459373,131.01764)" />
    <path
       id="path59"
       d="M 4.66248,0 C 3.28098,0.25902 1.0361,1.0361 -0.51805,1.94269 V -1.94269 C 1.0361,-1.0361 3.28098,-0.25902 4.66248,0"
       style="fill:#808080;fill-opacity:1;fill-rule:nonzero;stroke:none"
       transform="matrix(0,-1.3333333,-1.3333333,0,87.459373,95.45016)" />
    <g
       id="g59"
       aria-label="x&#10;ofset,BBA"
       transform="matrix(1.3333333,0,0,1.3333333,42.764,121.35733)">
      <path
         id="path60"
         d="m 4.4074688,-3.6224922 c -0.328125,0.058594 -0.421875,0.3515625 -0.421875,0.4804688 0,0.1757812 0.1171875,0.328125 0.3398437,0.328125 0.2578125,0 0.5039063,-0.2226563 0.5039063,-0.5273438 0,-0.421875 -0.4570313,-0.6210937 -0.8789063,-0.6210937 -0.5390625,0 -0.84375,0.46875 -0.9492187,0.65625 -0.1757813,-0.4335938 -0.5742188,-0.65625 -0.9960938,-0.65625 -0.9609375,0 -1.48828125,1.1484375 -1.48828125,1.3828125 0,0.082031 0.0703125,0.1054687 0.12890625,0.1054687 0.0820313,0 0.10546875,-0.046875 0.12890625,-0.1054687 0.28125005,-0.8789063 0.86718755,-1.1601563 1.20703125,-1.1601563 0.2578125,0 0.4921875,0.1757813 0.4921875,0.5859375 0,0.328125 -0.3867187,1.7578125 -0.5039062,2.19140626 -0.070312,0.28125 -0.3398438,0.83203125 -0.8320313,0.83203125 -0.17578125,0 -0.36328125,-0.0585938 -0.45703125,-0.1171875 C 0.927,-0.28264844 1.1027813,-0.49358594 1.1027813,-0.72796094 c 0,-0.22265625 -0.16406255,-0.32812496 -0.3398438,-0.32812496 -0.2578125,0 -0.4921875,0.23437496 -0.4921875,0.53906246 0,0.43359375 0.48046875,0.609375 0.8554688,0.609375 0.5273437,0 0.8320312,-0.421875 0.9609375,-0.66796875 0.2226562,0.59765625 0.7617187,0.66796875 0.9960937,0.66796875 0.9726563,0 1.4765625,-1.16015626 1.4765625,-1.37109376 0,-0.046875 -0.023437,-0.1171875 -0.1171875,-0.1171875 -0.09375,0 -0.1054687,0.035156 -0.1523437,0.1757813 -0.1875,0.64453121 -0.7148438,1.08984371 -1.1835938,1.08984371 -0.2578125,0 -0.4921875,-0.15234375 -0.4921875,-0.5859375 0,-0.19921875 0.1171875,-0.69140621 0.1992188,-1.03125001 0.035156,-0.1640625 0.28125,-1.1367187 0.2929687,-1.1953125 0.1171875,-0.3164062 0.3867188,-0.796875 0.84375,-0.796875 0.1523438,0 0.328125,0.023437 0.4570313,0.1171875 z m 0,0"
         style="fill:#808080;fill-opacity:1;fill-rule:nonzero;stroke:none" />
      <path
         id="path61"
         d="m 7.7180156,-0.09221875 c 0,-0.65625 -0.5273437,-1.19531245 -1.171875,-1.19531245 -0.65625,0 -1.171875,0.53906245 -1.171875,1.19531245 0,0.6328125 0.5273438,1.13671875 1.171875,1.13671875 0.6445313,0 1.171875,-0.50390625 1.171875,-1.13671875 z m -1.171875,0.796875 c -0.3984375,0 -0.7382812,-0.29296875 -0.7382812,-0.85546875 0,-0.5625 0.3632812,-0.80859375 0.7382812,-0.80859375 0.375,0 0.7382813,0.2578125 0.7382813,0.80859375 0,0.57421875 -0.3632813,0.85546875 -0.7382813,0.85546875 z M 8.8195781,-0.9008125 H 9.3937969 V -1.2172187 H 8.7961406 v -0.5742188 c 0,-0.3515625 0.3398438,-0.3867187 0.4804688,-0.3867187 0.1171875,0 0.2578125,0.011719 0.4335937,0.082031 v -0.3632812 c -0.1289062,-0.035156 -0.28125,-0.046875 -0.421875,-0.046875 -0.515625,0 -0.890625,0.3632812 -0.890625,0.8554687 v 0.4335938 H 8.0109844 v 0.3164062 H 8.3977031 V 0.997625 h 0.421875 z m 1.4648439,0 h 0.574219 v -0.3164062 h -0.597657 v -0.5742188 c 0,-0.3515625 0.339844,-0.3867187 0.480469,-0.3867187 0.117188,0 0.257813,0.011719 0.433594,0.082031 v -0.3632812 c -0.128906,-0.035156 -0.28125,-0.046875 -0.421875,-0.046875 -0.515625,0 -0.8906251,0.3632812 -0.8906251,0.8554687 V 0.997625 h 0.4218751 z m 2.490234,-0.234375 c -0.339843,-0.140625 -0.585937,-0.1523437 -0.761718,-0.1523437 -0.128907,0 -0.878907,0 -0.878907,0.65624995 0,0.234375 0.128907,0.36328125 0.1875,0.43359375 0.175782,0.1640625 0.386719,0.2109375 0.65625,0.2578125 0.234375,0.046875 0.503907,0.09375 0.503907,0.33984375 0,0.3046875 -0.421875,0.3046875 -0.492188,0.3046875 -0.316406,0 -0.609375,-0.10546875 -0.808594,-0.24609375 l -0.07031,0.375 C 11.274656,0.91559375 11.579344,1.0445 11.9895,1.0445 c 0.234375,0 0.445313,-0.035156 0.632813,-0.1640625 0.1875,-0.140625 0.246093,-0.36328125 0.246093,-0.52734375 0,-0.09375 -0.01172,-0.28125 -0.222656,-0.48046875 -0.1875,-0.1640625 -0.363281,-0.19921875 -0.597656,-0.234375 -0.292969,-0.0585938 -0.527344,-0.10546875 -0.527344,-0.328125 0,-0.28125 0.363281,-0.28125 0.433594,-0.28125 0.292969,0 0.503906,0.0585938 0.761719,0.1875 z m 2.355469,1.59375 c -0.28125,0.19921875 -0.597656,0.2578125 -0.808594,0.2578125 -0.433593,0 -0.761718,-0.3515625 -0.773437,-0.80859375 H 15.177 c 0,-0.234375 -0.02344,-0.5625 -0.222656,-0.84375 -0.175781,-0.25781245 -0.46875,-0.35156245 -0.714844,-0.35156245 -0.609375,0 -1.078125,0.5273437 -1.078125,1.1601562 0,0.64453125 0.492188,1.171875 1.148438,1.171875 0.292968,0 0.597656,-0.0820313 0.84375,-0.234375 z M 13.58325,-0.39690625 c 0.105469,-0.3984375 0.398438,-0.5625 0.65625,-0.5625 0.210938,0 0.539063,0.10546875 0.632813,0.5625 z m 2.692383,-0.50390625 h 0.738281 v -0.3164062 h -0.738281 v -0.6328125 h -0.386719 v 0.6328125 h -0.445312 v 0.3164062 h 0.433593 v 1.265625 c 0,0.328125 0.08203,0.6796875 0.445313,0.6796875 0.351562,0 0.632812,-0.1171875 0.773437,-0.17578125 l -0.08203,-0.328125 c -0.164063,0.12890625 -0.339845,0.1640625 -0.48047,0.1640625 -0.199218,0 -0.257812,-0.2109375 -0.257812,-0.43359375 z M 18.209227,0.997625 V 0.5523125 H 17.752195 V 0.997625 h 0.140625 l -0.140625,0.6328125 h 0.222657 z m 1.013671,-3.4570312 V 0.997625 h 1.417969 c 0.738281,0 1.300781,-0.43359375 1.300781,-0.9375 0,-0.43359375 -0.457031,-0.78515625 -1.007812,-0.8671875 0.515625,-0.12890625 0.867187,-0.421875 0.867187,-0.7851562 0,-0.4570313 -0.574218,-0.8671875 -1.3125,-0.8671875 z m 0.457032,1.49999995 V -2.1664375 h 0.667968 c 0.550782,0 1.019532,0.2578125 1.019532,0.5742188 0,0.3398437 -0.457032,0.63281245 -1.019532,0.63281245 z m 0,1.6640625 v -1.3359375 h 0.714843 c 0.632813,0 1.101563,0.31640625 1.101563,0.69140625 0,0.36328125 -0.46875,0.64453125 -1.019531,0.64453125 z M 22.750242,-2.4594062 V 0.997625 h 1.417969 c 0.738281,0 1.300781,-0.43359375 1.300781,-0.9375 0,-0.43359375 -0.457031,-0.78515625 -1.007812,-0.8671875 0.515625,-0.12890625 0.867187,-0.421875 0.867187,-0.7851562 0,-0.4570313 -0.574219,-0.8671875 -1.3125,-0.8671875 z m 0.457031,1.49999995 V -2.1664375 h 0.667969 c 0.550781,0 1.019531,0.2578125 1.019531,0.5742188 0,0.3398437 -0.457031,0.63281245 -1.019531,0.63281245 z m 0,1.6640625 v -1.3359375 h 0.714844 c 0.632813,0 1.101563,0.31640625 1.101563,0.69140625 0,0.36328125 -0.46875,0.64453125 -1.019532,0.64453125 z M 27.780516,-2.4594062 H 27.300047 L 25.928953,0.997625 h 0.410156 L 26.725828,0.01325 h 1.511719 l 0.386719,0.984375 h 0.527343 z m -0.292969,0.375 0.621094,1.80468745 h -1.265625 z m 0,0"
         style="fill:#808080;fill-opacity:1;fill-rule:nonzero;stroke:none" />
    </g>
    <path
       id="path62"
       d="M -5.66927,2.83484 H -51.02432"
       style="fill:none;stroke:#000000;stroke-width:0.79701;stroke-linecap:butt;stroke-linejoin:miter;stroke-miterlimit:10;stroke-dasharray:0.79701, 0.99628;stroke-dashoffset:0;stroke-opacity:1"
       transform="matrix(1.3333333,0,0,-1.3333333,151.712,93.013333)" />
    <path
       id="path63"
       d="M -5.66927,-33.16571 H -51.02432"
       style="fill:none;stroke:#000000;stroke-width:0.79701;stroke-linecap:butt;stroke-linejoin:miter;stroke-miterlimit:10;stroke-dasharray:0.79701, 0.99628;stroke-dashoffset:0;stroke-opacity:1"
       transform="matrix(1.3333333,0,0,-1.3333333,151.712,93.013333)" />
  </g>
</svg>
