<?xml version="1.0" encoding="UTF-8" standalone="no"?>
<!-- Created with Inkscape (http://www.inkscape.org/) -->

<svg
   version="1.1"
   id="svg1"
   width="243.048"
   height="110.12533"
   viewBox="0 0 243.048 110.12533"
   sodipodi:docname="bpm2quad-offset.pdf"
   xmlns:inkscape="http://www.inkscape.org/namespaces/inkscape"
   xmlns:sodipodi="http://sodipodi.sourceforge.net/DTD/sodipodi-0.dtd"
   xmlns="http://www.w3.org/2000/svg"
   xmlns:svg="http://www.w3.org/2000/svg">
  <defs
     id="defs1" />
  <sodipodi:namedview
     id="namedview1"
     pagecolor="#ffffff"
     bordercolor="#000000"
     borderopacity="0.25"
     inkscape:showpageshadow="2"
     inkscape:pageopacity="0.0"
     inkscape:pagecheckerboard="0"
     inkscape:deskcolor="#d1d1d1">
    <inkscape:page
       x="0"
       y="0"
       inkscape:label="1"
       id="page1"
       width="243.048"
       height="110.12533"
       margin="0"
       bleed="0" />
  </sodipodi:namedview>
  <g
     id="g1"
     inkscape:groupmode="layer"
     inkscape:label="1">
    <path
       id="path1"
       d="M 7.08669,21.2601 V -21.2601 H -7.08669 v 42.5202 z"
       style="fill:#ff8000;fill-opacity:1;fill-rule:nonzero;stroke:none"
       transform="matrix(1.3333333,0,0,-1.3333333,151.84533,71.798667)" />
    <path
       id="path2"
       d="m 4.0551172,-0.05967969 c 0.8789062,-0.3515625 1.5703125,-1.24218751 1.5703125,-2.29687501 0,-1.3945312 -1.1484375,-2.5429687 -2.5664063,-2.5429687 -1.4296875,0 -2.56640621,1.1484375 -2.56640621,2.5429687 0,1.37109376 1.13671871,2.49609376 2.56640621,2.49609376 0.082031,0 0.3632813,0 0.703125,-0.09375 0.1640625,0.69140625 0.3046875,1.30078124 0.9609375,1.30078124 0.7265625,0 0.9375,-0.85546874 0.9375,-1.28906249 0,-0.05859375 0,-0.15234375 -0.09375,-0.15234375 -0.082031,0 -0.09375,0.0703125 -0.1054687,0.12890625 -0.046875,0.41015625 -0.4101563,0.57421875 -0.6796875,0.57421875 -0.3632813,0 -0.5390625,-0.29296875 -0.7265625,-0.66796875 z M 2.4965234,-0.17686719 C 1.8871484,-0.38780469 1.2074609,-1.0206172 1.2074609,-2.3682734 c 0,-1.6289063 0.984375,-2.3085938 1.8515625,-2.3085938 0.8554688,0 1.8398438,0.6796875 1.8398438,2.3085938 0,1.2421875 -0.5742188,1.80468746 -0.9726563,2.03906246 -0.1757812,-0.3515625 -0.4101562,-0.72656246 -0.8671875,-0.72656246 -0.3632812,0 -0.6445312,0.26953121 -0.6445312,0.59765621 0,0.09375 0.035156,0.19921875 0.082031,0.28125 z m 1.1953125,-0.0351563 c -0.1171875,0.046875 -0.3632812,0.12890625 -0.6328125,0.12890625 -0.375,0 -0.4453125,-0.26953125 -0.4453125,-0.38671875 0,-0.19921875 0.1875,-0.38671875 0.4453125,-0.38671875 0.3632813,0 0.5273438,0.2578125 0.6328125,0.64453125 z M 8.6342188,-3.0010859 v 0.2578125 c 0.46875,0 0.515625,0.046875 0.515625,0.3867187 v 1.1953125 c 0,0.60937501 -0.3867188,1.03125001 -0.9257813,1.03125001 -0.6328125,0 -0.65625,-0.29296875 -0.65625,-0.65625 V -3.0713984 l -1.078125,0.070312 v 0.2578125 c 0.5273438,0 0.5273438,0.011719 0.5273438,0.6328125 v 1.0546875 c 0,0.48046871 0,1.12499996 1.1601562,1.12499996 0.1523438,0 0.6679688,0 0.9960938,-0.5859375 H 9.185 v 0.5859375 l 1.042969,-0.0703125 v -0.24609375 c -0.4687502,0 -0.527344,-0.0585938 -0.527344,-0.3984375 V -3.0713984 Z m 4.9863282,1.1367187 c 0,-0.375 0,-0.6445312 -0.316406,-0.9023437 -0.28125,-0.234375 -0.621094,-0.3398438 -1.03125,-0.3398438 -0.667969,0 -1.125,0.2460938 -1.125,0.6679688 0,0.2226562 0.152343,0.3398437 0.328125,0.3398437 0.1875,0 0.328125,-0.1289062 0.328125,-0.3164062 0,-0.1289063 -0.05859,-0.2695313 -0.246094,-0.328125 0.257812,-0.1757813 0.65625,-0.1757813 0.703125,-0.1757813 0.386719,0 0.808594,0.2578125 0.808594,0.84375 v 0.2226563 c -0.375,0.011719 -0.84375,0.035156 -1.347657,0.2226562 -0.632812,0.2226563 -0.820312,0.609375 -0.820312,0.92578126 0,0.59765625 0.726562,0.7734375 1.21875,0.7734375 0.550781,0 0.878906,-0.31640625 1.03125,-0.5859375 0.02344,0.28125 0.210937,0.55078125 0.539062,0.55078125 0.01172,0 0.691407,0 0.691407,-0.66796875 V -1.0088984 h -0.246094 v 0.37499996 c 0,0.0703125 0,0.3984375 -0.257813,0.3984375 -0.257812,0 -0.257812,-0.328125 -0.257812,-0.41015625 z m -0.550781,0.87890626 c 0,0.66796875 -0.585938,0.85546875 -0.890625,0.85546875 -0.363282,0 -0.691407,-0.234375 -0.691407,-0.57421875 0,-0.38671876 0.328125,-0.92578126 1.582032,-0.97265626 z m 3.902343,-3.77343746 v 0.2460937 c 0.46875,0 0.515625,0.046875 0.515625,0.3867188 v 1.453125 c -0.257812,-0.2578125 -0.585937,-0.3984375 -0.972656,-0.3984375 -0.925781,0 -1.710937,0.6914062 -1.710937,1.5703125 0,0.86718746 0.738281,1.57031246 1.628906,1.57031246 0.574219,0 0.914062,-0.3046875 1.03125,-0.43359375 v 0.43359375 l 1.078125,-0.0703125 v -0.24609375 c -0.46875,0 -0.527344,-0.0585938 -0.527344,-0.3984375 V -4.8409297 Z m 0.492188,4.03124996 c -0.175781,0.31640625 -0.539063,0.59765625 -0.984375,0.59765625 -0.398438,0 -0.679688,-0.22265625 -0.808594,-0.43359375 -0.140625,-0.19921875 -0.222656,-0.48046876 -0.222656,-0.92578126 0,-0.1640625 0,-0.6914062 0.28125,-1.0195312 0.28125,-0.3046875 0.621094,-0.375 0.820312,-0.375 0.339844,0 0.632813,0.1523437 0.832032,0.4101562 0.08203,0.1054688 0.08203,0.1171875 0.08203,0.2460938 z m 0,0"
       style="fill:#000000;fill-opacity:1;fill-rule:nonzero;stroke:none"
       aria-label="Quad"
       transform="matrix(1.3333333,0,0,1.3333333,139.25333,36.950667)" />
    <path
       id="path3"
       d="M -53.8592,25.51193 V 14.17339 h -5.66882 v 11.33854 z"
       style="fill:#999999;fill-opacity:1;fill-rule:nonzero;stroke:none"
       transform="matrix(1.3333333,0,0,-1.3333333,151.84533,71.798667)" />
    <path
       id="path4"
       d="m 0.42042969,-4.7584297 v 0.2460938 h 0.1640625 c 0.53906251,0 0.55078121,0.070312 0.55078121,0.3164062 v 3.63281251 c 0,0.234375 -0.011719,0.31640625 -0.55078121,0.31640625 H 0.42042969 V -6.171875e-4 H 3.3735547 c 0.984375,0 1.6992187,-0.6093750025 1.6992187,-1.2773437125 0,-0.609375 -0.609375,-1.125 -1.4648437,-1.2070313 0.6914062,-0.1289062 1.2539062,-0.5507812 1.2539062,-1.0898437 0,-0.6328125 -0.7265625,-1.1835938 -1.6992187,-1.1835938 z m 1.32421871,2.1796875 v -1.6640625 c 0,-0.2109375 0.011719,-0.2695312 0.3398438,-0.2695312 h 1.03125 c 0.6914062,0 1.0546875,0.4921875 1.0546875,0.9375 0,0.4921875 -0.46875,0.9960937 -1.265625,0.9960937 z m 0.3398438,2.33203126 c -0.328125,0 -0.3398438,-0.0585938 -0.3398438,-0.28125 V -2.3795234 h 1.4882813 c 0.7382812,0 1.125,0.5976562 1.125,1.0898437 0,0.51562501 -0.4570313,1.04296876 -1.2304688,1.04296876 z M 7.3491406,-2.1568672 h 1.2773438 c 1.0078125,0 1.8046876,-0.5859375 1.8046876,-1.3007812 0,-0.6796875 -0.7851564,-1.3007813 -1.8046876,-1.3007813 H 5.9780469 v 0.2460938 h 0.1640625 c 0.5390625,0 0.5507812,0.070312 0.5507812,0.3164062 v 3.63281251 c 0,0.234375 -0.011719,0.31640625 -0.5507812,0.31640625 H 5.9780469 V -6.171875e-4 C 6.3178906,-0.01233594 6.7632031,-0.02405469 7.0210156,-0.02405469 c 0.2578125,0 0.703125,0.01171875 1.0546875,0.0234375025 V -0.24671094 H 7.8999219 c -0.5273438,0 -0.5507813,-0.0703125 -0.5507813,-0.31640625 z m 1.1015625,-2.3554687 c 1.1601563,0 1.2304688,0.65625 1.2304688,1.0546875 0,0.3164062 0,1.078125 -1.2304688,1.078125 h -1.125 v -1.8632813 c 0,-0.2109375 0.011719,-0.2695312 0.3398438,-0.2695312 z m 4.3945309,-0.09375 c -0.07031,-0.1523438 -0.117187,-0.1523438 -0.269531,-0.1523438 h -1.21875 v 0.2460938 h 0.164063 c 0.539062,0 0.550781,0.070312 0.550781,0.3164062 v 3.44531251 c 0,0.1875 0,0.50390625 -0.714844,0.50390625 v 0.2460937525 c 0.28125,-0.0234375025 0.5625,-0.0234375025 0.84375,-0.0234375025 0.292969,0 0.574219,0 0.855469,0.0234375025 V -0.24671094 c -0.714844,0 -0.714844,-0.31640625 -0.714844,-0.50390625 V -4.4303047 l 1.816406,4.26562501 c 0.03516,0.08203125 0.07031,0.1640625025 0.175782,0.1640625025 0.04687,0 0.105468,-0.0234375025 0.164062,-0.1406250025 l 1.839844,-4.35937501 h 0.01172 v 3.93750001 c 0,0.234375 -0.01172,0.31640625 -0.550782,0.31640625 H 15.634297 V -6.171875e-4 C 15.962422,-0.01233594 16.360859,-0.02405469 16.642109,-0.02405469 c 0.28125,0 0.679688,0.01171875 1.007813,0.0234375025 V -0.24671094 h -0.164063 c -0.539062,0 -0.550781,-0.0703125 -0.550781,-0.31640625 V -4.1959297 c 0,-0.234375 0.01172,-0.3164062 0.550781,-0.3164062 h 0.164063 v -0.2460938 h -1.207031 c -0.140625,0 -0.210938,0 -0.257813,0.140625 l -1.675781,3.94921876 z m 0,0"
       style="fill:#000000;fill-opacity:1;fill-rule:nonzero;stroke:none"
       aria-label="BPM"
       transform="matrix(1.3333333,0,0,1.3333333,64.193333,33.090667)" />
    <path
       id="path5"
       d="M -113.38724,0 H 52.03113"
       style="fill:none;stroke:#000000;stroke-width:0.79701;stroke-linecap:butt;stroke-linejoin:miter;stroke-miterlimit:10;stroke-dasharray:none;stroke-opacity:1"
       transform="matrix(1.3333333,0,0,-1.3333333,151.84533,71.798667)" />
    <path
       id="path6"
       d="M 4.66248,0 C 3.28098,0.25902 1.0361,1.0361 -0.51805,1.94269 V -1.94269 C 1.0361,-1.0361 3.28098,-0.25902 4.66248,0"
       style="fill:#000000;fill-opacity:1;fill-rule:nonzero;stroke:none"
       transform="matrix(1.3333333,0,0,-1.3333333,221.22017,71.798667)" />
    <path
       id="path7"
       d="m 3.8905234,-3.7254453 c -0.2695312,0.011719 -0.46875,0.234375 -0.46875,0.4453125 0,0.140625 0.082031,0.2929687 0.3046875,0.2929687 0.2226563,0 0.4570313,-0.1640625 0.4570313,-0.5625 0,-0.4453125 -0.4335938,-0.8554687 -1.1835938,-0.8554687 -1.3125,0 -1.6875,1.0195312 -1.6875,1.453125 0,0.7851562 0.7382813,0.9257812 1.03125,0.9960937 0.515625,0.09375 1.03125,0.1992188 1.03125,0.75 0,0.25781254 -0.2226562,1.10156254 -1.4179687,1.10156254 -0.140625,0 -0.9140625,0 -1.13671876,-0.52734375 0.37499996,0.046875 0.62109376,-0.2578125 0.62109376,-0.52734379 0,-0.234375 -0.1523438,-0.3515625 -0.3632813,-0.3515625 -0.25781246,0 -0.56249996,0.2109375 -0.56249996,0.65625004 0,0.5625 0.57421876,0.9609375 1.42968746,0.9609375 1.6054688,0 2.0039063,-1.20703124 2.0039063,-1.65234374 0,-0.3515625 -0.1992188,-0.609375 -0.3164063,-0.7265625 -0.2695312,-0.28125 -0.5507812,-0.328125 -0.9960937,-0.421875 -0.3515625,-0.070312 -0.75,-0.140625 -0.75,-0.5976563 0,-0.28125 0.234375,-0.890625 1.1132812,-0.890625 0.2460938,0 0.75,0.070312 0.890625,0.4570313 z m 0,0"
       style="fill:#000000;fill-opacity:1;fill-rule:nonzero;stroke:none"
       aria-label="s"
       transform="matrix(1.3333333,0,0,1.3333333,232.39467,74.658667)" />
    <path
       id="path8"
       d="M -107.71794,-28.3468 V 37.85773"
       style="fill:none;stroke:#000000;stroke-width:0.79701;stroke-linecap:butt;stroke-linejoin:miter;stroke-miterlimit:10;stroke-dasharray:none;stroke-opacity:1"
       transform="matrix(1.3333333,0,0,-1.3333333,151.84533,71.798667)" />
    <path
       id="path9"
       d="M 4.66248,0 C 3.28098,0.25902 1.0361,1.0361 -0.51805,1.94269 V -1.94269 C 1.0361,-1.0361 3.28098,-0.25902 4.66248,0"
       style="fill:#000000;fill-opacity:1;fill-rule:nonzero;stroke:none"
       transform="matrix(0,-1.3333333,-1.3333333,0,8.2214133,21.321693)" />
    <path
       id="path10"
       d="m 3.3274609,-3.0103906 c 0.058594,-0.2578125 0.2929688,-1.171875 0.984375,-1.171875 0.046875,0 0.2929688,0 0.5039063,0.1289062 -0.28125,0.046875 -0.4804688,0.3046875 -0.4804688,0.5390625 0,0.1640625 0.1054688,0.3515625 0.375,0.3515625 0.2226563,0 0.5390625,-0.1875 0.5390625,-0.5859375 0,-0.515625 -0.5859375,-0.65625 -0.9257812,-0.65625 -0.5742188,0 -0.9257813,0.5273438 -1.0429688,0.7617188 -0.2578125,-0.65625 -0.7851562,-0.7617188 -1.078125,-0.7617188 -1.0429687,0 -1.60546871,1.2890625 -1.60546871,1.5351563 0,0.1054687 0.10546875,0.1054687 0.1171875,0.1054687 0.0820313,0 0.1171875,-0.023437 0.12890625,-0.1171875 0.33984376,-1.0546875 0.99609376,-1.3007812 1.33593746,-1.3007812 0.1875,0 0.5390625,0.09375 0.5390625,0.6679687 0,0.3046875 -0.1640625,0.9726563 -0.5390625,2.3671875 -0.1523437,0.62109377 -0.5039062,1.04296877 -0.9492187,1.04296877 -0.058594,0 -0.28125001,0 -0.49218751,-0.12890625 0.24609375,-0.0585938 0.46875001,-0.26953125 0.46875001,-0.5390625 0,-0.26953122 -0.22265626,-0.35156252 -0.37500001,-0.35156252 -0.29296875,0 -0.5390625,0.25781252 -0.5390625,0.57421877 0,0.45703125 0.4921875,0.65625 0.93750001,0.65625 0.65625,0 1.0078125,-0.69140625 1.0429687,-0.75 0.1171875,0.36328125 0.4804688,0.75 1.078125,0.75 1.0195313,0 1.59375,-1.27734377 1.59375,-1.53515627 0,-0.09375 -0.09375,-0.09375 -0.1289062,-0.09375 -0.082031,0 -0.1054688,0.035156 -0.1289063,0.1054688 -0.328125,1.06640622 -0.9960937,1.31249997 -1.3242187,1.31249997 -0.3867188,0 -0.5390625,-0.328125 -0.5390625,-0.65625 0,-0.22265625 0.058594,-0.44531247 0.1640625,-0.87890627 z m 0,0"
       style="fill:#000000;fill-opacity:1;fill-rule:nonzero;stroke:none"
       aria-label="x"
       transform="matrix(1.3333333,0,0,1.3333333,4.4266667,10.146667)" />
    <path
       id="path11"
       d="M -85.04042,29.76399 31.18166,-10.91351"
       style="fill:none;stroke:#404040;stroke-width:0.69739;stroke-linecap:butt;stroke-linejoin:miter;stroke-miterlimit:10;stroke-dasharray:2.98883, 2.98883;stroke-dashoffset:0;stroke-opacity:1"
       transform="matrix(1.3333333,0,0,-1.3333333,151.84533,71.798667)" />
    <path
       id="path12"
       d="m 3.6917813,-1.4888672 c 0,-0.8671875 -0.75,-1.6171875 -1.7109375,-1.6171875 -0.9609375,0 -1.71093755,0.75 -1.71093755,1.6171875 0,0.86718751 0.77343755,1.55859376 1.71093755,1.55859376 0.9375,0 1.7109375,-0.69140625 1.7109375,-1.55859376 z m -1.7109375,1.33593751 c -0.2578125,0 -0.6328125,-0.0820313 -0.8671875,-0.421875 C 0.92615625,-0.86777344 0.90271875,-1.2310547 0.90271875,-1.5474609 c 0,-0.3046875 0.0117188,-0.7148438 0.25781255,-1.0078125 0.1757812,-0.2109375 0.46875,-0.3632813 0.8203125,-0.3632813 0.4101562,0 0.703125,0.1992188 0.8554687,0.4101563 0.1992188,0.28125 0.2226563,0.6210937 0.2226563,0.9609375 0,0.328125 -0.023437,0.70312496 -0.2226563,0.98437496 -0.1875,0.26953125 -0.515625,0.41015625 -0.8554687,0.41015625 z m 3.375,-1.44140621 c 0,-0.5859375 0.28125,-1.2890625 0.9375,-1.2890625 -0.058594,0.046875 -0.1171875,0.140625 -0.1171875,0.2578125 0,0.2226562 0.1757812,0.3164062 0.3164062,0.3164062 0.1640625,0 0.3164063,-0.1054687 0.3164063,-0.3164062 0,-0.2460938 -0.2226563,-0.4453125 -0.5507813,-0.4453125 -0.3515625,0 -0.7265625,0.2109375 -0.9375,0.7382812 h -0.011719 v -0.7382812 l -0.9960938,0.070312 v 0.2578125 c 0.46875,0 0.5273438,0.046875 0.5273438,0.3867187 v 1.80468751 c 0,0.3046875 -0.070312,0.3046875 -0.5273438,0.3046875 v 0.2460937525 c 0.035156,0 0.515625,-0.0234375025 0.796875,-0.0234375025 0.3046875,0 0.609375,0.01171875 0.9023438,0.0234375025 V -0.24667969 h -0.140625 c -0.515625,0 -0.515625,-0.0820313 -0.515625,-0.31640625 z m 3.1113281,-3.2460938 -1.0429688,0.082031 v 0.2460937 c 0.4804688,0 0.5273438,0.058594 0.5273438,0.4101563 v 4.1015624625 h 0.234375 L 8.4320156,-0.42246094 c 0.2578125,0.33984375 0.6445313,0.4921875 1.0195313,0.4921875 0.9140621,0 1.6992191,-0.69140625 1.6992191,-1.58203126 0,-0.84375 -0.714844,-1.5585937 -1.6289066,-1.5585937 -0.4101563,0 -0.796875,0.1640625 -1.0546875,0.4101562 z m 0.035156,2.5078125 c 0.1875,-0.328125 0.5742188,-0.5507812 0.984375,-0.5507812 0.3984375,0 0.6679691,0.2226562 0.8085941,0.4335937 0.140625,0.1992188 0.222656,0.4804688 0.222656,0.9375 0,0.1640625 0,0.67968751 -0.28125,1.00781251 -0.2812501,0.31640625 -0.6210938,0.375 -0.8203126,0.375 -0.5625,0 -0.84375,-0.43359375 -0.9140625,-0.5859375 z m 4.4589851,-1.96875 c 0,-0.1992187 -0.175782,-0.3984375 -0.410157,-0.3984375 -0.210937,0 -0.398437,0.1640625 -0.398437,0.3984375 0,0.2460938 0.199219,0.3984375 0.398437,0.3984375 0.222657,0 0.410157,-0.1640625 0.410157,-0.3984375 z m -1.066407,1.3007813 v 0.2578125 c 0.445313,0 0.503907,0.035156 0.503907,0.375 v 1.81640621 c 0,0.3046875 -0.07031,0.3046875 -0.527344,0.3046875 v 0.2460937525 c 0.02344,0 0.503906,-0.0234375025 0.785156,-0.0234375025 0.246094,0 0.492188,0 0.738281,0.0234375025 V -0.24667969 c -0.398437,0 -0.46875,0 -0.46875,-0.29296875 V -3.0708984 Z m 3.251953,0.2460937 h 1.078125 v -0.2460937 h -1.078125 v -1.2890625 h -0.246093 c 0,0.6328125 -0.292969,1.3242187 -0.960938,1.3359375 v 0.1992187 h 0.65625 v 1.88671876 c 0,0.7734375 0.585938,0.9375 0.972656,0.9375 0.46875,0 0.785157,-0.3984375 0.785157,-0.94921875 V -1.2662109 h -0.234375 v 0.37499996 c 0,0.48046875 -0.222657,0.73828125 -0.492188,0.73828125 -0.480469,0 -0.480469,-0.5859375 -0.480469,-0.71484375 z m 0,0"
       style="fill:#404040;fill-opacity:1;fill-rule:nonzero;stroke:none"
       aria-label="orbit"
       transform="matrix(1.3333333,0,0,1.3333333,198.312,97.7)" />
    <path
       id="path13"
       d="M -56.69362,17.40184 V 0"
       style="fill:none;stroke:#000000;stroke-width:0.69739;stroke-linecap:butt;stroke-linejoin:miter;stroke-miterlimit:10;stroke-dasharray:0.69739, 0.99628;stroke-dashoffset:0;stroke-opacity:1"
       transform="matrix(1.3333333,0,0,-1.3333333,151.84533,71.798667)" />
    <path
       id="path14"
       d="M 2.44083,0 -1.4645,1.95265 0,0 -1.4645,-1.95265"
       style="fill:#000000;fill-opacity:1;fill-rule:nonzero;stroke:none"
       transform="matrix(0,-1.3333333,-1.3333333,0,76.25384,48.596213)" />
    <g
       id="g14"
       aria-label="x&#10;ofset"
       transform="matrix(1.3333333,0,0,1.3333333,61.032,81.638667)">
      <path
         id="path15"
         d="m 4.4056875,-3.6225547 c -0.328125,0.058594 -0.421875,0.3515625 -0.421875,0.4804688 0,0.1757812 0.1171875,0.328125 0.3398438,0.328125 0.2578125,0 0.5039062,-0.2226563 0.5039062,-0.5273438 0,-0.421875 -0.4570312,-0.6210937 -0.8789062,-0.6210937 -0.5390625,0 -0.84375,0.46875 -0.9492188,0.65625 -0.1757812,-0.4335938 -0.5742187,-0.65625 -0.9960937,-0.65625 -0.9609375,0 -1.4882813,1.1484375 -1.4882813,1.3828125 0,0.082031 0.0703125,0.1054687 0.12890625,0.1054687 0.0820313,0 0.10546875,-0.046875 0.12890625,-0.1054687 0.28125,-0.8789063 0.8671875,-1.1601563 1.2070313,-1.1601563 0.2578125,0 0.4921875,0.1757813 0.4921875,0.5859375 0,0.328125 -0.3867188,1.7578125 -0.5039063,2.19140626 -0.070312,0.28125 -0.3398437,0.83203125 -0.8320312,0.83203125 -0.1757813,0 -0.3632813,-0.0585938 -0.4570313,-0.1171875 C 0.92521875,-0.28271094 1.101,-0.49364844 1.101,-0.72802344 c 0,-0.22265625 -0.1640625,-0.32812496 -0.33984375,-0.32812496 -0.2578125,0 -0.4921875,0.23437496 -0.4921875,0.53906246 0,0.43359375 0.48046875,0.609375 0.85546875,0.609375 0.5273438,0 0.8320313,-0.421875 0.9609375,-0.66796875 0.2226563,0.59765625 0.7617188,0.66796875 0.9960938,0.66796875 0.9726562,0 1.4765625,-1.16015626 1.4765625,-1.37109376 0,-0.046875 -0.023437,-0.1171875 -0.1171875,-0.1171875 -0.09375,0 -0.1054688,0.035156 -0.1523438,0.1757813 -0.1875,0.64453121 -0.7148437,1.08984371 -1.1835937,1.08984371 -0.2578125,0 -0.4921875,-0.15234375 -0.4921875,-0.5859375 0,-0.19921875 0.1171875,-0.69140621 0.1992187,-1.03125001 0.035156,-0.1640625 0.28125,-1.1367187 0.2929688,-1.1953125 0.1171875,-0.3164062 0.3867187,-0.796875 0.84375,-0.796875 0.1523437,0 0.328125,0.023437 0.4570312,0.1171875 z m 0,0"
         style="fill:#000000;fill-opacity:1;fill-rule:nonzero;stroke:none" />
      <path
         id="path16"
         d="m 8.5863516,-0.21532813 c 0,-0.73828125 -0.6796875,-1.38281247 -1.5351563,-1.38281247 -0.8789062,0 -1.546875,0.64453122 -1.546875,1.38281247 0,0.73828125 0.6796875,1.33593753 1.546875,1.33593753 0.8554688,0 1.5351563,-0.59765628 1.5351563,-1.33593753 z m -1.5351563,1.125 c -0.9726562,0 -0.9726562,-0.890625 -0.9726562,-1.171875 0,-0.1875 0,-0.59765625 0.2226562,-0.84374997 0.1992188,-0.2109375 0.4570313,-0.3046875 0.75,-0.3046875 0.28125,0 0.5507813,0.09375 0.75,0.3046875 0.2109375,0.24609372 0.2109375,0.64453122 0.2109375,0.84374997 0,0.28125 0,1.171875 -0.9609375,1.171875 z M 12.263109,-1.2817344 h 0.785157 v -0.234375 h -0.808594 v -0.6445312 c 0,-0.5507813 0.328125,-0.796875 0.597656,-0.796875 0.08203,0 0.140625,0.023437 0.164063,0.023437 -0.03516,0.035156 -0.105469,0.082031 -0.105469,0.234375 0,0.1523437 0.105469,0.28125 0.28125,0.28125 0.175781,0 0.28125,-0.1289063 0.28125,-0.28125 0,-0.2695313 -0.269531,-0.4453125 -0.609375,-0.4453125 -0.199219,0 -0.46875,0.046875 -0.726563,0.2460937 -0.164062,-0.1757812 -0.457031,-0.2460937 -0.84375,-0.2460937 -0.703125,0 -1.5820309,0.2929687 -1.5820309,0.984375 v 0.6445312 H 9.1459219 v 0.234375 h 0.5507812 v 1.85156252 c 0,0.2578125 -0.058594,0.2578125 -0.46875,0.2578125 V 1.0620156 c 0.1757813,-0.011719 0.65625,-0.023437 0.703125,-0.023437 0.2343749,0 0.4687499,0 0.7031249,0.023437 V 0.82764062 c -0.410156,0 -0.46875,0 -0.46875,-0.2578125 V -1.2817344 h 1.617188 v 1.85156252 c 0,0.2578125 -0.05859,0.2578125 -0.46875,0.2578125 V 1.0620156 c 0.152343,-0.011719 0.597656,-0.023437 0.726562,-0.023437 0.304688,0 0.714844,0.011719 0.808594,0.023437 V 0.82764062 h -0.140625 c -0.445313,0 -0.445313,-0.0585938 -0.445313,-0.2578125 z m -2.121093,-0.234375 v -0.6328125 c 0,-0.5742187 0.632812,-0.8085937 1.125,-0.8085937 0.05859,0 0.351562,0 0.539062,0.082031 -0.01172,0.011719 -0.140625,0.082031 -0.140625,0.2578125 0,0.070312 0.02344,0.1875 0.140625,0.2460938 -0.02344,0.070312 -0.02344,0.1523437 -0.02344,0.1992187 v 0.65625 z m 5.560547,0.082031 c 0,-0.1054688 0,-0.1640625 -0.105469,-0.1640625 -0.02344,0 -0.03516,0 -0.128906,0.070312 -0.01172,0.011719 -0.01172,0.011719 -0.105469,0.082031 -0.222656,-0.1523437 -0.527344,-0.1523437 -0.65625,-0.1523437 -0.9375,0 -1.113281,0.46875 -1.113281,0.73828122 0,0.5859375 0.703125,0.69140625 1.160156,0.7734375 0.269531,0.03515625 0.785156,0.1171875 0.785156,0.515625 0,0.234375 -0.175781,0.50390625 -0.785156,0.50390625 -0.574219,0 -0.808594,-0.33984375 -0.9375,-0.78515625 -0.01172,-0.05859375 -0.02344,-0.09375 -0.105469,-0.09375 -0.117187,0 -0.117187,0.05859375 -0.117187,0.17578125 v 0.7265625 c 0,0.09375 0,0.16406253 0.09375,0.16406253 0.03516,0 0.04687,0 0.152343,-0.1171875 l 0.140625,-0.14062503 c 0.292969,0.25781253 0.65625,0.25781253 0.773438,0.25781253 0.878906,0 1.113281,-0.48046878 1.113281,-0.83203128 0,-0.234375 -0.117187,-0.41015625 -0.246094,-0.52734375 -0.257812,-0.22265625 -0.492187,-0.26953125 -0.855468,-0.328125 -0.445313,-0.0703125 -0.84375,-0.140625 -0.84375,-0.44531247 0,-0.1757813 0.164062,-0.421875 0.785156,-0.421875 0.421875,0 0.738281,0.1640625 0.773437,0.58593747 0,0.0703125 0.01172,0.12890625 0.105469,0.12890625 0.117188,0 0.117188,-0.0585938 0.117188,-0.17578125 z m 3.290039,1.14843747 c 0.128906,0 0.175781,0 0.175781,-0.140625 0,-0.46875 -0.246094,-1.17187497 -1.242188,-1.17187497 -0.84375,0 -1.453125,0.63281247 -1.453125,1.34765622 0,0.76171875 0.691407,1.37109378 1.535157,1.37109378 0.855468,0 1.160156,-0.64453128 1.160156,-0.77343753 0,-0.0351563 -0.01172,-0.09375 -0.105469,-0.09375 -0.08203,0 -0.09375,0.0351563 -0.117187,0.10546875 -0.175782,0.4453125 -0.621094,0.55078125 -0.902344,0.55078125 -0.328125,0 -0.609375,-0.140625 -0.773438,-0.36328125 -0.222656,-0.28125 -0.222656,-0.66796875 -0.222656,-0.83203125 z m -1.933594,-0.1875 c 0.07031,-0.79687497 0.609375,-0.93749997 0.855469,-0.93749997 0.773437,0 0.820312,0.77343747 0.820312,0.93749997 z m 3.700195,-0.80859377 h 0.984375 v -0.234375 h -0.984375 v -1.1015625 h -0.222656 c 0,0.5390625 -0.257813,1.125 -0.867188,1.1484375 v 0.1875 h 0.597657 v 1.59375002 c 0,0.6328125 0.46875,0.80859378 0.878906,0.80859378 0.410156,0 0.714844,-0.32812503 0.714844,-0.80859378 v -0.328125 h -0.222657 v 0.31640625 c 0,0.421875 -0.222656,0.609375 -0.445312,0.609375 -0.433594,0 -0.433594,-0.48046875 -0.433594,-0.59765625 z m 0,0"
         style="fill:#000000;fill-opacity:1;fill-rule:nonzero;stroke:none" />
    </g>
  </g>
</svg>
