<?xml version="1.0" encoding="UTF-8" standalone="no"?>
<!-- Created with Inkscape (http://www.inkscape.org/) -->

<svg
   version="1.1"
   id="svg1"
   width="227.83467"
   height="169.13467"
   viewBox="0 0 227.83467 169.13467"
   sodipodi:docname="bpm2quad-offset-ontop.pdf"
   xmlns:inkscape="http://www.inkscape.org/namespaces/inkscape"
   xmlns:sodipodi="http://sodipodi.sourceforge.net/DTD/sodipodi-0.dtd"
   xmlns="http://www.w3.org/2000/svg"
   xmlns:svg="http://www.w3.org/2000/svg">
  <defs
     id="defs1" />
  <sodipodi:namedview
     id="namedview1"
     pagecolor="#ffffff"
     bordercolor="#000000"
     borderopacity="0.25"
     inkscape:showpageshadow="2"
     inkscape:pageopacity="0.0"
     inkscape:pagecheckerboard="0"
     inkscape:deskcolor="#d1d1d1">
    <inkscape:page
       x="0"
       y="0"
       inkscape:label="1"
       id="page1"
       width="227.83467"
       height="169.13467"
       margin="0"
       bleed="0" />
  </sodipodi:namedview>
  <g
     id="g1"
     inkscape:groupmode="layer"
     inkscape:label="1">
    <path
       id="path1"
       d="M -14.17339,35.43349 0,0 14.17339,35.43349 Z"
       style="fill:#ff8000;fill-opacity:1;fill-rule:nonzero;stroke:none"
       transform="matrix(1.3333333,0,0,-1.3333333,151.712,93.013333)" />
    <path
       id="path2"
       d="M -14.17339,-35.43349 0,0 14.17339,-35.43349 Z"
       style="fill:#ff8000;fill-opacity:1;fill-rule:nonzero;stroke:none"
       transform="matrix(1.3333333,0,0,-1.3333333,151.712,93.013333)" />
    <path
       id="path3"
       d="m 5.3095156,-0.32857812 c 1.0898438,-0.84374998 1.453125,-2.06249998 1.453125,-3.10546878 0,-2.0976562 -1.4414062,-3.703125 -3.09375,-3.703125 -1.6992187,0 -3.10546872,1.6289063 -3.10546872,3.703125 0,2.109375 1.46484372,3.65625003 3.09375002,3.65625003 0.1640625,0 0.5273437,-0.0117188 0.9609375,-0.1875 L 5.4735781,1.2417344 H 6.4931094 Z M 4.2196719,-0.50435937 c 0,0 -0.2695313,0.0820313 -0.5507813,0.0820313 -1.171875,0 -2.25,-1.16015633 -2.25,-3.01171873 0,-1.8632812 1.078125,-3.0585937 2.2382813,-3.0585937 1.1953125,0 2.25,1.2070312 2.25,3.0585937 0,0.6445313 -0.1171875,1.734375 -1.0195313,2.54296873 L 4.1024844,-1.9340469 H 3.2235781 Z M 11.669867,-4.4184219 h -0.785156 v 2.8828125 c 0,0.75000003 -0.550781,1.10156253 -1.1953126,1.10156253 -0.703125,0 -0.7734375,-0.26953125 -0.7734375,-0.69140623 V -4.4184219 H 8.1425234 v 3.328125 c 0,0.72656253 0.2226563,1.19531253 1.0546875,1.19531253 0.5273438,0 1.2304691,-0.15234375 1.7226561,-0.5859375 v 0.480468745 h 0.75 z m 4.78418,1.5351563 c 0,-1.0078125 -0.726563,-1.7109375 -1.640625,-1.7109375 -0.644531,0 -1.101563,0.1640625 -1.570313,0.4335937 l 0.07031,0.65625 c 0.515625,-0.375 1.007812,-0.5039062 1.5,-0.5039062 0.46875,0 0.867187,0.3984375 0.867187,1.1367187 v 0.4335938 c -1.5,0.011719 -2.765625,0.4335937 -2.765625,1.3125 0,0.42187498 0.269532,1.23046873 1.136719,1.23046873 0.140625,0 1.078125,-0.01171875 1.652344,-0.46875 v 0.363281245 h 0.75 z m -0.773438,1.5703125 c 0,0.1875 0,0.43359373 -0.339843,0.62109373 -0.292969,0.1875 -0.667969,0.1875 -0.773438,0.1875 -0.480469,0 -0.925781,-0.22265625 -0.925781,-0.64453123 0,-0.6914063 1.605469,-0.7617188 2.039062,-0.7851563 z m 5.91211,-5.6015625 h -0.75 v 2.9296875 c -0.527344,-0.4335938 -1.078125,-0.5507813 -1.453125,-0.5507813 -0.984375,0 -1.757813,1.0429688 -1.757813,2.3203125 0,1.31250003 0.761719,2.32031253 1.710938,2.32031253 0.328125,0 0.914062,-0.08203125 1.476562,-0.62109375 v 0.515624995 h 0.773438 z m -0.773438,5.53125 c 0,0.140625 -0.01172,0.3164062 -0.328125,0.60937498 -0.234375,0.19921875 -0.480468,0.26953125 -0.738281,0.26953125 -0.621094,0 -1.347656,-0.45703125 -1.347656,-1.69921873 0,-1.3125 0.855469,-1.7226563 1.441406,-1.7226563 0.445313,0 0.75,0.234375 0.972656,0.5507813 z m 0,0"
       style="fill:#000000;fill-opacity:1;fill-rule:nonzero;stroke:none"
       aria-label="Quad"
       transform="matrix(1.3333333,0,0,1.3333333,163.22533,39.414667)" />
    <path
       id="path4"
       d="M -113.38724,0 H 56.69362"
       style="fill:none;stroke:#000000;stroke-width:0.79701;stroke-linecap:butt;stroke-linejoin:miter;stroke-miterlimit:10;stroke-dasharray:2.98883, 1.99255;stroke-dashoffset:0;stroke-opacity:1"
       transform="matrix(1.3333333,0,0,-1.3333333,151.712,93.013333)" />
    <path
       id="path5"
       d="M -96.37897,33.73247 56.69362,-19.84267"
       style="fill:none;stroke:#ff0000;stroke-width:0.69739;stroke-linecap:butt;stroke-linejoin:miter;stroke-miterlimit:10;stroke-dasharray:none;stroke-opacity:1"
       transform="matrix(1.3333333,0,0,-1.3333333,151.712,93.013333)" />
    <path
       id="path6"
       d="M -96.37897,28.3468 0,0 56.69362,-14.17339"
       style="fill:none;stroke:#ff0000;stroke-width:0.69739;stroke-linecap:butt;stroke-linejoin:miter;stroke-miterlimit:10;stroke-dasharray:none;stroke-opacity:1"
       transform="matrix(1.3333333,0,0,-1.3333333,151.712,93.013333)" />
    <path
       id="path7"
       d="M -96.37897,39.68535 0,0 56.69362,-25.51193"
       style="fill:none;stroke:#ff0000;stroke-width:0.69739;stroke-linecap:butt;stroke-linejoin:miter;stroke-miterlimit:10;stroke-dasharray:none;stroke-opacity:1"
       transform="matrix(1.3333333,0,0,-1.3333333,151.712,93.013333)" />
    <path
       id="path8"
       d="M 0,-56.69362 V 56.69362"
       style="fill:none;stroke:#000000;stroke-width:0.79701;stroke-linecap:butt;stroke-linejoin:miter;stroke-miterlimit:10;stroke-dasharray:none;stroke-opacity:1"
       transform="matrix(1.3333333,0,0,-1.3333333,151.712,93.013333)" />
    <path
       id="path9"
       d="M 0,55.31078 H 2.83484"
       style="fill:none;stroke:#000000;stroke-width:0.64757;stroke-linecap:butt;stroke-linejoin:miter;stroke-miterlimit:10;stroke-dasharray:none;stroke-opacity:1"
       transform="matrix(1.3333333,0,0,-1.3333333,151.712,93.013333)" />
    <path
       id="path10"
       d="M 0,52.54514 H 2.83484"
       style="fill:none;stroke:#000000;stroke-width:0.64757;stroke-linecap:butt;stroke-linejoin:miter;stroke-miterlimit:10;stroke-dasharray:none;stroke-opacity:1"
       transform="matrix(1.3333333,0,0,-1.3333333,151.712,93.013333)" />
    <path
       id="path11"
       d="M 0,49.77948 H 5.66927"
       style="fill:none;stroke:#000000;stroke-width:0.79701;stroke-linecap:butt;stroke-linejoin:miter;stroke-miterlimit:10;stroke-dasharray:none;stroke-opacity:1"
       transform="matrix(1.3333333,0,0,-1.3333333,151.712,93.013333)" />
    <path
       id="path12"
       d="M 0,47.01384 H 2.83484"
       style="fill:none;stroke:#000000;stroke-width:0.64757;stroke-linecap:butt;stroke-linejoin:miter;stroke-miterlimit:10;stroke-dasharray:none;stroke-opacity:1"
       transform="matrix(1.3333333,0,0,-1.3333333,151.712,93.013333)" />
    <path
       id="path13"
       d="M 0,44.24861 H 2.83484"
       style="fill:none;stroke:#000000;stroke-width:0.64757;stroke-linecap:butt;stroke-linejoin:miter;stroke-miterlimit:10;stroke-dasharray:none;stroke-opacity:1"
       transform="matrix(1.3333333,0,0,-1.3333333,151.712,93.013333)" />
    <path
       id="path14"
       d="M 0,41.48297 H 2.83484"
       style="fill:none;stroke:#000000;stroke-width:0.64757;stroke-linecap:butt;stroke-linejoin:miter;stroke-miterlimit:10;stroke-dasharray:none;stroke-opacity:1"
       transform="matrix(1.3333333,0,0,-1.3333333,151.712,93.013333)" />
    <path
       id="path15"
       d="M 0,38.71732 H 2.83484"
       style="fill:none;stroke:#000000;stroke-width:0.64757;stroke-linecap:butt;stroke-linejoin:miter;stroke-miterlimit:10;stroke-dasharray:none;stroke-opacity:1"
       transform="matrix(1.3333333,0,0,-1.3333333,151.712,93.013333)" />
    <path
       id="path16"
       d="M 0,35.95169 H 5.66927"
       style="fill:none;stroke:#000000;stroke-width:0.79701;stroke-linecap:butt;stroke-linejoin:miter;stroke-miterlimit:10;stroke-dasharray:none;stroke-opacity:1"
       transform="matrix(1.3333333,0,0,-1.3333333,151.712,93.013333)" />
    <path
       id="path17"
       d="M 0,33.18646 H 2.83484"
       style="fill:none;stroke:#000000;stroke-width:0.64757;stroke-linecap:butt;stroke-linejoin:miter;stroke-miterlimit:10;stroke-dasharray:none;stroke-opacity:1"
       transform="matrix(1.3333333,0,0,-1.3333333,151.712,93.013333)" />
    <path
       id="path18"
       d="M 0,30.4208 H 2.83484"
       style="fill:none;stroke:#000000;stroke-width:0.64757;stroke-linecap:butt;stroke-linejoin:miter;stroke-miterlimit:10;stroke-dasharray:none;stroke-opacity:1"
       transform="matrix(1.3333333,0,0,-1.3333333,151.712,93.013333)" />
    <path
       id="path19"
       d="M 0,27.65517 H 2.83484"
       style="fill:none;stroke:#000000;stroke-width:0.64757;stroke-linecap:butt;stroke-linejoin:miter;stroke-miterlimit:10;stroke-dasharray:none;stroke-opacity:1"
       transform="matrix(1.3333333,0,0,-1.3333333,151.712,93.013333)" />
    <path
       id="path20"
       d="M 0,24.88953 H 2.83484"
       style="fill:none;stroke:#000000;stroke-width:0.64757;stroke-linecap:butt;stroke-linejoin:miter;stroke-miterlimit:10;stroke-dasharray:none;stroke-opacity:1"
       transform="matrix(1.3333333,0,0,-1.3333333,151.712,93.013333)" />
    <path
       id="path21"
       d="M 0,22.1243 H 5.66927"
       style="fill:none;stroke:#000000;stroke-width:0.79701;stroke-linecap:butt;stroke-linejoin:miter;stroke-miterlimit:10;stroke-dasharray:none;stroke-opacity:1"
       transform="matrix(1.3333333,0,0,-1.3333333,151.712,93.013333)" />
    <path
       id="path22"
       d="M 0,19.35864 H 2.83484"
       style="fill:none;stroke:#000000;stroke-width:0.64757;stroke-linecap:butt;stroke-linejoin:miter;stroke-miterlimit:10;stroke-dasharray:none;stroke-opacity:1"
       transform="matrix(1.3333333,0,0,-1.3333333,151.712,93.013333)" />
    <path
       id="path23"
       d="M 0,16.59302 H 2.83484"
       style="fill:none;stroke:#000000;stroke-width:0.64757;stroke-linecap:butt;stroke-linejoin:miter;stroke-miterlimit:10;stroke-dasharray:none;stroke-opacity:1"
       transform="matrix(1.3333333,0,0,-1.3333333,151.712,93.013333)" />
    <path
       id="path24"
       d="M 0,13.82736 H 2.83484"
       style="fill:none;stroke:#000000;stroke-width:0.64757;stroke-linecap:butt;stroke-linejoin:miter;stroke-miterlimit:10;stroke-dasharray:none;stroke-opacity:1"
       transform="matrix(1.3333333,0,0,-1.3333333,151.712,93.013333)" />
    <path
       id="path25"
       d="M 0,11.06213 H 2.83484"
       style="fill:none;stroke:#000000;stroke-width:0.64757;stroke-linecap:butt;stroke-linejoin:miter;stroke-miterlimit:10;stroke-dasharray:none;stroke-opacity:1"
       transform="matrix(1.3333333,0,0,-1.3333333,151.712,93.013333)" />
    <path
       id="path26"
       d="M 0,8.29651 H 5.66927"
       style="fill:none;stroke:#000000;stroke-width:0.79701;stroke-linecap:butt;stroke-linejoin:miter;stroke-miterlimit:10;stroke-dasharray:none;stroke-opacity:1"
       transform="matrix(1.3333333,0,0,-1.3333333,151.712,93.013333)" />
    <path
       id="path27"
       d="M 0,5.53085 H 2.83484"
       style="fill:none;stroke:#000000;stroke-width:0.64757;stroke-linecap:butt;stroke-linejoin:miter;stroke-miterlimit:10;stroke-dasharray:none;stroke-opacity:1"
       transform="matrix(1.3333333,0,0,-1.3333333,151.712,93.013333)" />
    <path
       id="path28"
       d="M 0,2.7652 H 2.83484"
       style="fill:none;stroke:#000000;stroke-width:0.64757;stroke-linecap:butt;stroke-linejoin:miter;stroke-miterlimit:10;stroke-dasharray:none;stroke-opacity:1"
       transform="matrix(1.3333333,0,0,-1.3333333,151.712,93.013333)" />
    <path
       id="path29"
       d="M 0,0 H 2.83484"
       style="fill:none;stroke:#000000;stroke-width:0.64757;stroke-linecap:butt;stroke-linejoin:miter;stroke-miterlimit:10;stroke-dasharray:none;stroke-opacity:1"
       transform="matrix(1.3333333,0,0,-1.3333333,151.712,93.013333)" />
    <path
       id="path30"
       d="M 0,-2.76563 H 2.83484"
       style="fill:none;stroke:#000000;stroke-width:0.64757;stroke-linecap:butt;stroke-linejoin:miter;stroke-miterlimit:10;stroke-dasharray:none;stroke-opacity:1"
       transform="matrix(1.3333333,0,0,-1.3333333,151.712,93.013333)" />
    <path
       id="path31"
       d="M 0,-5.53128 H 5.66927"
       style="fill:none;stroke:#000000;stroke-width:0.79701;stroke-linecap:butt;stroke-linejoin:miter;stroke-miterlimit:10;stroke-dasharray:none;stroke-opacity:1"
       transform="matrix(1.3333333,0,0,-1.3333333,151.712,93.013333)" />
    <path
       id="path32"
       d="M 0,-8.29692 H 2.83484"
       style="fill:none;stroke:#000000;stroke-width:0.64757;stroke-linecap:butt;stroke-linejoin:miter;stroke-miterlimit:10;stroke-dasharray:none;stroke-opacity:1"
       transform="matrix(1.3333333,0,0,-1.3333333,151.712,93.013333)" />
    <path
       id="path33"
       d="M 0,-11.06213 H 2.83484"
       style="fill:none;stroke:#000000;stroke-width:0.64757;stroke-linecap:butt;stroke-linejoin:miter;stroke-miterlimit:10;stroke-dasharray:none;stroke-opacity:1"
       transform="matrix(1.3333333,0,0,-1.3333333,151.712,93.013333)" />
    <path
       id="path34"
       d="M 0,-13.82779 H 2.83484"
       style="fill:none;stroke:#000000;stroke-width:0.64757;stroke-linecap:butt;stroke-linejoin:miter;stroke-miterlimit:10;stroke-dasharray:none;stroke-opacity:1"
       transform="matrix(1.3333333,0,0,-1.3333333,151.712,93.013333)" />
    <path
       id="path35"
       d="M 0,-16.59344 H 2.83484"
       style="fill:none;stroke:#000000;stroke-width:0.64757;stroke-linecap:butt;stroke-linejoin:miter;stroke-miterlimit:10;stroke-dasharray:none;stroke-opacity:1"
       transform="matrix(1.3333333,0,0,-1.3333333,151.712,93.013333)" />
    <path
       id="path36"
       d="M 0,-19.35909 H 5.66927"
       style="fill:none;stroke:#000000;stroke-width:0.79701;stroke-linecap:butt;stroke-linejoin:miter;stroke-miterlimit:10;stroke-dasharray:none;stroke-opacity:1"
       transform="matrix(1.3333333,0,0,-1.3333333,151.712,93.013333)" />
    <path
       id="path37"
       d="M 0,-22.1243 H 2.83484"
       style="fill:none;stroke:#000000;stroke-width:0.64757;stroke-linecap:butt;stroke-linejoin:miter;stroke-miterlimit:10;stroke-dasharray:none;stroke-opacity:1"
       transform="matrix(1.3333333,0,0,-1.3333333,151.712,93.013333)" />
    <path
       id="path38"
       d="M 0,-24.88995 H 2.83484"
       style="fill:none;stroke:#000000;stroke-width:0.64757;stroke-linecap:butt;stroke-linejoin:miter;stroke-miterlimit:10;stroke-dasharray:none;stroke-opacity:1"
       transform="matrix(1.3333333,0,0,-1.3333333,151.712,93.013333)" />
    <path
       id="path39"
       d="M 0,-27.6556 H 2.83484"
       style="fill:none;stroke:#000000;stroke-width:0.64757;stroke-linecap:butt;stroke-linejoin:miter;stroke-miterlimit:10;stroke-dasharray:none;stroke-opacity:1"
       transform="matrix(1.3333333,0,0,-1.3333333,151.712,93.013333)" />
    <path
       id="path40"
       d="M 0,-30.42125 H 2.83484"
       style="fill:none;stroke:#000000;stroke-width:0.64757;stroke-linecap:butt;stroke-linejoin:miter;stroke-miterlimit:10;stroke-dasharray:none;stroke-opacity:1"
       transform="matrix(1.3333333,0,0,-1.3333333,151.712,93.013333)" />
    <path
       id="path41"
       d="M 0,-33.18646 H 5.66927"
       style="fill:none;stroke:#000000;stroke-width:0.79701;stroke-linecap:butt;stroke-linejoin:miter;stroke-miterlimit:10;stroke-dasharray:none;stroke-opacity:1"
       transform="matrix(1.3333333,0,0,-1.3333333,151.712,93.013333)" />
    <path
       id="path42"
       d="m 3.8912422,-2.5912734 c 0,-0.3867188 0,-1.3125 -0.375,-1.96875 -0.4101563,-0.7148438 -1.0195313,-0.8320313 -1.40625,-0.8320313 -0.3515625,0 -0.9726563,0.1054688 -1.37109376,0.796875 -0.38671875,0.6328125 -0.3984375,1.5 -0.3984375,2.0039063 0,0.5859375 0.0234375,1.3125 0.36328125,1.92187496 0.35156251,0.64453125 0.93750001,0.83203125 1.40625001,0.83203125 0.796875,0 1.2421875,-0.45703125 1.4765625,-0.9609375 0.28125,-0.56250001 0.3046875,-1.30078121 0.3046875,-1.79296871 z m -1.78125,2.22656246 c -0.328125,0 -0.7148438,-0.1875 -0.9140625,-0.76171876 -0.1640625,-0.4804687 -0.1640625,-0.984375 -0.1640625,-1.5703125 0,-0.7265625 0,-2.1679687 1.078125,-2.1679687 1.0898437,0 1.0898437,1.4414062 1.0898437,2.1679687 0,0.5273438 0,1.125 -0.1992187,1.640625 -0.2226563,0.57421876 -0.6210938,0.69140626 -0.890625,0.69140626 z m 0,0"
       style="fill:#000000;fill-opacity:1;fill-rule:nonzero;stroke:none"
       aria-label="0"
       transform="matrix(1.3333333,0,0,1.3333333,160.90933,140.748)" />
    <path
       id="path43"
       d="M 0,-35.9521 H 2.83484"
       style="fill:none;stroke:#000000;stroke-width:0.64757;stroke-linecap:butt;stroke-linejoin:miter;stroke-miterlimit:10;stroke-dasharray:none;stroke-opacity:1"
       transform="matrix(1.3333333,0,0,-1.3333333,151.712,93.013333)" />
    <path
       id="path44"
       d="M 0,-38.71776 H 2.83484"
       style="fill:none;stroke:#000000;stroke-width:0.64757;stroke-linecap:butt;stroke-linejoin:miter;stroke-miterlimit:10;stroke-dasharray:none;stroke-opacity:1"
       transform="matrix(1.3333333,0,0,-1.3333333,151.712,93.013333)" />
    <path
       id="path45"
       d="M 0,-41.48341 H 2.83484"
       style="fill:none;stroke:#000000;stroke-width:0.64757;stroke-linecap:butt;stroke-linejoin:miter;stroke-miterlimit:10;stroke-dasharray:none;stroke-opacity:1"
       transform="matrix(1.3333333,0,0,-1.3333333,151.712,93.013333)" />
    <path
       id="path46"
       d="M 0,-44.24861 H 2.83484"
       style="fill:none;stroke:#000000;stroke-width:0.64757;stroke-linecap:butt;stroke-linejoin:miter;stroke-miterlimit:10;stroke-dasharray:none;stroke-opacity:1"
       transform="matrix(1.3333333,0,0,-1.3333333,151.712,93.013333)" />
    <path
       id="path47"
       d="M 0,-47.01427 H 5.66927"
       style="fill:none;stroke:#000000;stroke-width:0.79701;stroke-linecap:butt;stroke-linejoin:miter;stroke-miterlimit:10;stroke-dasharray:none;stroke-opacity:1"
       transform="matrix(1.3333333,0,0,-1.3333333,151.712,93.013333)" />
    <path
       id="path48"
       d="M 0,-49.77992 H 2.83484"
       style="fill:none;stroke:#000000;stroke-width:0.64757;stroke-linecap:butt;stroke-linejoin:miter;stroke-miterlimit:10;stroke-dasharray:none;stroke-opacity:1"
       transform="matrix(1.3333333,0,0,-1.3333333,151.712,93.013333)" />
    <path
       id="path49"
       d="M 0,-52.54556 H 2.83484"
       style="fill:none;stroke:#000000;stroke-width:0.64757;stroke-linecap:butt;stroke-linejoin:miter;stroke-miterlimit:10;stroke-dasharray:none;stroke-opacity:1"
       transform="matrix(1.3333333,0,0,-1.3333333,151.712,93.013333)" />
    <path
       id="path50"
       d="M 0,-55.31122 H 2.83484"
       style="fill:none;stroke:#000000;stroke-width:0.64757;stroke-linecap:butt;stroke-linejoin:miter;stroke-miterlimit:10;stroke-dasharray:none;stroke-opacity:1"
       transform="matrix(1.3333333,0,0,-1.3333333,151.712,93.013333)" />
    <path
       id="path51"
       d="M 0.87828125,-6.2218047 V 8.515625e-4 H 3.3392188 c 1.3359375,0 2.2851562,-0.8203125025 2.2851562,-1.6874999625 0,-0.796875 -0.8085937,-1.4179688 -1.7695312,-1.5703125 0.890625,-0.2226563 1.5117187,-0.75 1.5117187,-1.40625 0,-0.8203125 -0.9960937,-1.5585938 -2.2734375,-1.5585938 z M 1.686875,-3.5264922 v -2.1679687 h 1.1484375 c 0.9140625,0 1.78125,0.421875 1.78125,1.0546875 0,0.515625 -0.6328125,1.1132812 -1.8867187,1.1132812 z m 0,3.00000001 V -2.9405547 h 1.3125 c 0.9492188,0 1.8515625,0.5390625 1.8515625,1.2421875 0,0.6445313 -0.7851562,1.17187501 -1.78125,1.17187501 z M 9.3392188,-2.5538359 c 1.2656252,0 2.1796872,-0.8671875 2.1796872,-1.8515625 0,-0.9492188 -0.902343,-1.8164063 -2.1796872,-1.8164063 H 7.0189063 V 8.515625e-4 H 7.8860938 V -2.5538359 Z m -0.2109375,-3.140625 c 1.0312497,0 1.6171877,0.5742187 1.6171877,1.2890625 0,0.7265625 -0.574219,1.3007812 -1.6171877,1.3007812 H 7.8509375 v -2.5898437 z m 7.7695307,2.5429687 c -0.234375,0.5976563 -0.714843,1.8398438 -0.832031,2.27343751 C 15.972031,-1.2413359 15.561875,-2.3311797 15.386094,-2.7647734 L 14.2025,-5.8116484 14.038438,-6.2218047 H 12.960313 V 8.515625e-4 h 0.738281 V -5.5186797 h 0.01172 c 0.105468,0.4570313 0.621093,1.7929688 0.714843,2.0390625 l 0.996094,2.53125001 c 0.07031,0.17578125 0.234375,0.62109375 0.292969,0.75 h 0.679687 l 1.242188,-3.15234371 c 0.128906,-0.328125 0.679687,-1.7460938 0.796875,-2.1679688 V 8.515625e-4 h 0.73828 V -6.2218047 h -1.078125 z m 0,0"
       style="fill:#000000;fill-opacity:1;fill-rule:nonzero;stroke:none"
       aria-label="BPM"
       transform="matrix(1.3333333,0,0,1.3333333,138.31333,12.729333)" />
    <path
       id="path52"
       d="M -19.84267,-28.50323 V -4.66248"
       style="fill:none;stroke:#808080;stroke-width:0.79701;stroke-linecap:butt;stroke-linejoin:miter;stroke-miterlimit:10;stroke-dasharray:none;stroke-opacity:1"
       transform="matrix(1.3333333,0,0,-1.3333333,151.712,93.013333)" />
    <path
       id="path53"
       d="M 4.66248,0 C 3.28098,0.25902 1.0361,1.0361 -0.51805,1.94269 V -1.94269 C 1.0361,-1.0361 3.28098,-0.25902 4.66248,0"
       style="fill:#808080;fill-opacity:1;fill-rule:nonzero;stroke:none"
       transform="matrix(0,1.3333333,1.3333333,0,125.25511,131.01764)" />
    <path
       id="path54"
       d="M 4.66248,0 C 3.28098,0.25902 1.0361,1.0361 -0.51805,1.94269 V -1.94269 C 1.0361,-1.0361 3.28098,-0.25902 4.66248,0"
       style="fill:#808080;fill-opacity:1;fill-rule:nonzero;stroke:none"
       transform="matrix(0,-1.3333333,-1.3333333,0,125.25511,99.229973)" />
    <g
       id="g54"
       aria-label="x&#10;ofset,BBA&#10;=x&#10;ofset,real"
       transform="matrix(1.3333333,0,0,1.3333333,27.932,116.60533)">
      <path
         id="path55"
         d="m 4.4074453,-3.6209922 c -0.328125,0.058594 -0.421875,0.3515625 -0.421875,0.4804688 0,0.1757812 0.1171875,0.328125 0.3398438,0.328125 0.2578125,0 0.5039062,-0.2226563 0.5039062,-0.5273438 0,-0.421875 -0.4570312,-0.6210937 -0.8789062,-0.6210937 -0.5390625,0 -0.84375,0.46875 -0.9492188,0.65625 -0.1757812,-0.4335938 -0.5742187,-0.65625 -0.9960937,-0.65625 -0.9609375,0 -1.48828129,1.1484375 -1.48828129,1.3828125 0,0.082031 0.0703125,0.1054687 0.12890625,0.1054687 0.0820313,0 0.10546875,-0.046875 0.12890625,-0.1054687 0.28124999,-0.8789063 0.86718749,-1.1601563 1.20703129,-1.1601563 0.2578125,0 0.4921875,0.1757813 0.4921875,0.5859375 0,0.328125 -0.3867188,1.7578125 -0.5039063,2.19140626 -0.070312,0.28125 -0.3398437,0.83203125 -0.8320312,0.83203125 -0.17578129,0 -0.36328129,-0.0585938 -0.45703129,-0.1171875 0.24609375,-0.0351563 0.42187499,-0.24609375 0.42187499,-0.48046875 0,-0.22265625 -0.16406249,-0.32812496 -0.33984374,-0.32812496 -0.2578125,0 -0.4921875,0.23437496 -0.4921875,0.53906246 0,0.43359375 0.48046875,0.609375 0.85546874,0.609375 0.5273438,0 0.8320313,-0.421875 0.9609375,-0.66796875 0.2226563,0.59765625 0.7617188,0.66796875 0.9960938,0.66796875 0.9726562,0 1.4765625,-1.16015626 1.4765625,-1.37109376 0,-0.046875 -0.023437,-0.1171875 -0.1171875,-0.1171875 -0.09375,0 -0.1054688,0.035156 -0.1523438,0.1757813 -0.1875,0.64453121 -0.7148437,1.08984371 -1.1835937,1.08984371 -0.2578125,0 -0.4921875,-0.15234375 -0.4921875,-0.5859375 0,-0.19921875 0.1171875,-0.69140621 0.1992187,-1.03125001 0.035156,-0.1640625 0.28125,-1.1367187 0.2929688,-1.1953125 0.1171875,-0.3164062 0.3867187,-0.796875 0.84375,-0.796875 0.1523437,0 0.328125,0.023437 0.4570312,0.1171875 z m 0,0"
         style="fill:#808080;fill-opacity:1;fill-rule:nonzero;stroke:none" />
      <path
         id="path56"
         d="m 7.7209219,-0.09364844 c 0,-0.65625 -0.5273438,-1.19531246 -1.171875,-1.19531246 -0.65625,0 -1.171875,0.53906246 -1.171875,1.19531246 0,0.6328125 0.5273437,1.13671874 1.171875,1.13671874 0.6445312,0 1.171875,-0.50390624 1.171875,-1.13671874 z m -1.171875,0.796875 c -0.3984375,0 -0.7382813,-0.29296875 -0.7382813,-0.85546875 0,-0.5625 0.3632813,-0.80859375 0.7382813,-0.80859375 0.375,0 0.7382812,0.2578125 0.7382812,0.80859375 0,0.57421875 -0.3632812,0.85546875 -0.7382812,0.85546875 z M 8.8195547,-0.90224219 H 9.3937734 V -1.2186484 H 8.7961172 v -0.5742188 c 0,-0.3515625 0.3398437,-0.3867187 0.4804687,-0.3867187 0.1171875,0 0.2578125,0.011719 0.4335938,0.082031 v -0.3632812 c -0.1289063,-0.035156 -0.28125,-0.046875 -0.421875,-0.046875 -0.515625,0 -0.890625,0.3632812 -0.890625,0.8554687 v 0.4335938 H 8.0109609 v 0.31640621 h 0.3867188 v 1.8984375 h 0.421875 z m 1.4648433,0 h 0.574219 V -1.2186484 h -0.597656 v -0.5742188 c 0,-0.3515625 0.339844,-0.3867187 0.480469,-0.3867187 0.117187,0 0.257812,0.011719 0.433593,0.082031 v -0.3632812 c -0.128906,-0.035156 -0.28125,-0.046875 -0.421875,-0.046875 -0.515625,0 -0.8906246,0.3632812 -0.8906246,0.8554687 v 2.64843751 h 0.4218746 z m 2.490235,-0.23437501 c -0.339844,-0.140625 -0.585938,-0.1523437 -0.761719,-0.1523437 -0.128906,0 -0.878906,0 -0.878906,0.65624996 0,0.234375 0.128906,0.36328125 0.1875,0.43359375 0.175781,0.1640625 0.386719,0.2109375 0.65625,0.2578125 0.234375,0.046875 0.503906,0.09375 0.503906,0.33984375 0,0.3046875 -0.421875,0.3046875 -0.492187,0.3046875 -0.316407,0 -0.609375,-0.10546875 -0.808594,-0.24609375 l -0.07031,0.375 c 0.164063,0.0820313 0.46875,0.21093749 0.878907,0.21093749 0.234375,0 0.445312,-0.035156 0.632812,-0.16406249 0.1875,-0.140625 0.246094,-0.36328125 0.246094,-0.52734375 0,-0.09375 -0.01172,-0.28125 -0.222656,-0.48046875 -0.1875,-0.1640625 -0.363282,-0.19921875 -0.597657,-0.234375 -0.292968,-0.0585938 -0.527343,-0.10546875 -0.527343,-0.328125 0,-0.28125 0.363281,-0.28125 0.433593,-0.28125 0.292969,0 0.503907,0.0585938 0.761719,0.1875 z m 2.355469,1.59375001 c -0.28125,0.19921875 -0.597657,0.2578125 -0.808594,0.2578125 -0.433594,0 -0.761719,-0.3515625 -0.773438,-0.80859375 h 1.628907 c 0,-0.234375 -0.02344,-0.5625 -0.222657,-0.84375 -0.175781,-0.25781246 -0.46875,-0.35156246 -0.714843,-0.35156246 -0.609375,0 -1.078125,0.52734371 -1.078125,1.16015621 0,0.64453125 0.492187,1.17187499 1.148437,1.17187499 0.292969,0 0.597656,-0.0820312 0.84375,-0.23437499 z m -1.546875,-0.85546875 c 0.105468,-0.3984375 0.398437,-0.5625 0.65625,-0.5625 0.210937,0 0.539062,0.10546875 0.632812,0.5625 z m 2.692382,-0.50390625 h 0.738282 V -1.2186484 h -0.738282 v -0.6328125 h -0.386718 v 0.6328125 h -0.445313 v 0.31640621 h 0.433594 v 1.265625 c 0,0.328125 0.08203,0.67968749 0.445312,0.67968749 0.351563,0 0.632813,-0.11718749 0.773438,-0.17578124 l -0.08203,-0.328125 c -0.164063,0.12890625 -0.339844,0.1640625 -0.480469,0.1640625 -0.199219,0 -0.257813,-0.2109375 -0.257813,-0.43359375 z m 1.936524,1.8984375 v -0.4453125 h -0.457031 v 0.4453125 h 0.140625 L 17.755102,1.6290078 h 0.222656 z m 1.010742,-3.45703121 v 3.45703121 h 1.417969 c 0.738281,0 1.300781,-0.43359375 1.300781,-0.9375 0,-0.43359375 -0.457031,-0.78515625 -1.007813,-0.8671875 C 21.449437,-0.93739844 21.801,-1.2303672 21.801,-1.5936484 c 0,-0.4570313 -0.574219,-0.8671875 -1.3125,-0.8671875 z m 0.457031,1.49999996 V -2.1678672 h 0.667969 c 0.550781,0 1.019531,0.2578125 1.019531,0.5742188 0,0.3398437 -0.457031,0.63281246 -1.019531,0.63281246 z m 0,1.6640625 v -1.3359375 h 0.714844 c 0.632812,0 1.101562,0.31640625 1.101562,0.69140625 0,0.36328125 -0.46875,0.64453125 -1.019531,0.64453125 z m 3.073242,-3.16406246 v 3.45703121 h 1.417969 c 0.738281,0 1.300781,-0.43359375 1.300781,-0.9375 0,-0.43359375 -0.457031,-0.78515625 -1.007812,-0.8671875 0.515625,-0.12890625 0.867187,-0.42187501 0.867187,-0.78515621 0,-0.4570313 -0.574218,-0.8671875 -1.3125,-0.8671875 z m 0.457032,1.49999996 V -2.1678672 h 0.667968 c 0.550782,0 1.019532,0.2578125 1.019532,0.5742188 0,0.3398437 -0.457032,0.63281246 -1.019532,0.63281246 z m 0,1.6640625 v -1.3359375 h 0.714843 c 0.632813,0 1.101563,0.31640625 1.101563,0.69140625 0,0.36328125 -0.46875,0.64453125 -1.019531,0.64453125 z M 27.780492,-2.4608359 H 27.300023 L 25.92893,0.99619531 h 0.410156 l 0.386719,-0.984375 h 1.511718 l 0.386719,0.984375 h 0.527344 z m -0.292969,0.375 0.621094,1.80468746 h -1.265625 z m 0,0"
         style="fill:#808080;fill-opacity:1;fill-rule:nonzero;stroke:none" />
      <path
         id="path57"
         d="m 38.714086,-2.9647422 c 0.117187,0 0.292969,0 0.292969,-0.1875 0,-0.1992187 -0.199219,-0.1992187 -0.328125,-0.1992187 h -5.472657 c -0.140625,0 -0.328125,0 -0.328125,0.1992187 0,0.1875 0.175782,0.1875 0.292969,0.1875 z m -0.03516,1.828125 c 0.128906,0 0.328125,0 0.328125,-0.1992187 0,-0.1875 -0.175782,-0.1875 -0.292969,-0.1875 h -5.542969 c -0.117187,0 -0.292969,0 -0.292969,0.1875 0,0.1992187 0.1875,0.1992187 0.328125,0.1992187 z m 0,0"
         style="fill:#808080;fill-opacity:1;fill-rule:nonzero;stroke:none" />
      <path
         id="path58"
         d="m 46.501195,-3.6209922 c -0.328125,0.058594 -0.421875,0.3515625 -0.421875,0.4804688 0,0.1757812 0.117188,0.328125 0.339844,0.328125 0.257813,0 0.503906,-0.2226563 0.503906,-0.5273438 0,-0.421875 -0.457031,-0.6210937 -0.878906,-0.6210937 -0.539062,0 -0.84375,0.46875 -0.949219,0.65625 -0.175781,-0.4335938 -0.574218,-0.65625 -0.996093,-0.65625 -0.960938,0 -1.488282,1.1484375 -1.488282,1.3828125 0,0.082031 0.07031,0.1054687 0.128907,0.1054687 0.08203,0 0.105468,-0.046875 0.128906,-0.1054687 0.28125,-0.8789063 0.867187,-1.1601563 1.207031,-1.1601563 0.257813,0 0.492188,0.1757813 0.492188,0.5859375 0,0.328125 -0.386719,1.7578125 -0.503907,2.19140626 -0.07031,0.28125 -0.339843,0.83203125 -0.832031,0.83203125 -0.175781,0 -0.363281,-0.0585938 -0.457031,-0.1171875 0.246094,-0.0351563 0.421875,-0.24609375 0.421875,-0.48046875 0,-0.22265625 -0.164063,-0.32812496 -0.339844,-0.32812496 -0.257812,0 -0.492187,0.23437496 -0.492187,0.53906246 0,0.43359375 0.480468,0.609375 0.855468,0.609375 0.527344,0 0.832032,-0.421875 0.960938,-0.66796875 0.222656,0.59765625 0.761719,0.66796875 0.996094,0.66796875 0.972656,0 1.476562,-1.16015626 1.476562,-1.37109376 0,-0.046875 -0.02344,-0.1171875 -0.117187,-0.1171875 -0.09375,0 -0.105469,0.035156 -0.152344,0.1757813 -0.1875,0.64453121 -0.714844,1.08984371 -1.183594,1.08984371 -0.257812,0 -0.492187,-0.15234375 -0.492187,-0.5859375 0,-0.19921875 0.117187,-0.69140621 0.199218,-1.03125001 0.03516,-0.1640625 0.28125,-1.1367187 0.292969,-1.1953125 0.117188,-0.3164062 0.386719,-0.796875 0.84375,-0.796875 0.152344,0 0.328125,0.023437 0.457031,0.1171875 z m 0,0"
         style="fill:#808080;fill-opacity:1;fill-rule:nonzero;stroke:none" />
      <path
         id="path59"
         d="m 49.808813,-0.09364844 c 0,-0.65625 -0.527344,-1.19531246 -1.171875,-1.19531246 -0.65625,0 -1.171875,0.53906246 -1.171875,1.19531246 0,0.6328125 0.527343,1.13671874 1.171875,1.13671874 0.644531,0 1.171875,-0.50390624 1.171875,-1.13671874 z m -1.171875,0.796875 c -0.398438,0 -0.738282,-0.29296875 -0.738282,-0.85546875 0,-0.5625 0.363282,-0.80859375 0.738282,-0.80859375 0.375,0 0.738281,0.2578125 0.738281,0.80859375 0,0.57421875 -0.363281,0.85546875 -0.738281,0.85546875 z m 2.273437,-1.60546875 h 0.574219 V -1.2186484 h -0.597656 v -0.5742188 c 0,-0.3515625 0.339843,-0.3867187 0.480468,-0.3867187 0.117188,0 0.257813,0.011719 0.433594,0.082031 v -0.3632812 c -0.128906,-0.035156 -0.28125,-0.046875 -0.421875,-0.046875 -0.515625,0 -0.890625,0.3632812 -0.890625,0.8554687 v 0.4335938 h -0.386719 v 0.31640621 H 50.4885 v 1.8984375 h 0.421875 z m 1.464844,0 h 0.574219 V -1.2186484 h -0.597657 v -0.5742188 c 0,-0.3515625 0.339844,-0.3867187 0.480469,-0.3867187 0.117188,0 0.257813,0.011719 0.433594,0.082031 v -0.3632812 c -0.128906,-0.035156 -0.28125,-0.046875 -0.421875,-0.046875 -0.515625,0 -0.890625,0.3632812 -0.890625,0.8554687 v 2.64843751 h 0.421875 z m 2.490234,-0.23437501 c -0.339844,-0.140625 -0.585937,-0.1523437 -0.761719,-0.1523437 -0.128906,0 -0.878906,0 -0.878906,0.65624996 0,0.234375 0.128906,0.36328125 0.1875,0.43359375 0.175781,0.1640625 0.386719,0.2109375 0.65625,0.2578125 0.234375,0.046875 0.503906,0.09375 0.503906,0.33984375 0,0.3046875 -0.421875,0.3046875 -0.492187,0.3046875 -0.316406,0 -0.609375,-0.10546875 -0.808594,-0.24609375 l -0.07031,0.375 c 0.164062,0.0820313 0.46875,0.21093749 0.878906,0.21093749 0.234375,0 0.445312,-0.035156 0.632812,-0.16406249 0.1875,-0.140625 0.246094,-0.36328125 0.246094,-0.52734375 0,-0.09375 -0.01172,-0.28125 -0.222656,-0.48046875 -0.1875,-0.1640625 -0.363281,-0.19921875 -0.597656,-0.234375 -0.292969,-0.0585938 -0.527344,-0.10546875 -0.527344,-0.328125 0,-0.28125 0.363281,-0.28125 0.433594,-0.28125 0.292968,0 0.503906,0.0585938 0.761718,0.1875 z m 2.355469,1.59375001 c -0.28125,0.19921875 -0.597656,0.2578125 -0.808594,0.2578125 -0.433594,0 -0.761719,-0.3515625 -0.773437,-0.80859375 h 1.628906 c 0,-0.234375 -0.02344,-0.5625 -0.222656,-0.84375 -0.175782,-0.25781246 -0.46875,-0.35156246 -0.714844,-0.35156246 -0.609375,0 -1.078125,0.52734371 -1.078125,1.16015621 0,0.64453125 0.492187,1.17187499 1.148437,1.17187499 0.292969,0 0.597657,-0.0820312 0.84375,-0.23437499 z m -1.546875,-0.85546875 c 0.105469,-0.3984375 0.398437,-0.5625 0.65625,-0.5625 0.210937,0 0.539062,0.10546875 0.632812,0.5625 z m 2.692383,-0.50390625 h 0.738281 V -1.2186484 H 58.36643 v -0.6328125 h -0.386719 v 0.6328125 h -0.445313 v 0.31640621 h 0.433594 v 1.265625 c 0,0.328125 0.08203,0.67968749 0.445313,0.67968749 0.351562,0 0.632812,-0.11718749 0.773437,-0.17578124 l -0.08203,-0.328125 c -0.164063,0.12890625 -0.339844,0.1640625 -0.480469,0.1640625 -0.199219,0 -0.257812,-0.2109375 -0.257812,-0.43359375 z m 1.933593,1.8984375 v -0.4453125 h -0.457031 v 0.4453125 h 0.140625 L 59.842992,1.6290078 h 0.222656 z m 1.353516,-1.06640625 c 0,-0.52734375 0.445313,-0.8203125 0.878906,-0.83203125 V -1.2655234 c -0.410156,0 -0.714843,0.2109375 -0.914062,0.46874996 V -1.2538047 h -0.386719 v 2.25000001 h 0.421875 z m 3.108399,0.52734375 c -0.28125,0.19921875 -0.597657,0.2578125 -0.808594,0.2578125 -0.433594,0 -0.761719,-0.3515625 -0.773438,-0.80859375 h 1.628907 c 0,-0.234375 -0.02344,-0.5625 -0.222657,-0.84375 -0.175781,-0.25781246 -0.46875,-0.35156246 -0.714843,-0.35156246 -0.609375,0 -1.078125,0.52734371 -1.078125,1.16015621 0,0.64453125 0.492187,1.17187499 1.148437,1.17187499 0.292969,0 0.597656,-0.0820312 0.84375,-0.23437499 z m -1.546875,-0.85546875 c 0.105468,-0.3984375 0.398437,-0.5625 0.65625,-0.5625 0.210937,0 0.539062,0.10546875 0.632812,0.5625 z m 3.875976,-0.0351563 c 0,-0.515625 -0.386719,-0.85546866 -0.878906,-0.85546866 -0.316406,0 -0.550781,0.058594 -0.832031,0.2109375 l 0.02344,0.36328116 c 0.164063,-0.10546875 0.410156,-0.2578125 0.808594,-0.2578125 0.222656,0 0.445312,0.1640625 0.445312,0.5390625 v 0.19921875 c -0.738281,0.0234375 -1.464843,0.17578125 -1.464843,0.64453125 0,0.24609375 0.175781,0.63281244 0.609375,0.63281244 0.210937,0 0.609375,-0.046875 0.867187,-0.23437494 v 0.1875 h 0.421875 z m -0.433594,0.7265625 c 0,0.09375 0,0.22265625 -0.175781,0.328125 -0.152344,0.09375 -0.351562,0.09375 -0.410156,0.09375 -0.269531,0 -0.480469,-0.1171875 -0.480469,-0.31640625 0,-0.31640625 0.84375,-0.33984375 1.066406,-0.3515625 z m 1.6875,-2.75390626 h -0.410156 v 3.45703126 h 0.410156 z m 0,0"
         style="fill:#808080;fill-opacity:1;fill-rule:nonzero;stroke:none" />
    </g>
    <path
       id="path60"
       d="M 0,-33.16571 H -45.35506"
       style="fill:none;stroke:#000000;stroke-width:0.79701;stroke-linecap:butt;stroke-linejoin:miter;stroke-miterlimit:10;stroke-dasharray:0.79701, 0.99628;stroke-dashoffset:0;stroke-opacity:1"
       transform="matrix(1.3333333,0,0,-1.3333333,151.712,93.013333)" />
  </g>
</svg>
