<?xml version="1.0" encoding="UTF-8" standalone="no"?>
<!-- Created with Inkscape (http://www.inkscape.org/) -->

<svg
   version="1.1"
   id="svg1"
   width="205.25333"
   height="110.12533"
   viewBox="0 0 205.25333 110.12533"
   sodipodi:docname="bpms_misaligned.pdf"
   xmlns:inkscape="http://www.inkscape.org/namespaces/inkscape"
   xmlns:sodipodi="http://sodipodi.sourceforge.net/DTD/sodipodi-0.dtd"
   xmlns="http://www.w3.org/2000/svg"
   xmlns:svg="http://www.w3.org/2000/svg">
  <defs
     id="defs1" />
  <sodipodi:namedview
     id="namedview1"
     pagecolor="#ffffff"
     bordercolor="#000000"
     borderopacity="0.25"
     inkscape:showpageshadow="2"
     inkscape:pageopacity="0.0"
     inkscape:pagecheckerboard="0"
     inkscape:deskcolor="#d1d1d1">
    <inkscape:page
       x="0"
       y="0"
       inkscape:label="1"
       id="page1"
       width="205.25333"
       height="110.12533"
       margin="0"
       bleed="0" />
  </sodipodi:namedview>
  <g
     id="g1"
     inkscape:groupmode="layer"
     inkscape:label="1">
    <path
       id="path1"
       d="M -53.8592,14.17339 V 2.83484 h -5.66882 v 11.33855 z"
       style="fill:#666666;fill-opacity:1;fill-rule:nonzero;stroke:none"
       transform="matrix(1.3333333,0,0,-1.3333333,114.05067,71.798667)" />
    <path
       id="path2"
       d="m 0.98546875,-0.42274219 c 0,0.15234375 0,0.19921875 -0.3984375,0.19921875 H 0.4346875 V -8.671875e-4 H 2.801875 c 0.7617187,0 1.3710937,-0.4335937525 1.3710937,-0.9257812525 0,-0.35156246 -0.3632812,-0.74999996 -1.171875,-0.85546876 0.5039063,-0.082031 0.9960938,-0.375 0.9960938,-0.7734375 0,-0.4570312 -0.6210938,-0.84375 -1.359375,-0.84375 h -2.203125 v 0.2109375 h 0.15234375 c 0.3984375,0 0.3984375,0.058594 0.3984375,0.2109375 z M 1.4776562,-1.8524297 v -1.1367187 c 0,-0.1640625 0,-0.1992188 0.2460938,-0.1992188 h 0.8789062 c 0.5273438,0 0.8554688,0.328125 0.8554688,0.6445313 0,0.3632812 -0.4453125,0.6914062 -0.9960938,0.6914062 z M 1.72375,-0.22352344 c -0.2460938,0 -0.2460938,-0.0351563 -0.2460938,-0.1875 V -1.6883672 h 1.171875 c 0.6679688,0 0.9609375,0.4335938 0.9609375,0.76171876 0,0.375 -0.421875,0.703125 -0.9960937,0.703125 z M 6.1563672,-1.5125859 h 1.0898437 c 0.6679688,0 1.40625,-0.3867188 1.40625,-0.9375 0,-0.515625 -0.65625,-0.9492188 -1.453125,-0.9492188 H 5.0782422 v 0.2109375 h 0.1523437 c 0.3984375,0 0.3984375,0.058594 0.3984375,0.2109375 v 2.55468751 c 0,0.15234375 0,0.19921875 -0.3984375,0.19921875 H 5.0782422 V -8.671875e-4 C 5.3008984,-0.01258594 5.6173047,-0.02430469 5.8985547,-0.02430469 c 0.28125,0 0.5859375,0.01171875 0.8203125,0.0234375025 V -0.22352344 H 6.5665234 c -0.4101562,0 -0.4101562,-0.046875 -0.4101562,-0.19921875 z m 0.9257812,-1.6757813 c 0.8085938,0 0.984375,0.3515625 0.984375,0.7382813 0,0.4101562 -0.1875,0.75 -0.984375,0.75 h -0.9375 v -1.2890625 c 0,-0.1640625 0,-0.1992188 0.234375,-0.1992188 z m 3.6738286,-0.09375 c -0.05859,-0.1171875 -0.105469,-0.1171875 -0.210938,-0.1171875 H 9.5841016 v 0.2109375 h 0.1523437 c 0.3984377,0 0.3984377,0.058594 0.3984377,0.2109375 v 2.42578126 c 0,0.12890625 0,0.328125 -0.5507814,0.328125 V -8.671875e-4 C 9.8067578,-0.01258594 10.029414,-0.02430469 10.25207,-0.02430469 c 0.140625,0 0.457032,0.01171875 0.667969,0.0234375025 V -0.22352344 c -0.550781,0 -0.550781,-0.19921875 -0.550781,-0.328125 V -3.1532109 l 1.441406,3.03515621 c 0.04687,0.08203125 0.08203,0.1171875025 0.152344,0.1171875025 0.09375,0 0.128906,-0.0703125025 0.152344,-0.1171875025 l 1.476562,-3.07031251 v 2.76562501 c 0,0.15234375 0,0.19921875 -0.398437,0.19921875 H 13.041133 V -8.671875e-4 C 13.263789,-0.01258594 13.556758,-0.02430469 13.826289,-0.02430469 c 0.269531,0 0.550781,0.01171875 0.785156,0.0234375025 V -0.22352344 h -0.152343 c -0.398438,0 -0.398438,-0.046875 -0.398438,-0.19921875 V -2.9774297 c 0,-0.1523437 0,-0.2109375 0.398438,-0.2109375 h 0.152343 v -0.2109375 h -0.960937 c -0.105469,0 -0.152344,0 -0.210938,0.1054688 l -1.347656,2.82421871 z m 6.284179,1.6113281 c 0,-0.1523437 -0.01172,-0.1523437 -0.175781,-0.1523437 -0.351563,0.3164062 -0.902344,0.3164062 -1.007813,0.3164062 h -0.08203 v 0.2226563 h 0.08203 c 0.117188,0 0.433594,-0.011719 0.726563,-0.140625 v 2.484375 c 0,0.1640625 0,0.2109375 -0.527344,0.2109375 h -0.246094 v 0.2226562 c 0.269532,-0.023437 0.714844,-0.023437 1.007813,-0.023437 0.28125,0 0.726562,0 0.996094,0.023437 V 1.2706172 H 17.5675 c -0.527344,0 -0.527344,-0.046875 -0.527344,-0.2109375 z m 0,0"
       style="fill:#000000;fill-opacity:1;fill-rule:nonzero;stroke:none"
       aria-label="BPM&#10;1"
       transform="matrix(1.3333333,0,0,1.3333333,25.826667,46.216)" />
    <path
       id="path3"
       d="m -25.51239,-14.17339 v -11.33854 h -5.66882 v 11.33854 z"
       style="fill:#666666;fill-opacity:1;fill-rule:nonzero;stroke:none"
       transform="matrix(1.3333333,0,0,-1.3333333,114.05067,71.798667)" />
    <path
       id="path4"
       d="m 0.98419531,-0.42108594 c 0,0.15234375 0,0.19921875 -0.3984375,0.19921875 H 0.43341406 V 7.890625e-4 H 2.8006016 c 0.7617187,0 1.3710937,-0.4335937525 1.3710937,-0.9257812525 0,-0.35156251 -0.3632812,-0.75000001 -1.171875,-0.85546871 0.5039063,-0.082031 0.9960938,-0.375 0.9960938,-0.7734375 0,-0.4570313 -0.6210938,-0.84375 -1.359375,-0.84375 H 0.43341406 v 0.2109375 h 0.15234375 c 0.3984375,0 0.3984375,0.058594 0.3984375,0.2109375 z M 1.4763828,-1.8507734 v -1.1367188 c 0,-0.1640625 0,-0.1992187 0.2460938,-0.1992187 h 0.8789062 c 0.5273438,0 0.8554688,0.328125 0.8554688,0.6445312 0,0.3632813 -0.4453125,0.6914063 -0.9960938,0.6914063 z m 0.2460938,1.62890621 c -0.2460938,0 -0.2460938,-0.0351563 -0.2460938,-0.1875 V -1.6867109 h 1.171875 c 0.6679688,0 0.9609375,0.4335937 0.9609375,0.76171871 0,0.375 -0.421875,0.703125 -0.9960937,0.703125 z M 6.1550938,-1.5109297 h 1.0898437 c 0.6679688,0 1.40625,-0.3867187 1.40625,-0.9375 0,-0.515625 -0.65625,-0.9492187 -1.453125,-0.9492187 H 5.0769688 v 0.2109375 h 0.1523437 c 0.3984375,0 0.3984375,0.058594 0.3984375,0.2109375 v 2.55468746 c 0,0.15234375 0,0.19921875 -0.3984375,0.19921875 H 5.0769688 V 7.890625e-4 C 5.299625,-0.01092969 5.6160313,-0.02264844 5.8972813,-0.02264844 c 0.28125,0 0.5859375,0.01171875 0.8203125,0.0234375025 V -0.22186719 H 6.56525 c -0.4101562,0 -0.4101562,-0.046875 -0.4101562,-0.19921875 z M 7.080875,-3.1867109 c 0.8085938,0 0.984375,0.3515625 0.984375,0.7382812 0,0.4101563 -0.1875,0.75 -0.984375,0.75 h -0.9375 v -1.2890625 c 0,-0.1640625 0,-0.1992187 0.234375,-0.1992187 z m 3.676758,-0.09375 c -0.05859,-0.1171875 -0.105469,-0.1171875 -0.210938,-0.1171875 H 9.5857578 v 0.2109375 h 0.1523438 c 0.3984374,0 0.3984374,0.058594 0.3984374,0.2109375 v 2.42578121 c 0,0.12890625 0,0.328125 -0.5507812,0.328125 V 7.890625e-4 C 9.8084141,-0.01092969 10.03107,-0.02264844 10.253727,-0.02264844 c 0.140625,0 0.457031,0.01171875 0.667968,0.0234375025 V -0.22186719 c -0.550781,0 -0.550781,-0.19921875 -0.550781,-0.328125 V -3.1515547 l 1.441406,3.03515626 c 0.04687,0.08203125 0.08203,0.1171875025 0.152344,0.1171875025 0.09375,0 0.128906,-0.0703125025 0.152344,-0.1171875025 L 13.59357,-3.1867109 v 2.76562496 c 0,0.15234375 0,0.19921875 -0.398437,0.19921875 H 13.042789 V 7.890625e-4 C 13.265445,-0.01092969 13.558414,-0.02264844 13.827945,-0.02264844 c 0.269532,0 0.550782,0.01171875 0.785157,0.0234375025 V -0.22186719 h -0.152344 c -0.398438,0 -0.398438,-0.046875 -0.398438,-0.19921875 V -2.9757734 c 0,-0.1523438 0,-0.2109375 0.398438,-0.2109375 h 0.152344 v -0.2109375 h -0.960938 c -0.105469,0 -0.152344,0 -0.210937,0.1054687 l -1.347657,2.82421876 z m 7.233398,3.81445309 h -0.210937 c -0.01172,0.09375 -0.05859,0.3984375 -0.140625,0.45703125 -0.03516,0.0234375 -0.457031,0.0234375 -0.527344,0.0234375 H 16.12775 c 0.328125,-0.24609367 0.703125,-0.51562492 0.996094,-0.71484367 0.457031,-0.31640625 0.867187,-0.59765625 0.867187,-1.125 0,-0.64453133 -0.597656,-0.99609383 -1.3125,-0.99609383 -0.667968,0 -1.160156,0.3867188 -1.160156,0.87890633 0,0.2578125 0.210938,0.3046875 0.28125,0.3046875 0.140625,0 0.292969,-0.09375 0.292969,-0.29296875 0,-0.18750008 -0.128906,-0.28125008 -0.28125,-0.29296878 0.140625,-0.234375 0.433594,-0.375 0.761719,-0.375 0.480468,0 0.890625,0.28125 0.890625,0.77343753 0,0.421875 -0.292969,0.73828125 -0.679688,1.0546875 L 15.576969,1.2605547 c -0.04687,0.046875 -0.05859,0.046875 -0.05859,0.082031 v 0.1523438 h 2.308594 z m 0,0"
       style="fill:#000000;fill-opacity:1;fill-rule:nonzero;stroke:none"
       aria-label="BPM&#10;2"
       transform="matrix(1.3333333,0,0,1.3333333,63.621333,84.010667)" />
    <path
       id="path5"
       d="M 2.8344,8.50412 V -2.83441 H -2.8344 V 8.50412 Z"
       style="fill:#666666;fill-opacity:1;fill-rule:nonzero;stroke:none"
       transform="matrix(1.3333333,0,0,-1.3333333,114.05067,71.798667)" />
    <path
       id="path6"
       d="m 0.98485156,-0.42279688 c 0,0.15234375 0,0.19921875 -0.3984375,0.19921875 H 0.43407031 V -9.21875e-4 H 2.8012578 c 0.7617188,0 1.3710938,-0.433593755 1.3710938,-0.925781255 0,-0.35156247 -0.3632813,-0.74999997 -1.171875,-0.85546877 0.5039062,-0.082031 0.9960937,-0.375 0.9960937,-0.7734375 0,-0.4570312 -0.6210937,-0.84375 -1.359375,-0.84375 H 0.43407031 v 0.2109375 h 0.15234375 c 0.3984375,0 0.3984375,0.058594 0.3984375,0.2109375 z M 1.4770391,-1.8524844 v -1.1367187 c 0,-0.1640625 0,-0.1992188 0.2460937,-0.1992188 h 0.8789063 c 0.5273437,0 0.8554687,0.328125 0.8554687,0.6445313 0,0.3632812 -0.4453125,0.6914062 -0.9960937,0.6914062 z m 0.2460937,1.62890627 c -0.2460937,0 -0.2460937,-0.0351562 -0.2460937,-0.1875 V -1.6884219 h 1.171875 c 0.6679687,0 0.9609375,0.4335938 0.9609375,0.76171877 0,0.375 -0.421875,0.703125 -0.9960938,0.703125 z M 6.15575,-1.5126406 h 1.0898438 c 0.6679687,0 1.40625,-0.3867188 1.40625,-0.9375 0,-0.515625 -0.65625,-0.9492188 -1.453125,-0.9492188 H 5.077625 v 0.2109375 h 0.1523438 c 0.3984375,0 0.3984375,0.058594 0.3984375,0.2109375 v 2.55468752 c 0,0.15234375 0,0.19921875 -0.3984375,0.19921875 H 5.077625 V -9.21875e-4 C 5.3002813,-0.01264063 5.6166875,-0.02435938 5.8979375,-0.02435938 c 0.28125,0 0.5859375,0.01171875 0.8203125,0.023437505 V -0.22357813 H 6.5659063 c -0.4101563,0 -0.4101563,-0.046875 -0.4101563,-0.19921875 z m 0.9257813,-1.6757813 c 0.8085937,0 0.984375,0.3515625 0.984375,0.7382813 0,0.4101562 -0.1875,0.75 -0.984375,0.75 h -0.9375 v -1.2890625 c 0,-0.1640625 0,-0.1992188 0.234375,-0.1992188 z m 3.6738277,-0.09375 c -0.05859,-0.1171875 -0.105468,-0.1171875 -0.210937,-0.1171875 H 9.5834844 v 0.2109375 h 0.1523437 c 0.3984379,0 0.3984379,0.058594 0.3984379,0.2109375 v 2.42578127 c 0,0.12890625 0,0.328125 -0.5507816,0.328125 V -9.21875e-4 C 9.8061406,-0.01264063 10.028797,-0.02435938 10.251453,-0.02435938 c 0.140625,0 0.457031,0.01171875 0.667969,0.023437505 V -0.22357813 c -0.550781,0 -0.550781,-0.19921875 -0.550781,-0.328125 V -3.1532656 l 1.441406,3.03515622 c 0.04687,0.08203125 0.08203,0.117187505 0.152344,0.117187505 0.09375,0 0.128906,-0.070312505 0.152343,-0.117187505 l 1.476563,-3.07031252 v 2.76562502 c 0,0.15234375 0,0.19921875 -0.398438,0.19921875 h -0.152343 v 0.222656255 c 0.222656,-0.011718755 0.515625,-0.023437505 0.785156,-0.023437505 0.269531,0 0.550781,0.01171875 0.785156,0.023437505 V -0.22357813 h -0.152344 c -0.398437,0 -0.398437,-0.046875 -0.398437,-0.19921875 V -2.9774844 c 0,-0.1523437 0,-0.2109375 0.398437,-0.2109375 h 0.152344 v -0.2109375 h -0.960937 c -0.105469,0 -0.152344,0 -0.210938,0.1054688 l -1.347656,2.82421872 z m 5.947266,3.1230469 c 0.457031,0 0.761719,0.29296875 0.761719,0.78515625 0,0.50390625 -0.304688,0.77343745 -0.75,0.77343745 -0.05859,0 -0.65625,0 -0.902344,-0.2578125 0.199219,-0.035156 0.257813,-0.18749995 0.257813,-0.30468745 0,-0.1875 -0.140625,-0.3046875 -0.304688,-0.3046875 -0.152344,0 -0.304687,0.10546875 -0.304687,0.31640625 0,0.515625 0.585937,0.75 1.265625,0.75 0.820312,0 1.324218,-0.4921875 1.324218,-0.97265625 0,-0.41015625 -0.363281,-0.76171875 -0.925781,-0.890625 0.597656,-0.1875 0.75,-0.5625 0.75,-0.84375005 0,-0.4101562 -0.503906,-0.7148437 -1.136719,-0.7148437 -0.609375,0 -1.101562,0.2578125 -1.101562,0.703125 0,0.234375 0.1875,0.29296875 0.28125,0.29296875 0.140625,0 0.28125,-0.10546875 0.28125,-0.28125005 0,-0.1171875 -0.05859,-0.2578125 -0.234375,-0.28125 0.210937,-0.234375 0.65625,-0.2460937 0.761719,-0.2460937 0.363281,0 0.621093,0.1875 0.621093,0.5273437 0,0.28125005 -0.1875,0.7382813 -0.714843,0.77343755 -0.140625,0 -0.152344,0 -0.28125,0.0117188 -0.05859,0 -0.117188,0.0117188 -0.117188,0.0820313 0,0.0820313 0.05859,0.0820313 0.140625,0.0820313 z m 0,0"
       style="fill:#000000;fill-opacity:1;fill-rule:nonzero;stroke:none"
       aria-label="BPM&#10;3"
       transform="matrix(1.3333333,0,0,1.3333333,101.41733,53.774667)" />
    <path
       id="path7"
       d="M 31.18121,19.84267 V 8.50412 h -5.66882 v 11.33855 z"
       style="fill:#666666;fill-opacity:1;fill-rule:nonzero;stroke:none"
       transform="matrix(1.3333333,0,0,-1.3333333,114.05067,71.798667)" />
    <path
       id="path8"
       d="m 0.98357813,-0.4216875 c 0,0.15234375 0,0.19921875 -0.3984375,0.19921875 H 0.43279688 V 1.875e-4 H 2.7999844 c 0.7617187,0 1.3710937,-0.43359375 1.3710937,-0.92578125 0,-0.35156255 -0.3632812,-0.75000005 -1.171875,-0.85546875 0.5039063,-0.082031 0.9960938,-0.375 0.9960938,-0.7734375 0,-0.4570313 -0.6210938,-0.84375 -1.359375,-0.84375 H 0.43279688 v 0.2109375 h 0.15234375 c 0.3984375,0 0.3984375,0.058594 0.3984375,0.2109375 z M 1.4757656,-1.851375 v -1.1367188 c 0,-0.1640625 0,-0.1992187 0.2460938,-0.1992187 h 0.8789062 c 0.5273438,0 0.8554688,0.328125 0.8554688,0.6445312 0,0.3632813 -0.4453125,0.6914063 -0.9960938,0.6914063 z m 0.2460938,1.62890625 c -0.2460938,0 -0.2460938,-0.0351563 -0.2460938,-0.1875 V -1.6873125 h 1.171875 c 0.6679688,0 0.9609375,0.4335937 0.9609375,0.76171875 0,0.375 -0.421875,0.703125 -0.9960937,0.703125 z M 6.1574063,-1.5115313 H 7.24725 c 0.6679688,0 1.40625,-0.3867187 1.40625,-0.9375 0,-0.515625 -0.65625,-0.9492187 -1.453125,-0.9492187 H 5.0792813 v 0.2109375 H 5.231625 c 0.3984375,0 0.3984375,0.058594 0.3984375,0.2109375 v 2.5546875 c 0,0.15234375 0,0.19921875 -0.3984375,0.19921875 H 5.0792813 V 1.875e-4 C 5.3019375,-0.01153125 5.6183438,-0.02325 5.8995938,-0.02325 c 0.28125,0 0.5859375,0.01171875 0.8203125,0.0234375 V -0.22246875 H 6.5675625 c -0.4101562,0 -0.4101562,-0.046875 -0.4101562,-0.19921875 z m 0.9257812,-1.6757812 c 0.8085938,0 0.984375,0.3515625 0.984375,0.7382812 0,0.4101563 -0.1875,0.75 -0.984375,0.75 h -0.9375 v -1.2890625 c 0,-0.1640625 0,-0.1992187 0.234375,-0.1992187 z m 3.6738285,-0.09375 C 10.698422,-3.39825 10.651547,-3.39825 10.546078,-3.39825 H 9.5851406 v 0.2109375 h 0.1523438 c 0.3984376,0 0.3984376,0.058594 0.3984376,0.2109375 v 2.42578125 c 0,0.12890625 0,0.328125 -0.5507814,0.328125 V 1.875e-4 C 9.8077969,-0.01153125 10.030453,-0.02325 10.253109,-0.02325 c 0.140625,0 0.457032,0.01171875 0.667969,0.0234375 v -0.22265625 c -0.550781,0 -0.550781,-0.19921875 -0.550781,-0.328125 V -3.1521563 L 11.811703,-0.117 c 0.04687,0.08203125 0.08203,0.1171875 0.152344,0.1171875 0.09375,0 0.128906,-0.0703125 0.152344,-0.1171875 l 1.476562,-3.0703125 v 2.765625 c 0,0.15234375 0,0.19921875 -0.398437,0.19921875 H 13.042172 V 1.875e-4 c 0.222656,-0.01171875 0.515625,-0.0234375 0.785156,-0.0234375 0.269531,0 0.550781,0.01171875 0.785156,0.0234375 v -0.22265625 h -0.152343 c -0.398438,0 -0.398438,-0.046875 -0.398438,-0.19921875 V -2.976375 c 0,-0.1523438 0,-0.2109375 0.398438,-0.2109375 h 0.152343 V -3.39825 h -0.960937 c -0.105469,0 -0.152344,0 -0.210938,0.1054687 l -1.347656,2.8242188 z m 7.374023,3.96679687 V 0.46307812 H 17.509945 V -1.7283281 c 0,-0.1171875 0,-0.1523438 -0.128906,-0.1523438 -0.105469,0 -0.105469,0.011719 -0.164062,0.082031 l -1.839844,2.26171872 v 0.22265625 h 1.652344 V 1.0724531 c 0,0.1523438 0,0.1992188 -0.433594,0.1992188 h -0.175781 v 0.2226562 c 0.234375,-0.011719 0.5625,-0.023437 0.855468,-0.023437 0.28125,0 0.609375,0.011719 0.84375,0.023437 V 1.2716719 h -0.175781 c -0.433594,0 -0.433594,-0.046875 -0.433594,-0.1992188 V 0.68573437 Z M 17.076352,-1.3416094 v 1.80468752 h -1.464844 z m 0,0"
       style="fill:#000000;fill-opacity:1;fill-rule:nonzero;stroke:none"
       aria-label="BPM&#10;4"
       transform="matrix(1.3333333,0,0,1.3333333,139.212,38.656)" />
    <path
       id="path9"
       d="M -85.04042,0 H 52.03113"
       style="fill:none;stroke:#000000;stroke-width:0.79701;stroke-linecap:butt;stroke-linejoin:miter;stroke-miterlimit:10;stroke-dasharray:none;stroke-opacity:1"
       transform="matrix(1.3333333,0,0,-1.3333333,114.05067,71.798667)" />
    <path
       id="path10"
       d="M 4.66248,0 C 3.28098,0.25902 1.0361,1.0361 -0.51805,1.94269 V -1.94269 C 1.0361,-1.0361 3.28098,-0.25902 4.66248,0"
       style="fill:#000000;fill-opacity:1;fill-rule:nonzero;stroke:none"
       transform="matrix(1.3333333,0,0,-1.3333333,183.42551,71.798667)" />
    <path
       id="path11"
       d="m 3.8917969,-3.7254453 c -0.2695313,0.011719 -0.46875,0.234375 -0.46875,0.4453125 0,0.140625 0.082031,0.2929687 0.3046875,0.2929687 0.2226562,0 0.4570312,-0.1640625 0.4570312,-0.5625 0,-0.4453125 -0.4335937,-0.8554687 -1.1835937,-0.8554687 -1.3125,0 -1.6875,1.0195312 -1.6875,1.453125 0,0.7851562 0.7382812,0.9257812 1.03125,0.9960937 0.515625,0.09375 1.03125,0.1992188 1.03125,0.75 0,0.25781254 -0.2226563,1.10156254 -1.4179688,1.10156254 -0.140625,0 -0.9140625,0 -1.13671872,-0.52734375 0.37500002,0.046875 0.62109372,-0.2578125 0.62109372,-0.52734379 0,-0.234375 -0.1523437,-0.3515625 -0.3632812,-0.3515625 -0.25781252,0 -0.56250002,0.2109375 -0.56250002,0.65625004 0,0.5625 0.57421872,0.9609375 1.42968752,0.9609375 1.6054687,0 2.0039062,-1.20703124 2.0039062,-1.65234374 0,-0.3515625 -0.1992187,-0.609375 -0.3164062,-0.7265625 -0.2695313,-0.28125 -0.5507813,-0.328125 -0.9960938,-0.421875 -0.3515625,-0.070312 -0.75,-0.140625 -0.75,-0.5976563 0,-0.28125 0.234375,-0.890625 1.1132813,-0.890625 0.2460937,0 0.75,0.070312 0.890625,0.4570313 z m 0,0"
       style="fill:#000000;fill-opacity:1;fill-rule:nonzero;stroke:none"
       aria-label="s"
       transform="matrix(1.3333333,0,0,1.3333333,194.6,74.658667)" />
    <path
       id="path12"
       d="M -79.37114,-28.3468 V 37.85773"
       style="fill:none;stroke:#000000;stroke-width:0.79701;stroke-linecap:butt;stroke-linejoin:miter;stroke-miterlimit:10;stroke-dasharray:none;stroke-opacity:1"
       transform="matrix(1.3333333,0,0,-1.3333333,114.05067,71.798667)" />
    <path
       id="path13"
       d="M 4.66248,0 C 3.28098,0.25902 1.0361,1.0361 -0.51805,1.94269 V -1.94269 C 1.0361,-1.0361 3.28098,-0.25902 4.66248,0"
       style="fill:#000000;fill-opacity:1;fill-rule:nonzero;stroke:none"
       transform="matrix(0,-1.3333333,-1.3333333,0,8.22248,21.321693)" />
    <path
       id="path14"
       d="m 3.3293906,-3.0103906 c 0.058594,-0.2578125 0.2929688,-1.171875 0.984375,-1.171875 0.046875,0 0.2929688,0 0.5039063,0.1289062 -0.28125,0.046875 -0.4804688,0.3046875 -0.4804688,0.5390625 0,0.1640625 0.1054688,0.3515625 0.375,0.3515625 0.2226563,0 0.5390625,-0.1875 0.5390625,-0.5859375 0,-0.515625 -0.5859375,-0.65625 -0.9257812,-0.65625 -0.5742188,0 -0.9257813,0.5273438 -1.0429688,0.7617188 -0.2578125,-0.65625 -0.7851562,-0.7617188 -1.078125,-0.7617188 -1.0429687,0 -1.60546872,1.2890625 -1.60546872,1.5351563 0,0.1054687 0.10546875,0.1054687 0.1171875,0.1054687 0.0820313,0 0.1171875,-0.023437 0.12890625,-0.1171875 0.33984377,-1.0546875 0.99609377,-1.3007812 1.33593747,-1.3007812 0.1875,0 0.5390625,0.09375 0.5390625,0.6679687 0,0.3046875 -0.1640625,0.9726563 -0.5390625,2.3671875 -0.1523437,0.62109377 -0.5039062,1.04296877 -0.9492187,1.04296877 -0.058594,0 -0.28125002,0 -0.49218752,-0.12890625 0.24609375,-0.0585938 0.46875002,-0.26953125 0.46875002,-0.5390625 0,-0.26953122 -0.22265627,-0.35156252 -0.37500002,-0.35156252 -0.29296875,0 -0.5390625,0.25781252 -0.5390625,0.57421877 0,0.45703125 0.4921875,0.65625 0.93750002,0.65625 0.65625,0 1.0078125,-0.69140625 1.0429687,-0.75 0.1171875,0.36328125 0.4804688,0.75 1.078125,0.75 1.0195313,0 1.59375,-1.27734377 1.59375,-1.53515627 0,-0.09375 -0.09375,-0.09375 -0.1289062,-0.09375 -0.082031,0 -0.1054688,0.035156 -0.1289063,0.1054688 -0.328125,1.06640622 -0.9960937,1.31249997 -1.3242187,1.31249997 -0.3867188,0 -0.5390625,-0.328125 -0.5390625,-0.65625 0,-0.22265625 0.058594,-0.44531247 0.1640625,-0.87890627 z m 0,0"
       style="fill:#000000;fill-opacity:1;fill-rule:nonzero;stroke:none"
       aria-label="x"
       transform="matrix(1.3333333,0,0,1.3333333,4.428,10.146667)" />
  </g>
</svg>
