<?xml version="1.0" encoding="UTF-8" standalone="no"?>
<!-- Created with Inkscape (http://www.inkscape.org/) -->

<svg
   version="1.1"
   id="svg1"
   width="167.32533"
   height="91.226669"
   viewBox="0 0 167.32533 91.226669"
   sodipodi:docname="offquad-kick.pdf"
   xmlns:inkscape="http://www.inkscape.org/namespaces/inkscape"
   xmlns:sodipodi="http://sodipodi.sourceforge.net/DTD/sodipodi-0.dtd"
   xmlns="http://www.w3.org/2000/svg"
   xmlns:svg="http://www.w3.org/2000/svg">
  <defs
     id="defs1" />
  <sodipodi:namedview
     id="namedview1"
     pagecolor="#ffffff"
     bordercolor="#000000"
     borderopacity="0.25"
     inkscape:showpageshadow="2"
     inkscape:pageopacity="0.0"
     inkscape:pagecheckerboard="0"
     inkscape:deskcolor="#d1d1d1">
    <inkscape:page
       x="0"
       y="0"
       inkscape:label="1"
       id="page1"
       width="167.32533"
       height="91.226669"
       margin="0"
       bleed="0" />
  </sodipodi:namedview>
  <g
     id="g1"
     inkscape:groupmode="layer"
     inkscape:label="1">
    <path
       id="path1"
       d="M 7.08669,15.59082 V -26.92937 H -7.08669 v 42.52019 z"
       style="fill:#ff8000;fill-opacity:1;fill-rule:nonzero;stroke:none"
       transform="matrix(1.3333333,0,0,-1.3333333,76.121333,52.9)" />
    <path
       id="path2"
       d="m 4.055125,-0.05763281 c 0.8789063,-0.3515625 1.5703125,-1.24218749 1.5703125,-2.29687499 0,-1.3945313 -1.1484375,-2.5429688 -2.5664062,-2.5429688 -1.4296875,0 -2.5664063,1.1484375 -2.5664063,2.5429688 0,1.37109374 1.1367188,2.49609374 2.5664063,2.49609374 0.082031,0 0.3632812,0 0.703125,-0.09375 0.1640625,0.69140625 0.3046875,1.30078126 0.9609375,1.30078126 0.7265625,0 0.9375,-0.85546876 0.9375,-1.28906251 0,-0.0585937525 0,-0.15234375 -0.09375,-0.15234375 -0.082031,0 -0.09375,0.0703125 -0.1054688,0.12890625 C 5.4145,0.44627344 5.0512188,0.61033594 4.7816875,0.61033594 c -0.3632812,0 -0.5390625,-0.29296875 -0.7265625,-0.66796875 z M 2.4965313,-0.17482031 C 1.8871563,-0.38575781 1.2074688,-1.0185703 1.2074688,-2.3662266 c 0,-1.6289062 0.984375,-2.3085937 1.8515625,-2.3085937 0.8554687,0 1.8398437,0.6796875 1.8398437,2.3085937 0,1.2421875 -0.5742187,1.80468754 -0.9726562,2.03906254 -0.1757813,-0.3515625 -0.4101563,-0.72656254 -0.8671875,-0.72656254 -0.3632813,0 -0.6445313,0.26953129 -0.6445313,0.59765629 0,0.09375 0.035156,0.19921875 0.082031,0.28125 z m 1.1953125,-0.0351563 c -0.1171875,0.046875 -0.3632813,0.12890625 -0.6328125,0.12890625 -0.375,0 -0.4453125,-0.26953125 -0.4453125,-0.38671875 0,-0.19921875 0.1875,-0.38671875 0.4453125,-0.38671875 0.3632812,0 0.5273437,0.2578125 0.6328125,0.64453125 z M 8.6342266,-2.9990391 v 0.2578125 c 0.46875,0 0.515625,0.046875 0.515625,0.3867188 v 1.1953125 c 0,0.60937499 -0.3867188,1.03124999 -0.9257813,1.03124999 -0.6328125,0 -0.65625,-0.29296875 -0.65625,-0.65625 V -3.0693516 l -1.078125,0.070312 v 0.2578125 c 0.5273438,0 0.5273438,0.011719 0.5273438,0.6328125 v 1.0546875 c 0,0.48046879 0,1.12500004 1.1601562,1.12500004 0.1523438,0 0.6679688,0 0.9960938,-0.5859375 h 0.011719 v 0.5859375 L 10.227977,9.609375e-4 V -0.24513281 c -0.4687504,0 -0.5273442,-0.0585937 -0.5273442,-0.3984375 V -3.0693516 Z m 4.9863284,1.1367188 c 0,-0.375 0,-0.6445313 -0.316407,-0.9023438 -0.28125,-0.234375 -0.621093,-0.3398437 -1.03125,-0.3398437 -0.667968,0 -1.125,0.2460937 -1.125,0.6679687 0,0.2226563 0.152344,0.3398438 0.328125,0.3398438 0.1875,0 0.328125,-0.1289063 0.328125,-0.3164063 0,-0.1289062 -0.05859,-0.2695312 -0.246093,-0.328125 0.257812,-0.1757812 0.65625,-0.1757812 0.703125,-0.1757812 0.386718,0 0.808593,0.2578125 0.808593,0.84375 v 0.2226562 c -0.375,0.011719 -0.84375,0.035156 -1.347656,0.2226563 -0.632812,0.2226562 -0.820312,0.609375 -0.820312,0.92578124 0,0.59765625 0.726562,0.7734375 1.21875,0.7734375 0.550781,0 0.878906,-0.31640625 1.03125,-0.5859375 0.02344,0.28125 0.210937,0.55078125 0.539062,0.55078125 0.01172,0 0.691406,0 0.691406,-0.66796875 V -1.0068516 H 14.13618 v 0.37500004 c 0,0.0703125 0,0.3984375 -0.257813,0.3984375 -0.257812,0 -0.257812,-0.328125 -0.257812,-0.41015625 z m -0.550782,0.87890624 c 0,0.66796875 -0.585937,0.85546875 -0.890625,0.85546875 -0.363281,0 -0.691406,-0.234375 -0.691406,-0.57421875 0,-0.38671874 0.328125,-0.92578124 1.582031,-0.97265624 z m 3.902344,-3.77343754 v 0.2460938 c 0.46875,0 0.515625,0.046875 0.515625,0.3867187 v 1.453125 c -0.257812,-0.2578125 -0.585937,-0.3984375 -0.972656,-0.3984375 -0.925781,0 -1.710938,0.6914063 -1.710938,1.5703125 0,0.86718754 0.738282,1.57031254 1.628907,1.57031254 0.574218,0 0.914062,-0.3046875 1.03125,-0.43359375 V 0.07127344 L 18.54243,9.609375e-4 V -0.24513281 c -0.46875,0 -0.527344,-0.0585937 -0.527344,-0.3984375 V -4.8388828 Z m 0.492188,4.03125004 c -0.175782,0.31640625 -0.539063,0.59765625 -0.984375,0.59765625 -0.398438,0 -0.679688,-0.22265625 -0.808594,-0.43359375 -0.140625,-0.19921875 -0.222656,-0.48046874 -0.222656,-0.92578124 0,-0.1640625 0,-0.6914063 0.28125,-1.0195313 0.28125,-0.3046875 0.621093,-0.375 0.820312,-0.375 0.339844,0 0.632813,0.1523438 0.832031,0.4101563 0.08203,0.1054687 0.08203,0.1171875 0.08203,0.2460937 z m 0,0"
       style="fill:#000000;fill-opacity:1;fill-rule:nonzero;stroke:none"
       aria-label="Quad"
       transform="matrix(1.3333333,0,0,1.3333333,63.530667,25.612)" />
    <path
       id="path3"
       d="M -56.69362,0 H 52.03113"
       style="fill:none;stroke:#000000;stroke-width:0.79701;stroke-linecap:butt;stroke-linejoin:miter;stroke-miterlimit:10;stroke-dasharray:none;stroke-opacity:1"
       transform="matrix(1.3333333,0,0,-1.3333333,76.121333,52.9)" />
    <path
       id="path4"
       d="M 4.66248,0 C 3.28098,0.25902 1.0361,1.0361 -0.51805,1.94269 V -1.94269 C 1.0361,-1.0361 3.28098,-0.25902 4.66248,0"
       style="fill:#000000;fill-opacity:1;fill-rule:nonzero;stroke:none"
       transform="matrix(1.3333333,0,0,-1.3333333,145.49617,52.9)" />
    <path
       id="path5"
       d="m 3.8915313,-3.7252734 c -0.2695313,0.011719 -0.46875,0.234375 -0.46875,0.4453125 0,0.140625 0.082031,0.2929687 0.3046875,0.2929687 0.2226562,0 0.4570312,-0.1640625 0.4570312,-0.5625 0,-0.4453125 -0.4335937,-0.8554687 -1.1835937,-0.8554687 -1.3125,0 -1.6875,1.0195312 -1.6875,1.453125 0,0.7851562 0.7382812,0.9257812 1.03125,0.9960937 0.515625,0.09375 1.03125,0.1992188 1.03125,0.75 0,0.25781251 -0.2226563,1.10156251 -1.4179688,1.10156251 -0.140625,0 -0.9140625,0 -1.13671875,-0.52734375 0.37500005,0.046875 0.62109375,-0.2578125 0.62109375,-0.52734376 0,-0.234375 -0.1523437,-0.3515625 -0.3632812,-0.3515625 -0.25781255,0 -0.56250005,0.2109375 -0.56250005,0.65625001 0,0.5625 0.57421875,0.9609375 1.42968755,0.9609375 1.6054687,0 2.0039062,-1.20703121 2.0039062,-1.65234371 0,-0.3515625 -0.1992187,-0.609375 -0.3164062,-0.7265625 -0.2695313,-0.28125 -0.5507813,-0.328125 -0.9960938,-0.421875 -0.3515625,-0.070312 -0.75,-0.140625 -0.75,-0.5976563 0,-0.28125 0.234375,-0.890625 1.1132813,-0.890625 0.2460937,0 0.75,0.070312 0.890625,0.4570313 z m 0,0"
       style="fill:#000000;fill-opacity:1;fill-rule:nonzero;stroke:none"
       aria-label="s"
       transform="matrix(1.3333333,0,0,1.3333333,156.67067,55.76)" />
    <path
       id="path6"
       d="M -39.68578,-28.3468 V 23.68433"
       style="fill:none;stroke:#000000;stroke-width:0.79701;stroke-linecap:butt;stroke-linejoin:miter;stroke-miterlimit:10;stroke-dasharray:none;stroke-opacity:1"
       transform="matrix(1.3333333,0,0,-1.3333333,76.121333,52.9)" />
    <path
       id="path7"
       d="M 4.66248,0 C 3.28098,0.25902 1.0361,1.0361 -0.51805,1.94269 V -1.94269 C 1.0361,-1.0361 3.28098,-0.25902 4.66248,0"
       style="fill:#000000;fill-opacity:1;fill-rule:nonzero;stroke:none"
       transform="matrix(0,-1.3333333,-1.3333333,0,23.20696,21.320893)" />
    <path
       id="path8"
       d="m 3.3267422,-3.0103906 c 0.058594,-0.2578125 0.2929687,-1.171875 0.984375,-1.171875 0.046875,0 0.2929687,0 0.5039062,0.1289062 -0.28125,0.046875 -0.4804687,0.3046875 -0.4804687,0.5390625 0,0.1640625 0.1054687,0.3515625 0.375,0.3515625 0.2226562,0 0.5390625,-0.1875 0.5390625,-0.5859375 0,-0.515625 -0.5859375,-0.65625 -0.9257813,-0.65625 -0.5742187,0 -0.9257812,0.5273438 -1.0429687,0.7617188 -0.2578125,-0.65625 -0.7851563,-0.7617188 -1.078125,-0.7617188 -1.0429688,0 -1.60546876,1.2890625 -1.60546876,1.5351563 0,0.1054687 0.10546875,0.1054687 0.1171875,0.1054687 0.0820313,0 0.1171875,-0.023437 0.12890625,-0.1171875 0.33984371,-1.0546875 0.99609371,-1.3007812 1.33593751,-1.3007812 0.1875,0 0.5390625,0.09375 0.5390625,0.6679687 0,0.3046875 -0.1640625,0.9726563 -0.5390625,2.3671875 -0.1523438,0.62109378 -0.5039063,1.04296878 -0.9492188,1.04296878 -0.058594,0 -0.28124996,0 -0.49218746,-0.12890625 0.24609375,-0.0585938 0.46874996,-0.26953125 0.46874996,-0.5390625 0,-0.26953123 -0.22265621,-0.35156253 -0.37499996,-0.35156253 -0.29296875,0 -0.5390625,0.25781253 -0.5390625,0.57421878 0,0.45703125 0.4921875,0.65625 0.93749996,0.65625 0.65625,0 1.0078125,-0.69140625 1.0429688,-0.75 0.1171875,0.36328125 0.4804687,0.75 1.078125,0.75 1.0195312,0 1.59375,-1.27734378 1.59375,-1.53515628 0,-0.09375 -0.09375,-0.09375 -0.1289063,-0.09375 -0.082031,0 -0.1054687,0.035156 -0.1289062,0.1054688 -0.328125,1.06640623 -0.9960938,1.31249998 -1.3242188,1.31249998 -0.3867187,0 -0.5390625,-0.328125 -0.5390625,-0.65625 0,-0.22265625 0.058594,-0.44531248 0.1640625,-0.87890628 z m 0,0"
       style="fill:#000000;fill-opacity:1;fill-rule:nonzero;stroke:none"
       aria-label="x"
       transform="matrix(1.3333333,0,0,1.3333333,19.412,10.146667)" />
    <path
       id="path9"
       d="M -45.35506,14.17339 H 0 l 45.35506,-36.85091"
       style="fill:none;stroke:#0000ff;stroke-width:0.79701;stroke-linecap:butt;stroke-linejoin:miter;stroke-miterlimit:10;stroke-dasharray:2.98883, 1.99255;stroke-dashoffset:0;stroke-opacity:1"
       transform="matrix(1.3333333,0,0,-1.3333333,76.121333,52.9)" />
    <path
       id="path10"
       d="M -45.35506,-14.17339 H 0 L 45.35506,5.66927"
       style="fill:none;stroke:#ff0000;stroke-width:0.79701;stroke-linecap:butt;stroke-linejoin:miter;stroke-miterlimit:10;stroke-dasharray:2.98883, 1.99255;stroke-dashoffset:0;stroke-opacity:1"
       transform="matrix(1.3333333,0,0,-1.3333333,76.121333,52.9)" />
    <path
       id="path11"
       d="M -45.35506,0 H 0 l 45.35506,-8.50412"
       style="fill:none;stroke:#00ff00;stroke-width:0.79701;stroke-linecap:butt;stroke-linejoin:miter;stroke-miterlimit:10;stroke-dasharray:2.98883, 1.99255;stroke-dashoffset:0;stroke-opacity:1"
       transform="matrix(1.3333333,0,0,-1.3333333,76.121333,52.9)" />
  </g>
</svg>
