<?xml version="1.0" encoding="UTF-8" standalone="no"?>
<!-- Created with Inkscape (http://www.inkscape.org/) -->

<svg
   version="1.1"
   id="svg1"
   width="190.03867"
   height="169.13467"
   viewBox="0 0 190.03867 169.13467"
   sodipodi:docname="offquad-kick.pdf"
   xmlns:inkscape="http://www.inkscape.org/namespaces/inkscape"
   xmlns:sodipodi="http://sodipodi.sourceforge.net/DTD/sodipodi-0.dtd"
   xmlns="http://www.w3.org/2000/svg"
   xmlns:svg="http://www.w3.org/2000/svg">
  <defs
     id="defs1" />
  <sodipodi:namedview
     id="namedview1"
     pagecolor="#ffffff"
     bordercolor="#000000"
     borderopacity="0.25"
     inkscape:showpageshadow="2"
     inkscape:pageopacity="0.0"
     inkscape:pagecheckerboard="0"
     inkscape:deskcolor="#d1d1d1">
    <inkscape:page
       x="0"
       y="0"
       inkscape:label="1"
       id="page1"
       width="190.03867"
       height="169.13467"
       margin="0"
       bleed="0" />
  </sodipodi:namedview>
  <g
     id="g1"
     inkscape:groupmode="layer"
     inkscape:label="1">
    <path
       id="path1"
       d="M -14.17339,35.43349 0,0 14.17339,35.43349 Z"
       style="fill:#ff8000;fill-opacity:1;fill-rule:nonzero;stroke:none"
       transform="matrix(1.3333333,0,0,-1.3333333,113.91733,93.013333)" />
    <path
       id="path2"
       d="M -14.17339,-35.43349 0,0 14.17339,-35.43349 Z"
       style="fill:#ff8000;fill-opacity:1;fill-rule:nonzero;stroke:none"
       transform="matrix(1.3333333,0,0,-1.3333333,113.91733,93.013333)" />
    <path
       id="path3"
       d="m 5.3080859,-0.32857812 c 1.0898438,-0.84374998 1.453125,-2.06249998 1.453125,-3.10546878 0,-2.0976562 -1.4414062,-3.703125 -3.09375,-3.703125 -1.6992187,0 -3.10546871,1.6289063 -3.10546871,3.703125 0,2.109375 1.46484371,3.65625003 3.09375001,3.65625003 0.1640625,0 0.5273437,-0.0117188 0.9609375,-0.1875 L 5.4721484,1.2417344 H 6.4916797 Z M 4.2182422,-0.50435937 c 0,0 -0.2695313,0.0820313 -0.5507813,0.0820313 -1.171875,0 -2.25,-1.16015633 -2.25,-3.01171873 0,-1.8632812 1.078125,-3.0585937 2.2382813,-3.0585937 1.1953125,0 2.25,1.2070312 2.25,3.0585937 0,0.6445313 -0.1171875,1.734375 -1.0195313,2.54296873 L 4.1010547,-1.9340469 H 3.2221484 Z M 11.668438,-4.4184219 h -0.785157 v 2.8828125 c 0,0.75000003 -0.550781,1.10156253 -1.1953122,1.10156253 -0.703125,0 -0.7734375,-0.26953125 -0.7734375,-0.69140623 V -4.4184219 H 8.1410938 v 3.328125 c 0,0.72656253 0.2226562,1.19531253 1.0546875,1.19531253 0.5273437,0 1.2304687,-0.15234375 1.7226567,-0.5859375 v 0.480468745 h 0.75 z m 4.784179,1.5351563 c 0,-1.0078125 -0.726562,-1.7109375 -1.640625,-1.7109375 -0.644531,0 -1.101562,0.1640625 -1.570312,0.4335937 l 0.07031,0.65625 c 0.515625,-0.375 1.007813,-0.5039062 1.5,-0.5039062 0.46875,0 0.867188,0.3984375 0.867188,1.1367187 v 0.4335938 c -1.5,0.011719 -2.765625,0.4335937 -2.765625,1.3125 0,0.42187498 0.269531,1.23046873 1.136718,1.23046873 0.140625,0 1.078125,-0.01171875 1.652344,-0.46875 v 0.363281245 h 0.75 z m -0.773437,1.5703125 c 0,0.1875 0,0.43359373 -0.339844,0.62109373 -0.292969,0.1875 -0.667969,0.1875 -0.773438,0.1875 -0.480468,0 -0.925781,-0.22265625 -0.925781,-0.64453123 0,-0.6914063 1.605469,-0.7617188 2.039063,-0.7851563 z m 5.915039,-5.6015625 h -0.75 v 2.9296875 c -0.527344,-0.4335938 -1.078125,-0.5507813 -1.453125,-0.5507813 -0.984375,0 -1.757813,1.0429688 -1.757813,2.3203125 0,1.31250003 0.761719,2.32031253 1.710938,2.32031253 0.328125,0 0.914062,-0.08203125 1.476562,-0.62109375 v 0.515624995 h 0.773438 z m -0.773438,5.53125 c 0,0.140625 -0.01172,0.3164062 -0.328125,0.60937498 -0.234375,0.19921875 -0.480468,0.26953125 -0.738281,0.26953125 -0.621094,0 -1.347656,-0.45703125 -1.347656,-1.69921873 0,-1.3125 0.855469,-1.7226563 1.441406,-1.7226563 0.445313,0 0.75,0.234375 0.972656,0.5507813 z m 0,0"
       style="fill:#000000;fill-opacity:1;fill-rule:nonzero;stroke:none"
       aria-label="Quad"
       transform="matrix(1.3333333,0,0,1.3333333,98.973333,39.414667)" />
    <path
       id="path4"
       d="M -85.04042,0 H 56.69362"
       style="fill:none;stroke:#000000;stroke-width:0.79701;stroke-linecap:butt;stroke-linejoin:miter;stroke-miterlimit:10;stroke-dasharray:2.98883, 1.99255;stroke-dashoffset:0;stroke-opacity:1"
       transform="matrix(1.3333333,0,0,-1.3333333,113.91733,93.013333)" />
    <path
       id="path5"
       d="M -48.18947,19.27548 0,19.27518 49.01395,-14.48935"
       style="fill:none;stroke:#ff0000;stroke-width:0.69739;stroke-linecap:butt;stroke-linejoin:miter;stroke-miterlimit:10;stroke-dasharray:none;stroke-opacity:1"
       transform="matrix(1.3333333,0,0,-1.3333333,113.91733,93.013333)" />
    <path
       id="path6"
       d="M 2.44083,0 -1.4645,1.95265 0,0 -1.4645,-1.95265"
       style="fill:#ff0000;fill-opacity:1;fill-rule:nonzero;stroke:none"
       transform="matrix(1.09796,0.75633333,0.75633333,-1.09796,179.26924,112.33244)" />
    <path
       id="path7"
       d="M -28.3468,-56.69362 V 56.69362"
       style="fill:none;stroke:#000000;stroke-width:0.79701;stroke-linecap:butt;stroke-linejoin:miter;stroke-miterlimit:10;stroke-dasharray:none;stroke-opacity:1"
       transform="matrix(1.3333333,0,0,-1.3333333,113.91733,93.013333)" />
    <path
       id="path8"
       d="m -28.3468,55.31078 h -2.83486"
       style="fill:none;stroke:#000000;stroke-width:0.64757;stroke-linecap:butt;stroke-linejoin:miter;stroke-miterlimit:10;stroke-dasharray:none;stroke-opacity:1"
       transform="matrix(1.3333333,0,0,-1.3333333,113.91733,93.013333)" />
    <path
       id="path9"
       d="m -28.3468,52.54514 h -2.83486"
       style="fill:none;stroke:#000000;stroke-width:0.64757;stroke-linecap:butt;stroke-linejoin:miter;stroke-miterlimit:10;stroke-dasharray:none;stroke-opacity:1"
       transform="matrix(1.3333333,0,0,-1.3333333,113.91733,93.013333)" />
    <path
       id="path10"
       d="m -28.3468,49.77948 h -5.66928"
       style="fill:none;stroke:#000000;stroke-width:0.79701;stroke-linecap:butt;stroke-linejoin:miter;stroke-miterlimit:10;stroke-dasharray:none;stroke-opacity:1"
       transform="matrix(1.3333333,0,0,-1.3333333,113.91733,93.013333)" />
    <path
       id="path11"
       d="m -28.3468,47.01384 h -2.83486"
       style="fill:none;stroke:#000000;stroke-width:0.64757;stroke-linecap:butt;stroke-linejoin:miter;stroke-miterlimit:10;stroke-dasharray:none;stroke-opacity:1"
       transform="matrix(1.3333333,0,0,-1.3333333,113.91733,93.013333)" />
    <path
       id="path12"
       d="m -28.3468,44.24861 h -2.83486"
       style="fill:none;stroke:#000000;stroke-width:0.64757;stroke-linecap:butt;stroke-linejoin:miter;stroke-miterlimit:10;stroke-dasharray:none;stroke-opacity:1"
       transform="matrix(1.3333333,0,0,-1.3333333,113.91733,93.013333)" />
    <path
       id="path13"
       d="m -28.3468,41.48297 h -2.83486"
       style="fill:none;stroke:#000000;stroke-width:0.64757;stroke-linecap:butt;stroke-linejoin:miter;stroke-miterlimit:10;stroke-dasharray:none;stroke-opacity:1"
       transform="matrix(1.3333333,0,0,-1.3333333,113.91733,93.013333)" />
    <path
       id="path14"
       d="m -28.3468,38.71732 h -2.83486"
       style="fill:none;stroke:#000000;stroke-width:0.64757;stroke-linecap:butt;stroke-linejoin:miter;stroke-miterlimit:10;stroke-dasharray:none;stroke-opacity:1"
       transform="matrix(1.3333333,0,0,-1.3333333,113.91733,93.013333)" />
    <path
       id="path15"
       d="m -28.3468,35.95169 h -5.66928"
       style="fill:none;stroke:#000000;stroke-width:0.79701;stroke-linecap:butt;stroke-linejoin:miter;stroke-miterlimit:10;stroke-dasharray:none;stroke-opacity:1"
       transform="matrix(1.3333333,0,0,-1.3333333,113.91733,93.013333)" />
    <path
       id="path16"
       d="m -28.3468,33.18646 h -2.83486"
       style="fill:none;stroke:#000000;stroke-width:0.64757;stroke-linecap:butt;stroke-linejoin:miter;stroke-miterlimit:10;stroke-dasharray:none;stroke-opacity:1"
       transform="matrix(1.3333333,0,0,-1.3333333,113.91733,93.013333)" />
    <path
       id="path17"
       d="m -28.3468,30.4208 h -2.83486"
       style="fill:none;stroke:#000000;stroke-width:0.64757;stroke-linecap:butt;stroke-linejoin:miter;stroke-miterlimit:10;stroke-dasharray:none;stroke-opacity:1"
       transform="matrix(1.3333333,0,0,-1.3333333,113.91733,93.013333)" />
    <path
       id="path18"
       d="m -28.3468,27.65517 h -2.83486"
       style="fill:none;stroke:#000000;stroke-width:0.64757;stroke-linecap:butt;stroke-linejoin:miter;stroke-miterlimit:10;stroke-dasharray:none;stroke-opacity:1"
       transform="matrix(1.3333333,0,0,-1.3333333,113.91733,93.013333)" />
    <path
       id="path19"
       d="m -28.3468,24.88953 h -2.83486"
       style="fill:none;stroke:#000000;stroke-width:0.64757;stroke-linecap:butt;stroke-linejoin:miter;stroke-miterlimit:10;stroke-dasharray:none;stroke-opacity:1"
       transform="matrix(1.3333333,0,0,-1.3333333,113.91733,93.013333)" />
    <path
       id="path20"
       d="m -28.3468,22.1243 h -5.66928"
       style="fill:none;stroke:#000000;stroke-width:0.79701;stroke-linecap:butt;stroke-linejoin:miter;stroke-miterlimit:10;stroke-dasharray:none;stroke-opacity:1"
       transform="matrix(1.3333333,0,0,-1.3333333,113.91733,93.013333)" />
    <path
       id="path21"
       d="m -28.3468,19.35864 h -2.83486"
       style="fill:none;stroke:#000000;stroke-width:0.64757;stroke-linecap:butt;stroke-linejoin:miter;stroke-miterlimit:10;stroke-dasharray:none;stroke-opacity:1"
       transform="matrix(1.3333333,0,0,-1.3333333,113.91733,93.013333)" />
    <path
       id="path22"
       d="m -28.3468,16.59302 h -2.83486"
       style="fill:none;stroke:#000000;stroke-width:0.64757;stroke-linecap:butt;stroke-linejoin:miter;stroke-miterlimit:10;stroke-dasharray:none;stroke-opacity:1"
       transform="matrix(1.3333333,0,0,-1.3333333,113.91733,93.013333)" />
    <path
       id="path23"
       d="m -28.3468,13.82736 h -2.83486"
       style="fill:none;stroke:#000000;stroke-width:0.64757;stroke-linecap:butt;stroke-linejoin:miter;stroke-miterlimit:10;stroke-dasharray:none;stroke-opacity:1"
       transform="matrix(1.3333333,0,0,-1.3333333,113.91733,93.013333)" />
    <path
       id="path24"
       d="m -28.3468,11.06213 h -2.83486"
       style="fill:none;stroke:#000000;stroke-width:0.64757;stroke-linecap:butt;stroke-linejoin:miter;stroke-miterlimit:10;stroke-dasharray:none;stroke-opacity:1"
       transform="matrix(1.3333333,0,0,-1.3333333,113.91733,93.013333)" />
    <path
       id="path25"
       d="m -28.3468,8.29651 h -5.66928"
       style="fill:none;stroke:#000000;stroke-width:0.79701;stroke-linecap:butt;stroke-linejoin:miter;stroke-miterlimit:10;stroke-dasharray:none;stroke-opacity:1"
       transform="matrix(1.3333333,0,0,-1.3333333,113.91733,93.013333)" />
    <path
       id="path26"
       d="m -28.3468,5.53085 h -2.83486"
       style="fill:none;stroke:#000000;stroke-width:0.64757;stroke-linecap:butt;stroke-linejoin:miter;stroke-miterlimit:10;stroke-dasharray:none;stroke-opacity:1"
       transform="matrix(1.3333333,0,0,-1.3333333,113.91733,93.013333)" />
    <path
       id="path27"
       d="m -28.3468,2.7652 h -2.83486"
       style="fill:none;stroke:#000000;stroke-width:0.64757;stroke-linecap:butt;stroke-linejoin:miter;stroke-miterlimit:10;stroke-dasharray:none;stroke-opacity:1"
       transform="matrix(1.3333333,0,0,-1.3333333,113.91733,93.013333)" />
    <path
       id="path28"
       d="m -28.3468,0 h -2.83486"
       style="fill:none;stroke:#000000;stroke-width:0.64757;stroke-linecap:butt;stroke-linejoin:miter;stroke-miterlimit:10;stroke-dasharray:none;stroke-opacity:1"
       transform="matrix(1.3333333,0,0,-1.3333333,113.91733,93.013333)" />
    <path
       id="path29"
       d="m -28.3468,-2.76563 h -2.83486"
       style="fill:none;stroke:#000000;stroke-width:0.64757;stroke-linecap:butt;stroke-linejoin:miter;stroke-miterlimit:10;stroke-dasharray:none;stroke-opacity:1"
       transform="matrix(1.3333333,0,0,-1.3333333,113.91733,93.013333)" />
    <path
       id="path30"
       d="m -28.3468,-5.53128 h -5.66928"
       style="fill:none;stroke:#000000;stroke-width:0.79701;stroke-linecap:butt;stroke-linejoin:miter;stroke-miterlimit:10;stroke-dasharray:none;stroke-opacity:1"
       transform="matrix(1.3333333,0,0,-1.3333333,113.91733,93.013333)" />
    <path
       id="path31"
       d="m -28.3468,-8.29692 h -2.83486"
       style="fill:none;stroke:#000000;stroke-width:0.64757;stroke-linecap:butt;stroke-linejoin:miter;stroke-miterlimit:10;stroke-dasharray:none;stroke-opacity:1"
       transform="matrix(1.3333333,0,0,-1.3333333,113.91733,93.013333)" />
    <path
       id="path32"
       d="m -28.3468,-11.06213 h -2.83486"
       style="fill:none;stroke:#000000;stroke-width:0.64757;stroke-linecap:butt;stroke-linejoin:miter;stroke-miterlimit:10;stroke-dasharray:none;stroke-opacity:1"
       transform="matrix(1.3333333,0,0,-1.3333333,113.91733,93.013333)" />
    <path
       id="path33"
       d="m -28.3468,-13.82779 h -2.83486"
       style="fill:none;stroke:#000000;stroke-width:0.64757;stroke-linecap:butt;stroke-linejoin:miter;stroke-miterlimit:10;stroke-dasharray:none;stroke-opacity:1"
       transform="matrix(1.3333333,0,0,-1.3333333,113.91733,93.013333)" />
    <path
       id="path34"
       d="m -28.3468,-16.59344 h -2.83486"
       style="fill:none;stroke:#000000;stroke-width:0.64757;stroke-linecap:butt;stroke-linejoin:miter;stroke-miterlimit:10;stroke-dasharray:none;stroke-opacity:1"
       transform="matrix(1.3333333,0,0,-1.3333333,113.91733,93.013333)" />
    <path
       id="path35"
       d="m -28.3468,-19.35909 h -5.66928"
       style="fill:none;stroke:#000000;stroke-width:0.79701;stroke-linecap:butt;stroke-linejoin:miter;stroke-miterlimit:10;stroke-dasharray:none;stroke-opacity:1"
       transform="matrix(1.3333333,0,0,-1.3333333,113.91733,93.013333)" />
    <path
       id="path36"
       d="m -28.3468,-22.1243 h -2.83486"
       style="fill:none;stroke:#000000;stroke-width:0.64757;stroke-linecap:butt;stroke-linejoin:miter;stroke-miterlimit:10;stroke-dasharray:none;stroke-opacity:1"
       transform="matrix(1.3333333,0,0,-1.3333333,113.91733,93.013333)" />
    <path
       id="path37"
       d="m -28.3468,-24.88995 h -2.83486"
       style="fill:none;stroke:#000000;stroke-width:0.64757;stroke-linecap:butt;stroke-linejoin:miter;stroke-miterlimit:10;stroke-dasharray:none;stroke-opacity:1"
       transform="matrix(1.3333333,0,0,-1.3333333,113.91733,93.013333)" />
    <path
       id="path38"
       d="m -28.3468,-27.6556 h -2.83486"
       style="fill:none;stroke:#000000;stroke-width:0.64757;stroke-linecap:butt;stroke-linejoin:miter;stroke-miterlimit:10;stroke-dasharray:none;stroke-opacity:1"
       transform="matrix(1.3333333,0,0,-1.3333333,113.91733,93.013333)" />
    <path
       id="path39"
       d="m -28.3468,-30.42125 h -2.83486"
       style="fill:none;stroke:#000000;stroke-width:0.64757;stroke-linecap:butt;stroke-linejoin:miter;stroke-miterlimit:10;stroke-dasharray:none;stroke-opacity:1"
       transform="matrix(1.3333333,0,0,-1.3333333,113.91733,93.013333)" />
    <path
       id="path40"
       d="m -28.3468,-33.18646 h -5.66928"
       style="fill:none;stroke:#000000;stroke-width:0.79701;stroke-linecap:butt;stroke-linejoin:miter;stroke-miterlimit:10;stroke-dasharray:none;stroke-opacity:1"
       transform="matrix(1.3333333,0,0,-1.3333333,113.91733,93.013333)" />
    <path
       id="path41"
       d="m 3.8903359,-2.5912734 c 0,-0.3867188 0,-1.3125 -0.375,-1.96875 -0.4101562,-0.7148438 -1.0195312,-0.8320313 -1.40625,-0.8320313 -0.3515625,0 -0.9726562,0.1054688 -1.37109371,0.796875 -0.38671875,0.6328125 -0.3984375,1.5 -0.3984375,2.0039063 0,0.5859375 0.0234375,1.3125 0.36328125,1.92187496 0.35156246,0.64453125 0.93749996,0.83203125 1.40624996,0.83203125 0.796875,0 1.2421875,-0.45703125 1.4765625,-0.9609375 0.28125,-0.56250001 0.3046875,-1.30078121 0.3046875,-1.79296871 z m -1.78125,2.22656246 c -0.328125,0 -0.7148437,-0.1875 -0.9140625,-0.76171876 -0.1640625,-0.4804687 -0.1640625,-0.984375 -0.1640625,-1.5703125 0,-0.7265625 0,-2.1679687 1.078125,-2.1679687 1.0898438,0 1.0898438,1.4414062 1.0898438,2.1679687 0,0.5273438 0,1.125 -0.1992188,1.640625 -0.2226562,0.57421876 -0.6210937,0.69140626 -0.890625,0.69140626 z m 0,0"
       style="fill:#000000;fill-opacity:1;fill-rule:nonzero;stroke:none"
       aria-label="0"
       transform="matrix(1.3333333,0,0,1.3333333,60.238667,140.748)" />
    <path
       id="path42"
       d="m -28.3468,-35.9521 h -2.83486"
       style="fill:none;stroke:#000000;stroke-width:0.64757;stroke-linecap:butt;stroke-linejoin:miter;stroke-miterlimit:10;stroke-dasharray:none;stroke-opacity:1"
       transform="matrix(1.3333333,0,0,-1.3333333,113.91733,93.013333)" />
    <path
       id="path43"
       d="m -28.3468,-38.71776 h -2.83486"
       style="fill:none;stroke:#000000;stroke-width:0.64757;stroke-linecap:butt;stroke-linejoin:miter;stroke-miterlimit:10;stroke-dasharray:none;stroke-opacity:1"
       transform="matrix(1.3333333,0,0,-1.3333333,113.91733,93.013333)" />
    <path
       id="path44"
       d="m -28.3468,-41.48341 h -2.83486"
       style="fill:none;stroke:#000000;stroke-width:0.64757;stroke-linecap:butt;stroke-linejoin:miter;stroke-miterlimit:10;stroke-dasharray:none;stroke-opacity:1"
       transform="matrix(1.3333333,0,0,-1.3333333,113.91733,93.013333)" />
    <path
       id="path45"
       d="m -28.3468,-44.24861 h -2.83486"
       style="fill:none;stroke:#000000;stroke-width:0.64757;stroke-linecap:butt;stroke-linejoin:miter;stroke-miterlimit:10;stroke-dasharray:none;stroke-opacity:1"
       transform="matrix(1.3333333,0,0,-1.3333333,113.91733,93.013333)" />
    <path
       id="path46"
       d="m -28.3468,-47.01427 h -5.66928"
       style="fill:none;stroke:#000000;stroke-width:0.79701;stroke-linecap:butt;stroke-linejoin:miter;stroke-miterlimit:10;stroke-dasharray:none;stroke-opacity:1"
       transform="matrix(1.3333333,0,0,-1.3333333,113.91733,93.013333)" />
    <path
       id="path47"
       d="m -28.3468,-49.77992 h -2.83486"
       style="fill:none;stroke:#000000;stroke-width:0.64757;stroke-linecap:butt;stroke-linejoin:miter;stroke-miterlimit:10;stroke-dasharray:none;stroke-opacity:1"
       transform="matrix(1.3333333,0,0,-1.3333333,113.91733,93.013333)" />
    <path
       id="path48"
       d="m -28.3468,-52.54556 h -2.83486"
       style="fill:none;stroke:#000000;stroke-width:0.64757;stroke-linecap:butt;stroke-linejoin:miter;stroke-miterlimit:10;stroke-dasharray:none;stroke-opacity:1"
       transform="matrix(1.3333333,0,0,-1.3333333,113.91733,93.013333)" />
    <path
       id="path49"
       d="m -28.3468,-55.31122 h -2.83486"
       style="fill:none;stroke:#000000;stroke-width:0.64757;stroke-linecap:butt;stroke-linejoin:miter;stroke-miterlimit:10;stroke-dasharray:none;stroke-opacity:1"
       transform="matrix(1.3333333,0,0,-1.3333333,113.91733,93.013333)" />
    <path
       id="path50"
       d="M 0.87889844,-6.2218047 V 8.515625e-4 H 3.3398359 c 1.3359375,0 2.2851563,-0.8203125025 2.2851563,-1.6874999625 0,-0.796875 -0.8085938,-1.4179688 -1.7695313,-1.5703125 0.890625,-0.2226563 1.5117188,-0.75 1.5117188,-1.40625 0,-0.8203125 -0.9960938,-1.5585938 -2.2734375,-1.5585938 z m 0.80859376,2.6953125 v -2.1679687 h 1.1484375 c 0.9140625,0 1.78125,0.421875 1.78125,1.0546875 0,0.515625 -0.6328125,1.1132812 -1.8867188,1.1132812 z m 0,3.00000001 V -2.9405547 h 1.3125 c 0.9492187,0 1.8515625,0.5390625 1.8515625,1.2421875 0,0.6445313 -0.7851563,1.17187501 -1.78125,1.17187501 z M 9.3398359,-2.5538359 c 1.2656251,0 2.1796871,-0.8671875 2.1796871,-1.8515625 0,-0.9492188 -0.902343,-1.8164063 -2.1796871,-1.8164063 H 7.0195234 V 8.515625e-4 H 7.8867109 V -2.5538359 Z m -0.2109375,-3.140625 c 1.0312496,0 1.6171876,0.5742187 1.6171876,1.2890625 0,0.7265625 -0.574219,1.3007812 -1.6171876,1.3007812 H 7.8515547 v -2.5898437 z m 7.7695316,2.5429687 c -0.234375,0.5976563 -0.714844,1.8398438 -0.832032,2.27343751 -0.09375,-0.36328121 -0.503906,-1.45312501 -0.679687,-1.88671871 l -1.183594,-3.046875 -0.164062,-0.4101563 H 12.96093 V 8.515625e-4 h 0.738281 V -5.5186797 h 0.01172 c 0.105468,0.4570313 0.621093,1.7929688 0.714843,2.0390625 l 0.996094,2.53125001 c 0.07031,0.17578125 0.234375,0.62109375 0.292969,0.75 h 0.679687 l 1.242188,-3.15234371 c 0.128906,-0.328125 0.679687,-1.7460938 0.796875,-2.1679688 V 8.515625e-4 h 0.738281 V -6.2218047 h -1.078125 z m 0,0"
       style="fill:#000000;fill-opacity:1;fill-rule:nonzero;stroke:none"
       aria-label="BPM"
       transform="matrix(1.3333333,0,0,1.3333333,62.722667,12.729333)" />
  </g>
</svg>
