<?xml version="1.0" encoding="UTF-8" standalone="no"?>
<!-- Created with Inkscape (http://www.inkscape.org/) -->

<svg
   version="1.1"
   id="svg1"
   width="251.73599"
   height="320.15466"
   viewBox="0 0 251.73599 320.15466"
   sodipodi:docname="orbit-distortion.pdf"
   xmlns:inkscape="http://www.inkscape.org/namespaces/inkscape"
   xmlns:sodipodi="http://sodipodi.sourceforge.net/DTD/sodipodi-0.dtd"
   xmlns="http://www.w3.org/2000/svg"
   xmlns:svg="http://www.w3.org/2000/svg">
  <defs
     id="defs1" />
  <sodipodi:namedview
     id="namedview1"
     pagecolor="#ffffff"
     bordercolor="#000000"
     borderopacity="0.25"
     inkscape:showpageshadow="2"
     inkscape:pageopacity="0.0"
     inkscape:pagecheckerboard="0"
     inkscape:deskcolor="#d1d1d1">
    <inkscape:page
       x="0"
       y="0"
       inkscape:label="1"
       id="page1"
       width="251.73599"
       height="320.15466"
       margin="0"
       bleed="0" />
  </sodipodi:namedview>
  <g
     id="g1"
     inkscape:groupmode="layer"
     inkscape:label="1">
    <path
       id="path1"
       d="m 15.50513,87.93655 1.07501,-0.20164 1.07092,-0.20982 1.07227,-0.22072 1.06546,-0.23708 1.06411,-0.24934 1.06002,-0.26023 1.06001,-0.27385 1.05321,-0.29023 1.05186,-0.30114 1.04775,-0.30923 1.04367,-0.32974 1.03822,-0.33928 1.03551,-0.3488 1.03001,-0.36513 1.02597,-0.3774 1.02185,-0.38969 1.01642,-0.40056 1.01097,-0.4169 1.00692,-0.42648 1.00143,-0.43739 0.9946,-0.45234 0.98918,-0.46324 0.98506,-0.47552 0.97827,-0.48638 0.97147,-0.50142 0.96735,-0.50955 0.96192,-0.52185 0.95237,-0.53682 0.9456,-0.54637 0.9415,-0.55586 0.93191,-0.57091 0.92516,-0.58177 0.91966,-0.58995 0.91017,-0.60359 0.90332,-0.61586 0.89788,-0.62403 0.88972,-0.63492 0.8788,-0.64992 0.87468,-0.6567 0.8652,-0.66763 0.85564,-0.68123 0.84749,-0.68941 0.84203,-0.69899 0.82972,-0.70848 0.82159,-0.72351 0.81478,-0.72891 0.80525,-0.73847 0.79296,-0.75076 0.78613,-0.7589 0.77801,-0.76843 0.7657,-0.78072 0.75757,-0.7875 0.74802,-0.79572 0.73845,-0.80659 0.72758,-0.81612 0.718,-0.82293 0.70987,-0.83251 0.69626,-0.84335 0.68669,-0.85022 0.6785,-0.85702 0.66763,-0.86651 0.65403,-0.87474 0.64579,-0.88153 0.63359,-0.89107 0.62265,-0.89792 0.61174,-0.90605 0.60495,-0.91012 0.5859,-0.92243 0.57765,-0.92784 0.56956,-0.93196 0.55453,-0.94284 0.54363,-0.94827 0.53273,-0.9551 0.52321,-0.96054 0.50682,-0.96739 0.4973,-0.97421 0.48644,-0.97826 0.47139,-0.9864 0.46052,-0.99193 0.44965,-0.99599 0.436,-1.00142 0.42374,-1.00959 0.41283,-1.01098 0.40057,-1.01643 0.38425,-1.02322 0.37465,-1.0273 0.36514,-1.03009 0.34746,-1.03682 0.33381,-1.03963 0.32562,-1.04362 0.31064,-1.04914 0.29703,-1.05186 0.28612,-1.05455 0.27386,-1.06001 0.25615,-1.0614 0.24661,-1.06408 0.23569,-1.06685 0.21804,-1.07226 0.2071,-1.07231 0.1948,-1.07634 0.17987,-1.07912 0.16621,-1.07905 0.15395,-1.08185 0.14444,-1.08319 0.124,-1.08725 0.11446,-1.08725 0.10353,-1.08593 0.08447,-1.09136 0.07494,-1.08999 0.06129,-1.09138 0.0477,-1.0927 0.03411,-1.09133 0.02177,-1.09277 0.0095,-1.09271 -0.0082,-1.09263 -0.0204,-1.09273 -0.02998,-1.09136 -0.04768,-1.09132 -0.05996,-1.09271 -0.0736,-1.09139 -0.08446,-1.08865 -0.10082,-1.08858 -0.11171,-1.08592 -0.12402,-1.08731 -0.14169,-1.08452 -0.15258,-1.08044 -0.16487,-1.08181 -0.17987,-1.07777 -0.19211,-1.07634 -0.20437,-1.07365 -0.21938,-1.07093 -0.23297,-1.06819 -0.24522,-1.06547 -0.25347,-1.06273 -0.27383,-1.05728 -0.28474,-1.05733 -0.29432,-1.05048 -0.31063,-1.04908 -0.32294,-1.04369 -0.33377,-1.04228 -0.34607,-1.03688 -0.36107,-1.03142 -0.37471,-1.02731 -0.38284,-1.02189 -0.40058,-1.01777 -0.41012,-1.0137 -0.42237,-1.00824 -0.43463,-1.00278 -0.44825,-0.99599 -0.4578,-0.99325 -0.47282,-0.98507 -0.48503,-0.981 -0.49457,-0.9742 -0.5055,-0.96873 -0.52047,-0.96056 -0.53273,-0.95646 -0.54093,-0.94829 -0.55452,-0.94283 -0.56677,-0.93469 -0.57635,-0.92784 -0.58724,-0.92244 -0.60222,-0.91151 -0.6104,-0.90606 -0.61993,-0.90192 -0.63353,-0.88973 -0.6445,-0.88287 -0.65259,-0.87607 -0.66763,-0.86657 -0.67581,-0.85975 -0.68669,-0.85021 -0.69489,-0.84337 -0.70713,-0.83384 -0.71805,-0.82431 -0.72481,-0.81751 -0.7385,-0.80659 -0.74797,-0.79703 -0.75485,-0.79025 -0.76573,-0.7807 -0.77663,-0.76848 -0.78476,-0.76024 -0.79161,-0.75348 -0.80658,-0.73712 -0.81206,-0.73164 -0.81886,-0.72486 -0.83114,-0.70987 -0.83927,-0.69894 -0.84613,-0.69348 -0.85564,-0.67989 -0.86515,-0.66763 -0.87067,-0.66083 -0.88014,-0.64992 -0.88973,-0.63492 -0.89514,-0.62674 -0.90332,-0.6172 -0.91017,-0.60354 -0.91832,-0.5927 -0.92513,-0.58316 -0.93061,-0.57089 -0.94149,-0.55725 -0.94416,-0.54773 -0.95241,-0.53952 -0.96054,-0.52189 -0.96602,-0.51226 -0.97006,-0.50277 -0.97828,-0.48643 -0.98373,-0.47684 -0.98917,-0.46598 -0.99325,-0.45234 -1.00279,-0.43873 -1.00551,-0.4292 -1.01099,-0.41828 -1.01643,-0.40057 -1.01915,-0.39104 -1.02595,-0.38012 -1.03005,-0.36513 -1.03548,-0.35292 -1.03683,-0.34062 -1.04367,-0.32835 -1.04777,-0.31204 -1.04913,-0.30244 -1.05455,-0.29292 -1.05865,-0.27385 -1.06007,-0.263 -1.06408,-0.25208 -1.06686,-0.23568 -1.06954,-0.22345 -1.07225,-0.21257 -1.07505,-0.19892 -1.07772,-0.18259 -1.07907,-0.17027 -1.08185,-0.16215 -1.08317,-0.14308 -1.08588,-0.13079 -1.08729,-0.11989 -1.08591,-0.10354 -1.09,-0.09133 -1.08998,-0.08033 -1.09137,-0.06542 -1.09271,-0.05041 -1.09132,-0.03813 -1.09139,-0.02863 -1.0941,-0.0095 -1.09125,0.0027 -1.09271,0.0136 -1.0927,0.02864 -1.09138,0.04497 -1.09273,0.0531 -1.09135,0.0668 -1.08866,0.08581 -1.08859,0.094 -1.08864,0.10631 -1.08726,0.12259 -1.08318,0.13627 -1.08458,0.14716 -1.07907,0.16211 -1.07912,0.1758 -1.07771,0.18798 -1.075,0.19893 -1.07092,0.21663 -1.06819,0.22756 -1.06548,0.23843 -1.06273,0.25479 -1.0614,0.26706 -1.05728,0.27927 -1.05321,0.29158 -1.04913,0.30797 -1.04635,0.31742 -1.04235,0.32836 -1.03683,0.34608 -1.03415,0.35561 -1.02869,0.36789 -1.02322,0.38286 -1.02051,0.3965 -1.0137,0.40329 -1.01097,0.41829 -1.0028,0.43327 -1.00004,0.44414 -0.99465,0.45239 -0.98642,0.47139 -0.98237,0.47963 -0.97693,0.49049 -0.96869,0.50409 -0.96332,0.51775 -0.95916,0.52455 -0.95102,0.53958 -0.94422,0.5518 -0.93602,0.56136 -0.9333,0.57085 -0.92104,0.58862 -0.91559,0.59675 -0.91017,0.60495 -0.90058,0.61858 -0.89248,0.63081 -0.88695,0.63904 -0.87879,0.64992 -0.86794,0.66351 -0.86244,0.67309 -0.85567,0.68122 -0.84337,0.69488 -0.83658,0.7044 -0.82838,0.71121 -0.81885,0.72485 -0.80797,0.73577 -0.80253,0.74258 -0.79295,0.75205 -0.78068,0.76436 -0.77255,0.77394 -0.76709,0.77934 -0.7521,0.79295 -0.74392,0.79979 -0.73437,0.80931 -0.72487,0.81748 -0.71392,0.82843 -0.7044,0.83656 -0.69627,0.84338 -0.67989,0.8543 -0.67442,0.86108 -0.6649,0.86788 -0.64992,0.87881 -0.64032,0.88565 -0.63086,0.8938 -0.61859,0.8992 -0.60767,0.91018 -0.59677,0.91424 -0.58722,0.92238 -0.57223,0.93057 -0.56272,0.93742 -0.55319,0.94283 -0.53953,0.95102 -0.52727,0.95781 -0.51775,0.96333 -0.50281,0.97008 -0.49183,0.97554 -0.48096,0.98233 -0.4714,0.98512 -0.45372,0.99597 -0.44419,0.99733 -0.43327,1.00278 -0.41963,1.01099 -0.40468,1.01509 -0.39646,1.01777 -0.38288,1.02323 -0.36788,1.03003 -0.35967,1.03276 -0.34606,1.03548 -0.32837,1.0437 -0.31747,1.0464 -0.3093,1.04774 -0.29158,1.05455 -0.27928,1.05594 -0.26978,1.06004 -0.25342,1.06275 -0.23982,1.06546 -0.2289,1.06955 -0.21936,1.07092 -0.19891,1.075 -0.18941,1.07638 -0.17574,1.07907 -0.16079,1.08184 -0.1485,1.0818 -0.13896,1.08456 -0.12264,1.08593 -0.10626,1.08859 -0.09677,1.08864 -0.08447,1.08864 -0.0681,1.09138 -0.05588,1.09271 -0.04358,1.09133 -0.02862,1.09272 -0.01635,1.09136 -0.0027,1.09265 0.0095,1.0927 0.02591,1.09138 0.0395,1.09271 0.04769,1.09272 0.06676,1.09137 0.07901,1.08997 0.08854,1.08866 0.10492,1.08724 0.11718,1.08726 0.1308,1.08592 0.14304,1.08318 0.15943,1.0818 0.17167,1.07912 0.17986,1.07772 0.2003,1.07499 0.21118,1.07232 0.22209,1.07093 0.23705,1.0668 0.25073,1.06274 0.26021,1.06273 0.27525,1.05867 0.29019,1.05321 0.30112,1.05048 0.31201,1.04776 0.32837,1.04367 0.3406,1.03822 0.35015,1.03548 0.36518,1.03004 0.37878,1.02461 0.38965,1.02051 0.40057,1.01778 0.41827,1.00961 0.42783,1.00687 0.4374,1.00145 0.45233,0.99463 0.46597,0.98915 0.47551,0.98372 0.48637,0.97964 0.50142,0.97008 0.5123,0.96734 0.52047,0.96061 0.53819,0.95102 0.54771,0.94689 0.55592,0.94016 0.57224,0.93192 0.58177,0.92649 0.59136,0.91831 0.60354,0.91017 0.61586,0.90198 0.62674,0.89787 0.63357,0.88834 0.64992,0.88018 0.65805,0.87198 0.66901,0.86521 0.68123,0.85562 0.68944,0.8461 0.70031,0.84068 0.70987,0.83246 0.72213,0.82024 0.73164,0.81205 0.73712,0.8066 0.75209,0.79295 0.76024,0.78479 0.76848,0.77797 0.7807,0.76573 0.78754,0.75618 0.79838,0.74803 0.80527,0.73845 0.81746,0.7262 0.82431,0.71805 0.83113,0.70848 0.8434,0.69488 0.85018,0.68807 0.85836,0.67715 0.86653,0.66625 0.8761,0.65263 0.88292,0.64584 0.88968,0.63494 0.89925,0.61993 0.90605,0.61174 0.91151,0.60222 0.92243,0.58861 0.92784,0.5777 0.9333,0.56678 0.94284,0.55452 0.94832,0.5423 0.95509,0.53275 0.96195,0.52182 0.96734,0.50547 0.9742,0.49596 0.9796,0.48639 0.98647,0.47144 0.99191,0.45918 0.99599,0.4496 1.00138,0.436 1.00963,0.42237 1.01231,0.41148 1.01644,0.40056 1.02324,0.38425 1.02595,0.3733 1.03142,0.3638 1.03684,0.34741 1.04232,0.33382 1.0423,0.32428 1.04775,0.31064 1.0532,0.29564 1.05594,0.28479 1.05867,0.27519 1.06273,0.25482 1.06548,0.24387 1.0668,0.2357 1.07092,0.21937 1.07233,0.20438 1.07771,0.19484 1.07773,0.17987 1.08045,0.16348 1.0818,0.15395 1.08319,0.14443 1.08725,0.12265 1.08729,0.11444 1.08727,0.1008 1.08865,0.08586 1.09131,0.0722 1.09139,0.06268 1.09269,0.0477 1.09139,0.03132 1.09271,0.02044 1.09271,0.0095"
       style="fill:none;stroke:#000000;stroke-width:1.0959;stroke-linecap:butt;stroke-linejoin:miter;stroke-miterlimit:10;stroke-dasharray:none;stroke-opacity:1"
       transform="matrix(1.3333333,0,0,-1.3333333,119.78,169.52667)" />
    <path
       id="path2"
       d="m 28.12444,97.30414 0.79026,-0.25563 0.78119,-0.30104 0.77466,-0.33608 0.76427,-0.38022 0.75783,-0.40872 0.7461,-0.45546 0.73965,-0.48274 0.72668,-0.52811 0.71757,-0.55407 0.7072,-0.59821 0.69683,-0.62285 0.68513,-0.66179 0.67346,-0.68772 0.66051,-0.7241 0.65007,-0.7487 0.63583,-0.78119 0.62416,-0.80449 0.61249,-0.83049 0.60077,-0.85643 0.58522,-0.87846 0.57486,-0.89926 0.56059,-0.92261 0.55019,-0.93948 0.53459,-0.9563 0.52425,-0.97324 0.50996,-0.98878 0.49697,-1.00046 0.48533,-1.01346 0.4749,-1.01993 0.45938,-1.03155 0.45027,-1.03813 0.4386,-1.04328 0.42819,-1.04716 0.41657,-1.04848 0.40872,-1.05235 0.39577,-1.04977 0.38801,-1.0472 0.37889,-1.04589 0.3711,-1.04068 0.35947,-1.03808 0.35554,-1.02901 0.34647,-1.02119 0.33995,-1.01215 0.33351,-1.00177 0.32959,-0.98878 0.3244,-0.97838 0.31661,-0.96285 0.31663,-0.94987 0.31271,-0.93428 0.31012,-0.91869 0.30753,-0.90185 0.30624,-0.88239 0.30625,-0.86807 0.30492,-0.84735 0.30624,-0.82917 0.30757,-0.80841 0.30619,-0.78898 0.31278,-0.76819 0.31012,-0.7487 0.31792,-0.72797 0.32046,-0.70981 0.32572,-0.68642 0.32832,-0.66825 0.33608,-0.64624 0.33866,-0.62804 0.35034,-0.60597 0.3504,-0.58782 0.36329,-0.56839 0.36595,-0.55018 0.37889,-0.52939 0.38149,-0.51649 0.3945,-0.49438 0.39703,-0.48013 0.41138,-0.46323 0.41652,-0.45158 0.42824,-0.43599 0.43598,-0.42044 0.4464,-0.40745 0.45413,-0.39837 0.46587,-0.38668 0.4723,-0.3763 0.48534,-0.36722 0.48917,-0.36203 0.50349,-0.35039 0.50736,-0.34901 0.52037,-0.34259 0.52551,-0.33867 0.53851,-0.33479 0.54112,-0.33608 0.55147,-0.3322 0.55539,-0.33479 0.56574,-0.33479 0.56967,-0.33734 0.57745,-0.34133 0.57871,-0.34514 0.58913,-0.35034 0.58654,-0.35947 0.59429,-0.36329 0.59429,-0.37242 0.59954,-0.3815 0.59816,-0.39189 0.60341,-0.40224 0.5995,-0.41265 0.6008,-0.42436 0.5995,-0.43727 0.59816,-0.45158 0.59302,-0.46582 0.58781,-0.47882 0.58394,-0.4957 0.58134,-0.50736 0.57354,-0.52557 0.56834,-0.54106 0.55799,-0.55539 0.55279,-0.57486 0.5398,-0.58909 0.53464,-0.60729 0.51771,-0.62157 0.50868,-0.63971 0.4957,-0.65399 0.48529,-0.67087 0.46715,-0.69033 0.45417,-0.70334 0.43988,-0.71889 0.42171,-0.73444 0.40358,-0.74998 0.38797,-0.76303 0.36981,-0.77594 0.35167,-0.79286 0.33092,-0.80193 0.31271,-0.81623 0.29065,-0.82916 0.2699,-0.83822 0.25047,-0.84609 0.22574,-0.85638 0.20505,-0.86551 0.18166,-0.87331 0.15962,-0.87851 0.13626,-0.88754 0.11676,-0.89018 0.08696,-0.89406 0.06746,-0.89665 0.04282,-0.89922 0.01948,-0.90185 -0.0065,-0.89787 -0.02727,-0.90059 -0.0571,-0.89661 -0.07398,-0.89667 -0.10247,-0.89278 -0.122,-0.88885 -0.1479,-0.88367 -0.1687,-0.87718 -0.19464,-0.86943 -0.2128,-0.86159 -0.23879,-0.85255 -0.25563,-0.84345 -0.28157,-0.83308 -0.29845,-0.82268 -0.32443,-0.80969 -0.33607,-0.79805 -0.36334,-0.78374 -0.37369,-0.77339 -0.39838,-0.75651 -0.41003,-0.74224 -0.43213,-0.72796 -0.44379,-0.71369 -0.46321,-0.69549 -0.47235,-0.68126 -0.49181,-0.66439 -0.50085,-0.64878 -0.51389,-0.63196 -0.52292,-0.61505 -0.53851,-0.59821 -0.54371,-0.58261 -0.55794,-0.5658 -0.56186,-0.54885 -0.57227,-0.53333 -0.57486,-0.51904 -0.58522,-0.50221 -0.58134,-0.48789 -0.59557,-0.47362 -0.59302,-0.45806 -0.59953,-0.44507 -0.59948,-0.4334 -0.60077,-0.41916 -0.59954,-0.40744 -0.60209,-0.39705 -0.59816,-0.3867 -0.59822,-0.37633 -0.59562,-0.36983 -0.5904,-0.36073 -0.58782,-0.35554 -0.58522,-0.34775 -0.57746,-0.34255 -0.57354,-0.33871 -0.56706,-0.33867 -0.56314,-0.33348 -0.55406,-0.33347 -0.54633,-0.33351 -0.53978,-0.33348 -0.53204,-0.33867 -0.52292,-0.34126 -0.51517,-0.34387 -0.50609,-0.35039 -0.49696,-0.35554 -0.48921,-0.36202 -0.4775,-0.37242 -0.46974,-0.3815 -0.4594,-0.39056 -0.45286,-0.4023 -0.44115,-0.41391 -0.43211,-0.42693 -0.42432,-0.44246 -0.41264,-0.45547 -0.40489,-0.47234 -0.39705,-0.48662 -0.38797,-0.50349 -0.38022,-0.5229 -0.37241,-0.53853 -0.36595,-0.55927 -0.35681,-0.57486 -0.35167,-0.59689 -0.34254,-0.61636 -0.33872,-0.63584 -0.33087,-0.65526 -0.32832,-0.67607 -0.32308,-0.69813 -0.31924,-0.7163 -0.314,-0.73831 -0.31271,-0.75783 -0.30885,-0.77853 -0.30751,-0.79674 -0.30625,-0.81881 -0.30624,-0.83696 -0.30365,-0.85643 -0.30753,-0.87331 -0.30496,-0.89273 -0.3114,-0.90706 -0.31017,-0.92776 -0.31399,-0.93949 -0.31531,-0.95762 -0.32312,-0.96804 -0.3244,-0.98491 -0.33347,-0.99394 -0.33479,-1.00825 -0.3452,-1.01473 -0.34647,-1.02513 -0.35814,-1.03162 -0.36462,-1.04194 -0.37501,-1.04074 -0.38277,-1.04843 -0.39318,-1.0472 -0.39968,-1.05237 -0.41265,-1.04974 -0.41911,-1.05109 -0.436,-1.04329 -0.4412,-1.04455 -0.45674,-1.0316 -0.46586,-1.02773 -0.48009,-1.01601 -0.48921,-1.00827 -0.50478,-0.99397 -0.51388,-0.98358 -0.53072,-0.96411 -0.54111,-0.95116 -0.55406,-0.9304 -0.56834,-0.91355 -0.57875,-0.89014 -0.59174,-0.87069 -0.60596,-0.84084 -0.61636,-0.82402 -0.63065,-0.79153 -0.64231,-0.76819 -0.65531,-0.73443 -0.66566,-0.70981 -0.67993,-0.67606 -0.69034,-0.64491 -0.69942,-0.61118 -0.71369,-0.57874 -0.72149,-0.54238 -0.73316,-0.50997 -0.74092,-0.46845 -0.75262,-0.43728 -0.76039,-0.3945 -0.76819,-0.35942 -0.77986,-0.31924 -0.78379,-0.28157 -0.79281,-0.24134 -0.79933,-0.20245 -0.80582,-0.1635 -0.81101,-0.12327 -0.81492,-0.08304 -0.82137,-0.04412 -0.82528,-0.0052 -0.82921,0.03501 -0.82916,0.07398 -0.83304,0.11287 -0.83696,0.14795 -0.83568,0.18945 -0.83957,0.2206 -0.83955,0.26082 -0.83825,0.29324 -0.83827,0.32959 -0.83697,0.36334 -0.83435,0.3971 -0.83437,0.42431 -0.83176,0.45675 -0.82661,0.48402 -0.82529,0.51643 -0.82135,0.53852 -0.81881,0.56834 -0.81229,0.58781 -0.80841,0.61641 -0.80194,0.63065 -0.79805,0.65266 -0.79282,0.66959 -0.78766,0.69034 -0.77986,0.70068 -0.77339,0.71762 -0.77078,0.72664 -0.75911,0.73836 -0.75519,0.74351 -0.74738,0.75391 -0.74223,0.75523 -0.73443,0.7656 -0.72797,0.7617 -0.72276,0.76686 -0.71502,0.76039 -0.70848,0.76303 -0.70329,0.7526 -0.69554,0.75262 -0.68906,0.73964 -0.68513,0.73704 -0.67734,0.7189 -0.67346,0.71368 -0.66828,0.69554 -0.66178,0.68642 -0.6579,0.66697 -0.65399,0.65399 -0.64879,0.63065 -0.64624,0.61508 -0.64232,0.59302 -0.63838,0.57481 -0.63845,0.54891 -0.63324,0.53071 -0.63195,0.50217 -0.63192,0.48403 -0.62805,0.45414 -0.63063,0.43212 -0.62936,0.40096 -0.62932,0.38282 -0.62936,0.34775 -0.63192,0.32959 -0.63196,0.29585 -0.63452,0.27382 -0.63716,0.24261 -0.63971,0.2206 -0.64099,0.18817 -0.64496,0.16737 -0.65139,0.13628 -0.65271,0.11546 -0.65787,0.08693 -0.66305,0.0649 -0.667,0.03763 -0.67218,0.01559 -0.67862,-0.0078 -0.68387,-0.02854 -0.69033,-0.05063 -0.69553,-0.06877 -0.70329,-0.08953 -0.70848,-0.10766 -0.7163,-0.12328 -0.72276,-0.14015 -0.72797,-0.15575 -0.73703,-0.16737 -0.74097,-0.18038 -0.7487,-0.19204 -0.75651,-0.20111 -0.76299,-0.20893 -0.76951,-0.21539 -0.77338,-0.2206 -0.78114,-0.22708 -0.78766,-0.22578 -0.79154,-0.22968 -0.79674,-0.23227 -0.8032,-0.22451 -0.80841,-0.2258 -0.81102,-0.21927 -0.81493,-0.21413 -0.81877,-0.205 -0.82268,-0.19985 -0.82529,-0.18425 -0.82788,-0.17776 -0.82661,-0.1609 -0.83044,-0.15055 -0.8292,-0.13107 -0.82916,-0.11934 -0.83049,-0.09993 -0.82916,-0.08177 -0.82529,-0.05838 -0.82396,-0.04022 -0.82013,-0.01688 -0.82008,0.0026 -0.8097,0.03114 -0.8084,0.0519 -0.80066,0.07913 -0.79674,0.10252 -0.78505,0.13495 -0.78115,0.15575 -0.76951,0.18812 -0.76427,0.21283 -0.75003,0.24523 -0.74483,0.26863 -0.72663,0.30232 -0.72022,0.32831 -0.70201,0.36201 -0.69681,0.38802 -0.67474,0.41913 -0.66699,0.44378 -0.6462,0.48142 -0.63583,0.50217 -0.61637,0.5372 -0.6034,0.56058 -0.58135,0.59169 -0.56834,0.61376 -0.54758,0.64624 -0.53333,0.66826 -0.50863,0.69814 -0.49442,0.71884 -0.47102,0.74616 -0.45546,0.76559 -0.43085,0.79153 -0.41519,0.81101 -0.39189,0.83308 -0.37242,0.84992 -0.35167,0.87331 -0.33479,0.88625 -0.30752,0.90447 -0.29457,0.92 -0.26858,0.93556 -0.25046,0.94728 -0.22835,0.96284 -0.21024,0.9693 -0.18813,0.98359 -0.17002,0.98878 -0.15049,0.99786 -0.13236,1.00438 -0.10899,1.00953 -0.09606,1.01341 -0.07395,1.01605 -0.06226,1.01862 -0.03896,1.01992 -0.02467,1.01866 -0.0078,1.0186 0.0039,1.01475 0.02208,1.01213 0.0363,1.00953 0.04935,1.00177 0.06226,0.99915 0.07397,0.9901 0.08691,0.98098 0.09733,0.97583 0.109,0.96543 0.11551,0.95503 0.12589,0.94464 0.13234,0.93561 0.14143,0.92389 0.14794,0.91093 0.15182,0.89925 0.1583,0.88626 0.15962,0.87459 0.1635,0.86163 0.1687,0.84732 0.16996,0.83308 0.16999,0.82009 0.16997,0.80713 0.17001,0.79413 0.16611,0.77986 0.16868,0.76687 0.1609,0.75396 0.1635,0.74092 0.15442,0.72795 0.15311,0.71629 0.14401,0.7046 0.14275,0.69422 0.13107,0.68254 0.13107,0.67346 0.11807,0.66179 0.1142,0.65399 0.10121,0.64492 0.09732,0.63716 0.08433,0.63063 0.07917,0.62413 0.0649,0.61636 0.05837,0.61508 0.04542,0.6099 0.03891,0.60469 0.02339,0.60336 0.01942,0.60208 L -76.53583,0"
       style="fill:none;stroke:#ff0000;stroke-width:1.0959;stroke-linecap:butt;stroke-linejoin:miter;stroke-miterlimit:10;stroke-dasharray:none;stroke-opacity:1"
       transform="matrix(1.3333333,0,0,-1.3333333,119.78,169.52667)" />
    <path
       id="path3"
       d="m -76.53583,0 v 0.18031 l -0.0013,0.18038 -0.0065,0.18037 -0.0078,0.18169 -0.01168,0.18165 -0.01428,0.18166 -0.01555,0.18169 -0.01687,0.18165 -0.02075,0.18169 -0.02207,0.18292 -0.02467,0.18429 -0.02855,0.18297 -0.0285,0.18425 -0.03376,0.18558 -0.03247,0.18552 -0.0363,0.18689 -0.03763,0.18553 -0.04283,0.18817 -0.04414,0.18945 -0.04543,0.18944 -0.04669,0.18945 -0.04802,0.19077 -0.05318,0.19333 -0.0545,0.19205 -0.05581,0.19464 -0.05967,0.19464 -0.05969,0.19725 -0.06102,0.19592 -0.06358,0.19985 -0.06485,0.19851 -0.06877,0.20113 -0.0701,0.20372 -0.07398,0.20245 -0.07264,0.20632 -0.07398,0.20504 -0.07657,0.2076 -0.08045,0.20893 -0.08045,0.21151 -0.08304,0.21152 -0.08434,0.21541 -0.08303,0.21406 -0.08694,0.21544 -0.08824,0.21928 -0.08826,0.2206 -0.09344,0.22319 -0.0934,0.22319 -0.09211,0.22447 -0.09345,0.2258 -0.09472,0.2284 -0.09733,0.22967 -0.09993,0.23227 -0.0986,0.23227 -0.10119,0.23747 -0.09993,0.23615 -0.10125,0.23747 -0.10247,0.24135 -0.10384,0.24266 -0.10509,0.24396 -0.10638,0.24653 -0.10513,0.24783 -0.1064,0.25046 -0.1064,0.24915 -0.1064,0.2543 -0.10904,0.25566 -0.109,0.25563 -0.10899,0.26082 -0.10768,0.25823 -0.10899,0.26341 -0.10901,0.26343 -0.109,0.26729 -0.10899,0.2673 -0.11032,0.27121 -0.10768,0.2699 -0.11032,0.27249 -0.10767,0.27382 -0.10773,0.27769 -0.11027,0.27765 -0.10645,0.2803 -0.1116,0.28158 -0.10507,0.28288 -0.10512,0.28418 -0.10381,0.28549 -0.1064,0.28804 -0.10511,0.28939 -0.10381,0.29067 -0.10512,0.29198 -0.0986,0.29325 -0.10252,0.29456 -0.09859,0.29845 -0.09993,0.29717 -0.10124,0.29972 -0.0986,0.30104 -0.09345,0.30104 -0.09213,0.30365 -0.09471,0.30497 -0.09081,0.30365 -0.09218,0.30751 -0.09079,0.30885 -0.08825,0.30879 -0.08432,0.31017 -0.08177,0.31012 -0.08432,0.3114 -0.08051,0.31276 -0.08044,0.31399 -0.07914,0.31273 -0.07269,0.31664 -0.07393,0.31399 -0.06877,0.31665 -0.07137,0.31533 -0.06877,0.31659 -0.06491,0.31924 -0.06616,0.31787 -0.05971,0.31792 -0.05709,0.31924 -0.05578,0.31792 -0.05709,0.3192 -0.05063,0.3192 -0.0519,0.32051 -0.04542,0.31924 -0.0441,0.3192 -0.04155,0.3192 -0.0415,0.31792 -0.03502,0.32051 -0.03635,0.31924 -0.03116,0.31787 -0.02722,0.31665 -0.02596,0.3192 -0.02338,0.31664 -0.01943,0.31399 -0.01947,0.31792 -0.01688,0.31532 -0.0104,0.31273 -0.0078,0.31531 -0.0052,0.31145 -0.0026,0.31144 0.0013,0.31139 0.0013,0.31145 0.0052,0.30752 0.01036,0.30757 0.01299,0.3062 0.01556,0.30364 0.01819,0.30236 0.02075,0.30233 0.02463,0.30236 0.02727,0.29845 0.03375,0.29717 0.03504,0.29585 0.03634,0.29457 0.04151,0.29324 0.04409,0.29065 0.04543,0.28937 0.05323,0.28676 0.05317,0.28422 0.05969,0.28157 0.05969,0.28029 0.06359,0.28026 0.06489,0.27508 0.07265,0.2751 0.07398,0.26995 0.07784,0.2699 0.08045,0.266 0.08305,0.26339 0.08696,0.26341 0.08821,0.25955 0.09345,0.25562 0.0986,0.25434 0.10384,0.25043 0.10121,0.24654 0.10771,0.24655 0.10768,0.24266 0.1142,0.23747 0.11679,0.23748 0.12068,0.23355 0.12327,0.22967 0.12714,0.22966 0.12848,0.22452 0.12848,0.2206 0.13754,0.218 0.13883,0.21539 0.14146,0.21153 0.14662,0.2076 0.14531,0.20503 0.15054,0.20241 0.15183,0.19725 0.15962,0.19464 0.16089,0.19205 0.16217,0.18684 0.16611,0.18558 0.16742,0.18036 0.16996,0.17906 0.17391,0.17261 0.17644,0.17125 0.18297,0.16611 0.18165,0.16349 0.1843,0.15834 0.18556,0.15697 0.18945,0.15315 0.19333,0.14791 0.19593,0.14405 0.19856,0.14144 0.19852,0.13626 0.20373,0.13623 0.20372,0.13107 0.20764,0.12587 0.21019,0.12328 0.2128,0.11807 0.2128,0.11679 0.21672,0.1116 0.21672,0.109 0.21927,0.1064 0.22321,0.10121 0.22578,0.09604 0.2258,0.09473 0.22835,0.0908 0.22967,0.08696 0.23227,0.08564 0.2336,0.08047 0.23486,0.07393 0.23875,0.07269 0.23748,0.07005 0.24007,0.06616 0.24135,0.06359 0.24265,0.06101 0.24523,0.0545 0.24914,0.0545 0.24656,0.0493 0.24914,0.04543 0.24786,0.04409 0.25043,0.04023 0.25174,0.04022 0.25435,0.03247 0.25562,0.02983 0.25563,0.02855 0.25561,0.02468 0.25562,0.02462 0.25694,0.02075 0.25822,0.0156 0.2621,0.01428 0.26215,0.01035 0.25949,0.0104 0.26082,0.0065 0.26082,0.0026 0.26214,0.0039 0.2647,-0.0013 0.26343,-0.0052 0.26341,-0.0052 0.26602,-0.0078 0.26343,-0.0091 0.2621,-0.01168 0.26474,-0.013 0.26597,-0.01686 0.26601,-0.01816 0.26215,-0.01814 0.26469,-0.01948 0.26343,-0.02335 0.2621,-0.02339 0.26602,-0.02463 0.26474,-0.02988 0.2647,-0.02722 0.26469,-0.02855 0.26214,-0.03242 0.2621,-0.02988 0.26082,-0.03375 0.26342,-0.03369 0.26214,-0.03636 0.25949,-0.03502 0.25955,-0.03635 0.25823,-0.03635 0.25821,-0.0363 0.25822,-0.03762 0.25823,-0.04156 0.25694,-0.03889 0.25822,-0.03895 0.25174,-0.03763 0.25303,-0.04023 0.25173,-0.03762 0.25435,-0.04023 0.25043,-0.03894 0.25043,-0.03895 0.24914,-0.03761 0.24526,-0.03763 0.24522,-0.03375 0.24655,-0.0389 0.24527,-0.03636 0.24135,-0.03502 0.24135,-0.03502 0.24266,-0.03375 0.23615,-0.03114 0.2362,-0.02984 0.23874,-0.03115 0.2336,-0.02987 0.23614,-0.02723 0.23101,-0.02594 0.22965,-0.02335 0.22968,-0.02208 0.2258,-0.02208 0.22835,-0.01947 0.22452,-0.01555 0.22319,-0.01687 0.22187,-0.01295 0.21927,-0.0104 0.21672,-0.0091 0.21672,-0.0065 0.21801,-0.0052 0.21278,-0.0026 h 0.21153 l 0.21019,0.0039 0.20764,0.0052 0.20633,0.0091 0.20632,0.01039 0.20372,0.01428 0.20112,0.01428 0.20113,0.02074 0.19725,0.02336 0.19592,0.02594 0.19597,0.02728 0.1946,0.03243 0.19204,0.03635 0.19077,0.04022 0.18684,0.0415 0.18558,0.04674 0.18556,0.05059 0.18298,0.05189 0.18165,0.05583 0.18165,0.05836 0.17777,0.0649 0.1765,0.06746 0.17389,0.07269 0.17385,0.07526 0.17257,0.07785 0.17131,0.08304 0.16868,0.08692 0.16611,0.09345 0.16609,0.09473 0.16222,0.09992 0.1635,0.10252 0.1609,0.10768 0.16089,0.1116 0.15702,0.11679 0.1557,0.12067 0.1531,0.12588 0.15442,0.12846 0.15315,0.13236 0.15183,0.13754 0.14788,0.14275 0.14795,0.14662 0.14536,0.1505 0.14529,0.15703 0.14534,0.15829 0.14275,0.16483 0.14143,0.16868 0.14147,0.17258 0.13755,0.17909 0.13622,0.18166 0.13754,0.18684 0.13628,0.18946 0.13623,0.19464 0.13234,0.19984 0.13235,0.205 0.13108,0.20893 0.13107,0.21411 0.12974,0.21539 0.12975,0.2206 0.1272,0.2258 0.12848,0.23096 0.12587,0.23486 0.12586,0.24006 0.12328,0.24268 0.12582,0.24782 0.12328,0.25047 0.12199,0.25561 0.122,0.25951 0.12066,0.26474 0.11936,0.26729 0.12199,0.27382 0.12069,0.27377 0.11938,0.27898 0.11809,0.28421 0.11933,0.28805 0.1194,0.29197 0.1168,0.29716 0.11808,0.29585 0.1168,0.30233 0.11935,0.30496 0.11679,0.31012 0.11808,0.31273 0.11552,0.31791 0.11674,0.31792 0.11812,0.32179 0.11676,0.32572 0.11812,0.32827 0.11548,0.3322 0.11807,0.3348 0.11679,0.33998 0.11807,0.33867 0.11808,0.34255 0.11807,0.34519 0.1168,0.34906 0.11939,0.35162 0.11809,0.35555 0.11938,0.35428 0.12068,0.35681 0.12195,0.36075 0.12067,0.36073 0.12072,0.36462 0.12067,0.36855 0.12328,0.36722 0.12195,0.36981 0.1246,0.36983 0.12454,0.37242 0.12328,0.37373 0.12587,0.37497 0.12587,0.37763 0.12715,0.37889 0.12979,0.37761 0.12715,0.37762 0.13107,0.3815 0.12975,0.38149 0.13107,0.38281 0.13362,0.38409 0.13369,0.38018 0.13366,0.38281 0.13495,0.3815 0.13883,0.38277 0.13627,0.38409 0.13754,0.38409 0.14016,0.38414 0.14142,0.3815 0.14274,0.38277 0.14275,0.38149 0.1427,0.38021 0.14795,0.38022 0.14534,0.38018 0.1479,0.37762 0.14922,0.37761 0.15182,0.37501 0.15183,0.37371 0.15182,0.37502 0.15442,0.37241 0.1557,0.36982 0.15834,0.36982 0.15958,0.36461 0.15962,0.36334 0.1609,0.36203 0.16089,0.36335 0.1635,0.35942 0.16742,0.35554 0.1687,0.35294 0.16609,0.34907 0.16999,0.34778 0.17129,0.34516 0.17256,0.34513 0.17258,0.34 0.17778,0.33347 0.17517,0.3322 0.17909,0.32832 0.18164,0.32826 0.18038,0.32445 0.18297,0.32046 0.18424,0.31532 0.18426,0.31017 0.18949,0.30625 0.18813,0.30491 0.19205,0.30106 0.18944,0.29324 0.19204,0.29457 0.19464,0.28676 0.19858,0.2803 0.19719,0.27898 0.19858,0.27249 0.20112,0.2699 0.20112,0.26474 0.20372,0.2621 0.20373,0.25174 0.20631,0.24786 0.20893,0.24263 0.20892,0.24007 0.20893,0.23488 0.21278,0.22966 0.21153,0.22447 0.21539,0.21545 0.2154,0.21279 0.21672,0.20633 0.218,0.20112 0.2206,0.19593 0.21798,0.19336 0.22321,0.18296 0.22319,0.17778 0.22447,0.17125 0.2258,0.16742 0.22574,0.16217 0.22839,0.15442 0.2284,0.14924 0.23095,0.14274 0.22973,0.13495 0.23486,0.12979 0.23096,0.12582 0.23486,0.11812 0.2336,0.1142"
       style="fill:none;stroke:#ff0000;stroke-width:1.0959;stroke-linecap:butt;stroke-linejoin:miter;stroke-miterlimit:10;stroke-dasharray:none;stroke-opacity:1"
       transform="matrix(1.3333333,0,0,-1.3333333,119.78,169.52667)" />
    <path
       id="path4"
       d="m 0,89.1227 0.0519,0.03503 0.05189,0.04022 0.0519,0.03763 0.05191,0.03894 0.05189,0.03891 0.0519,0.03766 0.05191,0.03891 0.05189,0.03894 0.05322,0.03763 0.05323,0.03891 0.05189,0.03894 0.0519,0.03763 0.05317,0.03894 0.05191,0.03891 0.05195,0.03763 0.05317,0.03894 0.0519,0.04022 0.05322,0.03763 0.05318,0.03894 0.05189,0.03762 0.05322,0.03892 0.05192,0.03893 0.05322,0.03763 0.05317,0.03894 0.0519,0.03891 0.05322,0.03763 0.05318,0.03894 0.05322,0.03896 0.0519,0.03761 0.05322,0.03503 0.0519,0.03763 0.0545,0.03894 0.05318,0.0363 0.05322,0.03763 0.05189,0.03768 0.0519,0.03761 0.0545,0.03763 0.05322,0.03763 0.05318,0.03762 0.05322,0.03763 0.05318,0.03635 0.05451,0.03761 0.05322,0.03763 0.05189,0.03763 0.05323,0.03634 0.05317,0.03896 0.05451,0.0363 0.05449,0.03635 0.05322,0.03894 0.05318,0.03503 0.05322,0.03761 0.05577,0.03891 0.05196,0.03507 0.05317,0.03763 0.05323,0.03763 0.05449,0.03634 0.05317,0.0363 0.05323,0.03635 0.05578,0.03504 0.05322,0.0376 0.05449,0.03509 0.05318,0.0363 0.0545,0.03762 0.05323,0.03507 0.05449,0.0363 0.0545,0.03503 0.05451,0.03635 0.05322,0.03634 0.05317,0.03503 0.05582,0.03634 0.05451,0.03375 0.05448,0.03631 0.05192,0.03634 0.05577,0.03503 0.0545,0.03635 0.05449,0.0363 0.05322,0.03507 0.05451,0.03503 0.0545,0.03502 0.05449,0.03763 0.05579,0.03375 0.05449,0.03635 0.05322,0.03502 0.0545,0.03375 0.05577,0.0363 0.05451,0.03508 0.05448,0.03369 0.05451,0.03508 0.05451,0.03243 0.05581,0.03635 0.05451,0.0337 0.05449,0.03374 0.0545,0.03503 0.0545,0.03374 0.0571,0.03503 0.05318,0.03115 0.05449,0.03503 0.0545,0.03506 0.0571,0.03371 0.05322,0.03375 0.05578,0.03374 0.05583,0.03242 0.05317,0.03509 0.05582,0.0337 0.05577,0.03374 0.05583,0.03375 0.05318,0.03375 0.0571,0.03243 0.05449,0.03375 0.05583,0.03369 0.05577,0.03376 0.05451,0.03374 0.05581,0.03243 0.0571,0.03247 0.05318,0.03371 0.05581,0.03247 0.05579,0.03242 0.05581,0.03115 0.05451,0.03114 0.05577,0.03375 0.05582,0.03112 0.05578,0.03114 0.05582,0.03247 0.05318,0.0311 0.0571,0.03375 0.05582,0.02988 0.0545,0.03242 0.05705,0.03243 0.05582,0.03114 0.0545,0.03116 0.05577,0.03114 0.0571,0.03243 0.0545,0.03114 0.05582,0.03116 0.05838,0.03242 0.05582,0.03115 0.0545,0.03116 0.05577,0.03114 0.0571,0.02983 0.05451,0.03114 0.05709,0.03114 0.0571,0.03116 0.05451,0.02982 0.05577,0.03116 0.05842,0.02988 0.05449,0.02854 0.05579,0.02982 0.0571,0.02983 0.05449,0.02988 0.0571,0.02855 0.0571,0.03114 0.0545,0.02855 0.0571,0.0311 0.05577,0.02728 0.0571,0.02981 0.05583,0.02988 0.0571,0.02855 0.0571,0.03115 0.05448,0.02595 0.0571,0.02983 0.0571,0.03114 0.05705,0.02723 0.05584,0.02987 0.05577,0.02724 0.05709,0.02855 0.0571,0.03114 0.05582,0.02595 0.0571,0.02987 0.0571,0.02723 0.05578,0.02987 0.0571,0.02983 0.05577,0.02467 0.0571,0.02722 0.0571,0.02728 0.0571,0.02723 0.0571,0.02726 0.05583,0.02855 0.05577,0.02596 0.05838,0.02722 0.0571,0.02467 0.05841,0.02723 0.0545,0.02728 0.0571,0.02722 0.05838,0.02595 0.0571,0.02468 0.0571,0.02855 0.05577,0.02463 0.0571,0.02854 0.05709,0.02468 0.0571,0.02594 0.0571,0.02595 0.05577,0.02596 0.0571,0.02594 0.05843,0.02728 0.05837,0.02463 0.0571,0.02727 0.05578,0.02334 0.05842,0.02467 0.0571,0.02723 0.0571,0.02467 0.05577,0.02463 0.05843,0.02467 0.05705,0.02208 0.0571,0.02596 0.05842,0.02201 0.05577,0.0234 0.05843,0.02723 0.0571,0.02207 0.05705,0.02336 0.05841,0.02463 0.05579,0.02206 0.0571,0.02335 0.05709,0.02336 0.05843,0.02339 0.05705,0.02335 0.05841,0.02462 0.0571,0.02208 0.0571,0.02335 0.0571,0.02075 0.05838,0.02467 0.0571,0.02076 0.05838,0.02334 0.05709,0.02339 0.0571,0.02204 0.05837,0.02335 0.05842,0.0234 0.05577,0.02075 0.05843,0.02335 0.05838,0.01947 0.0571,0.02075 0.0571,0.02208 0.05838,0.02202 0.05581,0.01947 0.05839,0.02075 0.05836,0.0208 0.05843,0.01942 0.05709,0.0208 0.0571,0.02204 0.0571,0.0182 0.0571,0.02202 0.05965,0.01947 0.05709,0.02075 0.05843,0.01948 0.0571,0.02078 0.05705,0.01945 0.05843,0.01947 0.05837,0.01814 0.0571,0.0208 0.05842,0.01944 0.05705,0.01947 0.05843,0.02079 0.05837,0.01814 0.05842,0.01688 0.05705,0.02076 0.05842,0.01816 0.0571,0.01946 0.05838,0.01947 0.05843,0.01688 0.05705,0.01555 0.05841,0.01947 0.0571,0.01816 0.05838,0.01687 0.0571,0.01819 0.05838,0.01683 0.0571,0.01688 0.05841,0.0182 0.05838,0.01555 0.05838,0.01688 0.0571,0.01555 0.05842,0.01818 0.05837,0.01557 0.0571,0.01686 0.05838,0.01815 0.05842,0.0156 0.05837,0.01555 0.05842,0.01688 0.05838,0.01559 0.0571,0.01428 0.05969,0.01555 0.0571,0.01555 0.05838,0.01688 0.0571,0.01428 0.05969,0.01687 0.0571,0.01427 0.05838,0.0156 0.0571,0.01428 0.05838,0.01427 0.05841,0.01428 0.0571,0.01427 0.05966,0.01167 0.0571,0.01428 0.05842,0.01427 0.0571,0.01295 0.05965,0.013 0.0571,0.01428 0.05969,0.01295 0.0571,0.013 0.05838,0.01295 0.0571,0.01041 0.05969,0.01426 0.0571,0.01296 0.05971,0.01426 0.05709,0.01041 0.0571,0.01167 0.05838,0.013 0.05841,0.01296 0.05706,0.01298 0.05971,0.0091 0.05709,0.01168 0.05969,0.01295 0.0571,0.01167 0.05838,0.013 0.05841,0.0091 0.05838,0.013 0.05838,0.01035 0.05843,0.0078 0.0571,0.01167 0.05836,0.01041 0.0571,0.01034 0.05971,0.0078 0.0571,0.0091 0.05836,0.01167 0.0571,0.0078 0.05971,0.0104 0.0571,0.0091 0.05969,0.0091 0.05578,0.0091 0.05842,0.0091 0.05838,0.0078 0.05969,0.0091 0.0571,0.01039 0.05709,0.0065 0.05838,0.0091 0.05839,0.0065 0.05841,0.0078 0.05709,0.01039 0.05838,0.0091 0.05838,0.0065 0.05843,0.0065 0.05837,0.0091 0.05709,0.0077 0.05838,0.0078 0.05843,0.0052 0.0571,0.0078 0.05836,0.0052 0.05838,0.0052 0.05843,0.0052 0.0571,0.0078 0.0571,0.0039 0.05838,0.0065 0.05836,0.0065 0.05843,0.0039 0.05709,0.0078 0.05839,0.0039 0.05581,0.0052 0.05965,0.0039 0.0571,0.0052 0.05842,0.0039 0.0571,0.0052 0.05965,0.0039 0.0571,0.0039 0.05842,0.0052 0.0571,0.0052 0.05838,0.0026 0.05838,0.0052 0.0571,0.0026 0.05841,0.0052 0.05578,0.0026 0.05837,0.0039 0.05843,0.0026 0.05838,0.0052 0.05709,0.0013 0.05842,0.0013 0.05705,0.0013 0.05842,0.0013 0.0571,0.0039 0.0571,0.0013 h 0.05838 l 0.0571,0.0026 0.05577,0.0013 0.05971,0.0026 h 0.0571 l 0.05841,0.0013 h 0.05705 l 0.05842,0.0013 0.0571,-0.0013 0.05838,0.0026 h 0.0571 l 0.0571,0.0013 0.05838,-0.0013 h 0.0571 l 0.05582,0.0013 h 0.05838 l 0.05836,0.0013 0.0571,-0.0026 0.05843,-0.0013 0.05709,0.0013 0.0571,-0.0013 0.05838,-0.0013 h 0.05578 l 0.05709,-0.0039 0.05843,-0.0026 h 0.0571 l 0.05836,-0.0026 0.0571,-0.0039 0.0571,-0.0026 0.05711,-0.0013 0.0571,-0.0039 0.05577,-0.0039 0.05843,-0.0013 0.05705,-0.0052 0.0571,-0.0026 0.05581,-0.0039 0.05838,-0.0026 0.0571,-0.0052 0.05841,-0.0026 0.05706,-0.0026 0.05583,-0.0052 0.05836,-0.0052 0.0571,-0.0026 0.0571,-0.0052 0.05583,-0.0039 0.0571,-0.0052 0.05705,-0.0026 0.0571,-0.0065 0.0571,-0.0052 0.0571,-0.0052 0.0571,-0.0039 0.05709,-0.0065 0.0571,-0.0078 0.0571,-0.0052 0.05577,-0.0078 0.05583,-0.0065 0.0571,-0.0065 0.0571,-0.0065 0.0571,-0.0078 0.05577,-0.0078 0.0571,-0.0065 0.0571,-0.0065 0.05577,-0.0078 0.0571,-0.0078 0.05583,-0.0078 0.05837,-0.0091 0.05582,-0.0078 0.05578,-0.0078 0.0571,-0.0091 0.0545,-0.0091 0.05836,-0.0078 0.05584,-0.0091 0.05577,-0.0078 0.05709,-0.0078 0.0571,-0.0091 0.0571,-0.01036 0.05451,-0.0091 0.05581,-0.0078 0.05838,-0.01041 0.05577,-0.0091 0.05451,-0.01039 0.0571,-0.01295 0.05709,-0.01039 0.05451,-0.01169 0.0571,-0.0091 0.05449,-0.01041 0.05709,-0.01296 0.05451,-0.01039 0.0571,-0.01295 0.05581,-0.01039 0.05579,-0.013 0.0571,-0.01168 0.05449,-0.01036 0.0545,-0.013 0.0571,-0.01167 0.05577,-0.01296 0.05583,-0.01298 0.05578,-0.01428 0.05581,-0.01035 0.0571,-0.013 0.0545,-0.013 0.05577,-0.01167 0.05451,-0.01428 0.05581,-0.01295 0.0571,-0.01168 0.05451,-0.01427 0.05709,-0.01428 0.05451,-0.01427 0.05449,-0.01428 0.05705,-0.01559 0.05451,-0.01555 0.0545,-0.01555 0.05454,-0.013 0.0545,-0.01688 0.05705,-0.01427 0.05449,-0.01687 0.05451,-0.01428 0.05581,-0.01555 0.05451,-0.01816 0.05577,-0.01427 0.0545,-0.0182 0.05451,-0.01427"
       style="fill:none;stroke:#ff0000;stroke-width:1.0959;stroke-linecap:butt;stroke-linejoin:miter;stroke-miterlimit:10;stroke-dasharray:none;stroke-opacity:1"
       transform="matrix(1.3333333,0,0,-1.3333333,119.78,169.52667)" />
    <path
       id="path5"
       d="m -22.60959,99.0222 0.04543,0.01427 0.04542,0.01816 0.04149,0.01559 0.04411,0.01683 0.04415,0.01688 0.04281,0.01687 0.04412,0.0156 0.04414,0.01555 0.04282,0.01559 0.0441,0.01555 0.04411,0.01556 0.04281,0.01427 0.04543,0.01688 0.04155,0.01559 0.04538,0.01428 0.04414,0.01555 0.04282,0.01427 0.04411,0.013 0.04543,0.01428 0.04282,0.01555 0.04409,0.01555 0.04414,0.013 0.04412,0.01427 0.04541,0.01295 0.0415,0.01428 0.04543,0.01173 0.04414,0.01295 0.04411,0.01426 0.0441,0.01168 0.04543,0.01428 0.04414,0.01167 0.0441,0.013 0.04414,0.01427 0.0441,0.01036 0.04543,0.01167 0.04411,0.013 0.04414,0.0104 0.04538,0.01036 0.04415,0.01039 0.04281,0.01036 0.04543,0.01039 0.0441,0.01039 0.0467,0.01169 0.04415,0.0078 0.04538,0.01039 0.04414,0.01041 0.0441,0.0091 0.04543,0.0091 0.04542,0.0091 0.0441,0.0078 0.04416,0.0091 0.04669,0.01167 0.0441,0.0078 0.04414,0.0091 0.04542,0.0078 0.04543,0.0078 0.0441,0.0078 0.04671,0.0078 0.04414,0.0078 0.04409,0.0091 0.04543,0.0078 0.04543,0.0052 0.04542,0.0078 0.04538,0.0078 0.04543,0.0065 0.04542,0.0065 0.0441,0.0065 0.04543,0.0065 0.04414,0.0065 0.04669,0.0065 0.04412,0.0065 0.04542,0.0039 0.04674,0.0065 0.04538,0.0039 0.04542,0.0052 0.04415,0.0052 0.0467,0.0026 0.04541,0.0052 0.04543,0.0039 0.04799,0.0026 0.04414,0.0052 0.04543,0.0039 0.04538,0.0026 0.04674,0.0026 0.04409,0.0026 0.04543,0.0039 0.04802,0.0039 0.04542,0.0026 0.0441,0.0013 0.04671,0.0013 0.04542,0.0039 0.04543,0.0013 0.04542,0.0039 0.04802,0.0013 0.04538,0.0026 0.04543,0.0013 h 0.04674 l 0.04409,0.0013 0.04543,0.0013 0.04671,0.0013 h 0.04669 l 0.04542,0.0013 h 0.04543 0.0467 0.04543 0.04541 l 0.04671,0.0026 0.04543,-0.0039 0.04673,-0.0013 h 0.04799 l 0.04543,-0.0013 0.04669,-0.0026 0.04542,-0.0013 0.04676,-0.0026 0.04536,-0.0013 0.04675,-0.0039 h 0.04671 l 0.04541,-0.0026 0.04804,-0.0026 0.04538,-0.0013 0.04673,-0.0052 0.04543,-0.0026 0.04671,-0.0039 0.04669,-0.0026 0.04542,-0.0052 0.04671,-0.0026 0.04674,-0.0013 0.04542,-0.0039 0.04671,-0.0065 0.04802,-0.0039 0.04669,-0.0039 0.04412,-0.0026 0.04673,-0.0052 0.04798,-0.0065 0.04542,-0.0052 0.04671,-0.0052 0.04674,-0.0039 0.04542,-0.0039 0.04671,-0.0065 0.04669,-0.0052 0.04671,-0.0052 0.04674,-0.0078 0.04671,-0.0065 0.04542,-0.0078 0.0493,-0.0052 0.04543,-0.0077 0.04542,-0.0078 0.04669,-0.0065 0.04671,-0.0091 0.04674,-0.0078 0.04799,-0.0078 0.04673,-0.0078 0.04543,-0.0078 0.04797,-0.0091 0.04543,-0.01039 0.04675,-0.0078 0.04798,-0.0078 0.04673,-0.0078 0.04538,-0.01167 0.04804,-0.0091 0.04541,-0.0091 0.04803,-0.0091 0.04669,-0.01036 0.04671,-0.0078 0.04674,-0.01039 0.04671,-0.01167 0.04669,-0.0091 0.04542,-0.01039 0.04671,-0.01036 0.04802,-0.01168 0.04671,-0.01167 0.04542,-0.0091 0.04802,-0.01168 0.04543,-0.01167 0.04802,-0.01036 0.04669,-0.013 0.04804,-0.01167 0.04542,-0.01039 0.04669,-0.01168 0.04802,-0.01428 0.04538,-0.01167 0.04803,-0.01296 0.04541,-0.01559 0.04671,-0.01167 0.04802,-0.01429 0.04671,-0.01426 0.04674,-0.01296 0.0467,-0.01427 0.04802,-0.013 0.04671,-0.01295 0.04669,-0.0156 0.04675,-0.01427 0.0467,-0.01296 0.0467,-0.01686 0.04802,-0.01428 0.04543,-0.01427 0.04802,-0.01428 0.04538,-0.01555 0.04802,-0.01688 0.0467,-0.01428 0.04803,-0.0156 0.04542,-0.01554 0.04671,-0.01688 0.04673,-0.01555 0.04798,-0.01687 0.04675,-0.01427 0.04671,-0.01688 0.04669,-0.01688 0.04675,-0.01559 0.04798,-0.01816 0.04673,-0.01687 0.04671,-0.01555 0.04543,-0.01947 0.04801,-0.01429 0.04539,-0.01814 0.04675,-0.02208 0.04797,-0.01687 0.04674,-0.01815 0.04803,-0.0182 0.04538,-0.01814 0.04674,-0.01947 0.04797,-0.01816 0.04676,-0.02075 0.04669,-0.01821 0.04671,-0.02073 0.04675,-0.02076 0.04669,-0.01815 0.04802,-0.01947 0.04671,-0.01947 0.04669,-0.01949 0.04675,-0.02075 0.04671,-0.01947 0.04669,-0.02075 0.04802,-0.02076 0.04671,-0.02078 0.04543,-0.02075 0.04669,-0.02075 0.04803,-0.02075 0.04669,-0.02208 0.04676,-0.01947 0.04542,-0.02209 0.04797,-0.02201 0.04674,-0.01947 0.04671,-0.02467 0.04671,-0.02075 0.04669,-0.02076 0.04675,-0.02336 0.04669,-0.02206 0.04671,-0.02076 0.04802,-0.02467 0.04671,-0.02203 0.04673,-0.02599 0.04671,-0.02203 0.04669,-0.02207 0.04802,-0.02467 0.04671,-0.02336 0.04675,-0.02463 0.04541,-0.02335 0.04671,-0.02595 0.04671,-0.02339 0.04669,-0.02335 0.04675,-0.02595 0.04798,-0.02335 0.04675,-0.02595 0.04669,-0.02468 0.04671,-0.02594 0.04542,-0.02463 0.04674,-0.02595 0.04671,-0.02467 0.04669,-0.02596 0.04671,-0.02594 0.04673,-0.02467 0.04671,-0.02596 0.04669,-0.02462 0.04543,-0.02727 0.04671,-0.02463 0.04673,-0.02727 0.04671,-0.02723 0.04671,-0.02599 0.04674,-0.02596 0.0467,-0.02855 0.0467,-0.02462 0.04675,-0.02727 0.0441,-0.02724 0.0467,-0.02727 0.04674,-0.02722 0.04671,-0.02855 0.04669,-0.02728 0.04671,-0.02981 0.04542,-0.02855 0.04543,-0.02724 0.04669,-0.02986 0.04802,-0.02724 0.04671,-0.02855 0.04542,-0.02855 0.04543,-0.02986 0.04669,-0.02983 0.04675,-0.02855 0.04669,-0.02988 0.04412,-0.0285 0.04673,-0.02986 0.04798,-0.02855 0.04542,-0.02983 0.04676,-0.03116 0.04538,-0.02855 0.04541,-0.03114 0.04675,-0.02855 0.04671,-0.02983 0.04541,-0.03114 0.04542,-0.02988 0.04671,-0.02982 0.04669,-0.02983 0.04543,-0.03247 0.0467,-0.03114 0.04674,-0.02983 0.04411,-0.03116 0.04543,-0.03114 0.04669,-0.03115 0.04543,-0.03116 0.04802,-0.03109 0.04409,-0.03115 0.04671,-0.03247 0.04543,-0.03111 0.04674,-0.03247 0.04411,-0.03375 0.04669,-0.0311 0.04675,-0.03375 0.04538,-0.03243 0.04541,-0.03375 0.04543,-0.03114 0.04671,-0.03376 0.04542,-0.03373 0.04543,-0.03243 0.04542,-0.03242 0.04541,-0.03509 0.04671,-0.03109 0.04542,-0.03508 0.0467,-0.03369 0.04416,-0.03375 0.04541,-0.03243 0.0467,-0.03508 0.04543,-0.03369 0.0441,-0.03375 0.04542,-0.03376 0.04543,-0.03501 0.04802,-0.03376 0.04538,-0.03375 0.04414,-0.03374 0.04543,-0.03503 0.04537,-0.03502 0.04676,-0.03242 0.0441,-0.03508 0.04542,-0.03502 0.0441,-0.03375 0.04542,-0.03502 0.04543,-0.03504 0.04541,-0.03763 0.04542,-0.03501 0.04543,-0.03635 0.04538,-0.03504 0.04676,-0.03634 0.04281,-0.03502 0.04542,-0.03894 0.04538,-0.03371 0.04674,-0.03767 0.04411,-0.03502 0.0441,-0.03763 0.04543,-0.03375 0.04414,-0.0389 0.04669,-0.03508 0.04543,-0.03889 0.04283,-0.03504 0.04542,-0.03894 0.0467,-0.03503 0.0441,-0.03761 0.04542,-0.03763 0.04283,-0.03635 0.04543,-0.03763 0.04542,-0.03763 0.04541,-0.03634 0.04412,-0.03763 0.04409,-0.03763 0.04543,-0.03761 0.04543,-0.03767 0.04414,-0.03763 0.0441,-0.0363 0.0441,-0.03894 0.04542,-0.03763 0.04414,-0.03763 0.04538,-0.03763 0.04414,-0.03894 0.04412,-0.03634 0.04414,-0.04023 0.04538,-0.03762 0.04415,-0.04023 0.0441,-0.0389 0.04542,-0.03895 0.0441,-0.03895 0.04283,-0.0389 0.04541,-0.03895 0.04416,-0.0389 0.04538,-0.03895 0.04414,-0.04023 0.0441,-0.04022 0.04414,-0.03894 0.04283,-0.04024 0.04539,-0.03889 0.04414,-0.04022 0.0441,-0.03896 0.04414,-0.0389 0.04283,-0.04022 0.0441,-0.04154 0.04543,-0.03891 0.04281,-0.04023 0.0441,-0.03894 0.04416,-0.04022 0.04277,-0.04024 0.04543,-0.03894 0.04414,-0.04281 0.04283,-0.03891 0.04282,-0.04155 0.04409,-0.03763 0.04412,-0.04149 0.04414,-0.03896 0.0441,-0.0415 0.04281,-0.04022 0.04412,-0.04155 0.04281,-0.04022 0.04415,-0.04151 0.04283,-0.04022 0.0441,-0.04155 0.04283,-0.04282 0.0441,-0.0415 0.04281,-0.04022 0.04543,-0.04155 0.04283,-0.04151 0.04281,-0.04154 0.04415,-0.04023 0.04283,-0.04281 0.0415,-0.04151 0.0441,-0.04155 0.04415,-0.0415 0.04283,-0.04282 0.04281,-0.04022 0.04283,-0.04155 0.0441,-0.04283 0.04282,-0.0415 0.04283,-0.04154 0.0441,-0.04283 0.04283,-0.04281 0.04282,-0.04151 0.04155,-0.04022 0.04281,-0.04416 0.04283,-0.04149 0.04277,-0.0415 0.04416,-0.04155 0.04282,-0.0441 0.04283,-0.04155 0.04282,-0.0415 0.04283,-0.04282 0.04281,-0.04155 0.0415,-0.04283 0.0441,-0.04151 0.04155,-0.04153 0.04284,-0.04411 0.04149,-0.04282 0.04282,-0.0441 0.04282,-0.04155 0.04283,-0.0441 0.04155,-0.04283 0.04282,-0.04281 0.0415,-0.04283 0.04284,-0.04415 0.04281,-0.04278 0.04283,-0.04282 0.04282,-0.04414 0.0415,-0.04284 0.04283,-0.04281 0.04154,-0.04283 0.04151,-0.0441 0.04282,-0.0441 0.04155,-0.04155 0.04282,-0.0441 0.04151,-0.04283 0.04154,-0.04281 0.04282,-0.04416 0.04279,-0.04277 0.04155,-0.04414 0.04148,-0.04284 0.04284,-0.04281 0.04154,-0.0441 0.04151,-0.04416 0.04153,-0.04149 0.0415,-0.04411 0.04156,-0.04415 0.0415,-0.0415 0.04155,-0.04414 0.0415,-0.0441 0.04282,-0.04283"
       style="fill:none;stroke:#ff0000;stroke-width:1.0959;stroke-linecap:butt;stroke-linejoin:miter;stroke-miterlimit:10;stroke-dasharray:none;stroke-opacity:1"
       transform="matrix(1.3333333,0,0,-1.3333333,119.78,169.52667)" />
    <path
       id="path6"
       d="M 0,89.29227 19.84267,70.867"
       style="fill:none;stroke:#000000;stroke-width:0.99628;stroke-linecap:butt;stroke-linejoin:miter;stroke-miterlimit:10;stroke-dasharray:0.99628, 0.99628;stroke-dashoffset:0;stroke-opacity:1"
       transform="matrix(1.3333333,0,0,-1.3333333,119.78,169.52667)" />
    <path
       id="path7"
       d="m 9.92155,80.78856 c 3.53653,4.21458 3.53653,10.36206 0,14.57663"
       style="fill:none;stroke:#000000;stroke-width:0.99628;stroke-linecap:butt;stroke-linejoin:miter;stroke-miterlimit:10;stroke-dasharray:none;stroke-opacity:1"
       transform="matrix(1.3333333,0,0,-1.3333333,119.78,169.52667)" />
    <path
       id="path8"
       d="M 13.0725,81.29703 H 24.66735 V 94.85674 H 13.0725 Z"
       style="fill:#ffffff;fill-opacity:1;fill-rule:nonzero;stroke:none"
       transform="matrix(1.3333333,0,0,-1.3333333,119.78,169.52667)" />
    <path
       id="path9"
       d="m 4.5346953,-4.981125 c 0,-0.65625 -0.1875,-2.0390625 -1.1953125,-2.0390625 -1.3828125,0 -2.91796874,2.8007812 -2.91796874,5.0859375 0,0.9375 0.28125,2.0390625 1.19531254,2.0390625 1.40625,0 2.9179687,-2.859375 2.9179687,-5.0859375 z M 1.4761016,-3.62175 C 1.6401641,-4.2545625 1.8393828,-5.0514375 2.2378203,-5.7545625 2.5073516,-6.24675 2.8823516,-6.80925 3.3276641,-6.80925 c 0.4921875,0 0.5507812,0.6445312 0.5507812,1.2070312 0,0.4921875 -0.082031,0.9960938 -0.328125,1.9804688 z m 1.9921875,0.328125 c -0.1171875,0.4570312 -0.3164063,1.3007812 -0.703125,2.015625 -0.3398438,0.6796875 -0.7265625,1.171875 -1.1484375,1.171875 -0.328125,0 -0.5390625,-0.29296875 -0.5390625,-1.21875 0,-0.421875 0.058594,-0.9960938 0.3164062,-1.96875 z m 0,0"
       style="fill:#000000;fill-opacity:1;fill-rule:nonzero;stroke:none"
       aria-label="θ"
       transform="matrix(1.3333333,0,0,1.3333333,141.63733,56.704)" />
    <path
       id="path10"
       d="M 0,99.21382 V 70.867"
       style="fill:none;stroke:#404040;stroke-width:0.79701;stroke-linecap:butt;stroke-linejoin:miter;stroke-miterlimit:10;stroke-dasharray:2.98883, 1.99255;stroke-dashoffset:0;stroke-opacity:1"
       transform="matrix(1.3333333,0,0,-1.3333333,119.78,169.52667)" />
    <g
       id="g10"
       aria-label="s&#10;0"
       transform="matrix(1.3333333,0,0,1.3333333,113.68667,85.716)">
      <path
         id="path11"
         d="m 3.89125,-3.7274297 c -0.2695312,0.011719 -0.46875,0.234375 -0.46875,0.4453125 0,0.140625 0.082031,0.2929688 0.3046875,0.2929688 0.2226563,0 0.4570313,-0.1640625 0.4570313,-0.5625 0,-0.4453125 -0.4335938,-0.8554688 -1.1835938,-0.8554688 -1.3125,0 -1.6875,1.0195313 -1.6875,1.453125 0,0.7851563 0.7382813,0.9257813 1.03125,0.9960938 0.515625,0.09375 1.03125,0.1992187 1.03125,0.75 0,0.25781246 -0.2226562,1.10156246 -1.4179687,1.10156246 -0.140625,0 -0.9140625,0 -1.1367188,-0.52734375 0.375,0.046875 0.6210938,-0.2578125 0.6210938,-0.52734371 0,-0.234375 -0.1523438,-0.3515625 -0.3632813,-0.3515625 -0.2578125,0 -0.5625,0.2109375 -0.5625,0.65624996 0,0.5625 0.5742188,0.9609375 1.4296875,0.9609375 1.6054688,0 2.0039063,-1.20703126 2.0039063,-1.65234376 0,-0.3515625 -0.1992188,-0.609375 -0.3164063,-0.7265625 -0.2695312,-0.28125 -0.5507812,-0.328125 -0.9960937,-0.421875 -0.3515625,-0.070312 -0.75,-0.140625 -0.75,-0.5976562 0,-0.28125 0.234375,-0.890625 1.1132812,-0.890625 0.2460938,0 0.75,0.070312 0.890625,0.4570312 z m 0,0"
         style="fill:#404040;fill-opacity:1;fill-rule:nonzero;stroke:none" />
      <path
         id="path12"
         d="m 8.2682031,-0.73328906 c 0,-0.76171874 -0.09375,-1.31250004 -0.4101562,-1.80468754 -0.2226563,-0.3164062 -0.6445313,-0.5976562 -1.2070313,-0.5976562 -1.6171875,0 -1.6171875,1.8984375 -1.6171875,2.40234374 0,0.50390625 0,2.36718746 1.6171875,2.36718746 1.6171875,0 1.6171875,-1.86328121 1.6171875,-2.36718746 z M 6.6510156,1.4346797 c -0.3164062,0 -0.75,-0.1875 -0.890625,-0.76171876 -0.09375,-0.41015625 -0.09375,-0.984375 -0.09375,-1.5 0,-0.50390624 0,-1.03125004 0.1054688,-1.41796874 0.1523437,-0.5507813 0.5976562,-0.6914063 0.8789062,-0.6914063 0.375,0 0.7382813,0.2226563 0.8671875,0.6328125 0.1054688,0.375 0.1171875,0.8789063 0.1171875,1.47656254 0,0.515625 0,1.04296875 -0.09375,1.4765625 C 7.4010156,1.2823359 6.9322656,1.4346797 6.6510156,1.4346797 Z m 0,0"
         style="fill:#404040;fill-opacity:1;fill-rule:nonzero;stroke:none" />
    </g>
    <path
       id="path13"
       d="M 3.6807969,-4.1833359 6.3409531,-6.9138047 H 5.4151719 l -3.609375,3.6914063 V -6.9138047 H 0.96204688 V 2.578125e-4 H 1.8057969 V -2.2614609 l 1.3242187,-1.359375 2.4375,3.6210937125 h 0.9140625 z m 4.8662109,-2.5898438 h -0.890625 v 0.890625 h 0.890625 z m -0.070312,2.3554688 h -0.75 V 2.578125e-4 h 0.75 z m 4.9101572,0.2578125 c -0.597657,-0.3398438 -0.9375,-0.4335938 -1.535157,-0.4335938 -1.394532,0 -2.1914064,1.2070313 -2.1914064,2.3789063 0,1.24218746 0.9023444,2.32031246 2.1445314,2.32031246 0.539063,0 1.089843,-0.140625 1.628907,-0.50390625 l -0.05859,-0.66796871 c -0.515625,0.39843746 -1.054688,0.53906246 -1.558593,0.53906246 -0.820312,0 -1.382812,-0.71484376 -1.382812,-1.69921876 0,-0.7734375 0.363281,-1.7226562 1.417968,-1.7226562 0.527344,0 0.867188,0.070312 1.40625,0.4335937 z m 3.140624,1.453125 1.675781,-1.7109375 h -0.902344 l -2.015624,2.0625 V -6.9138047 H 14.558727 V 2.578125e-4 h 0.691406 V -1.4059922 l 0.796875,-0.8203125 1.558594,2.2265625125 h 0.808593 z m 0,0"
       style="fill:#404040;fill-opacity:1;fill-rule:nonzero;stroke:none"
       aria-label="Kick"
       transform="matrix(1.3333333,0,0,1.3333333,107.38133,13.652)" />
    <path
       id="path14"
       d="M 0,113.38724 V 97.2552"
       style="fill:none;stroke:#404040;stroke-width:1.49442;stroke-linecap:butt;stroke-linejoin:miter;stroke-miterlimit:10;stroke-dasharray:none;stroke-opacity:1"
       transform="matrix(1.3333333,0,0,-1.3333333,119.78,169.52667)" />
    <path
       id="path15"
       d="M 6.54549,0 C 4.60605,0.36362 1.45454,1.45454 -0.72726,2.72728 V -2.72728 C 1.45454,-1.45454 4.60605,-0.36362 6.54549,0"
       style="fill:#404040;fill-opacity:1;fill-rule:nonzero;stroke:none"
       transform="matrix(0,1.3333333,1.3333333,0,119.78,39.853067)" />
    <path
       id="path16"
       d="m 0.96021875,-6.9151797 v 6.91406251 H 3.5735 c 1.6992188,0 3.046875,-1.51171871 3.046875,-3.39843751 0,-1.9335937 -1.3359375,-3.515625 -3.0585937,-3.515625 z M 1.8156875,-0.56361719 V -6.3526797 H 3.339125 c 1.3945313,0 2.4257813,1.2070313 2.4257813,2.953125 0,1.6992188 -1.03125,2.83593751 -2.4257813,2.83593751 z M 11.319594,-2.1808047 c 0,-0.3398437 -0.01172,-1.0898437 -0.398438,-1.6875 C 10.511,-4.4893984 9.901625,-4.5948672 9.5500625,-4.5948672 c -1.1132812,0 -2.0039062,1.0546875 -2.0039062,2.34375 0,1.31250001 0.9492187,2.35546876 2.1445312,2.35546876 0.6328125,0 1.1953125,-0.234375 1.5937505,-0.515625 l -0.07031,-0.64453126 c -0.621094,0.51562501 -1.2773437,0.55078126 -1.5117187,0.55078126 -0.796875,0 -1.4296875,-0.70312496 -1.4648438,-1.67578126 z M 8.2961563,-2.7315859 C 8.4485,-3.4933047 8.9758438,-3.9854922 9.5500625,-3.9854922 c 0.5156255,0 1.0664065,0.3398438 1.1953125,1.2539063 z m 6.7470707,-1.546875 c -0.527344,-0.234375 -0.925782,-0.3164063 -1.441407,-0.3164063 -0.246093,0 -1.652343,0 -1.652343,1.3007813 0,0.4921875 0.292968,0.8085937 0.539062,0.9960937 0.304688,0.2226563 0.527344,0.2695313 1.078125,0.375 0.351563,0.070312 0.9375,0.1875 0.9375,0.7148438 0,0.69140621 -0.785156,0.69140621 -0.9375,0.69140621 -0.808594,0 -1.371094,-0.375 -1.546875,-0.49218751 l -0.117187,0.67968751 c 0.316406,0.1640625 0.867187,0.43359375 1.675781,0.43359375 0.175781,0 0.726562,0 1.148437,-0.31640625 0.316407,-0.234375 0.480469,-0.6328125 0.480469,-1.06640621 0,-0.5507813 -0.363281,-0.8789063 -0.386719,-0.9140625 -0.386718,-0.3515625 -0.65625,-0.4101563 -1.160156,-0.5039063 -0.539062,-0.1054687 -1.007812,-0.1992187 -1.007812,-0.6914062 0,-0.6210938 0.726562,-0.6210938 0.855468,-0.6210938 0.316407,0 0.84375,0.046875 1.40625,0.3867188 z m 2.027343,-2.4960938 h -0.890625 v 0.890625 h 0.890625 z m -0.07031,2.3554688 h -0.75 v 4.41796871 h 0.75 z m 4.324219,0.5273437 c 0.222656,0 0.503906,-0.046875 0.738281,-0.046875 0.175781,0 0.574219,0.035156 0.585937,0.035156 l -0.105468,-0.6328125 c -0.703125,0 -1.277344,0.1875 -1.570313,0.3164062 -0.210937,-0.1640625 -0.550781,-0.3164062 -0.949219,-0.3164062 -0.855468,0 -1.582031,0.7148437 -1.582031,1.6289062 0,0.3632813 0.128906,0.7265625 0.328125,0.984375 -0.292969,0.4101563 -0.292969,0.796875 -0.292969,0.84375 0,0.25781251 0.09375,0.55078126 0.257813,0.76171876 -0.515625,0.3046875 -0.632813,0.76171875 -0.632813,1.01953125 0,0.74999999 0.984375,1.34765629 2.203125,1.34765629 1.21875,0 2.203125,-0.5859375 2.203125,-1.34765629 0,-1.39453125 -1.664062,-1.39453125 -2.050781,-1.39453125 h -0.878906 c -0.128906,0 -0.574219,0 -0.574219,-0.52734376 0,-0.1054687 0.04687,-0.2695312 0.117188,-0.3515625 0.199218,0.140625 0.527343,0.28125 0.902343,0.28125 0.890625,0 1.59375,-0.7382812 1.59375,-1.6171875 0,-0.4804687 -0.222656,-0.84375 -0.328125,-0.9960937 z m -1.300782,2.0390625 c -0.375,0 -0.890625,-0.234375 -0.890625,-1.0546875 0,-0.8320312 0.515625,-1.0546875 0.890625,-1.0546875 0.421875,0 0.890625,0.2695313 0.890625,1.0546875 0,0.7734375 -0.46875,1.0546875 -0.890625,1.0546875 z m 0.445313,1.88671876 c 0.222656,0 1.347656,0 1.347656,0.6796875 0,0.44531254 -0.691406,0.77343754 -1.5,0.77343754 -0.808594,0 -1.523437,-0.3164063 -1.523437,-0.78515629 0,-0.0234375 0,-0.66796875 0.785156,-0.66796875 z m 6.667969,-2.99999996 c 0,-0.65625 -0.152344,-1.5703125 -1.371094,-1.5703125 -0.890625,0 -1.382813,0.6796875 -1.441406,0.7617187 v -0.7148437 h -0.714844 v 4.48828121 H 24.38307 V -2.4386172 c 0,-0.65625 0.246094,-1.4882812 1.007813,-1.4882812 0.960937,0 0.960937,0.703125 0.960937,1.03125 v 2.89453121 h 0.785157 z m 8.220703,-1.1953125 c -0.597657,-0.3398438 -0.9375,-0.4335938 -1.535157,-0.4335938 -1.394531,0 -2.191406,1.2070313 -2.191406,2.3789063 0,1.24218746 0.902344,2.32031246 2.144531,2.32031246 0.539063,0 1.089844,-0.140625 1.628907,-0.50390625 l -0.05859,-0.66796871 c -0.515625,0.39843746 -1.054688,0.53906246 -1.558594,0.53906246 -0.820312,0 -1.382812,-0.71484376 -1.382812,-1.69921876 0,-0.7734375 0.363281,-1.7226562 1.417968,-1.7226562 0.527344,0 0.867188,0.070312 1.40625,0.4335937 z m 1.895508,-2.7539063 h -0.75 v 6.91406251 h 0.75 z m 5.499023,4.7226563 c 0,-1.3359375 -0.996094,-2.4023438 -2.179688,-2.4023438 -1.230468,0 -2.191406,1.1015625 -2.191406,2.4023438 0,1.31249996 1.007813,2.29687496 2.179688,2.29687496 1.195312,0 2.191406,-1.0078125 2.191406,-2.29687496 z m -2.191406,1.66406246 c -0.691407,0 -1.40625,-0.56249996 -1.40625,-1.76953126 0,-1.1953125 0.75,-1.6875 1.40625,-1.6875 0.691406,0 1.40625,0.515625 1.40625,1.6875 0,1.1835938 -0.667969,1.76953126 -1.40625,1.76953126 z m 5.917968,-3.74999996 c -0.527343,-0.234375 -0.925781,-0.3164063 -1.441406,-0.3164063 -0.246094,0 -1.652344,0 -1.652344,1.3007813 0,0.4921875 0.292969,0.8085937 0.539063,0.9960937 0.304687,0.2226563 0.527344,0.2695313 1.078125,0.375 0.351562,0.070312 0.9375,0.1875 0.9375,0.7148438 0,0.69140621 -0.785156,0.69140621 -0.9375,0.69140621 -0.808594,0 -1.371094,-0.375 -1.546875,-0.49218751 l -0.117188,0.67968751 c 0.316407,0.1640625 0.867188,0.43359375 1.675782,0.43359375 0.175781,0 0.726562,0 1.148437,-0.31640625 0.316406,-0.234375 0.480469,-0.6328125 0.480469,-1.06640621 0,-0.5507813 -0.363281,-0.8789063 -0.386719,-0.9140625 C 45.8694,-2.5440859 45.599869,-2.6026797 45.095963,-2.6964297 44.5569,-2.8018984 44.08815,-2.8956484 44.08815,-3.3878359 c 0,-0.6210938 0.726563,-0.6210938 0.855469,-0.6210938 0.316406,0 0.84375,0.046875 1.40625,0.3867188 z m 4.520508,2.0976562 c 0,-0.3398437 -0.01172,-1.0898437 -0.398437,-1.6875 -0.410156,-0.6210937 -1.019531,-0.7265625 -1.371094,-0.7265625 -1.113281,0 -2.003906,1.0546875 -2.003906,2.34375 0,1.31250001 0.949219,2.35546876 2.144531,2.35546876 0.632813,0 1.195313,-0.234375 1.59375,-0.515625 l -0.07031,-0.64453126 c -0.621094,0.51562501 -1.277344,0.55078126 -1.511719,0.55078126 -0.796875,0 -1.429688,-0.70312496 -1.464844,-1.67578126 z m -3.023437,-0.5507812 c 0.152344,-0.7617188 0.679687,-1.2539063 1.253906,-1.2539063 0.515625,0 1.066406,0.3398438 1.195313,1.2539063 z m 7.649414,-4.1835938 h -0.75 v 2.9296875 c -0.527344,-0.4335937 -1.078125,-0.5507812 -1.453125,-0.5507812 -0.984375,0 -1.757813,1.0429687 -1.757813,2.3203125 0,1.31249996 0.761719,2.32031246 1.710938,2.32031246 0.328125,0 0.914062,-0.08203125 1.476562,-0.62109375 v 0.515625 h 0.773438 z m -0.773438,5.53125 c 0,0.140625 -0.01172,0.3164063 -0.328125,0.60937501 -0.234375,0.19921875 -0.480468,0.26953125 -0.738281,0.26953125 -0.621094,0 -1.347656,-0.45703125 -1.347656,-1.69921876 0,-1.3125 0.855469,-1.7226562 1.441406,-1.7226562 0.445313,0 0.75,0.234375 0.972656,0.5507812 z m 9.600586,-0.8085937 c 0,-1.3359375 -0.996093,-2.4023438 -2.179687,-2.4023438 -1.230469,0 -2.191406,1.1015625 -2.191406,2.4023438 0,1.31249996 1.007812,2.29687496 2.179687,2.29687496 1.195313,0 2.191406,-1.0078125 2.191406,-2.29687496 z M 62.261,-0.52846094 c -0.691406,0 -1.40625,-0.56249996 -1.40625,-1.76953126 0,-1.1953125 0.75,-1.6875 1.40625,-1.6875 0.691406,0 1.40625,0.515625 1.40625,1.6875 0,1.1835938 -0.667969,1.76953126 -1.40625,1.76953126 z m 3.776367,-1.60546876 c 0,-0.9960937 0.726563,-1.7109375 1.699219,-1.734375 v -0.6679687 c -0.890625,0.011719 -1.429688,0.5039062 -1.746094,0.9609375 v -0.9140625 h -0.691406 v 4.48828121 h 0.738281 z m 3.404297,-4.78125 h -0.738281 v 6.91406251 h 0.773437 v -0.45703125 c 0.234375,0.22265625 0.667969,0.5625 1.335938,0.5625 0.996094,0 1.851562,-0.99609375 1.851562,-2.33203126 0,-1.2304687 -0.679687,-2.3085937 -1.617187,-2.3085937 -0.386719,0 -1.007813,0.1054687 -1.605469,0.5859375 z m 0.03516,3.5742188 c 0.164063,-0.234375 0.515625,-0.5859375 1.066407,-0.5859375 0.585937,0 1.347656,0.4335937 1.347656,1.6992187 0,1.30078126 -0.84375,1.72265626 -1.453125,1.72265626 -0.386719,0 -0.714844,-0.17578125 -0.960938,-0.63281246 z m 5.182618,-3.4335938 h -0.890625 v 0.890625 h 0.890625 z m -0.07031,2.3554688 h -0.75 v 4.41796871 h 0.75 z m 2.569336,0.5742187 h 1.40625 v -0.5742187 h -1.40625 v -1.265625 h -0.691406 v 1.265625 h -0.867188 v 0.5742187 h 0.84375 v 2.6601563 c 0,0.59765621 0.128906,1.28906246 0.820313,1.28906246 0.703125,0 1.207031,-0.24609375 1.453125,-0.375 l -0.152344,-0.5859375 c -0.257813,0.2109375 -0.585938,0.328125 -0.902344,0.328125 -0.363281,0 -0.503906,-0.3046875 -0.503906,-0.83203126 z m 0,0"
       style="fill:#000000;fill-opacity:1;fill-rule:nonzero;stroke:none"
       aria-label="Designclosedorbit"
       transform="matrix(1.3333333,0,0,1.3333333,29.985333,237.84133)" />
    <path
       id="path17"
       d="m 3.5033984,-2.8828906 c 1.2421875,0 2.296875,-0.9023438 2.296875,-2.015625 0,-1.0664063 -0.984375,-2.015625 -2.3671875,-2.015625 H 0.96042969 V -7.8125e-5 H 1.8393359 V -2.8828906 Z m -0.28125,-3.46875 c 1.0898438,0 1.7695313,0.609375 1.7695313,1.453125 0,0.7851562 -0.6328125,1.4414062 -1.7695313,1.4414062 h -1.40625 v -2.8945312 z m 6.9902346,4.171875 c 0,-0.3398438 -0.01172,-1.0898438 -0.3984377,-1.6875 -0.4101562,-0.6210938 -1.0195312,-0.7265625 -1.3710937,-0.7265625 -1.1132813,0 -2.0039063,1.0546875 -2.0039063,2.34375 0,1.31249998 0.9492188,2.35546873 2.1445313,2.35546873 0.6328125,0 1.1953125,-0.234375 1.5937504,-0.515625 l -0.07031,-0.64453123 c -0.6210937,0.51562498 -1.2773437,0.55078123 -1.5117187,0.55078123 -0.796875,0 -1.4296875,-0.70312503 -1.4648437,-1.67578123 z M 7.1889453,-2.7305469 c 0.1523438,-0.7617187 0.6796875,-1.2539062 1.2539063,-1.2539062 0.515625,0 1.0664062,0.3398437 1.1953125,1.2539062 z m 4.8837887,0.5976563 c 0,-0.9960938 0.726563,-1.7109375 1.699219,-1.734375 v -0.6679688 c -0.890625,0.011719 -1.429687,0.5039063 -1.746094,0.9609375 V -4.4883594 H 11.334453 V -7.8125e-5 h 0.738281 z m 3.591797,-1.7109375 h 1.40625 v -0.5742188 h -1.40625 v -1.265625 h -0.691406 v 1.265625 h -0.867187 v 0.5742188 h 0.84375 v 2.6601562 c 0,0.59765628 0.128906,1.28906253 0.820312,1.28906253 0.703125,0 1.207031,-0.24609375 1.453125,-0.375 l -0.152344,-0.5859375 c -0.257812,0.2109375 -0.585937,0.328125 -0.902343,0.328125 -0.363282,0 -0.503907,-0.3046875 -0.503907,-0.83203123 z m 6.1875,-0.5742188 h -0.785156 v 2.8828125 c 0,0.75000003 -0.550781,1.10156253 -1.195312,1.10156253 -0.703125,0 -0.773438,-0.26953125 -0.773438,-0.69140623 v -3.2929688 h -0.773437 v 3.328125 c 0,0.72656253 0.222656,1.19531253 1.054687,1.19531253 0.527344,0 1.230469,-0.15234375 1.722656,-0.5859375 V -7.8125e-5 h 0.75 z m 2.370117,2.2851563 c 0,-0.9960938 0.726563,-1.7109375 1.699219,-1.734375 v -0.6679688 c -0.890625,0.011719 -1.429687,0.5039063 -1.746094,0.9609375 V -4.4883594 H 23.483867 V -7.8125e-5 h 0.738281 z m 3.404297,-4.78125 H 26.888164 V -7.8125e-5 h 0.773438 V -0.45710937 c 0.234375,0.22265625 0.667968,0.5625 1.335937,0.5625 0.996094,0 1.851563,-0.99609375 1.851563,-2.33203123 0,-1.2304688 -0.679688,-2.3085938 -1.617188,-2.3085938 -0.386719,0 -1.007812,0.1054688 -1.605469,0.5859375 z m 0.03516,3.5742187 c 0.164062,-0.234375 0.515625,-0.5859375 1.066406,-0.5859375 0.585937,0 1.347656,0.4335938 1.347656,1.6992188 0,1.30078123 -0.84375,1.72265623 -1.453125,1.72265623 -0.386719,0 -0.714844,-0.17578125 -0.960937,-0.63281253 z m 7.957031,1.1601563 c 0,-0.3398438 -0.01172,-1.0898438 -0.398438,-1.6875 -0.410156,-0.6210938 -1.019531,-0.7265625 -1.371093,-0.7265625 -1.113282,0 -2.003907,1.0546875 -2.003907,2.34375 0,1.31249998 0.949219,2.35546873 2.144532,2.35546873 0.632812,0 1.195312,-0.234375 1.59375,-0.515625 L 35.51317,-1.0547656 c -0.621094,0.51562498 -1.277344,0.55078123 -1.511719,0.55078123 -0.796875,0 -1.429687,-0.70312503 -1.464843,-1.67578123 z m -3.023438,-0.5507813 c 0.152344,-0.7617187 0.679688,-1.2539062 1.253907,-1.2539062 0.515625,0 1.066406,0.3398437 1.195312,1.2539062 z m 7.649414,-4.1835937 h -0.75 v 2.9296875 c -0.527343,-0.4335938 -1.078125,-0.5507813 -1.453125,-0.5507813 -0.984375,0 -1.757812,1.0429688 -1.757812,2.3203125 0,1.31250003 0.761719,2.32031253 1.710937,2.32031253 0.328125,0 0.914063,-0.08203125 1.476563,-0.62109375 V -7.8125e-5 h 0.773437 z m -0.773437,5.53125 c 0,0.140625 -0.01172,0.3164062 -0.328125,0.60937498 -0.234375,0.19921875 -0.480469,0.26953125 -0.738281,0.26953125 -0.621094,0 -1.347657,-0.45703125 -1.347657,-1.69921873 0,-1.3125 0.855469,-1.7226563 1.441407,-1.7226563 0.445312,0 0.75,0.234375 0.972656,0.5507813 z m 9.005859,-2.7773438 c -0.597656,-0.3398437 -0.9375,-0.4335937 -1.535156,-0.4335937 -1.394531,0 -2.191406,1.2070312 -2.191406,2.3789062 0,1.24218753 0.902344,2.32031253 2.144531,2.32031253 0.539063,0 1.089844,-0.140625 1.628906,-0.50390625 l -0.05859,-0.66796878 c -0.515625,0.39843753 -1.054688,0.53906253 -1.558594,0.53906253 -0.820313,0 -1.382813,-0.71484373 -1.382813,-1.69921873 0,-0.7734375 0.363282,-1.7226563 1.417969,-1.7226563 0.527344,0 0.867188,0.070312 1.40625,0.4335938 z m 1.895508,-2.7539062 h -0.75 V -7.8125e-5 h 0.75 z m 5.496094,4.7226562 c 0,-1.3359375 -0.996094,-2.4023437 -2.179688,-2.4023437 -1.230468,0 -2.191406,1.1015625 -2.191406,2.4023437 0,1.31250003 1.007813,2.29687503 2.179688,2.29687503 1.195312,0 2.191406,-1.0078125 2.191406,-2.29687503 z m -2.191406,1.66406253 c -0.691407,0 -1.40625,-0.56250003 -1.40625,-1.76953123 0,-1.1953125 0.75,-1.6875 1.40625,-1.6875 0.691406,0 1.40625,0.515625 1.40625,1.6875 0,1.1835937 -0.667969,1.76953123 -1.40625,1.76953123 z m 5.920898,-3.75000003 c -0.527344,-0.234375 -0.925781,-0.3164062 -1.441406,-0.3164062 -0.246094,0 -1.652344,0 -1.652344,1.3007812 0,0.4921875 0.292969,0.8085938 0.539063,0.9960938 0.304687,0.2226562 0.527343,0.2695312 1.078125,0.375 0.351562,0.070312 0.9375,0.1875 0.9375,0.7148437 0,0.69140628 -0.785157,0.69140628 -0.9375,0.69140628 -0.808594,0 -1.371094,-0.375 -1.546875,-0.49218748 L 56.4575,-0.32820312 c 0.316406,0.1640625 0.867188,0.43359375 1.675781,0.43359375 0.175782,0 0.726563,0 1.148438,-0.31640625 0.316406,-0.234375 0.480469,-0.6328125 0.480469,-1.06640628 0,-0.5507812 -0.363282,-0.8789062 -0.386719,-0.9140625 C 58.98875,-2.5430469 58.719219,-2.6016406 58.215313,-2.6953906 57.67625,-2.8008594 57.2075,-2.8946094 57.2075,-3.3867969 c 0,-0.6210937 0.726563,-0.6210937 0.855469,-0.6210937 0.316406,0 0.84375,0.046875 1.40625,0.3867187 z m 4.520508,2.0976563 c 0,-0.3398438 -0.01172,-1.0898438 -0.398438,-1.6875 -0.410156,-0.6210938 -1.019531,-0.7265625 -1.371093,-0.7265625 -1.113282,0 -2.003907,1.0546875 -2.003907,2.34375 0,1.31249998 0.949219,2.35546873 2.144532,2.35546873 0.632812,0 1.195312,-0.234375 1.59375,-0.515625 L 64.01317,-1.0547656 c -0.621094,0.51562498 -1.277344,0.55078123 -1.511719,0.55078123 -0.796875,0 -1.429687,-0.70312503 -1.464843,-1.67578123 z m -3.023438,-0.5507813 c 0.152344,-0.7617187 0.679688,-1.2539062 1.253907,-1.2539062 0.515625,0 1.066406,0.3398437 1.195312,1.2539062 z m 7.649414,-4.1835937 h -0.75 v 2.9296875 c -0.527343,-0.4335938 -1.078125,-0.5507813 -1.453125,-0.5507813 -0.984375,0 -1.757812,1.0429688 -1.757812,2.3203125 0,1.31250003 0.761719,2.32031253 1.710937,2.32031253 0.328125,0 0.914063,-0.08203125 1.476563,-0.62109375 V -7.8125e-5 h 0.773437 z m -0.773437,5.53125 c 0,0.140625 -0.01172,0.3164062 -0.328125,0.60937498 -0.234375,0.19921875 -0.480469,0.26953125 -0.738281,0.26953125 -0.621094,0 -1.347657,-0.45703125 -1.347657,-1.69921873 0,-1.3125 0.855469,-1.7226563 1.441407,-1.7226563 0.445312,0 0.75,0.234375 0.972656,0.5507813 z m 9.600586,-0.8085938 c 0,-1.3359375 -0.996094,-2.4023437 -2.179688,-2.4023437 -1.230468,0 -2.191406,1.1015625 -2.191406,2.4023437 0,1.31250003 1.007813,2.29687503 2.179688,2.29687503 1.195312,0 2.191406,-1.0078125 2.191406,-2.29687503 z m -2.191406,1.66406253 c -0.691407,0 -1.40625,-0.56250003 -1.40625,-1.76953123 0,-1.1953125 0.75,-1.6875 1.40625,-1.6875 0.691406,0 1.40625,0.515625 1.40625,1.6875 0,1.1835937 -0.667969,1.76953123 -1.40625,1.76953123 z m 3.776367,-1.60546873 c 0,-0.9960938 0.726562,-1.7109375 1.699219,-1.734375 v -0.6679688 c -0.890625,0.011719 -1.429688,0.5039063 -1.746094,0.9609375 V -4.4883594 H 78.418438 V -7.8125e-5 h 0.738281 z m 3.404297,-4.78125 H 81.822734 V -7.8125e-5 h 0.773438 V -0.45710937 c 0.234375,0.22265625 0.667969,0.5625 1.335937,0.5625 0.996094,0 1.851563,-0.99609375 1.851563,-2.33203123 0,-1.2304688 -0.679688,-2.3085938 -1.617188,-2.3085938 -0.386718,0 -1.007812,0.1054688 -1.605468,0.5859375 z m 0.03516,3.5742187 c 0.164062,-0.234375 0.515625,-0.5859375 1.066406,-0.5859375 0.585938,0 1.347656,0.4335938 1.347656,1.6992188 0,1.30078123 -0.84375,1.72265623 -1.453125,1.72265623 -0.386718,0 -0.714843,-0.17578125 -0.960937,-0.63281253 z m 5.182617,-3.4335937 h -0.890625 v 0.890625 h 0.890625 z m -0.07031,2.3554687 h -0.75 V -7.8125e-5 h 0.75 z m 2.569336,0.5742188 h 1.40625 v -0.5742188 h -1.40625 v -1.265625 h -0.691407 v 1.265625 h -0.867187 v 0.5742188 h 0.84375 v 2.6601562 c 0,0.59765628 0.128906,1.28906253 0.820312,1.28906253 0.703125,0 1.207032,-0.24609375 1.453125,-0.375 l -0.152343,-0.5859375 c -0.257813,0.2109375 -0.585938,0.328125 -0.902344,0.328125 -0.363281,0 -0.503906,-0.3046875 -0.503906,-0.83203123 z m 0,0"
       style="fill:#ff0000;fill-opacity:1;fill-rule:nonzero;stroke:none"
       aria-label="Perturbedclosedorbit"
       transform="matrix(1.3333333,0,0,1.3333333,124.47333,315.72667)" />
  </g>
</svg>
