<?xml version="1.0" encoding="UTF-8" standalone="no"?>
<!-- Created with Inkscape (http://www.inkscape.org/) -->

<svg
   version="1.1"
   id="svg1"
   width="251.73734"
   height="320.15466"
   viewBox="0 0 251.73734 320.15466"
   sodipodi:docname="orbit-closed.pdf"
   xmlns:inkscape="http://www.inkscape.org/namespaces/inkscape"
   xmlns:sodipodi="http://sodipodi.sourceforge.net/DTD/sodipodi-0.dtd"
   xmlns="http://www.w3.org/2000/svg"
   xmlns:svg="http://www.w3.org/2000/svg">
  <defs
     id="defs1" />
  <sodipodi:namedview
     id="namedview1"
     pagecolor="#ffffff"
     bordercolor="#000000"
     borderopacity="0.25"
     inkscape:showpageshadow="2"
     inkscape:pageopacity="0.0"
     inkscape:pagecheckerboard="0"
     inkscape:deskcolor="#d1d1d1">
    <inkscape:page
       x="0"
       y="0"
       inkscape:label="1"
       id="page1"
       width="251.73734"
       height="320.15466"
       margin="0"
       bleed="0" />
  </sodipodi:namedview>
  <g
     id="g1"
     inkscape:groupmode="layer"
     inkscape:label="1">
    <path
       id="path1"
       d="m 0,89.29227 1.12401,-0.01093 1.12269,-0.02177 1.12409,-0.03411 1.12404,-0.04904 1.12268,-0.06676 1.12135,-0.07765 1.11997,-0.08856 1.11862,-0.10763 1.11722,-0.12127 1.11724,-0.13215 1.11451,-0.14855 1.1118,-0.16348 1.11043,-0.17573 1.10771,-0.18805 1.10635,-0.20572 1.10359,-0.21938 1.09957,-0.23161 1.09678,-0.24388 1.0941,-0.26029 1.08998,-0.27383 1.08864,-0.28613 1.08319,-0.29972 1.07773,-0.31749 1.07634,-0.32701 1.07231,-0.33789 1.06681,-0.35695 1.0614,-0.36925 1.05728,-0.38011 1.05321,-0.39377 1.0464,-0.41015 1.04228,-0.42235 1.03822,-0.43188 1.03142,-0.44828 1.02597,-0.4605 1.01912,-0.47279 1.01508,-0.48509 1.00685,-0.50003 1.00011,-0.51227 0.99597,-0.52182 0.9878,-0.53686 0.98099,-0.55044 0.97555,-0.56133 0.96734,-0.57089 0.95921,-0.58724 0.95102,-0.59814 0.94556,-0.60901 0.93741,-0.61995 0.92786,-0.63356 0.92104,-0.64448 0.91423,-0.65536 0.90471,-0.66896 0.89514,-0.6799 0.887,-0.69075 0.88014,-0.69899 0.86795,-0.71394 0.86241,-0.72345 0.85158,-0.73166 0.84203,-0.74669 0.8311,-0.75616 0.82571,-0.76436 0.8134,-0.77388 0.80251,-0.78888 0.79432,-0.79573 0.78343,-0.80521 0.77389,-0.81478 0.76164,-0.8284 0.75209,-0.83521 0.7453,-0.842 0.72893,-0.85567 0.71939,-0.86381 0.71121,-0.87062 0.69899,-0.8802 0.68669,-0.89107 0.67577,-0.89919 0.66629,-0.90472 0.65397,-0.91559 0.639,-0.92375 0.63218,-0.93062 0.61995,-0.93739 0.60494,-0.94829 0.59268,-0.95374 0.58455,-0.96055 0.57084,-0.96874 0.55591,-0.97691 0.54639,-0.98373 0.53541,-0.99053 0.51914,-0.99599 0.50683,-1.00278 0.49733,-1.00823 0.48366,-1.01372 0.46736,-1.02322 0.4578,-1.0273 0.44554,-1.03276 0.43054,-1.03961 0.41689,-1.04369 0.40603,-1.04775 0.39377,-1.0532 0.37604,-1.05867 0.3638,-1.06407 0.35287,-1.06821 0.33794,-1.07091 0.32289,-1.07773 0.31064,-1.08185 0.29977,-1.0818 0.28339,-1.08864 0.26706,-1.09271 0.25749,-1.09405 0.24388,-1.09684 0.22617,-1.1009 0.2139,-1.10358 0.20303,-1.10637 0.18527,-1.10909 0.17172,-1.11042 0.16077,-1.11313 0.14716,-1.11455 0.12803,-1.11856 0.11585,-1.11728 0.10353,-1.11996 0.08719,-1.11997 0.07361,-1.12269 0.06129,-1.12268 0.04768,-1.1227 0.02999,-1.12407 0.01771,-1.12269 0.0054,-1.12395 -0.01091,-1.12409 -0.02591,-1.12403 -0.0395,-1.1227 -0.05176,-1.12407 -0.06815,-1.12136 -0.08307,-1.12269 -0.09401,-1.11995 -0.10765,-1.11723 -0.12536,-1.11863 -0.13762,-1.1145 -0.14984,-1.1145 -0.16761,-1.11183 -0.17987,-1.11043 -0.1921,-1.1063 -0.20572,-1.10636 -0.22483,-1.10225 -0.23568,-1.09955 -0.24797,-1.09544 -0.2616,-1.09273 -0.27931,-1.08998 -0.29024,-1.08592 -0.30246,-1.08318 -0.31882,-1.07907 -0.33108,-1.07365 -0.34335,-1.07092 -0.35699,-1.06546 -0.37467,-1.06002 -0.38422,-1.05732 -0.39784,-1.05182 -0.41148,-1.04502 -0.4251,-1.04095 -0.4374,-1.0355 -0.4482,-1.03141 -0.46598,-1.02322 -0.4769,-1.01778 -0.48778,-1.0137 -0.50135,-1.0069 -0.51642,-0.99733 -0.52593,-0.99464 -0.53819,-0.9878 -0.55313,-0.97827 -0.5641,-0.97279 -0.57631,-0.96468 -0.58727,-0.95915 -0.60223,-0.94969 -0.61174,-0.94149 -0.62399,-0.93603 -0.63631,-0.9265 -0.6472,-0.9183 -0.65943,-0.91153 -0.66899,-0.90465 -0.68394,-0.89247 -0.69353,-0.88425 -0.70308,-0.87742 -0.71527,-0.86794 -0.72624,-0.85703 -0.73705,-0.85015 -0.74531,-0.84066 -0.76029,-0.82975 -0.76841,-0.82024 -0.77663,-0.81203 -0.78754,-0.80116 -0.80113,-0.79024 -0.80798,-0.78073 -0.81612,-0.77249 -0.83113,-0.75896 -0.8379,-0.7507 -0.84476,-0.73984 -0.85562,-0.72892 -0.86657,-0.71666 -0.87474,-0.70581 -0.88153,-0.69893 -0.89239,-0.68536 -0.90065,-0.6717 -0.90879,-0.66217 -0.91558,-0.65263 -0.9265,-0.63626 -0.93463,-0.62679 -0.93877,-0.61581 -0.94829,-0.60495 -0.95648,-0.58995 -0.96327,-0.57909 -0.97013,-0.56952 -0.97827,-0.55316 -0.98645,-0.54228 -0.99052,-0.53 -0.99733,-0.52046 -1.00551,-0.50144 -1.01097,-0.49318 -1.01643,-0.48236 -1.02186,-0.46458 -1.03007,-0.45233 -1.0341,-0.44286 -1.03821,-0.42914 -1.04642,-0.41282 -1.04913,-0.40058 -1.05594,-0.39104 -1.05863,-0.3747 -1.06546,-0.35969 -1.06958,-0.34745 -1.07228,-0.33789 -1.07772,-0.31882 -1.08184,-0.30658 -1.08452,-0.29564 -1.08865,-0.28204 -1.09271,-0.26433 -1.09545,-0.25069 -1.09817,-0.24255 -1.10089,-0.22344 -1.10498,-0.20982 -1.1077,-0.19893 -1.10771,-0.18394 -1.11316,-0.16759 -1.11316,-0.15396 -1.1145,-0.14443 -1.11862,-0.12671 -1.11724,-0.11033 -1.11996,-0.09949 -1.12134,-0.0872 -1.12129,-0.06949 -1.12276,-0.05583 -1.12537,-0.04363 -1.12274,-0.02858 -1.12403,-0.01365 h -1.12261 l -1.12407,0.01365 -1.12269,0.02858 -1.12404,0.04497 -1.12268,0.05449 -1.1227,0.06949 -1.12135,0.08586 -1.11995,0.09946 -1.11725,0.1117 -1.11862,0.12671 -1.1145,0.14309 -1.11455,0.15396 -1.11043,0.1676 -1.10904,0.18393 -1.10635,0.19891 -1.10498,0.20984 -1.10225,0.22478 -1.09817,0.24115 -1.09544,0.25075 -1.09272,0.26432 -1.08864,0.282 -1.08454,0.2957 -1.08183,0.30652 -1.07773,0.32021 -1.07365,0.33516 -1.06953,0.34745 -1.06412,0.36107 -1.06003,0.37467 -1.05454,0.38969 -1.04913,0.40056 -1.04776,0.41283 -1.03688,0.42921 -1.03548,0.44281 -1.02868,0.45098 -1.02324,0.46732 -1.01505,0.48098 -1.01231,0.49322 -1.00417,0.50136 -0.99733,0.52048 -0.99191,0.53 -0.98645,0.54226 -0.97827,0.55319 -0.96873,0.56951 -0.96329,0.58043 -0.95647,0.58722 -0.94963,0.60495 -0.93877,0.61725 -0.93328,0.62535 -0.9279,0.63765 -0.91558,0.65264 -0.90741,0.66218 -0.90198,0.67169 -0.89105,0.68533 -0.88293,0.69762 -0.87334,0.70575 -0.86791,0.7167 -0.85429,0.73027 -0.84747,0.73984 -0.83792,0.75076 -0.82837,0.75751 -0.81752,0.77116 -0.80799,0.78208 -0.80113,0.78892 -0.78886,0.80246 -0.77663,0.81208 -0.76843,0.82023 -0.75756,0.82971 -0.74665,0.8407 -0.73709,0.85016 -0.72759,0.85564 -0.71394,0.86928 -0.70306,0.87747 -0.69488,0.8856 -0.68396,0.89107 -0.66896,0.90471 -0.65811,0.91151 -0.64851,0.91693 -0.63631,0.92788 -0.62267,0.93603 -0.61175,0.94148 -0.60359,0.94965 -0.58724,0.95781 -0.57498,0.96602 -0.56543,0.97146 -0.55451,0.97826 -0.53681,0.98918 -0.52729,0.99327 -0.51505,0.99736 -0.50138,1.00685 -0.48775,1.01372 -0.47691,1.01776 -0.46597,1.02324 -0.44827,1.0314 -0.43735,1.0355 -0.42647,1.04095 -0.41142,1.04503 -0.3965,1.05186 -0.38559,1.05727 -0.37331,1.06 -0.35835,1.06686 -0.34334,1.06954 -0.33107,1.07365 -0.31883,1.07907 -0.30249,1.08319 -0.29019,1.08592 -0.27933,1.08864 -0.26161,1.09404 -0.24794,1.09546 -0.23709,1.09957 -0.22344,1.10223 -0.20576,1.10498 -0.19345,1.10908 -0.17987,1.1077 -0.16622,1.11316 -0.14989,1.11317 -0.13896,1.11585 -0.12536,1.11862 -0.10765,1.11722 -0.09401,1.12135 -0.08307,1.11997 -0.06815,1.12408 -0.05041,1.12268 -0.03952,1.12402 -0.02724,1.12272 -0.01091,1.12407 0.0054,1.1226 0.01771,1.12404 0.02999,1.12408 0.04768,1.12403 0.05995,1.12135 0.07356,1.1227 0.08858,1.11996 0.10353,1.11995 0.11585,1.11728 0.12671,1.11858 0.14848,1.11454 0.15943,1.11177 0.17165,1.11182 0.18393,1.10771 0.20304,1.10631 0.21527,1.10364 0.22615,1.10225 0.2439,1.09543 0.25753,1.09544 0.26839,1.09138 0.28206,1.08864 0.29971,1.08454 0.31069,1.08044 0.32288,1.07773 0.33656,1.07092 0.35287,1.06819 0.36513,1.06412 0.37605,1.05862 0.39377,1.05321 0.40468,1.04914 0.41829,1.0437 0.42916,1.0382 0.44692,1.03275 0.45639,1.02597 0.46738,1.02324 0.48503,1.01369 0.49597,1.00959 0.50682,1.00278 0.51913,0.99738 0.53547,0.99052 0.54634,0.98233 0.55589,0.97693 0.57092,0.96875 0.58448,0.96054 0.59269,0.95375 0.60496,0.94968 0.61993,0.93603 0.6308,0.93056 0.64037,0.92511 0.65265,0.91425 0.66489,0.90744 0.67716,0.89787 0.68536,0.88971 0.70168,0.88016 0.70985,0.87201 0.71941,0.86383 0.72891,0.85562 0.7453,0.84202 0.75343,0.83522 0.7603,0.8284 0.77388,0.81339 0.78481,0.80525 0.79295,0.79707 0.80252,0.78888 0.81474,0.77388 0.82296,0.76436 0.8325,0.75618 0.84198,0.74663 0.85295,0.73166 0.86109,0.72349 0.86656,0.71396 0.88153,0.70032 0.88699,0.69076 0.89514,0.67988 0.90471,0.66899 0.91419,0.65402 0.9197,0.64445 0.92785,0.63492 0.93876,0.61994 0.94423,0.609 0.95235,0.59949 0.95921,0.58589 0.96739,0.57091 0.97415,0.56131 0.97965,0.55046 0.9892,0.53685 0.99597,0.52181 1.00006,0.51094 1.00824,0.50137 1.0137,0.48371 1.02051,0.47277 1.02595,0.46192 1.03004,0.44825 1.03822,0.4319 1.04228,0.4224 1.04642,0.41009 1.0532,0.39377 1.05728,0.38146 1.06139,0.36924 1.06685,0.35561 1.07228,0.33928 1.07633,0.32701 1.07777,0.3161 1.08319,0.3011 1.08859,0.28612 1.08998,0.27386 1.09278,0.26022 1.09813,0.24387 1.09956,0.23302 1.10223,0.21938 1.10637,0.20572 1.10904,0.18664 1.10909,0.17575 1.11316,0.16487 1.1145,0.14716 1.11589,0.13354 1.11862,0.11988 1.11858,0.10765 1.12135,0.08993 1.12129,0.07765 1.12274,0.06542 1.12269,0.04904 1.12269,0.03545 1.12404,0.02177 1.12408,0.0095"
       style="fill:none;stroke:#000000;stroke-width:1.0959;stroke-linecap:butt;stroke-linejoin:miter;stroke-miterlimit:10;stroke-dasharray:none;stroke-opacity:1"
       transform="matrix(1.3333333,0,0,-1.3333333,119.78133,169.52667)" />
    <path
       id="path2"
       d="M 0,99.21382 V 70.867"
       style="fill:none;stroke:#404040;stroke-width:0.79701;stroke-linecap:butt;stroke-linejoin:miter;stroke-miterlimit:10;stroke-dasharray:2.98883, 1.99255;stroke-dashoffset:0;stroke-opacity:1"
       transform="matrix(1.3333333,0,0,-1.3333333,119.78133,169.52667)" />
    <g
       id="g2"
       aria-label="s&#10;0"
       transform="matrix(1.3333333,0,0,1.3333333,113.68933,85.716)">
      <path
         id="path3"
         d="m 3.88925,-3.7274297 c -0.2695312,0.011719 -0.46875,0.234375 -0.46875,0.4453125 0,0.140625 0.082031,0.2929688 0.3046875,0.2929688 0.2226563,0 0.4570313,-0.1640625 0.4570313,-0.5625 0,-0.4453125 -0.4335938,-0.8554688 -1.1835938,-0.8554688 -1.3125,0 -1.6875,1.0195313 -1.6875,1.453125 0,0.7851563 0.7382813,0.9257813 1.03125,0.9960938 0.515625,0.09375 1.03125,0.1992187 1.03125,0.75 0,0.25781246 -0.2226562,1.10156246 -1.4179687,1.10156246 -0.140625,0 -0.9140625,0 -1.1367188,-0.52734375 0.375,0.046875 0.6210938,-0.2578125 0.6210938,-0.52734371 0,-0.234375 -0.1523438,-0.3515625 -0.3632813,-0.3515625 -0.2578125,0 -0.5625,0.2109375 -0.5625,0.65624996 0,0.5625 0.5742188,0.9609375 1.4296875,0.9609375 1.6054688,0 2.0039063,-1.20703126 2.0039063,-1.65234376 0,-0.3515625 -0.1992188,-0.609375 -0.3164063,-0.7265625 -0.2695312,-0.28125 -0.5507812,-0.328125 -0.9960937,-0.421875 -0.3515625,-0.070312 -0.75,-0.140625 -0.75,-0.5976562 0,-0.28125 0.234375,-0.890625 1.1132812,-0.890625 0.2460938,0 0.75,0.070312 0.890625,0.4570312 z m 0,0"
         style="fill:#404040;fill-opacity:1;fill-rule:nonzero;stroke:none" />
      <path
         id="path4"
         d="m 8.2662031,-0.73328906 c 0,-0.76171874 -0.09375,-1.31250004 -0.4101562,-1.80468754 -0.2226563,-0.3164062 -0.6445313,-0.5976562 -1.2070313,-0.5976562 -1.6171875,0 -1.6171875,1.8984375 -1.6171875,2.40234374 0,0.50390625 0,2.36718746 1.6171875,2.36718746 1.6171875,0 1.6171875,-1.86328121 1.6171875,-2.36718746 z M 6.6490156,1.4346797 c -0.3164062,0 -0.75,-0.1875 -0.890625,-0.76171876 -0.09375,-0.41015625 -0.09375,-0.984375 -0.09375,-1.5 0,-0.50390624 0,-1.03125004 0.1054688,-1.41796874 0.1523437,-0.5507813 0.5976562,-0.6914063 0.8789062,-0.6914063 0.375,0 0.7382813,0.2226563 0.8671875,0.6328125 0.1054688,0.375 0.1171875,0.8789063 0.1171875,1.47656254 0,0.515625 0,1.04296875 -0.09375,1.4765625 C 7.3990156,1.2823359 6.9302656,1.4346797 6.6490156,1.4346797 Z m 0,0"
         style="fill:#404040;fill-opacity:1;fill-rule:nonzero;stroke:none" />
    </g>
    <path
       id="path5"
       d="M 0.96096875,-6.9130547 V 0.00100781 H 3.57425 c 1.6992188,0 3.046875,-1.51171871 3.046875,-3.39843751 0,-1.9335937 -1.3359375,-3.515625 -3.0585937,-3.515625 z M 1.8164375,-0.56149219 V -6.3505547 H 3.339875 c 1.3945313,0 2.4257813,1.2070313 2.4257813,2.953125 0,1.6992188 -1.03125,2.83593751 -2.4257813,2.83593751 z M 11.320344,-2.1786797 c 0,-0.3398437 -0.01172,-1.0898437 -0.398438,-1.6875 -0.410156,-0.6210937 -1.019531,-0.7265625 -1.3710935,-0.7265625 -1.1132812,0 -2.0039062,1.0546875 -2.0039062,2.34375 0,1.31250001 0.9492187,2.35546876 2.1445312,2.35546876 0.6328125,0 1.1953125,-0.234375 1.5937505,-0.515625 l -0.07031,-0.64453126 c -0.621094,0.51562501 -1.2773437,0.55078126 -1.5117187,0.55078126 -0.796875,0 -1.4296875,-0.70312496 -1.4648438,-1.67578126 z M 8.2969063,-2.7294609 c 0.1523437,-0.7617188 0.6796875,-1.2539063 1.2539062,-1.2539063 0.5156255,0 1.0664065,0.3398438 1.1953125,1.2539063 z m 6.7470707,-1.546875 c -0.527344,-0.234375 -0.925782,-0.3164063 -1.441407,-0.3164063 -0.246093,0 -1.652343,0 -1.652343,1.3007813 0,0.4921875 0.292968,0.8085937 0.539062,0.9960937 0.304688,0.2226563 0.527344,0.2695313 1.078125,0.375 0.351563,0.070312 0.9375,0.1875 0.9375,0.7148438 0,0.69140621 -0.785156,0.69140621 -0.9375,0.69140621 -0.808594,0 -1.371094,-0.375 -1.546875,-0.49218751 l -0.117187,0.67968751 c 0.316406,0.1640625 0.867187,0.43359375 1.675781,0.43359375 0.175781,0 0.726562,0 1.148437,-0.31640625 0.316407,-0.234375 0.480469,-0.6328125 0.480469,-1.06640621 0,-0.5507813 -0.363281,-0.8789063 -0.386719,-0.9140625 -0.386718,-0.3515625 -0.65625,-0.4101563 -1.160156,-0.5039063 -0.539062,-0.1054687 -1.007812,-0.1992187 -1.007812,-0.6914062 0,-0.6210938 0.726562,-0.6210938 0.855468,-0.6210938 0.316407,0 0.84375,0.046875 1.40625,0.3867188 z m 2.027343,-2.4960938 h -0.890625 v 0.890625 h 0.890625 z m -0.07031,2.3554688 h -0.75 v 4.41796871 h 0.75 z m 4.324219,0.5273437 c 0.222656,0 0.503906,-0.046875 0.738281,-0.046875 0.175781,0 0.574219,0.035156 0.585937,0.035156 l -0.105468,-0.6328125 c -0.703125,0 -1.277344,0.1875 -1.570313,0.3164062 -0.210937,-0.1640625 -0.550781,-0.3164062 -0.949219,-0.3164062 -0.855468,0 -1.582031,0.7148437 -1.582031,1.6289062 0,0.3632813 0.128906,0.7265625 0.328125,0.984375 -0.292969,0.4101563 -0.292969,0.796875 -0.292969,0.84375 0,0.25781251 0.09375,0.55078126 0.257813,0.76171876 -0.515625,0.3046875 -0.632813,0.76171875 -0.632813,1.01953125 0,0.74999999 0.984375,1.34765629 2.203125,1.34765629 1.21875,0 2.203125,-0.5859375 2.203125,-1.34765629 0,-1.39453125 -1.664062,-1.39453125 -2.050781,-1.39453125 h -0.878906 c -0.128906,0 -0.574219,0 -0.574219,-0.52734376 0,-0.1054687 0.04687,-0.2695312 0.117188,-0.3515625 0.199218,0.140625 0.527343,0.28125 0.902343,0.28125 0.890625,0 1.59375,-0.7382812 1.59375,-1.6171875 0,-0.4804687 -0.222656,-0.84375 -0.328125,-0.9960937 z m -1.300782,2.0390625 c -0.375,0 -0.890625,-0.234375 -0.890625,-1.0546875 0,-0.8320312 0.515625,-1.0546875 0.890625,-1.0546875 0.421875,0 0.890625,0.2695313 0.890625,1.0546875 0,0.7734375 -0.46875,1.0546875 -0.890625,1.0546875 z m 0.445313,1.88671876 c 0.222656,0 1.347656,0 1.347656,0.6796875 0,0.44531254 -0.691406,0.77343754 -1.5,0.77343754 -0.808594,0 -1.523437,-0.3164063 -1.523437,-0.78515629 0,-0.0234375 0,-0.66796875 0.785156,-0.66796875 z m 6.667969,-2.99999996 c 0,-0.65625 -0.152344,-1.5703125 -1.371094,-1.5703125 -0.890625,0 -1.382813,0.6796875 -1.441406,0.7617187 V -4.4872734 H 23.610383 V 0.00100781 H 24.38382 V -2.4364922 c 0,-0.65625 0.246094,-1.4882812 1.007813,-1.4882812 0.960937,0 0.960937,0.703125 0.960937,1.03125 v 2.89453121 h 0.785157 z m 8.220703,-1.1953125 c -0.597657,-0.3398438 -0.9375,-0.4335938 -1.535157,-0.4335938 -1.394531,0 -2.191406,1.2070313 -2.191406,2.3789063 0,1.24218746 0.902344,2.32031246 2.144531,2.32031246 0.539063,0 1.089844,-0.140625 1.628907,-0.50390625 l -0.05859,-0.66796871 c -0.515625,0.39843746 -1.054688,0.53906246 -1.558594,0.53906246 -0.820312,0 -1.382812,-0.71484376 -1.382812,-1.69921876 0,-0.7734375 0.363281,-1.7226562 1.417968,-1.7226562 0.527344,0 0.867188,0.070312 1.40625,0.4335937 z m 1.895508,-2.7539063 h -0.75 v 6.91406251 h 0.75 z m 5.496093,4.7226563 c 0,-1.3359375 -0.996093,-2.4023438 -2.179687,-2.4023438 -1.230469,0 -2.191406,1.1015625 -2.191406,2.4023438 0,1.31249996 1.007812,2.29687496 2.179687,2.29687496 1.195313,0 2.191406,-1.0078125 2.191406,-2.29687496 z m -2.191406,1.66406246 c -0.691406,0 -1.40625,-0.56249996 -1.40625,-1.76953126 0,-1.1953125 0.75,-1.6875 1.40625,-1.6875 0.691406,0 1.40625,0.515625 1.40625,1.6875 0,1.1835938 -0.667969,1.76953126 -1.40625,1.76953126 z m 5.920898,-3.74999996 c -0.527343,-0.234375 -0.925781,-0.3164063 -1.441406,-0.3164063 -0.246094,0 -1.652344,0 -1.652344,1.3007813 0,0.4921875 0.292969,0.8085937 0.539063,0.9960937 0.304687,0.2226563 0.527344,0.2695313 1.078125,0.375 0.351562,0.070312 0.9375,0.1875 0.9375,0.7148438 0,0.69140621 -0.785156,0.69140621 -0.9375,0.69140621 -0.808594,0 -1.371094,-0.375 -1.546875,-0.49218751 L 43.3389,-0.32711719 c 0.316407,0.1640625 0.867188,0.43359375 1.675782,0.43359375 0.175781,0 0.726562,0 1.148437,-0.31640625 0.316406,-0.234375 0.480469,-0.6328125 0.480469,-1.06640621 0,-0.5507813 -0.363281,-0.8789063 -0.386719,-0.9140625 C 45.87015,-2.5419609 45.600619,-2.6005547 45.096713,-2.6943047 44.55765,-2.7997734 44.0889,-2.8935234 44.0889,-3.3857109 c 0,-0.6210938 0.726563,-0.6210938 0.855469,-0.6210938 0.316406,0 0.84375,0.046875 1.40625,0.3867188 z m 4.520508,2.0976562 c 0,-0.3398437 -0.01172,-1.0898437 -0.398437,-1.6875 -0.410156,-0.6210937 -1.019531,-0.7265625 -1.371094,-0.7265625 -1.113281,0 -2.003906,1.0546875 -2.003906,2.34375 0,1.31250001 0.949219,2.35546876 2.144531,2.35546876 0.632813,0 1.195313,-0.234375 1.59375,-0.515625 l -0.07031,-0.64453126 c -0.621094,0.51562501 -1.277344,0.55078126 -1.511719,0.55078126 -0.796875,0 -1.429688,-0.70312496 -1.464844,-1.67578126 z m -3.023437,-0.5507812 c 0.152344,-0.7617188 0.679687,-1.2539063 1.253906,-1.2539063 0.515625,0 1.066406,0.3398438 1.195313,1.2539063 z m 7.649414,-4.1835938 h -0.75 v 2.9296875 c -0.527344,-0.4335937 -1.078125,-0.5507812 -1.453125,-0.5507812 -0.984375,0 -1.757813,1.0429687 -1.757813,2.3203125 0,1.31249996 0.761719,2.32031246 1.710938,2.32031246 0.328125,0 0.914062,-0.08203125 1.476562,-0.62109375 v 0.515625 h 0.773438 z m -0.773438,5.53125 c 0,0.140625 -0.01172,0.3164063 -0.328125,0.60937501 -0.234375,0.19921875 -0.480468,0.26953125 -0.738281,0.26953125 -0.621094,0 -1.347656,-0.45703125 -1.347656,-1.69921876 0,-1.3125 0.855469,-1.7226562 1.441406,-1.7226562 0.445313,0 0.75,0.234375 0.972656,0.5507812 z m 9.600586,-0.8085937 c 0,-1.3359375 -0.996093,-2.4023438 -2.179687,-2.4023438 -1.230469,0 -2.191406,1.1015625 -2.191406,2.4023438 0,1.31249996 1.007812,2.29687496 2.179687,2.29687496 1.195313,0 2.191406,-1.0078125 2.191406,-2.29687496 z m -2.191406,1.66406246 c -0.691406,0 -1.40625,-0.56249996 -1.40625,-1.76953126 0,-1.1953125 0.75,-1.6875 1.40625,-1.6875 0.691406,0 1.40625,0.515625 1.40625,1.6875 0,1.1835938 -0.667969,1.76953126 -1.40625,1.76953126 z m 3.776367,-1.60546876 c 0,-0.9960937 0.726563,-1.7109375 1.699219,-1.734375 v -0.6679687 c -0.890625,0.011719 -1.429688,0.5039062 -1.746094,0.9609375 v -0.9140625 h -0.691406 v 4.48828121 h 0.738281 z m 3.404297,-4.78125 h -0.738281 v 6.91406251 h 0.773437 v -0.45703125 c 0.234375,0.22265625 0.667969,0.5625 1.335938,0.5625 0.996094,0 1.851562,-0.99609375 1.851562,-2.33203126 0,-1.2304687 -0.679687,-2.3085937 -1.617187,-2.3085937 -0.386719,0 -1.007813,0.1054687 -1.605469,0.5859375 z m 0.03516,3.5742188 c 0.164063,-0.234375 0.515625,-0.5859375 1.066407,-0.5859375 0.585937,0 1.347656,0.4335937 1.347656,1.6992187 0,1.30078126 -0.84375,1.72265626 -1.453125,1.72265626 -0.386719,0 -0.714844,-0.17578125 -0.960938,-0.63281246 z m 5.182618,-3.4335938 h -0.890625 v 0.890625 h 0.890625 z m -0.07031,2.3554688 h -0.75 v 4.41796871 h 0.75 z m 2.569336,0.5742187 h 1.40625 v -0.5742187 h -1.40625 v -1.265625 h -0.691406 v 1.265625 h -0.867188 v 0.5742187 h 0.84375 v 2.6601563 c 0,0.59765621 0.128906,1.28906246 0.820313,1.28906246 0.703125,0 1.207031,-0.24609375 1.453125,-0.375 l -0.152344,-0.5859375 c -0.257813,0.2109375 -0.585938,0.328125 -0.902344,0.328125 -0.363281,0 -0.503906,-0.3046875 -0.503906,-0.83203126 z m 0,0"
       style="fill:#000000;fill-opacity:1;fill-rule:nonzero;stroke:none"
       aria-label="Designclosedorbit"
       transform="matrix(1.3333333,0,0,1.3333333,67.109333,259.776)" />
    <path
       id="path6"
       d="M 3.6787969,-4.1833359 6.3389531,-6.9138047 H 5.4131719 l -3.609375,3.6914063 V -6.9138047 H 0.96004688 V 2.578125e-4 H 1.8037969 V -2.2614609 l 1.3242187,-1.359375 2.4375,3.6210937125 h 0.9140625 z m 4.8691406,-2.5898438 h -0.890625 v 0.890625 h 0.890625 z m -0.070312,2.3554688 h -0.75 V 2.578125e-4 h 0.75 z m 4.9101555,0.2578125 c -0.597656,-0.3398438 -0.9375,-0.4335938 -1.535156,-0.4335938 -1.394531,0 -2.1914057,1.2070313 -2.1914057,2.3789063 0,1.24218746 0.9023437,2.32031246 2.1445307,2.32031246 0.539063,0 1.089844,-0.140625 1.628906,-0.50390625 l -0.05859,-0.66796871 c -0.515625,0.39843746 -1.054688,0.53906246 -1.558594,0.53906246 -0.820313,0 -1.382813,-0.71484376 -1.382813,-1.69921876 0,-0.7734375 0.363282,-1.7226562 1.417969,-1.7226562 0.527344,0 0.867188,0.070312 1.40625,0.4335937 z m 3.137696,1.453125 1.675782,-1.7109375 h -0.902344 l -2.015625,2.0625 V -6.9138047 H 14.556727 V 2.578125e-4 h 0.691406 V -1.4059922 l 0.796875,-0.8203125 1.558594,2.2265625125 h 0.808593 z m 0,0"
       style="fill:#000000;fill-opacity:0;fill-rule:nonzero;stroke:none"
       aria-label="Kick"
       transform="matrix(1.3333333,0,0,1.3333333,107.384,13.652)" />
    <path
       id="path7"
       d="m 3.5053281,-2.8828906 c 1.2421875,0 2.296875,-0.9023438 2.296875,-2.015625 0,-1.0664063 -0.984375,-2.015625 -2.3671875,-2.015625 H 0.96235938 V -7.8125e-5 H 1.8412656 V -2.8828906 Z m -0.28125,-3.46875 c 1.0898438,0 1.7695313,0.609375 1.7695313,1.453125 0,0.7851562 -0.6328125,1.4414062 -1.7695313,1.4414062 h -1.40625 v -2.8945312 z m 6.9873049,4.171875 c 0,-0.3398438 -0.01172,-1.0898438 -0.3984377,-1.6875 -0.4101562,-0.6210938 -1.0195312,-0.7265625 -1.3710937,-0.7265625 -1.1132813,0 -2.0039063,1.0546875 -2.0039063,2.34375 0,1.31249998 0.9492188,2.35546873 2.1445313,2.35546873 0.6328125,0 1.1953125,-0.234375 1.5937504,-0.515625 l -0.07031,-0.64453123 c -0.6210937,0.51562498 -1.2773437,0.55078123 -1.5117187,0.55078123 -0.796875,0 -1.4296875,-0.70312503 -1.4648437,-1.67578123 z M 7.1879453,-2.7305469 c 0.1523438,-0.7617187 0.6796875,-1.2539062 1.2539063,-1.2539062 0.515625,0 1.0664062,0.3398437 1.1953125,1.2539062 z m 4.8837887,0.5976563 c 0,-0.9960938 0.726563,-1.7109375 1.699219,-1.734375 v -0.6679688 c -0.890625,0.011719 -1.429687,0.5039063 -1.746094,0.9609375 V -4.4883594 H 11.333453 V -7.8125e-5 h 0.738281 z m 3.591797,-1.7109375 h 1.40625 v -0.5742188 h -1.40625 v -1.265625 h -0.691406 v 1.265625 h -0.867187 v 0.5742188 h 0.84375 v 2.6601562 c 0,0.59765628 0.128906,1.28906253 0.820312,1.28906253 0.703125,0 1.207031,-0.24609375 1.453125,-0.375 l -0.152344,-0.5859375 c -0.257812,0.2109375 -0.585937,0.328125 -0.902343,0.328125 -0.363282,0 -0.503907,-0.3046875 -0.503907,-0.83203123 z m 6.1875,-0.5742188 h -0.785156 v 2.8828125 c 0,0.75000003 -0.550781,1.10156253 -1.195312,1.10156253 -0.703125,0 -0.773438,-0.26953125 -0.773438,-0.69140623 v -3.2929688 h -0.773437 v 3.328125 c 0,0.72656253 0.222656,1.19531253 1.054687,1.19531253 0.527344,0 1.230469,-0.15234375 1.722656,-0.5859375 V -7.8125e-5 h 0.75 z m 2.370117,2.2851563 c 0,-0.9960938 0.726563,-1.7109375 1.699219,-1.734375 v -0.6679688 c -0.890625,0.011719 -1.429687,0.5039063 -1.746094,0.9609375 V -4.4883594 H 23.482867 V -7.8125e-5 h 0.738281 z m 3.404297,-4.78125 H 26.887164 V -7.8125e-5 h 0.773438 V -0.45710937 c 0.234375,0.22265625 0.667968,0.5625 1.335937,0.5625 0.996094,0 1.851563,-0.99609375 1.851563,-2.33203123 0,-1.2304688 -0.679688,-2.3085938 -1.617188,-2.3085938 -0.386719,0 -1.007812,0.1054688 -1.605469,0.5859375 z m 0.03516,3.5742187 c 0.164062,-0.234375 0.515625,-0.5859375 1.066406,-0.5859375 0.585937,0 1.347656,0.4335938 1.347656,1.6992188 0,1.30078123 -0.84375,1.72265623 -1.453125,1.72265623 -0.386719,0 -0.714844,-0.17578125 -0.960937,-0.63281253 z m 7.957031,1.1601563 c 0,-0.3398438 -0.01172,-1.0898438 -0.398438,-1.6875 -0.410156,-0.6210938 -1.019531,-0.7265625 -1.371093,-0.7265625 -1.113282,0 -2.003907,1.0546875 -2.003907,2.34375 0,1.31249998 0.949219,2.35546873 2.144532,2.35546873 0.632812,0 1.195312,-0.234375 1.59375,-0.515625 L 35.51217,-1.0547656 c -0.621094,0.51562498 -1.277344,0.55078123 -1.511719,0.55078123 -0.796875,0 -1.429687,-0.70312503 -1.464843,-1.67578123 z m -3.023438,-0.5507813 c 0.152344,-0.7617187 0.679688,-1.2539062 1.253907,-1.2539062 0.515625,0 1.066406,0.3398437 1.195312,1.2539062 z m 7.652344,-4.1835937 h -0.75 v 2.9296875 c -0.527344,-0.4335938 -1.078125,-0.5507813 -1.453125,-0.5507813 -0.984375,0 -1.757812,1.0429688 -1.757812,2.3203125 0,1.31250003 0.761718,2.32031253 1.710937,2.32031253 0.328125,0 0.914063,-0.08203125 1.476563,-0.62109375 V -7.8125e-5 h 0.773437 z m -0.773437,5.53125 c 0,0.140625 -0.01172,0.3164062 -0.328125,0.60937498 -0.234375,0.19921875 -0.480469,0.26953125 -0.738282,0.26953125 -0.621093,0 -1.347656,-0.45703125 -1.347656,-1.69921873 0,-1.3125 0.855469,-1.7226563 1.441406,-1.7226563 0.445313,0 0.75,0.234375 0.972657,0.5507813 z m 9.002929,-2.7773438 c -0.597656,-0.3398437 -0.9375,-0.4335937 -1.535156,-0.4335937 -1.394531,0 -2.191406,1.2070312 -2.191406,2.3789062 0,1.24218753 0.902344,2.32031253 2.144531,2.32031253 0.539063,0 1.089844,-0.140625 1.628906,-0.50390625 l -0.05859,-0.66796878 c -0.515625,0.39843753 -1.054688,0.53906253 -1.558594,0.53906253 -0.820313,0 -1.382813,-0.71484373 -1.382813,-1.69921873 0,-0.7734375 0.363282,-1.7226563 1.417969,-1.7226563 0.527344,0 0.867188,0.070312 1.40625,0.4335938 z m 1.895508,-2.7539062 h -0.75 V -7.8125e-5 h 0.75 z m 5.499024,4.7226562 c 0,-1.3359375 -0.996094,-2.4023437 -2.179688,-2.4023437 -1.230469,0 -2.191406,1.1015625 -2.191406,2.4023437 0,1.31250003 1.007812,2.29687503 2.179687,2.29687503 1.195313,0 2.191407,-1.0078125 2.191407,-2.29687503 z m -2.191407,1.66406253 c -0.691406,0 -1.40625,-0.56250003 -1.40625,-1.76953123 0,-1.1953125 0.75,-1.6875 1.40625,-1.6875 0.691407,0 1.40625,0.515625 1.40625,1.6875 0,1.1835937 -0.667968,1.76953123 -1.40625,1.76953123 z m 5.917969,-3.75000003 c -0.527344,-0.234375 -0.925781,-0.3164062 -1.441406,-0.3164062 -0.246094,0 -1.652344,0 -1.652344,1.3007812 0,0.4921875 0.292969,0.8085938 0.539063,0.9960938 0.304687,0.2226562 0.527343,0.2695312 1.078125,0.375 0.351562,0.070312 0.9375,0.1875 0.9375,0.7148437 0,0.69140628 -0.785157,0.69140628 -0.9375,0.69140628 -0.808594,0 -1.371094,-0.375 -1.546875,-0.49218748 L 56.4565,-0.32820312 c 0.316406,0.1640625 0.867188,0.43359375 1.675781,0.43359375 0.175782,0 0.726563,0 1.148438,-0.31640625 0.316406,-0.234375 0.480469,-0.6328125 0.480469,-1.06640628 0,-0.5507812 -0.363282,-0.8789062 -0.386719,-0.9140625 C 58.98775,-2.5430469 58.718219,-2.6016406 58.214313,-2.6953906 57.67525,-2.8008594 57.2065,-2.8946094 57.2065,-3.3867969 c 0,-0.6210937 0.726563,-0.6210937 0.855469,-0.6210937 0.316406,0 0.84375,0.046875 1.40625,0.3867187 z m 4.520508,2.0976563 c 0,-0.3398438 -0.01172,-1.0898438 -0.398438,-1.6875 -0.410156,-0.6210938 -1.019531,-0.7265625 -1.371093,-0.7265625 -1.113282,0 -2.003907,1.0546875 -2.003907,2.34375 0,1.31249998 0.949219,2.35546873 2.144532,2.35546873 0.632812,0 1.195312,-0.234375 1.59375,-0.515625 L 64.01217,-1.0547656 c -0.621094,0.51562498 -1.277344,0.55078123 -1.511719,0.55078123 -0.796875,0 -1.429687,-0.70312503 -1.464843,-1.67578123 z m -3.023438,-0.5507813 c 0.152344,-0.7617187 0.679688,-1.2539062 1.253907,-1.2539062 0.515625,0 1.066406,0.3398437 1.195312,1.2539062 z m 7.652344,-4.1835937 h -0.75 v 2.9296875 c -0.527344,-0.4335938 -1.078125,-0.5507813 -1.453125,-0.5507813 -0.984375,0 -1.757812,1.0429688 -1.757812,2.3203125 0,1.31250003 0.761718,2.32031253 1.710937,2.32031253 0.328125,0 0.914063,-0.08203125 1.476563,-0.62109375 V -7.8125e-5 h 0.773437 z m -0.773437,5.53125 c 0,0.140625 -0.01172,0.3164062 -0.328125,0.60937498 -0.234375,0.19921875 -0.480469,0.26953125 -0.738282,0.26953125 -0.621093,0 -1.347656,-0.45703125 -1.347656,-1.69921873 0,-1.3125 0.855469,-1.7226563 1.441406,-1.7226563 0.445313,0 0.75,0.234375 0.972657,0.5507813 z m 9.597656,-0.8085938 c 0,-1.3359375 -0.996094,-2.4023437 -2.179688,-2.4023437 -1.230468,0 -2.191406,1.1015625 -2.191406,2.4023437 0,1.31250003 1.007813,2.29687503 2.179688,2.29687503 1.195312,0 2.191406,-1.0078125 2.191406,-2.29687503 z m -2.191406,1.66406253 c -0.691407,0 -1.40625,-0.56250003 -1.40625,-1.76953123 0,-1.1953125 0.75,-1.6875 1.40625,-1.6875 0.691406,0 1.40625,0.515625 1.40625,1.6875 0,1.1835937 -0.667969,1.76953123 -1.40625,1.76953123 z m 3.779296,-1.60546873 c 0,-0.9960938 0.726563,-1.7109375 1.699219,-1.734375 v -0.6679688 c -0.890625,0.011719 -1.429687,0.5039063 -1.746094,0.9609375 V -4.4883594 H 78.420367 V -7.8125e-5 h 0.738281 z m 3.404297,-4.78125 H 81.824664 V -7.8125e-5 h 0.773438 V -0.45710937 c 0.234375,0.22265625 0.667968,0.5625 1.335937,0.5625 0.996094,0 1.851563,-0.99609375 1.851563,-2.33203123 0,-1.2304688 -0.679688,-2.3085938 -1.617188,-2.3085938 -0.386719,0 -1.007812,0.1054688 -1.605469,0.5859375 z m 0.03516,3.5742187 c 0.164062,-0.234375 0.515625,-0.5859375 1.066406,-0.5859375 0.585937,0 1.347656,0.4335938 1.347656,1.6992188 0,1.30078123 -0.84375,1.72265623 -1.453125,1.72265623 -0.386719,0 -0.714844,-0.17578125 -0.960937,-0.63281253 z m 5.182617,-3.4335937 H 86.8901 v 0.890625 h 0.890625 z m -0.07031,2.3554687 h -0.75 V -7.8125e-5 h 0.75 z m 2.566407,0.5742188 h 1.40625 v -0.5742188 h -1.40625 v -1.265625 h -0.691407 v 1.265625 h -0.867187 v 0.5742188 h 0.84375 v 2.6601562 c 0,0.59765628 0.128906,1.28906253 0.820312,1.28906253 0.703125,0 1.207032,-0.24609375 1.453125,-0.375 l -0.152343,-0.5859375 c -0.257813,0.2109375 -0.585938,0.328125 -0.902344,0.328125 -0.363281,0 -0.503906,-0.3046875 -0.503906,-0.83203123 z m 0,0"
       style="fill:#000000;fill-opacity:0;fill-rule:nonzero;stroke:none"
       aria-label="Perturbedclosedorbit"
       transform="matrix(1.3333333,0,0,1.3333333,124.47467,315.72667)" />
  </g>
</svg>
